<?xml version="1.0" encoding="UTF-8"?>
<svg version="1.1" xmlns="http://www.w3.org/2000/svg" width="512" height="512">
<path d="M0 0 C0.94488785 -0.00705963 1.8897757 -0.01411926 2.86329651 -0.02139282 C41.91562467 -0.247035 41.91562467 -0.247035 58.76953125 3.203125 C59.7661377 3.39648438 60.76274414 3.58984375 61.78955078 3.7890625 C110.19101182 13.35276024 154.38512896 35.77050265 189.76953125 70.203125 C190.77330811 71.16822998 190.77330811 71.16822998 191.79736328 72.15283203 C200.73444332 80.76720099 209.13659789 89.47627109 216.49560547 99.48486328 C217.79203791 101.23348182 219.12241843 102.95141303 220.4609375 104.66796875 C228.32520366 114.8826848 234.71064045 125.84037758 240.76953125 137.203125 C241.43299561 138.44376709 241.43299561 138.44376709 242.10986328 139.70947266 C253.62657967 161.61261762 261.29758965 185.90372389 265.76953125 210.203125 C265.9303418 211.00379395 266.09115234 211.80446289 266.25683594 212.62939453 C271.74897535 240.70724953 271.50349817 274.19290435 265.76953125 302.203125 C265.57617188 303.19973145 265.3828125 304.19633789 265.18359375 305.22314453 C257.06481252 346.31194555 239.6953801 383.40611994 213.76953125 416.203125 C212.95742188 417.24082031 212.1453125 418.27851563 211.30859375 419.34765625 C198.63372356 434.92135321 184.07015514 449.45563789 167.76953125 461.203125 C166.68115764 462.01932333 165.59392981 462.8370516 164.5078125 463.65625 C133.30033827 486.90636708 96.98105174 502.17086575 58.76953125 509.203125 C57.9688623 509.36393555 57.16819336 509.52474609 56.34326172 509.69042969 C28.27626081 515.180446 -5.23231119 514.95256215 -33.23046875 509.203125 C-34.24302734 509.00444824 -35.25558594 508.80577148 -36.29882812 508.60107422 C-69.69196134 501.92344797 -103.47079609 489.30371699 -131.23046875 469.203125 C-131.83955078 468.76242676 -132.44863281 468.32172852 -133.07617188 467.86767578 C-137.85568683 464.39134384 -142.56479159 460.83065303 -147.23046875 457.203125 C-147.77251953 456.78256836 -148.31457031 456.36201172 -148.87304688 455.92871094 C-165.10894238 443.16601147 -180.1771982 427.97592947 -192.23046875 411.203125 C-193.09422145 410.03324044 -193.95882344 408.8639825 -194.82421875 407.6953125 C-209.96754617 387.0693007 -222.04968525 364.46015373 -230.23046875 340.203125 C-230.64353271 338.98061035 -230.64353271 338.98061035 -231.06494141 337.73339844 C-234.30302381 327.96254823 -236.83532348 318.08093763 -238.98046875 308.015625 C-239.17922607 307.09096436 -239.3779834 306.16630371 -239.58276367 305.21362305 C-242.87545902 289.00701323 -243.60577153 273.0727548 -243.54296875 256.578125 C-243.5408136 255.55988647 -243.53865845 254.54164795 -243.53643799 253.49255371 C-243.48673484 238.8683366 -243.17254863 224.57507862 -240.23046875 210.203125 C-239.94042969 208.70821533 -239.94042969 208.70821533 -239.64453125 207.18310547 C-232.01587656 168.57481372 -216.30304558 132.42145621 -192.23046875 101.203125 C-191.26560547 99.95015625 -191.26560547 99.95015625 -190.28125 98.671875 C-176.19691174 80.74132256 -159.85363505 63.45372011 -141.23046875 50.203125 C-140.61284668 49.75710937 -139.99522461 49.31109375 -139.35888672 48.8515625 C-99.20602152 19.97940435 -49.95191371 0.24935871 0 0 Z M-77.23046875 72.203125 C-119.45985197 114.87904248 -142.23046875 181.94380304 -142.23046875 241.203125 C-133.32046875 241.203125 -124.41046875 241.203125 -115.23046875 241.203125 C-114.36421875 237.3875 -113.49796875 233.571875 -112.60546875 229.640625 C-104.33698674 194.58959895 -85.11968411 166.30268572 -54.79296875 146.953125 C-37.96241436 137.00132198 -21.35506463 132.30125269 -2.23046875 128.203125 C-2.23046875 96.523125 -2.23046875 64.843125 -2.23046875 32.203125 C-30.84892706 32.203125 -57.73546616 53.16461696 -77.23046875 72.203125 Z M27.76953125 32.203125 C27.76953125 63.883125 27.76953125 95.563125 27.76953125 128.203125 C36.01953125 130.183125 44.26953125 132.163125 52.76953125 134.203125 C87.36308066 146.52052517 113.49040041 169.31368848 129.45703125 202.453125 C135.16249978 214.76913358 138.11917237 227.95133061 140.76953125 241.203125 C149.67953125 241.203125 158.58953125 241.203125 167.76953125 241.203125 C167.76953125 178.19470288 142.78629091 113.3571892 98.76953125 68.203125 C81.06135772 50.64938322 53.89064239 32.203125 27.76953125 32.203125 Z M-127.23046875 79.140625 C-127.81497803 79.64279541 -128.3994873 80.14496582 -129.00170898 80.66235352 C-130.75021734 82.16963889 -132.49140891 83.68495484 -134.23046875 85.203125 C-135.10832031 85.96625 -135.98617187 86.729375 -136.890625 87.515625 C-147.20542873 96.63961399 -156.8636103 106.24199713 -165.23046875 117.203125 C-165.72160156 117.84491699 -166.21273437 118.48670898 -166.71875 119.14794922 C-174.94453283 129.97806292 -182.04667163 141.09161652 -188.23046875 153.203125 C-188.76945801 154.25234131 -188.76945801 154.25234131 -189.31933594 155.32275391 C-202.41987519 181.13141995 -212.23046875 212.08086002 -212.23046875 241.203125 C-199.36046875 241.203125 -186.49046875 241.203125 -173.23046875 241.203125 C-172.67359375 235.469375 -172.11671875 229.735625 -171.54296875 223.828125 C-169.92294306 208.09092433 -167.8265619 192.62944887 -164.23046875 177.203125 C-163.98989746 176.16397949 -163.74932617 175.12483398 -163.50146484 174.05419922 C-155.88745523 141.97742948 -143.16649047 111.98635271 -125.49707031 84.19628906 C-123.38823582 80.87776077 -121.31165801 77.53903446 -119.23046875 74.203125 C-122.61728009 74.203125 -124.77305409 77.00796644 -127.23046875 79.140625 Z M144.76953125 74.203125 C145.135625 74.75355469 145.50171875 75.30398437 145.87890625 75.87109375 C178.97879437 126.7030648 193.56400165 181.202547 198.76953125 241.203125 C211.63953125 241.203125 224.50953125 241.203125 237.76953125 241.203125 C236.89800591 228.85109144 236.89800591 228.85109144 235.08203125 216.703125 C234.90687988 215.77226074 234.73172852 214.84139648 234.55126953 213.88232422 C228.58969957 183.32478516 217.06556418 153.57218052 198.76953125 128.203125 C198.08503906 127.24535156 197.40054688 126.28757813 196.6953125 125.30078125 C183.83846918 107.73514792 169.0080263 91.54446853 151.76953125 78.203125 C150.88523437 77.46449219 150.0009375 76.72585937 149.08984375 75.96484375 C146.98960447 74.00155525 146.98960447 74.00155525 144.76953125 74.203125 Z M-16.66796875 162.703125 C-17.84842773 163.10362061 -17.84842773 163.10362061 -19.05273438 163.51220703 C-31.01564072 167.73199934 -41.8213247 173.60837364 -51.23046875 182.203125 C-51.73819824 182.66315918 -52.24592773 183.12319336 -52.76904297 183.59716797 C-72.98137811 202.12964148 -83.55405329 226.0568602 -85.453125 253.41015625 C-85.93327387 270.00660627 -81.94294347 286.51621142 -74.23046875 301.203125 C-71.40296911 299.86871129 -68.93436307 298.36543149 -66.421875 296.5078125 C-65.31779297 295.69376953 -65.31779297 295.69376953 -64.19140625 294.86328125 C-63.39992187 294.27417969 -62.6084375 293.68507813 -61.79296875 293.078125 C-60.54193359 292.15193359 -60.54193359 292.15193359 -59.265625 291.20703125 C-52.16048237 285.93103992 -45.12416797 280.56631907 -38.09692383 275.18725586 C-31.35931082 270.03827213 -24.55795371 264.98222838 -17.70898438 259.98242188 C-16.30515042 258.9556248 -14.91330176 257.9121284 -13.53715515 256.84851074 C-11.23046875 255.203125 -11.23046875 255.203125 -8.8730011 254.06176758 C-5.88561765 252.39856966 -4.23236656 251.0028973 -2.23046875 248.203125 C-0.5294119 241.7941689 -1.18692612 234.83158541 -1.3515625 228.26953125 C-1.36836124 226.30658389 -1.38116644 224.34359865 -1.39015198 222.38059998 C-1.42441722 217.22900091 -1.51273514 212.07970778 -1.61248779 206.92901611 C-1.70477208 201.66718744 -1.74570594 196.40498385 -1.79101562 191.14257812 C-1.88736379 180.82841725 -2.04084481 170.51596331 -2.23046875 160.203125 C-7.61444278 160.15341577 -11.61377223 160.98109115 -16.66796875 162.703125 Z M27.76953125 160.203125 C27.35054387 171.43365476 27.03171567 182.66229799 26.83691216 193.89908028 C26.74335541 199.1186528 26.61676446 204.33284304 26.41162109 209.54931641 C24.14294791 232.8980799 24.14294791 232.8980799 31.52905273 253.89013672 C35.18973063 257.14178437 39.13234966 259.34538136 43.62255859 261.25787354 C46.39913524 262.48032187 48.60005779 264.1618691 50.9453125 266.0703125 C52.32266826 267.07504563 53.70153315 268.07771381 55.08203125 269.078125 C62.01712406 274.14683512 68.88112467 279.30083224 75.70703125 284.515625 C76.5902002 285.18964355 77.47336914 285.86366211 78.38330078 286.55810547 C81.53329807 288.96322314 84.68302878 291.36864364 87.82617188 293.78271484 C89.53342876 295.09354847 91.24462318 296.39903357 92.95703125 297.703125 C93.85808594 298.3940625 94.75914062 299.085 95.6875 299.796875 C97.62701878 301.38969605 97.62701878 301.38969605 99.76953125 301.203125 C111.31436158 278.01883458 114.20976241 251.86224089 106.55078125 226.98828125 C101.3126277 211.53525805 93.26728379 198.68366533 81.76953125 187.203125 C81.1146875 186.47738281 80.45984375 185.75164062 79.78515625 185.00390625 C68.2100202 172.41470913 50.23346674 163.88100809 33.76953125 160.203125 C31.76970095 160.17707157 29.76931378 160.17363224 27.76953125 160.203125 Z M-212.23046875 271.203125 C-211.35574301 283.58450819 -211.35574301 283.58450819 -209.54296875 295.765625 C-209.37071777 296.6932666 -209.1984668 297.6209082 -209.02099609 298.57666016 C-203.09258507 329.14906746 -191.23339421 358.73859668 -173.23046875 384.203125 C-172.48152344 385.2653125 -171.73257813 386.3275 -170.9609375 387.421875 C-157.90419738 405.30137499 -140.01855484 429.04827444 -119.23046875 438.203125 C-119.5965625 437.65269531 -119.96265625 437.10226562 -120.33984375 436.53515625 C-153.43973187 385.7031852 -168.02493915 331.203703 -173.23046875 271.203125 C-186.10046875 271.203125 -198.97046875 271.203125 -212.23046875 271.203125 Z M-142.23046875 271.203125 C-142.23046875 327.53207246 -121.8059172 389.59179171 -84.23046875 432.203125 C-83.80411133 432.68974609 -83.37775391 433.17636719 -82.93847656 433.67773438 C-63.3858096 455.89091541 -37.25279654 475.5938167 -7.23046875 480.203125 C-5.58046875 480.203125 -3.93046875 480.203125 -2.23046875 480.203125 C-2.23046875 448.523125 -2.23046875 416.843125 -2.23046875 384.203125 C-10.48046875 382.223125 -18.73046875 380.243125 -27.23046875 378.203125 C-62.51570718 365.02996932 -88.8330991 342.51581166 -104.7890625 308.07275391 C-109.97405328 296.31950802 -112.72123166 283.74931046 -115.23046875 271.203125 C-124.14046875 271.203125 -133.05046875 271.203125 -142.23046875 271.203125 Z M140.76953125 271.203125 C139.90328125 275.01875 139.03703125 278.834375 138.14453125 282.765625 C129.87604924 317.81665105 110.65874661 346.10356428 80.33203125 365.453125 C63.50147686 375.40492802 46.89412713 380.10499731 27.76953125 384.203125 C27.76953125 415.883125 27.76953125 447.563125 27.76953125 480.203125 C34.63442283 479.51663584 40.06847266 478.83514645 46.39453125 476.640625 C47.1637793 476.37668945 47.93302734 476.11275391 48.72558594 475.84082031 C93.54830439 459.93123826 123.38225489 420.8646324 143.29492188 379.33422852 C156.13264219 351.55298763 163.24385414 321.51552026 166.76953125 291.203125 C166.90101563 290.07390625 167.0325 288.9446875 167.16796875 287.78125 C167.74118726 282.17300407 167.76953125 276.9121212 167.76953125 271.203125 C158.85953125 271.203125 149.94953125 271.203125 140.76953125 271.203125 Z M198.76953125 271.203125 C198.21265625 276.936875 197.65578125 282.670625 197.08203125 288.578125 C195.46200556 304.31532567 193.3656244 319.77680113 189.76953125 335.203125 C189.52895996 336.24227051 189.28838867 337.28141602 189.04052734 338.35205078 C181.42651773 370.42882052 168.70555297 400.41989729 151.03613281 428.20996094 C148.92729832 431.52848923 146.85072051 434.86721554 144.76953125 438.203125 C182.3455915 420.02004977 211.76935174 370.93071007 225.1530304 332.984375 C229.7852741 319.61785885 233.70511715 306.22445251 235.76953125 292.203125 C235.88232422 291.44241699 235.99511719 290.68170898 236.11132812 289.89794922 C237.01030331 283.65432722 237.76953125 277.52366329 237.76953125 271.203125 C224.89953125 271.203125 212.02953125 271.203125 198.76953125 271.203125 Z M-7.25390625 290.2109375 C-8.10098145 290.86126953 -8.94805664 291.51160156 -9.82080078 292.18164062 C-10.73974121 292.88998047 -11.65868164 293.59832031 -12.60546875 294.328125 C-26.31888591 304.84041396 -40.23221235 315.07404958 -54.23046875 325.203125 C-49.74197759 335.99460374 -34.43225775 342.60933028 -24.12890625 347.00390625 C-22.74941543 347.55782438 -21.36663484 348.10362986 -19.98046875 348.640625 C-19.35575684 348.8876416 -18.73104492 349.1346582 -18.08740234 349.38916016 C-12.56982653 351.40771527 -8.45993158 351.58017872 -2.23046875 352.203125 C-2.23046875 330.753125 -2.23046875 309.303125 -2.23046875 287.203125 C-4.17020642 287.203125 -5.79360455 289.08472235 -7.25390625 290.2109375 Z M27.76953125 287.203125 C27.76953125 308.653125 27.76953125 330.103125 27.76953125 352.203125 C46.47420761 350.33265736 67.03575828 341.68166975 79.76953125 327.203125 C79.76953125 326.543125 79.76953125 325.883125 79.76953125 325.203125 C78.30778799 323.85441174 78.30778799 323.85441174 76.3515625 322.5078125 C75.60197266 321.96463379 74.85238281 321.42145508 74.08007812 320.86181641 C73.25572266 320.27319824 72.43136719 319.68458008 71.58203125 319.078125 C69.83735723 317.81413325 68.09391285 316.5484429 66.3515625 315.28125 C65.43713379 314.61673828 64.52270508 313.95222656 63.58056641 313.26757812 C58.92853463 309.85107815 54.35033001 306.3392306 49.76953125 302.828125 C39.36787013 293.22729386 39.36787013 293.22729386 27.76953125 287.203125 Z " fill="#000000" transform="translate(243.23046875,-0.203125)"/>
</svg>
