<?xml version="1.0" encoding="UTF-8"?>
<svg version="1.1" xmlns="http://www.w3.org/2000/svg" width="512" height="512">
<path d="M0 0 C8.99636953 6.23493564 15.25546562 13.99932494 17.8359375 24.71484375 C18.94723215 31.48633249 19.01933175 38.17484332 19.0234375 45.02734375 C19.03568359 46.09146484 19.04792969 47.15558594 19.06054688 48.25195312 C19.07652893 56.98348431 18.62983442 65.93392001 14.7109375 73.90234375 C14.35773438 74.63839844 14.00453125 75.37445313 13.640625 76.1328125 C13.37507813 76.65488281 13.10953125 77.17695313 12.8359375 77.71484375 C13.88910156 78.06675781 14.94226563 78.41867187 16.02734375 78.78125 C23.44060411 81.30542879 30.5734555 83.96924595 37.5859375 87.46484375 C44.13444228 90.58853115 50.44463959 93.574297 57.8359375 92.71484375 C63.10832707 90.64593139 71.24680602 86.8931067 73.8359375 81.71484375 C72.8459375 81.38484375 71.8559375 81.05484375 70.8359375 80.71484375 C69.30078125 78.7109375 69.30078125 78.7109375 67.7734375 76.15234375 C67.26683594 75.32605469 66.76023437 74.49976563 66.23828125 73.6484375 C63.25702437 67.41188062 62.52138362 61.2878141 62.5 54.48046875 C62.4900148 53.34155182 62.4900148 53.34155182 62.47982788 52.17962646 C62.46977082 50.58299148 62.46500869 48.98631506 62.46533203 47.38964844 C62.46097276 44.98429778 62.4246203 42.58080683 62.38671875 40.17578125 C62.28842257 26.85952915 64.20274421 15.6341715 73.8359375 5.71484375 C82.83911532 -2.86285308 92.32054248 -5.90726838 104.55859375 -5.75805664 C115.35549109 -5.3126122 125.24163869 -1.05670017 132.80859375 6.75 C141.82290486 17.60162293 143.05786477 28.84268619 143.13110352 42.47705078 C143.14254932 43.95468783 143.16288211 45.432286 143.19262695 46.90966797 C143.393096 56.89280261 142.68238261 65.34041545 138.8359375 74.71484375 C138.5059375 75.04484375 138.1759375 75.37484375 137.8359375 75.71484375 C139.04830078 76.26011719 139.04830078 76.26011719 140.28515625 76.81640625 C148.29397001 80.58412322 152.53180429 83.18886779 156.5859375 91.15234375 C157.8359375 94.71484375 157.8359375 94.71484375 158.2109375 98.27734375 C159.02805528 102.77149154 160.80338093 104.37125574 163.8359375 107.71484375 C163.8359375 108.37484375 163.8359375 109.03484375 163.8359375 109.71484375 C164.4959375 109.71484375 165.1559375 109.71484375 165.8359375 109.71484375 C166.24948486 108.82998291 166.24948486 108.82998291 166.67138672 107.92724609 C170.13778269 101.34182045 175.59962831 97.09420634 181.7109375 93.08984375 C182.37996094 92.63867188 183.04898438 92.1875 183.73828125 91.72265625 C188.37213333 88.61556468 193.09005074 85.64719725 197.8359375 82.71484375 C197.37703125 82.28816406 196.918125 81.86148438 196.4453125 81.421875 C187.69554366 72.50666936 186.275147 61.42628709 186.33789062 49.37890625 C186.34828369 48.67282227 186.35867676 47.96673828 186.36938477 47.23925781 C186.39850962 45.08450799 186.38990774 42.93220954 186.37695312 40.77734375 C186.39620246 27.54821242 188.58164556 15.87592218 197.6171875 5.7109375 C207.33527511 -3.50929727 218.58830112 -5.79026505 231.49609375 -5.55859375 C242.33937023 -5.08418573 250.40578249 0.12339701 257.80859375 7.74609375 C266.56510898 18.0085065 267.47372346 29.54678077 267.30249023 42.45166016 C267.27339332 44.84347517 267.28195158 47.23308132 267.29492188 49.625 C267.28192017 59.7957653 266.7982182 69.24181913 260.7734375 77.83984375 C260.01353516 78.95746094 260.01353516 78.95746094 259.23828125 80.09765625 C258.77550781 80.63132812 258.31273437 81.165 257.8359375 81.71484375 C257.1759375 81.71484375 256.5159375 81.71484375 255.8359375 81.71484375 C258.33775701 84.37157616 261.03859372 86.11735854 264.1809082 87.97631836 C272.73278736 93.03800112 279.79857361 98.70082103 286.8359375 105.71484375 C287.73892578 106.61396484 287.73892578 106.61396484 288.66015625 107.53125 C289.24216797 108.11712891 289.24216797 108.11712891 289.8359375 108.71484375 C290.2484375 108.21855469 290.6609375 107.72226562 291.0859375 107.2109375 C299.95171601 96.78177394 310.32342867 89.93172812 321.8359375 82.71484375 C321.22649292 82.04279907 321.22649292 82.04279907 320.60473633 81.35717773 C317.62876411 77.99741112 315.12858061 75.02708388 313.5234375 70.77734375 C313.21792969 70.00519531 312.91242188 69.23304688 312.59765625 68.4375 C310.49383391 60.91768372 310.6530992 53.21259253 310.6484375 45.46484375 C310.63619141 44.40910156 310.62394531 43.35335937 310.61132812 42.265625 C310.58601567 28.47877588 312.28406135 16.39783526 321.8984375 5.96484375 C331.77223332 -3.37881538 342.40169617 -5.78788629 355.4921875 -5.5625 C366.7066246 -5.07417637 375.10182632 0.55169137 382.5859375 8.52734375 C389.09050019 16.26450622 390.98302313 24.39562195 391.07421875 34.28515625 C391.0822905 35.12142548 391.09036224 35.9576947 391.09867859 36.81930542 C391.11249244 38.58947698 391.12322664 40.35967488 391.13110352 42.12988281 C391.14259131 43.9258616 391.16299215 45.72180711 391.19262695 47.51757812 C391.38850503 59.39720045 391.46872508 69.66551354 383.5859375 79.33984375 C383.06515625 79.99210937 382.544375 80.644375 382.0078125 81.31640625 C381.42773438 82.00863281 381.42773438 82.00863281 380.8359375 82.71484375 C381.33480469 83.04355469 381.83367187 83.37226563 382.34765625 83.7109375 C383.90294042 84.74127836 385.45463194 85.77705057 387.00390625 86.81640625 C388.99991616 88.15442117 391.00323907 89.48155843 393.01171875 90.80078125 C407.13991784 100.18476326 416.05226124 110.15249293 420.8359375 126.71484375 C421.13671875 129.1640625 421.13671875 129.1640625 421.1484375 131.40234375 C421.16519531 132.14871094 421.18195313 132.89507812 421.19921875 133.6640625 C420.73046477 136.3102543 420.01509994 137.16382126 417.8359375 138.71484375 C415.6796875 139.11328125 415.6796875 139.11328125 413.3359375 139.08984375 C412.5625 139.09757813 411.7890625 139.1053125 410.9921875 139.11328125 C408.17941933 138.59353061 407.4974074 138.0549422 405.8359375 135.71484375 C404.87008032 133.17911252 403.99398868 130.66397897 403.1484375 128.08984375 C398.25632455 114.42729585 388.84388225 107.99909725 376.8359375 100.71484375 C376.22395508 100.33956543 375.61197266 99.96428711 374.98144531 99.57763672 C366.94686124 94.47087639 366.94686124 94.47087639 357.8359375 94.71484375 C355.69156487 94.80430224 353.54466914 94.84499677 351.3984375 94.83984375 C349.79162109 94.84371094 349.79162109 94.84371094 348.15234375 94.84765625 C344.8359375 94.71484375 344.8359375 94.71484375 341.59375 93.84765625 C335.78644038 93.6424083 331.98135313 96.46259675 327.1484375 99.46484375 C326.17398682 100.05958496 325.19953613 100.65432617 324.19555664 101.26708984 C312.5579484 108.53804948 303.5952078 115.39672109 298.8359375 128.71484375 C298.12225347 130.4297029 297.39406431 132.13863022 296.6484375 133.83984375 C296.19404297 134.92652344 296.19404297 134.92652344 295.73046875 136.03515625 C294.8359375 137.71484375 294.8359375 137.71484375 292.8359375 138.71484375 C285.69393154 139.40600562 285.69393154 139.40600562 282.5859375 136.90234375 C281.03313608 134.07402689 280.00821693 131.50025119 278.9609375 128.46484375 C273.65922686 113.36913331 262.11777739 106.50340934 248.9609375 98.58984375 C248.15245361 98.09178223 247.34396973 97.5937207 246.51098633 97.08056641 C241.91431474 94.34148103 241.91431474 94.34148103 236.703125 93.90234375 C235.28386719 94.30453125 235.28386719 94.30453125 233.8359375 94.71484375 C231.50397207 94.80494241 229.16963722 94.84496151 226.8359375 94.83984375 C225.6603125 94.84242188 224.4846875 94.845 223.2734375 94.84765625 C219.8359375 94.71484375 219.8359375 94.71484375 216.8125 93.9921875 C212.67626442 93.60679022 210.73016991 95.01248864 207.2109375 97.15234375 C206.60701172 97.51561768 206.00308594 97.8788916 205.38085938 98.25317383 C203.5179375 99.38531339 201.67485465 100.54417508 199.8359375 101.71484375 C198.72476562 102.42125 197.61359375 103.12765625 196.46875 103.85546875 C193.55377287 105.7600174 190.68588829 107.71464893 187.8359375 109.71484375 C187.21976563 110.13121094 186.60359375 110.54757812 185.96875 110.9765625 C179.74105886 115.57472824 176.20611272 122.78858092 174.2109375 130.08984375 C172.42488298 136.58087617 172.42488298 136.58087617 168.8359375 138.71484375 C164.9212947 139.47355802 161.94311076 139.40308659 158.5234375 137.27734375 C155.63387527 132.88948999 153.8359375 127.98930462 153.8359375 122.71484375 C153.34867188 123.14796875 152.86140625 123.58109375 152.359375 124.02734375 C146.47897313 128.64613213 141.64998414 129.64999165 134.21484375 129.2890625 C128.14444219 128.25744513 124.2571756 125.67922446 120.390625 120.9453125 C116.09075676 114.08986219 110.8359375 101.85033377 110.8359375 93.71484375 C109.8459375 94.20984375 109.8459375 94.20984375 108.8359375 94.71484375 C106.75448146 94.81259169 104.66968203 94.84460116 102.5859375 94.83984375 C101.46703125 94.84242188 100.348125 94.845 99.1953125 94.84765625 C95.8359375 94.71484375 95.8359375 94.71484375 92.8828125 93.96875 C88.60798157 93.61251409 85.87275469 95.38299132 82.3359375 97.52734375 C81.64322754 97.93460693 80.95051758 98.34187012 80.23681641 98.76147461 C67.14947435 106.58734137 56.19571473 113.57540308 50.70703125 128.37890625 C49.25279519 132.27860653 47.79092792 135.75985333 44.8359375 138.71484375 C36.47229546 139.59522712 29.67915485 136.41955568 22.8359375 131.71484375 C21.29006874 128.62310623 21.54234229 126.12054823 21.8359375 122.71484375 C23.2109375 120.27734375 23.2109375 120.27734375 25.8359375 118.71484375 C29.19654434 118.39353181 32.47155984 118.4837033 35.8359375 118.71484375 C36.18527344 118.00457031 36.53460938 117.29429687 36.89453125 116.5625 C37.34957031 115.64339844 37.80460937 114.72429687 38.2734375 113.77734375 C38.72589844 112.86082031 39.17835938 111.94429688 39.64453125 111 C40.8359375 108.71484375 40.8359375 108.71484375 41.8359375 107.71484375 C16.16672227 94.72819213 16.16672227 94.72819213 -11.3515625 93.71484375 C-17.62422143 95.36013134 -24.76396467 95.61056845 -31.0703125 93.94921875 C-36.19417808 93.56104712 -39.85732407 96.44275858 -44.15429688 98.99804688 C-47.99192485 101.1210683 -49.54396439 101.80539181 -54.04296875 101.1484375 C-57.1640625 99.71484375 -57.1640625 99.71484375 -59.1640625 96.71484375 C-59.83376637 90.57589159 -59.83376637 90.57589159 -57.4140625 87.46484375 C-55.34760101 85.85759593 -53.26043546 84.28271933 -51.1640625 82.71484375 C-51.63457031 82.16957031 -52.10507812 81.62429688 -52.58984375 81.0625 C-53.21246094 80.30839844 -53.83507813 79.55429687 -54.4765625 78.77734375 C-55.39888672 77.68099609 -55.39888672 77.68099609 -56.33984375 76.5625 C-60.50873983 70.05473717 -61.62659738 63.30337112 -61.59765625 55.69140625 C-61.6028981 54.86458344 -61.60813995 54.03776062 -61.61354065 53.18588257 C-61.61991714 51.4497794 -61.61868112 49.71363277 -61.61010742 47.97753906 C-61.6016042 45.35271537 -61.63040763 42.73007805 -61.66210938 40.10546875 C-61.72187283 25.91442516 -59.46046341 15.27434405 -49.31640625 4.80859375 C-36.07170266 -7.61983587 -15.50664035 -9.2088171 0 0 Z M-41.71875 20.6171875 C-44.97489519 25.34299822 -45.48192303 29.73232435 -45.5 35.359375 C-45.5066568 36.0879924 -45.5133136 36.8166098 -45.52017212 37.56730652 C-45.53026432 39.10449717 -45.5349902 40.64173133 -45.53466797 42.17895508 C-45.53903009 44.51002687 -45.57535107 46.83918592 -45.61328125 49.16992188 C-45.73674957 60.05192771 -45.73674957 60.05192771 -41.1640625 69.71484375 C-38.85475563 72.00338918 -38.85475563 72.00338918 -36.2265625 73.58984375 C-35.39253906 74.14414062 -34.55851562 74.6984375 -33.69921875 75.26953125 C-28.15029963 78.43301365 -23.50461732 79.68954077 -17.1640625 78.71484375 C-10.07948944 76.19468264 -2.50732497 71.97532096 1.2109375 65.21484375 C2.91434726 58.40120472 3.01918144 51.8282873 3.0234375 44.83984375 C3.04180664 43.26396484 3.04180664 43.26396484 3.06054688 41.65625 C3.0768612 32.96615099 2.48010555 25.73191754 -3.1640625 18.71484375 C-8.75653078 13.14900627 -13.4006337 10.43656146 -21.4765625 10.33984375 C-30.93433005 10.53177139 -35.66300266 13.53337142 -41.71875 20.6171875 Z M83.8984375 18.58984375 C79.97364888 24.53649318 78.45665291 29.02381164 78.4375 36.15234375 C78.43462982 36.83611084 78.43175964 37.51987793 78.42880249 38.22436523 C78.4267751 39.65967647 78.43221155 41.09501618 78.44482422 42.53027344 C78.46089898 44.70962126 78.4449323 46.88711513 78.42578125 49.06640625 C78.42776392 50.47005612 78.43160809 51.87370485 78.4375 53.27734375 C78.44088379 54.53675781 78.44426758 55.79617188 78.44775391 57.09375 C79.21035305 64.20750499 82.09644719 68.66638459 87.59375 73.13671875 C92.64164289 76.6895911 98.2450453 79.59575231 104.59765625 79.2265625 C112.10356714 77.51055146 118.91073423 73.60418598 123.75 67.62109375 C127.4909393 61.05426506 127.20831457 54.28159963 127.20654297 46.93920898 C127.2109046 44.91759193 127.24724741 42.89818335 127.28515625 40.87695312 C127.30791218 33.24234009 126.79677905 27.32603789 122.8359375 20.71484375 C122.2996875 19.80734375 121.7634375 18.89984375 121.2109375 17.96484375 C115.93908283 12.97045511 110.10257143 10.41759141 102.8359375 10.08984375 C95.46638321 10.43129028 88.90529022 13.04654253 83.8984375 18.58984375 Z M207.3359375 19.65234375 C202.32236255 26.75005015 202.49304994 34.1655952 202.52026367 42.54541016 C202.52341864 44.57769701 202.49994307 46.60851808 202.47460938 48.640625 C202.43898802 60.01060544 202.43898802 60.01060544 207.5625 69.88671875 C213.57763066 74.88695082 220.38236247 79.69144716 228.59765625 79.23046875 C236.50727027 77.40835871 243.81772559 73.05363774 248.8359375 66.71484375 C251.46240829 60.33016622 251.2438503 53.92270921 251.26147461 47.13964844 C251.27333292 44.98385606 251.32254239 42.8309678 251.37304688 40.67578125 C251.47805296 31.72330111 250.58153538 24.10887776 244.42797852 17.11450195 C238.25332457 11.48651399 232.01570675 10.06488823 223.90234375 10.30859375 C216.96893043 11.22716061 211.68236678 14.18256198 207.3359375 19.65234375 Z M331.28125 20.71484375 C326.06266606 27.93623558 326.65368093 35.95434198 326.6484375 44.52734375 C326.63619141 45.56955078 326.62394531 46.61175781 326.61132812 47.68554688 C326.51946646 59.87791798 326.51946646 59.87791798 332.140625 70.30078125 C338.41186618 75.53163219 345.05932627 79.15641342 353.296875 79.0625 C360.31573388 78.10145625 366.96250521 73.70714024 371.8359375 68.71484375 C374.4215235 63.68939846 375.29392028 59.54500968 375.26953125 53.875 C375.2747731 53.14921249 375.28001495 52.42342499 375.28541565 51.67564392 C375.29179925 50.15039338 375.29054665 48.62509337 375.28198242 47.09985352 C375.2734707 44.78636684 375.30228264 42.47535304 375.33398438 40.16210938 C375.37817477 31.18412395 375.05312483 24.52730007 368.87109375 17.47265625 C367.89462891 16.66441406 367.89462891 16.66441406 366.8984375 15.83984375 C366.25003906 15.28554688 365.60164063 14.73125 364.93359375 14.16015625 C353.02116882 5.95234019 339.77086484 10.60627911 331.28125 20.71484375 Z M126.8359375 90.71484375 C129.29720253 101.61879073 129.29720253 101.61879073 133.8359375 111.71484375 C136.94689387 113.01595193 136.94689387 113.01595193 139.8359375 112.71484375 C142.71811335 108.21864943 143.29793329 104.98147263 142.45703125 99.83203125 C141.39764191 96.22077952 139.94017141 94.80545026 136.8359375 92.71484375 C133.53205888 91.75500134 130.24502307 91.15835585 126.8359375 90.71484375 Z " fill="#000000" transform="translate(91.1640625,373.28515625)"/>
<path d="M0 0 C1.88527177 2.9767449 2.12721156 5.37827038 2.1875 8.875 C0.64575195 11.52636719 0.64575195 11.52636719 -1.8125 13.875 C-5.15161133 14.73925781 -5.15161133 14.73925781 -9.08203125 15.078125 C-9.78761673 15.14662659 -10.49320221 15.21512817 -11.22016907 15.28570557 C-12.69252292 15.42805251 -14.16576415 15.56148459 -15.63970947 15.6862793 C-18.95813488 15.97450569 -22.26477692 16.35808155 -25.57421875 16.734375 C-27.50696655 16.94852051 -27.50696655 16.94852051 -29.47875977 17.16699219 C-64.65154872 21.13484389 -105.00785453 26.58241146 -131.8125 51.875 C-132.77349609 52.75671875 -132.77349609 52.75671875 -133.75390625 53.65625 C-154.80976419 75.13605138 -154.34280964 110.49457091 -154.20361328 138.29760742 C-154.1865051 141.74857132 -154.19670206 145.19884178 -154.21393585 148.64978218 C-154.33683011 177.66957219 -153.3636117 209.1727031 -132.34423828 231.62670898 C-120.16890064 243.84895328 -103.30125258 250.90907009 -86.95703125 255.5390625 C-83.23136995 257.12189004 -81.79908615 258.35534116 -79.8125 261.875 C-79.52159491 266.99870866 -80.17352609 271.80426645 -81.125 276.8203125 C-81.25817627 277.55321503 -81.39135254 278.28611755 -81.52856445 279.04122925 C-81.95075099 281.36192581 -82.38086419 283.68104383 -82.8125 286 C-83.24350923 288.32619634 -83.67263488 290.65267312 -84.09643555 292.98019409 C-84.35917469 294.42233873 -84.62605329 295.86373735 -84.89770508 297.30422974 C-85.54963206 300.87381415 -85.95989995 304.24527617 -85.8125 307.875 C-85.27882813 307.15957031 -84.74515625 306.44414062 -84.1953125 305.70703125 C-79.30314742 299.16439525 -74.36498079 292.66061268 -69.37109375 286.1953125 C-67.60326518 283.90593019 -65.84694637 281.60826396 -64.09765625 279.3046875 C-63.65220459 278.72001709 -63.20675293 278.13534668 -62.74780273 277.53295898 C-61.50979588 275.90742623 -60.27434918 274.2799446 -59.0390625 272.65234375 C-54.13644366 266.53697183 -54.13644366 266.53697183 -50.8125 264.875 C-48.88656718 264.92812538 -46.96250282 265.05704081 -45.04296875 265.22265625 C-43.28218994 265.37371826 -43.28218994 265.37371826 -41.48583984 265.52783203 C-35.69353627 266.07526362 -29.90922497 266.68607118 -24.125 267.3125 C-13.075355 268.49554396 -2.02934264 269.46114352 9.06323242 270.14038086 C10.07490479 270.20878174 11.08657715 270.27718262 12.12890625 270.34765625 C13.01263916 270.40187744 13.89637207 270.45609863 14.80688477 270.51196289 C17.38366269 270.90491426 19.02444295 271.41962959 21.1875 272.875 C23.50077534 276.18696229 23.73416404 279.77947193 24.22265625 283.72265625 C24.30623886 284.37576279 24.38982147 285.02886932 24.47593689 285.70176697 C24.74084199 287.77954503 24.99597724 289.85836584 25.25 291.9375 C25.50907688 294.01997774 25.77025384 296.10215138 26.03477478 298.1839447 C26.27374347 300.07007744 26.50629586 301.9570198 26.73852539 303.84399414 C27.10323618 306.91188429 27.10323618 306.91188429 28.1875 309.875 C28.89096558 308.35362427 28.89096558 308.35362427 29.60864258 306.80151367 C31.35201298 303.03571718 33.10401622 299.27399116 34.85864258 295.51342773 C35.61653564 293.88594357 36.37208992 292.25736813 37.12524414 290.62768555 C38.20885518 288.28402844 39.30084446 285.94443766 40.39453125 283.60546875 C40.89627617 282.51313179 40.89627617 282.51313179 41.40815735 281.39872742 C42.98778959 278.04075096 44.35720465 275.29493668 47.1875 272.875 C50.6100439 271.73415203 53.26431523 271.7340427 56.87451172 271.71386719 C57.88724655 271.70641983 57.88724655 271.70641983 58.92044067 271.69882202 C61.15270001 271.68422402 63.38488829 271.67740254 65.6171875 271.671875 C67.17033897 271.6661218 68.72349041 271.66036409 70.27664185 271.65460205 C73.53322683 271.64409893 76.78978718 271.63825169 80.04638672 271.63476562 C84.2149607 271.62928093 88.38320805 271.60525077 92.55167961 271.57679367 C95.76019232 271.55815111 98.96862658 271.55296085 102.17718887 271.55142975 C103.71375439 271.54840656 105.25031864 271.54038927 106.7868309 271.52724457 C108.93870513 271.51014888 111.08978423 271.51207234 113.24169922 271.51855469 C114.46509003 271.51490906 115.68848083 271.51126343 116.94894409 271.50750732 C120.51333683 271.91197409 122.35535526 272.7074491 125.1875 274.875 C126.62879469 277.21856859 127.79930853 279.39364613 128.9375 281.875 C129.2675 282.56400391 129.5975 283.25300781 129.9375 283.96289062 C130.6504072 285.4565376 131.3565311 286.95343683 132.05664062 288.453125 C133.2586612 291.02740049 134.47924999 293.59229746 135.703125 296.15625 C137.87943513 300.7222672 140.03759343 305.29649527 142.1875 309.875 C143.98726278 301.63242713 145.05100157 293.38472209 145.95507812 285.00195312 C147.06883664 275.67960978 147.06883664 275.67960978 150.1875 271.875 C153.22829916 270.35460042 156.47123268 270.45635168 159.81640625 270.2265625 C161.41407444 270.10864148 163.0117302 269.99055194 164.609375 269.87231445 C165.44919922 269.81161774 166.28902344 269.75092102 167.15429688 269.68838501 C180.71552749 268.704169 194.21415601 267.57216629 207.69750977 265.78955078 C220.5393154 264.10385874 220.5393154 264.10385874 225.1875 266.875 C226.67626953 268.45629883 226.67626953 268.45629883 228.0703125 270.33203125 C228.59278564 271.02603027 229.11525879 271.7200293 229.65356445 272.43505859 C230.20101318 273.17836426 230.74846191 273.92166992 231.3125 274.6875 C232.47499762 276.23847826 233.63776066 277.78925761 234.80078125 279.33984375 C235.37393066 280.10925293 235.94708008 280.87866211 236.53759766 281.67138672 C238.82373765 284.72476044 241.16083354 287.73721282 243.5 290.75 C247.83928927 296.38184352 252.04311197 302.09832507 256.1875 307.875 C255.52505525 298.06528689 253.75513422 288.55275637 251.91601562 278.90625 C249.1261787 263.87529188 249.1261787 263.87529188 251.64453125 259.12890625 C255.09018267 256.07492642 258.50526046 255.07667332 262.875 253.8125 C264.49982222 253.3122309 266.12354043 252.80836096 267.74609375 252.30078125 C268.51808105 252.06053223 269.29006836 251.8202832 270.08544922 251.57275391 C272.63157089 250.72759528 275.0253441 249.67090929 277.4375 248.5 C280.8300444 246.9132718 283.39305661 246.25729991 287.1875 246.875 C289.5 247.9375 289.5 247.9375 291.1875 249.875 C292.18475054 253.46510196 292.58174705 255.80148746 291.28515625 259.33203125 C288.13363323 263.15259268 284.22595337 264.41055726 279.6875 266.1875 C278.81996094 266.54650391 277.95242188 266.90550781 277.05859375 267.27539062 C270.6511756 269.875 270.6511756 269.875 267.1875 269.875 C267.46835449 270.92445801 267.74920898 271.97391602 268.03857422 273.05517578 C269.51606528 278.97762677 270.52292295 284.98160376 271.5703125 290.9921875 C271.78944305 292.24452179 272.00857361 293.49685608 272.23434448 294.78713989 C272.69484509 297.4276435 273.15386542 300.06836098 273.61083984 302.70947266 C274.1925636 306.06819615 274.78481477 309.42497104 275.37961006 312.78140068 C275.95062429 316.01703622 276.50963588 319.25474728 277.0703125 322.4921875 C277.28277618 323.68415741 277.49523987 324.87612732 277.71414185 326.10421753 C280.17123884 340.49315838 280.17123884 340.49315838 279.1875 345.875 C277.29454222 348.30034273 276.32084042 348.83441813 273.3125 349.75 C269.4187676 349.9057493 268.32533974 349.15201645 265.1875 346.875 C263.24810044 344.70173167 261.45739326 342.55222772 259.6875 340.25 C258.915271 339.26507568 258.915271 339.26507568 258.12744141 338.26025391 C256.47042624 336.13965415 254.82729367 334.00893863 253.1875 331.875 C252.63932617 331.1634375 252.09115234 330.451875 251.52636719 329.71875 C248.23212 325.43758591 244.95623302 321.14269306 241.68652344 316.84277344 C239.53031605 314.01231227 237.35934763 311.19348188 235.1875 308.375 C234.40503906 307.35664063 233.62257813 306.33828125 232.81640625 305.2890625 C230.78983582 302.65317042 228.75294485 300.02542184 226.71484375 297.3984375 C225.51811656 295.84904531 224.321501 294.29956687 223.125 292.75 C222.26551758 291.64688477 222.26551758 291.64688477 221.38867188 290.52148438 C220.85693359 289.83119141 220.32519531 289.14089844 219.77734375 288.4296875 C219.30159912 287.81593262 218.82585449 287.20217773 218.33569336 286.56982422 C217.1875 284.875 217.1875 284.875 216.1875 281.875 C215.19121582 281.99093506 214.19493164 282.10687012 213.16845703 282.22631836 C209.37804804 282.6659376 205.58685065 283.0984283 201.79541016 283.52905273 C200.17214938 283.71436303 198.54909163 283.90146277 196.92626953 284.09057617 C185.35530287 285.43729017 173.82518616 286.35376671 162.1875 286.875 C162.14359131 287.65431885 162.09968262 288.4336377 162.05444336 289.23657227 C161.4400106 298.94936323 160.3345649 308.56035031 159.08569336 318.20922852 C158.74748345 320.83201564 158.41935657 323.45594203 158.09179688 326.08007812 C157.87560354 327.77091061 157.65882769 329.46166874 157.44140625 331.15234375 C157.34549698 331.92537338 157.24958771 332.69840302 157.15077209 333.49485779 C155.54948643 345.66434539 155.54948643 345.66434539 151.9375 348.875 C148.4748329 350.13415167 146.68814157 349.99222603 143.1875 348.875 C139.50695381 345.84061839 137.73171796 342.29476061 135.8671875 338.00390625 C135.56656906 337.33315567 135.26595062 336.66240509 134.95622253 335.97132874 C133.98340688 333.79695527 133.0229667 331.61735247 132.0625 329.4375 C130.72910906 326.44488967 129.38986472 323.45491033 128.05078125 320.46484375 C127.55628731 319.35713623 127.55628731 319.35713623 127.05180359 318.22705078 C123.8429382 311.0572523 120.45968772 303.97510687 116.98193359 296.93188477 C116.60762207 296.16287842 116.23331055 295.39387207 115.84765625 294.6015625 C115.36244507 293.62050537 115.36244507 293.62050537 114.86743164 292.61962891 C114.1875 290.875 114.1875 290.875 114.1875 287.875 C113.60226562 287.9457373 113.01703125 288.01647461 112.4140625 288.08935547 C104.1297082 288.97407724 95.90139649 289.02756322 87.58105469 289.00537109 C85.19199276 289.00001008 82.80311876 289.00534663 80.4140625 289.01171875 C72.28587424 289.01488295 64.2703115 288.85196978 56.1875 287.875 C56.0961377 288.53910889 56.00477539 289.20321777 55.91064453 289.88745117 C54.97919527 293.73557564 53.3346057 297.13139553 51.6171875 300.67578125 C51.07821335 301.8068354 51.07821335 301.8068354 50.52835083 302.96073914 C49.37833957 305.37222191 48.22093413 307.78005358 47.0625 310.1875 C45.55645247 313.32778992 44.05453148 316.47002428 42.5546875 319.61328125 C42.18502869 320.38463409 41.81536987 321.15598694 41.43450928 321.95071411 C39.61953365 325.76168276 37.86196465 329.58470243 36.21191406 333.47021484 C35.90206573 334.19887253 35.59221741 334.92753021 35.27297974 335.67826843 C34.69831734 337.0434487 34.13214152 338.41224701 33.5763855 339.78523254 C31.98856724 343.56842244 30.38374875 346.27150868 27.1875 348.875 C23.68685843 349.99222603 21.9001671 350.13415167 18.4375 348.875 C13.40369794 344.40050928 13.49027978 335.73065915 12.6796875 329.375 C12.54934113 328.38048828 12.41899475 327.38597656 12.28469849 326.36132812 C12.01158206 324.26726434 11.74111246 322.17285384 11.47314453 320.078125 C11.06370614 316.88440819 10.64379375 313.69219279 10.22265625 310.5 C9.95770592 308.45841466 9.6933626 306.41675043 9.4296875 304.375 C9.30471893 303.42689453 9.17975037 302.47878906 9.05099487 301.50195312 C8.42783178 296.57980938 8.0520532 291.83627164 8.1875 286.875 C7.43992432 286.83012451 6.69234863 286.78524902 5.92211914 286.73901367 C-11.41707647 285.6765662 -28.58619597 284.16267151 -45.8125 281.875 C-46.08707031 282.45967041 -46.36164063 283.04434082 -46.64453125 283.64672852 C-47.77584388 285.80506681 -49.01165212 287.60243082 -50.5 289.52734375 C-51.02875732 290.21473633 -51.55751465 290.90212891 -52.10229492 291.61035156 C-52.6666626 292.33706055 -53.23103027 293.06376953 -53.8125 293.8125 C-54.68708862 294.94703613 -54.68708862 294.94703613 -55.5793457 296.10449219 C-56.7645656 297.64153116 -57.95116185 299.17750984 -59.13916016 300.71240234 C-61.02866597 303.15436944 -62.91048678 305.60214422 -64.79101562 308.05102539 C-66.79570135 310.66092218 -68.80455059 313.26761382 -70.8125 315.875 C-72.06083874 317.49739682 -73.3089362 319.11997882 -74.55688477 320.74267578 C-75.3891212 321.82459933 -76.22163748 322.90630768 -77.05444336 323.98779297 C-79.19334512 326.76596955 -81.32720074 329.54781445 -83.453125 332.3359375 C-85.14726004 334.55657696 -86.84959812 336.77036668 -88.5625 338.9765625 C-89.90904699 340.71117685 -91.24588711 342.4534944 -92.5625 344.2109375 C-94.81266854 347.08224631 -96.41588095 348.7293032 -99.875 350 C-103.67255789 349.83840179 -106.12414984 348.56335016 -108.8125 345.875 C-109.67407794 337.49264481 -107.89693865 329.18489738 -106.44140625 320.96875 C-106.196539 319.5530484 -105.95232337 318.13723396 -105.70872498 316.72131348 C-105.2001734 313.7755315 -104.6861776 310.83077394 -104.16772461 307.88671875 C-103.50289018 304.11078699 -102.84831629 300.33316803 -102.1972971 296.55483246 C-101.69474258 293.64108029 -101.18869353 290.72794461 -100.68137932 287.8150177 C-100.43871463 286.42124322 -100.19671295 285.02735314 -99.95538521 283.63334656 C-99.61881067 281.69444348 -99.27741975 279.75637831 -98.93579102 277.81835938 C-98.74259781 276.71600952 -98.5494046 275.61365967 -98.35035706 274.47790527 C-97.8125 271.875 -97.8125 271.875 -96.8125 269.875 C-97.60398437 269.79378906 -98.39546875 269.71257812 -99.2109375 269.62890625 C-103.93983956 268.63901677 -108.05317811 266.80874816 -112.4375 264.8125 C-113.77047119 264.20631836 -113.77047119 264.20631836 -115.13037109 263.58789062 C-126.43029169 258.32981725 -135.90228564 251.63419378 -144.8125 242.875 C-145.51117188 242.18921875 -146.20984375 241.5034375 -146.9296875 240.796875 C-167.20901703 219.49174281 -170.93686113 188.32861548 -171.015625 160.234375 C-171.01845238 159.54285591 -171.02127975 158.85133682 -171.02419281 158.13886261 C-171.03910016 154.46952448 -171.04837943 150.80022472 -171.05273438 147.13085938 C-171.05709317 144.14831129 -171.07089525 141.16605669 -171.09375 138.18359375 C-171.36326089 102.29713236 -169.29350449 66.6471432 -143.4375 39.125 C-111.57528256 9.20911711 -63.12517409 3.38677163 -21.5625 -0.9375 C-19.6434082 -1.14173584 -19.6434082 -1.14173584 -17.68554688 -1.35009766 C-16.48478516 -1.46788574 -15.28402344 -1.58567383 -14.046875 -1.70703125 C-12.45697754 -1.86522339 -12.45697754 -1.86522339 -10.83496094 -2.02661133 C-6.99174348 -2.15171768 -3.32652989 -2.06474269 0 0 Z " fill="#000000" transform="translate(170.8125,4.125)"/>
<path d="M0 0 C1.56037994 -0.00856522 1.56037994 -0.00856522 3.15228271 -0.01730347 C4.8635585 -0.01898026 4.8635585 -0.01898026 6.60940552 -0.02069092 C7.81125488 -0.02565582 9.01310425 -0.03062073 10.25137329 -0.03573608 C13.5489631 -0.04784461 16.8464895 -0.0553027 20.14409399 -0.05974674 C22.20468895 -0.06267903 24.26527835 -0.06678412 26.32587051 -0.07125092 C32.77421508 -0.0849223 39.22254694 -0.09459095 45.67090499 -0.09845281 C53.11249152 -0.10293413 60.55389442 -0.12048681 67.99542511 -0.1494534 C73.74923544 -0.17107248 79.50299412 -0.18115719 85.25684464 -0.18249393 C88.69267279 -0.18354171 92.12832825 -0.18944383 95.56411362 -0.20731354 C99.3969795 -0.22686109 103.22961596 -0.22250433 107.06253052 -0.21600342 C108.76773361 -0.22982559 108.76773361 -0.22982559 110.50738525 -0.243927 C111.5532782 -0.23835785 112.59917114 -0.2327887 113.67675781 -0.22705078 C114.58267103 -0.22851734 115.48858425 -0.2299839 116.42194939 -0.2314949 C119.53307757 0.22346187 121.4251911 1.31718736 123.96536255 3.14044189 C125.11351252 5.43674184 125.27306063 7.21742275 125.52786255 9.76544189 C125.61165161 10.58270752 125.69544067 11.39997314 125.7817688 12.24200439 C125.84235474 12.86848877 125.90294067 13.49497314 125.96536255 14.14044189 C126.82258911 13.21360596 127.67981567 12.28677002 128.5630188 11.33184814 C129.71714221 10.12142603 130.8721365 8.91183388 132.02786255 7.70294189 C132.58924927 7.09128174 133.15063599 6.47962158 133.72903442 5.84942627 C136.74178847 2.7333778 138.42767748 1.28255637 142.7192688 0.14825439 C146.45884813 0.1392542 148.06194685 0.83478825 150.96536255 3.14044189 C152.47425724 6.15823127 152.46562531 7.76366827 151.96536255 11.14044189 C148.7998301 15.84080525 144.88950861 19.3275203 140.17605591 22.41241455 C133.58521332 27.06455262 127.45218484 32.35331984 125.377388 40.42900085 C123.01666263 54.12497548 123.97765235 68.44156617 124.43032837 82.26489258 C124.65645219 89.80098542 124.73032567 97.34040587 124.82032776 104.87911987 C124.86837412 108.8821421 124.95875431 112.88066174 125.08366394 116.88198853 C125.1258777 118.70039446 125.16791516 120.51880449 125.20974731 122.33721924 C125.24462753 123.15901169 125.27950775 123.98080414 125.31544495 124.82749939 C125.37917252 128.41223488 125.10385893 130.8086897 123.70887756 134.15020752 C119.15114779 137.45653186 114.30805028 136.83459707 108.82473755 136.78741455 C107.58212158 136.79617615 106.33950562 136.80493774 105.05923462 136.81396484 C101.65381829 136.83220383 98.24992052 136.827927 94.84458923 136.81206942 C91.28033412 136.79940582 87.71614366 136.81115178 84.15188599 136.81900024 C78.16641597 136.82809556 72.18125447 136.81611234 66.1958313 136.79229736 C59.27688244 136.76508587 52.35867024 136.77390015 45.43973923 136.80142939 C39.49817985 136.82412317 33.55684217 136.82731938 27.61525345 136.81423604 C24.06707942 136.80644283 20.5192516 136.80539584 16.97109985 136.82191849 C13.01577138 136.83905083 9.06126727 136.81530295 5.10598755 136.78741455 C3.9297583 136.79753571 2.75352905 136.80765686 1.54165649 136.81808472 C-6.1536913 136.71731882 -6.1536913 136.71731882 -9.7620697 134.35441589 C-11.7627373 129.30156615 -11.58147768 124.45658126 -11.53634644 119.06988525 C-11.54445091 117.23500298 -11.54445091 117.23500298 -11.55271912 115.36305237 C-11.5630728 112.01571986 -11.55551756 108.66937815 -11.5390079 105.32213283 C-11.52513784 101.81662406 -11.53161958 98.3111446 -11.53514099 94.80561829 C-11.53784123 88.92031573 -11.52438255 83.03521735 -11.50119019 77.14996338 C-11.4745691 70.34759052 -11.47283787 63.54555872 -11.48457855 56.74315161 C-11.49535975 50.19545376 -11.48916743 43.64787918 -11.47502327 37.10019112 C-11.46926763 34.31517177 -11.46934276 31.53024275 -11.47408867 28.74522209 C-11.47974952 24.85721821 -11.4605354 20.96955531 -11.43869019 17.081604 C-11.44319183 15.92564728 -11.44769348 14.76969055 -11.45233154 13.57870483 C-11.44242691 12.52024857 -11.43252228 11.4617923 -11.4223175 10.3712616 C-11.41988761 9.45227553 -11.41745771 8.53328947 -11.41495419 7.58645535 C-10.95677163 4.63964656 -10.08624998 3.28123978 -8.03463745 1.14044189 C-5.06031009 0.14899944 -3.10427219 0.0102017 0 0 Z M4.96536255 16.14044189 C4.96536255 50.46044189 4.96536255 84.78044189 4.96536255 120.14044189 C39.28536255 120.14044189 73.60536255 120.14044189 108.96536255 120.14044189 C108.96536255 98.69044189 108.96536255 77.24044189 108.96536255 55.14044189 C103.17627996 60.08521597 103.17627996 60.08521597 97.71414185 65.29400635 C96.96033737 66.05111404 96.2065329 66.80822174 95.42988586 67.58827209 C94.2466851 68.78392036 94.2466851 68.78392036 93.0395813 70.00372314 C92.21077957 70.83631149 91.38197784 71.66889984 90.52806091 72.52671814 C87.90054947 75.1663747 85.27631685 77.80925344 82.65286255 80.45294189 C79.1804434 83.95187528 75.70478259 87.44754073 72.2270813 90.94122314 C71.42815964 91.74844315 70.62923798 92.55566315 69.80610657 93.38734436 C69.0680629 94.12869125 68.33001923 94.87003815 67.5696106 95.6338501 C66.92009933 96.28859818 66.27058807 96.94334625 65.60139465 97.61793518 C63.49564925 99.57756146 62.18069986 100.09942526 59.34036255 100.64044189 C50.52045909 99.33378953 42.10377434 87.56759553 35.88113403 81.40631104 C34.63836202 80.1802381 33.390231 78.95957513 32.13699341 77.74420166 C30.30840601 75.97032678 28.49677668 74.18059905 26.6880188 72.38653564 C26.12768448 71.8488707 25.56735016 71.31120575 24.99003601 70.75724792 C21.61826865 67.36680882 20.09680309 64.96232333 19.96536255 60.14044189 C21.02786255 57.32794189 21.02786255 57.32794189 22.96536255 55.14044189 C25.84036255 54.14044189 25.84036255 54.14044189 28.96536255 54.14044189 C33.24530215 56.25335743 36.39900566 59.31043356 39.7036438 62.68341064 C40.22927414 63.21187088 40.75490448 63.74033112 41.29646301 64.2848053 C42.96171503 65.96118451 44.61984747 67.64440778 46.27786255 69.32794189 C47.41086172 70.4709805 48.54432064 71.61356359 49.67825317 72.75567627 C52.44597082 75.54535522 55.20732803 78.34119062 57.96536255 81.14044189 C61.51990128 79.6116142 63.93422259 77.50403144 66.73391724 74.85284424 C68.14492706 73.51907242 68.14492706 73.51907242 69.58444214 72.15835571 C73.86316614 68.0598285 78.11204098 63.93088537 82.34768677 59.78790283 C84.57982533 57.6091325 86.83173317 55.45449194 89.10452271 53.31817627 C91.86221418 50.72560845 94.5774349 48.09469626 97.26856232 45.43315506 C98.29310862 44.4329025 99.33125153 43.44636073 100.38341522 42.47520065 C103.93856784 39.18044274 106.09304104 36.26152712 108.96536255 32.14044189 C108.96536255 26.86044189 108.96536255 21.58044189 108.96536255 16.14044189 C74.64536255 16.14044189 40.32536255 16.14044189 4.96536255 16.14044189 Z " fill="#000000" transform="translate(199.03463745117188,62.85955810546875)"/>
<path d="M0 0 C1.03413528 -0.00335861 2.06827057 -0.00671722 3.13374329 -0.01017761 C6.54856583 -0.01965875 9.96333894 -0.02163111 13.37817383 -0.02270508 C15.7891695 -0.02592597 18.20016499 -0.02929064 20.61116028 -0.03279114 C25.68088226 -0.03877989 30.75058723 -0.04063193 35.8203125 -0.04003906 C40.94502354 -0.03995863 46.06964361 -0.04676394 51.19433594 -0.06054688 C86.66428563 -0.15448999 122.11320367 -0.14646349 157.39770508 3.95776367 C158.51400803 4.08323578 158.51400803 4.08323578 159.65286255 4.21124268 C200.0077208 8.76561826 251.74255841 15.58620929 279.39770508 49.14526367 C287.62090307 60.47622545 293.63386274 72.29674605 297.14770508 85.89526367 C297.44596191 87.03632568 297.44596191 87.03632568 297.75024414 88.20043945 C301.95095666 105.66257802 301.71470704 123.37478546 301.65844727 141.20996094 C301.64706407 144.84831541 301.65382307 148.48637709 301.66531658 152.12472153 C301.76478116 189.05468597 301.76478116 189.05468597 297.08520508 206.52026367 C296.86719238 207.35549561 296.64917969 208.19072754 296.42456055 209.05126953 C292.44876347 223.80116228 285.5200374 239.25160757 273.39770508 249.14526367 C270.11362848 250.27670349 268.91915957 249.98086304 265.39770508 249.14526367 C262.89770508 247.58276367 262.89770508 247.58276367 261.39770508 245.14526367 C260.9043398 240.87790831 260.97896004 238.7923385 263.33911133 235.14526367 C264.20407227 234.15526367 265.0690332 233.16526367 265.96020508 232.14526367 C284.75509623 209.32289584 284.76576218 179.16445477 284.71337891 151.00927734 C284.70875643 148.31704969 284.71564886 145.62527477 284.73388672 142.93310547 C284.94047905 112.13532572 284.37391075 78.88822051 261.72192383 55.31323242 C230.49948074 26.18977711 179.32455708 22.84640186 138.96020508 19.39526367 C137.922258 19.30651474 137.922258 19.30651474 136.86334229 19.2159729 C116.21529485 17.48578444 95.54735488 16.88098173 74.83520508 16.52026367 C73.55797577 16.49647644 72.28074646 16.47268921 70.96481323 16.44818115 C55.81290337 16.17563402 40.68238634 16.09814118 25.53051758 16.41088867 C24.84898935 16.42463657 24.16746113 16.43838448 23.46528053 16.45254898 C16.23319463 16.60033177 9.00273037 16.78195058 1.77246094 17.00219727 C-0.59073763 17.06295746 -2.95393744 17.12366972 -5.31713867 17.18432617 C-6.39144135 17.22487122 -7.46574402 17.26541626 -8.57260132 17.30718994 C-17.7348718 17.52411132 -17.7348718 17.52411132 -21.60229492 14.14526367 C-23.02891711 11.2920193 -22.9126336 9.31071818 -22.60229492 6.14526367 C-21.10229492 3.33276367 -21.10229492 3.33276367 -18.60229492 1.14526367 C-12.40963548 0.03272874 -6.27764721 -0.00296227 0 0 Z " fill="#000000" transform="translate(210.602294921875,-0.145263671875)"/>
<path d="M0 0 C1.56037994 -0.00856522 1.56037994 -0.00856522 3.15228271 -0.01730347 C4.8635585 -0.01898026 4.8635585 -0.01898026 6.60940552 -0.02069092 C7.81125488 -0.02565582 9.01310425 -0.03062073 10.25137329 -0.03573608 C13.5489631 -0.04784461 16.8464895 -0.0553027 20.14409399 -0.05974674 C22.20468895 -0.06267903 24.26527835 -0.06678412 26.32587051 -0.07125092 C32.77421508 -0.0849223 39.22254694 -0.09459095 45.67090499 -0.09845281 C53.11249152 -0.10293413 60.55389442 -0.12048681 67.99542511 -0.1494534 C73.74923544 -0.17107248 79.50299412 -0.18115719 85.25684464 -0.18249393 C88.69267279 -0.18354171 92.12832825 -0.18944383 95.56411362 -0.20731354 C99.3969795 -0.22686109 103.22961596 -0.22250433 107.06253052 -0.21600342 C108.76773361 -0.22982559 108.76773361 -0.22982559 110.50738525 -0.243927 C111.5532782 -0.23835785 112.59917114 -0.2327887 113.67675781 -0.22705078 C114.58267103 -0.22851734 115.48858425 -0.2299839 116.42194939 -0.2314949 C119.53307757 0.22346187 121.4251911 1.31718736 123.96536255 3.14044189 C125.39198474 5.99368627 125.27570123 7.97498738 124.96536255 11.14044189 C123.70462036 13.79922485 123.70462036 13.79922485 120.96536255 16.14044189 C116.93086231 16.91841403 112.92242602 16.82267412 108.82473755 16.78741455 C106.9608136 16.80055695 106.9608136 16.80055695 105.05923462 16.81396484 C101.65381829 16.83220383 98.24992052 16.827927 94.84458923 16.81206942 C91.28033412 16.79940582 87.71614366 16.81115178 84.15188599 16.81900024 C78.16641597 16.82809556 72.18125447 16.81611234 66.1958313 16.79229736 C59.27688244 16.76508587 52.35867024 16.77390015 45.43973923 16.80142939 C39.49817985 16.82412317 33.55684217 16.82731938 27.61525345 16.81423604 C24.06707942 16.80644283 20.5192516 16.80539584 16.97109985 16.82191849 C13.01577138 16.83905083 9.06126727 16.81530295 5.10598755 16.78741455 C3.9297583 16.79753571 2.75352905 16.80765686 1.54165649 16.81808472 C-6.36709582 16.71452441 -6.36709582 16.71452441 -9.76608276 13.79141235 C-11.30377368 10.57801269 -11.5591699 8.66230262 -11.03463745 5.14044189 C-8.3101779 0.34020364 -5.22149456 0.01715962 0 0 Z " fill="#000000" transform="translate(199.03463745117188,212.85955810546875)"/>
<path d="M0 0 C2.53839731 2.21086217 2.951906 3.43785212 3.23828125 6.78515625 C2.96699184 10.44533963 2.001234 12.54229416 0.25 15.75 C-2.22315416 20.42799442 -4.31001751 25.07715273 -6.140625 30.0390625 C-7 32 -7 32 -9 34 C-11.05859375 34.30078125 -11.05859375 34.30078125 -13.4375 34.3125 C-14.61119141 34.33763672 -14.61119141 34.33763672 -15.80859375 34.36328125 C-18.53638359 33.9110808 -19.39063183 33.2248632 -21 31 C-22.33356068 20.66490477 -17.65706066 11.13095961 -12.30859375 2.48828125 C-8.70716467 -1.60767242 -5.03954668 -1.2827937 0 0 Z " fill="#000000" transform="translate(21,478)"/>
</svg>
