<?xml version="1.0" encoding="UTF-8"?>
<svg version="1.1" xmlns="http://www.w3.org/2000/svg" width="512" height="512">
<path d="M0 0 C0.9477832 -0.01260864 1.89556641 -0.02521729 2.87207031 -0.03820801 C4.39719238 -0.02606262 4.39719238 -0.02606262 5.953125 -0.01367188 C7.00338867 -0.01749878 8.05365234 -0.02132568 9.13574219 -0.02526855 C11.35482747 -0.02798883 13.57394474 -0.02061964 15.79296875 -0.00390625 C19.19083095 0.01750067 22.58657861 -0.00370513 25.984375 -0.02929688 C28.14062967 -0.02665362 30.29688302 -0.02152869 32.453125 -0.01367188 C33.46987305 -0.0217688 34.48662109 -0.02986572 35.53417969 -0.03820801 C36.95585449 -0.01929504 36.95585449 -0.01929504 38.40625 0 C39.23801758 0.00318237 40.06978516 0.00636475 40.92675781 0.00964355 C44.2516738 0.75154485 45.28691504 1.68053079 47.203125 4.51757812 C47.79162803 7.70137383 47.74620354 10.84192916 47.71728516 14.07202148 C47.72441025 15.03993118 47.73153534 16.00784088 47.73887634 17.00508118 C47.75818229 20.20606806 47.74987263 23.40639594 47.7421875 26.60742188 C47.75209106 28.83176135 47.764031 31.05609262 47.77792358 33.28041077 C47.81032869 39.13930745 47.8206814 44.99801715 47.82476807 50.85699463 C47.83351444 60.23167187 47.86899822 69.60619511 47.9169426 78.98074532 C47.92953882 82.25625956 47.92876853 85.53158006 47.92666626 88.80711365 C47.93324698 90.8159907 47.94025332 92.82486641 47.94775391 94.83374023 C47.94156792 96.19996017 47.94156792 96.19996017 47.93525696 97.59378052 C47.97331013 103.78958258 47.97331013 103.78958258 50.203125 109.51757812 C53.6571517 111.46668624 56.80284049 111.80025015 60.72265625 111.93164062 C61.74423828 111.9703125 62.76582031 112.00898438 63.81835938 112.04882812 C64.87345703 112.07976562 65.92855469 112.11070312 67.015625 112.14257812 C68.09005859 112.18125 69.16449219 112.21992188 70.27148438 112.25976562 C72.91519588 112.35376426 75.5589055 112.43942385 78.203125 112.51757812 C77.40648437 111.46570313 77.40648437 111.46570313 76.59375 110.39257812 C68.67012735 99.75063238 68.67012735 99.75063238 66.203125 93.51757812 C65.75646484 92.42896484 65.75646484 92.42896484 65.30078125 91.31835938 C60.91290159 78.43780941 61.32018664 61.7736997 67.203125 49.51757812 C67.66203125 48.55464844 68.1209375 47.59171875 68.59375 46.59960938 C76.32586247 31.52199006 88.49827764 22.94549906 104.375 17.41210938 C119.01045285 13.99219233 135.18329206 15.59556605 148.1640625 23.26757812 C150.60631697 24.92917061 152.91174409 26.65531036 155.203125 28.51757812 C156.03585937 29.1440625 156.86859375 29.77054687 157.7265625 30.41601562 C166.89676755 38.19767228 174.26622216 51.77420228 175.42431641 63.81787109 C176.30373192 82.86189469 172.76827096 96.12842364 161.203125 111.51757812 C164.7655558 111.5758537 168.32786319 111.61126697 171.890625 111.64257812 C173.40172852 111.66771484 173.40172852 111.66771484 174.94335938 111.69335938 C176.40805664 111.70302734 176.40805664 111.70302734 177.90234375 111.71289062 C179.24558716 111.72860107 179.24558716 111.72860107 180.6159668 111.74462891 C183.59257736 111.48339952 185.59649094 110.9952719 188.203125 109.51757812 C190.85222135 104.87440797 190.48197175 100.01850693 190.45849609 94.83374023 C190.46392677 93.37924721 190.46392677 93.37924721 190.46946716 91.89537048 C190.47635048 89.79412208 190.4788686 87.69285585 190.47751999 85.5915966 C190.47655447 82.26728591 190.48949892 78.94329827 190.50650024 75.61903381 C190.55277437 66.16914341 190.57739296 56.71928694 190.58398438 47.26928711 C190.58899069 41.48623856 190.61319217 35.70352903 190.64931107 29.92059517 C190.65912595 27.71617223 190.66143186 25.51170276 190.65613937 23.30726433 C190.64909223 20.2284794 190.66630163 17.15071033 190.68896484 14.07202148 C190.67670616 12.7027652 190.67670616 12.7027652 190.66419983 11.30584717 C190.74439319 5.19675414 190.74439319 5.19675414 192.93545532 1.95277405 C195.53767087 0.30584585 196.93879998 0.01171226 200 0 C200.9477832 -0.01260864 201.89556641 -0.02521729 202.87207031 -0.03820801 C204.39719238 -0.02606262 204.39719238 -0.02606262 205.953125 -0.01367188 C207.00338867 -0.01749878 208.05365234 -0.02132568 209.13574219 -0.02526855 C211.35482747 -0.02798883 213.57394474 -0.02061964 215.79296875 -0.00390625 C219.19083095 0.01750067 222.58657861 -0.00370513 225.984375 -0.02929688 C228.14062967 -0.02665362 230.29688302 -0.02152869 232.453125 -0.01367188 C233.46987305 -0.0217688 234.48662109 -0.02986572 235.53417969 -0.03820801 C236.95585449 -0.01929504 236.95585449 -0.01929504 238.40625 0 C239.23801758 0.00318237 240.06978516 0.00636475 240.92675781 0.00964355 C244.07251523 0.71156851 245.17731298 2.04168189 247.203125 4.51757812 C247.70648956 7.0561533 247.70648956 7.0561533 247.71105957 9.97377014 C247.72797852 11.63679672 247.72797852 11.63679672 247.74523926 13.3334198 C247.73309387 15.15139824 247.73309387 15.15139824 247.72070312 17.00610352 C247.73121704 18.92631317 247.73121704 18.92631317 247.74194336 20.88531494 C247.76018172 24.39618925 247.7531041 27.90659339 247.74042702 31.41747594 C247.73028665 35.09989882 247.73969697 38.78228193 247.74597168 42.46470642 C247.75325151 48.6561503 247.74365843 54.84740345 247.72460938 61.03881836 C247.70290706 68.17452324 247.70984184 75.30976975 247.731915 82.44546324 C247.75014019 88.58498274 247.75259075 94.72436513 247.74216032 100.86390299 C247.73595559 104.52459511 247.73500425 108.18507286 247.74830627 111.84575081 C247.76213815 115.93853398 247.74289986 120.03054458 247.72070312 124.12329102 C247.72880005 125.32110703 247.73689697 126.51892303 247.74523926 127.7530365 C247.62725789 139.55633505 244.41751361 148.91280273 236.203125 157.51757812 C222.84447433 170.27016525 209.68195363 168.51757812 191.203125 168.51757812 C191.203125 186.99757813 191.203125 205.47757813 191.203125 224.51757812 C185.923125 224.51757812 180.643125 224.51757812 175.203125 224.51757812 C175.11274963 215.72057892 175.0393667 206.92388811 174.99587631 198.12652969 C174.97500289 194.04153443 174.94669037 189.95687328 174.90136719 185.87207031 C174.8578997 181.92983467 174.83398605 177.98792035 174.82361603 174.04546356 C174.81622618 172.54153128 174.80179533 171.03761656 174.78020477 169.53382111 C174.75115688 167.42678353 174.74716929 165.32107284 174.74902344 163.21386719 C174.74014099 162.01473694 174.73125854 160.81560669 174.72210693 159.58013916 C175.30045781 155.8978765 176.25408019 154.72912646 179.203125 152.51757812 C182.0847168 152.00341797 182.0847168 152.00341797 185.40234375 151.97851562 C186.61212891 151.9553125 187.82191406 151.93210937 189.06835938 151.90820312 C190.32970703 151.90304687 191.59105469 151.89789063 192.890625 151.89257812 C209.59786696 152.16450867 209.59786696 152.16450867 223.609375 144.09960938 C230.53627272 136.26657678 230.35273245 127.4844033 230.40844727 117.55517578 C230.41834686 116.46189972 230.42824646 115.36862366 230.43844604 114.24221802 C230.46996233 110.63871404 230.49477946 107.03519689 230.51953125 103.43164062 C230.5401093 100.92914493 230.56110599 98.42665264 230.58250427 95.92416382 C230.63200586 90.01700397 230.67729385 84.1098214 230.72052664 78.20261323 C230.7748601 70.81407635 230.83576048 63.42559602 230.89648438 56.03710938 C231.00395839 42.86396915 231.10493054 29.69079079 231.203125 16.51757812 C223.283125 16.51757812 215.363125 16.51757812 207.203125 16.51757812 C207.22407227 19.35351562 207.24501953 22.18945312 207.26660156 25.11132812 C207.33296428 34.49497981 207.37709749 43.87864201 207.41037369 53.26246643 C207.43122319 58.95033206 207.45949304 64.63795666 207.50488281 70.32568359 C207.54843404 75.81756958 207.57228194 81.30922414 207.58263397 86.80126953 C207.59000865 88.89359173 207.60440968 90.98590167 207.62604523 93.078125 C207.65520215 96.01524955 207.65907582 98.95142523 207.65722656 101.88867188 C207.67160767 102.74822983 207.68598877 103.60778778 207.70080566 104.49339294 C207.65421491 111.35951309 205.78897108 116.5667319 201.23828125 121.75976562 C200.58730469 122.29859375 199.93632812 122.83742188 199.265625 123.39257812 C198.61722656 123.946875 197.96882812 124.50117188 197.30078125 125.07226562 C193.09060145 127.97313439 189.38012695 128.77016633 184.3112793 128.83642578 C182.57004036 128.86623032 182.57004036 128.86623032 180.79362488 128.89663696 C178.92931572 128.91396378 178.92931572 128.91396378 177.02734375 128.93164062 C175.74704788 128.95100677 174.46675201 128.97037292 173.1476593 128.99032593 C169.7562472 129.04151761 166.36479555 129.08121219 162.97320557 129.11846924 C159.5074292 129.15859062 156.04181552 129.2096457 152.57617188 129.25976562 C145.78526105 129.35575958 138.99427906 129.44082464 132.203125 129.51757812 C132.56017517 130.42720558 132.56017517 130.42720558 132.92443848 131.35520935 C135.40818352 137.69162711 137.8705135 144.03606939 140.32080078 150.38549805 C141.23692651 152.75121233 142.15841635 155.11485685 143.08544922 157.47631836 C144.42023853 160.87924256 145.73529346 164.28924641 147.046875 167.70117188 C147.46247681 168.74840927 147.87807861 169.79564667 148.30627441 170.87461853 C150.85454566 177.57604164 153.11314956 184.13482997 150.10839844 191.02954102 C149.59825195 191.67656982 149.08810547 192.32359863 148.5625 192.99023438 C147.99176758 193.73740723 147.42103516 194.48458008 146.83300781 195.25439453 C146.21264648 196.02187012 145.59228516 196.7893457 144.953125 197.58007812 C144.3250293 198.39138184 143.69693359 199.20268555 143.04980469 200.03857422 C141.75324799 201.7132661 140.44882232 203.38189445 139.13671875 205.04443359 C137.2746955 207.42603656 135.46438317 209.83727047 133.671875 212.27148438 C133.12821289 213.00939209 132.58455078 213.7472998 132.02441406 214.50756836 C130.99479226 215.90658058 129.96548382 217.3058235 128.93652344 218.70532227 C125.42842825 223.4049265 125.42842825 223.4049265 123.203125 224.51757812 C117.51884127 225.076688 117.51884127 225.076688 115.203125 224.51757812 C110.08496198 220.26271971 106.314118 214.61617538 102.328125 209.33007812 C101.64621094 208.43482422 100.96429688 207.53957031 100.26171875 206.6171875 C98.8982074 204.8186511 97.54427496 203.01281107 96.20019531 201.19970703 C94.8696871 199.41279221 93.51464296 197.64388564 92.13574219 195.89404297 C91.49540039 195.05180176 90.85505859 194.20956055 90.1953125 193.34179688 C89.61894043 192.60405029 89.04256836 191.86630371 88.44873047 191.10620117 C85.98541163 185.98692057 86.8231476 181.20517381 88.51660156 176.00439453 C89.11233708 174.37105882 89.72208442 172.74278414 90.34375 171.11914062 C90.82893097 169.80663834 90.82893097 169.80663834 91.32391357 168.46762085 C92.35489803 165.68792696 93.40378433 162.91538721 94.453125 160.14257812 C95.14309006 158.28884391 95.83190281 156.43468036 96.51953125 154.58007812 C99.64416051 146.18269543 102.84901593 137.82627797 106.203125 129.51757812 C105.49426147 129.5139325 104.78539795 129.51028687 104.05505371 129.50653076 C97.34671823 129.46852966 90.63883712 129.41154096 83.93083954 129.33367538 C80.48284614 129.2943091 77.03510396 129.26206822 73.58691406 129.24658203 C69.61490685 129.22842151 65.64359554 129.17842237 61.671875 129.12695312 C59.83079163 129.12511017 59.83079163 129.12511017 57.95251465 129.12322998 C49.84751669 128.98552575 44.22897371 128.045456 37.9609375 122.55273438 C37.42210937 121.90175781 36.88328125 121.25078125 36.328125 120.58007812 C35.77382812 119.93167969 35.21953125 119.28328125 34.6484375 118.61523438 C30.96816727 113.2738692 30.92423301 108.50410329 30.97607422 102.22924805 C30.97578217 101.30192871 30.97549011 100.37460937 30.97518921 99.41918945 C30.97657965 96.36204589 30.99212751 93.30514773 31.0078125 90.24804688 C31.01154364 88.12527093 31.01439014 86.00249325 31.01638794 83.87971497 C31.0240164 78.29838285 31.04365821 72.71715517 31.0657959 67.13586426 C31.08627124 61.43824679 31.09539327 55.74061242 31.10546875 50.04296875 C31.12690479 38.86778532 31.16208059 27.69270676 31.203125 16.51757812 C23.283125 16.51757812 15.363125 16.51757812 7.203125 16.51757812 C7.28871075 30.9652175 7.38250498 45.41274008 7.49065208 59.86022854 C7.54067456 66.56914959 7.5871182 73.27805905 7.625 79.98706055 C7.66194003 86.46455328 7.70832389 92.94191652 7.76118851 99.41929817 C7.77968611 101.88753037 7.79481107 104.35579028 7.80646896 106.82406425 C7.8234106 110.28771022 7.8524652 113.75106262 7.88427734 117.21459961 C7.88643753 118.22952484 7.88859772 119.24445007 7.89082336 120.29013062 C7.99957763 129.59134299 8.69202777 138.05202715 15.62109375 144.92382812 C22.24505943 150.78152528 29.1844372 151.60718419 37.7734375 151.69335938 C38.99933594 151.71720703 40.22523438 151.74105469 41.48828125 151.765625 C44.05581806 151.80872201 46.6235816 151.83990211 49.19140625 151.859375 C51.02638672 151.90094727 51.02638672 151.90094727 52.8984375 151.94335938 C54.01234863 151.95794189 55.12625977 151.97252441 56.27392578 151.98754883 C59.95038294 152.65279208 60.93241688 153.58227847 63.203125 156.51757812 C63.68414307 159.58013916 63.68414307 159.58013916 63.65722656 163.21386719 C63.65781067 163.87769409 63.65839478 164.541521 63.65899658 165.22546387 C63.65621765 167.41191551 63.62513828 169.59699075 63.59375 171.78320312 C63.58628684 173.30205541 63.58059426 174.82091735 63.57659912 176.33978271 C63.56134841 180.33161138 63.52207223 184.3228551 63.4777832 188.31445312 C63.43681789 192.38989347 63.41858546 196.46542861 63.3984375 200.54101562 C63.35557659 208.53350108 63.2852321 216.52539938 63.203125 224.51757812 C57.923125 224.51757812 52.643125 224.51757812 47.203125 224.51757812 C47.203125 206.03757812 47.203125 187.55757812 47.203125 168.51757812 C38.953125 168.51757812 30.703125 168.51757812 22.203125 168.51757812 C9.58599383 163.92953043 0.01703227 158.40526703 -5.96495819 146.11835384 C-8.86633058 138.68034442 -9.36808658 132.0575407 -9.31445312 124.12329102 C-9.3214624 122.83088501 -9.32847168 121.538479 -9.33569336 120.20690918 C-9.35376286 116.69691718 -9.34693151 113.18740096 -9.33417702 109.67740178 C-9.32397859 105.99174516 -9.33346013 102.30612653 -9.33972168 98.62046814 C-9.34697194 92.44148506 -9.33747301 86.26269408 -9.31835938 80.08374023 C-9.29652791 72.9437748 -9.30369758 65.8042652 -9.325665 58.66431051 C-9.34381365 52.51881449 -9.34638203 46.37345561 -9.33591032 40.22794145 C-9.32968104 36.56366425 -9.32882536 32.89960156 -9.34205627 29.23533821 C-9.35575275 25.158651 -9.33677441 21.08275248 -9.31445312 17.00610352 C-9.32255005 15.79411789 -9.33064697 14.58213226 -9.33898926 13.3334198 C-9.32770996 12.22473541 -9.31643066 11.11605103 -9.30480957 9.97377014 C-9.30330147 9.01095658 -9.30179337 8.04814302 -9.30023956 7.0561533 C-8.27870907 1.90435652 -4.9797044 0.01905253 0 0 Z M89.125 46.79492188 C85.94000311 50.685538 83.91370888 53.45466797 83.203125 58.51757812 C84.25371094 58.03546875 85.30429688 57.55335938 86.38671875 57.05664062 C87.8044874 56.41817527 89.22246765 55.78017964 90.640625 55.14257812 C91.32833984 54.82546875 92.01605469 54.50835937 92.72460938 54.18164062 C101.44590313 50.28748155 109.56311506 49.14742138 119.078125 49.20507812 C120.53992188 49.2135376 120.53992188 49.2135376 122.03125 49.22216797 C128.84579342 49.33749452 134.84730407 49.91617016 141.203125 52.51757812 C141.79657715 52.75879395 142.3900293 53.00000977 143.00146484 53.24853516 C147.10367383 54.92879832 151.1619485 56.69462405 155.203125 58.51757812 C153.67097685 50.64304929 147.71087193 43.91126245 141.203125 39.51757812 C123.37819827 29.35158437 103.29419004 31.26740723 89.125 46.79492188 Z M87.203125 77.51757812 C86.63980469 77.95199219 86.07648438 78.38640625 85.49609375 78.83398438 C83.86298401 80.1050614 83.86298401 80.1050614 82.203125 82.51757812 C81.66047718 89.4363378 85.94662761 94.39660834 90.203125 99.51757812 C96.84713004 106.60631373 104.94124661 111.09174247 114.70703125 111.75585938 C126.99938772 112.09259471 136.84958854 110.06761696 146.203125 101.51757812 C151.31272243 96.58960146 154.28339514 90.93839998 157.203125 84.51757812 C147.5988153 72.45062491 137.05784583 66.5674466 121.7265625 64.70507812 C108.32668841 63.99200279 97.15221408 68.89764044 87.203125 77.51757812 Z M118.203125 146.51757812 C116.31941956 151.42365528 114.4501331 156.33489194 112.59399414 161.25146484 C111.96056103 162.92320918 111.32321441 164.59347611 110.68188477 166.26220703 C109.76065496 168.66125786 108.85363497 171.06527166 107.94921875 173.47070312 C107.51493813 174.58810883 107.51493813 174.58810883 107.07188416 175.72808838 C105.69021462 179.44528529 104.91993194 181.7463879 106.203125 185.51757812 C107.40836197 187.48875421 107.40836197 187.48875421 108.92578125 189.40820312 C109.46396484 190.1171875 110.00214844 190.82617188 110.55664062 191.55664062 C111.12060547 192.28625 111.68457031 193.01585937 112.265625 193.76757812 C112.83345703 194.51265625 113.40128906 195.25773437 113.98632812 196.02539062 C115.38625183 197.86058473 116.79195721 199.69102499 118.203125 201.51757812 C122.7483759 200.00249449 124.62233009 196.56368496 127.453125 192.83007812 C128.0203125 192.12173828 128.5875 191.41339844 129.171875 190.68359375 C129.96851563 189.63655273 129.96851563 189.63655273 130.78125 188.56835938 C131.27012695 187.93583252 131.75900391 187.30330566 132.26269531 186.65161133 C134.51256677 181.54617871 131.36310672 175.82613832 129.48046875 170.93164062 C129.21553116 170.22985687 128.95059357 169.52807312 128.67762756 168.80502319 C127.8371223 166.58221089 126.98900961 164.36239343 126.140625 162.14257812 C125.56655075 160.62844716 124.99297781 159.11412603 124.41992188 157.59960938 C123.02011279 153.90337371 121.6134775 150.20980296 120.203125 146.51757812 C119.543125 146.51757812 118.883125 146.51757812 118.203125 146.51757812 Z " fill="#000000" transform="translate(136.796875,271.482421875)"/>
<path d="M0 0 C1.75371563 -0.01656901 3.50736348 -0.04387178 5.26074219 -0.08203125 C7.78974409 -0.13678186 10.31716511 -0.15866825 12.84667969 -0.17333984 C13.62909027 -0.19600922 14.41150085 -0.21867859 15.21762085 -0.24203491 C19.10773202 -0.22693028 20.86590096 -0.01680488 23.76220703 2.67456055 C25.65552932 6.05496442 25.66625281 8.31370968 25.51074219 12.16259766 C25.47464844 13.32404297 25.43855469 14.48548828 25.40136719 15.68212891 C25.35496094 16.56255859 25.30855469 17.44298828 25.26074219 18.35009766 C27.54649813 19.20125348 27.54649813 19.20125348 30.26074219 19.35009766 C32.53286551 17.7670259 32.53286551 17.7670259 34.44824219 15.47509766 C38.87788734 10.61349858 38.87788734 10.61349858 42.88574219 9.85009766 C48.09287658 10.62152497 50.61164184 13.71921246 54.26074219 17.35009766 C54.73914551 17.82157227 55.21754883 18.29304688 55.71044922 18.77880859 C58.78336767 21.80828334 61.83530333 24.85734003 64.85595703 27.93896484 C66.23058551 29.31980472 67.64582151 30.65983793 69.06152344 31.99853516 C71.96948869 35.10794028 72.26074219 37.1346331 72.26074219 41.35009766 C70.84323331 44.65761838 69.21657731 46.39118127 66.57324219 48.85009766 C63.99051786 51.10881982 63.99051786 51.10881982 64.11621094 54.00634766 C64.18775391 55.16650391 64.18775391 55.16650391 64.26074219 56.35009766 C65.15277344 56.32689453 66.04480469 56.30369141 66.96386719 56.27978516 C68.13433594 56.26173828 69.30480469 56.24369141 70.51074219 56.22509766 C71.67089844 56.20189453 72.83105469 56.17869141 74.02636719 56.15478516 C77.13802324 56.34268709 78.73058536 56.59755783 81.26074219 58.35009766 C83.78097643 62.13044903 83.601735 65.21075381 83.63183594 69.59619141 C83.64086441 70.40371353 83.64989288 71.21123566 83.65919495 72.04322815 C83.67369543 73.75037936 83.68258369 75.45758613 83.6862793 77.16479492 C83.69818491 79.77504059 83.74737527 82.38292849 83.79785156 84.99267578 C83.80731504 86.65216946 83.81455044 88.31167765 83.81933594 89.97119141 C83.83886826 90.75046494 83.85840057 91.52973846 83.87852478 92.33262634 C83.84626251 96.21182402 83.61975121 97.96445491 80.93408203 100.84936523 C77.55483235 102.74637416 75.29775684 102.7556336 71.44824219 102.60009766 C70.28679687 102.56400391 69.12535156 102.52791016 67.92871094 102.49072266 C67.04828125 102.44431641 66.16785156 102.39791016 65.26074219 102.35009766 C64.40958636 104.6358536 64.40958636 104.6358536 64.26074219 107.35009766 C65.84381395 109.62222097 65.84381395 109.62222097 68.13574219 111.53759766 C72.99734126 115.96724281 72.99734126 115.96724281 73.76074219 119.97509766 C72.98931487 125.18223204 69.89162739 127.70099731 66.26074219 131.35009766 C65.78926758 131.82850098 65.31779297 132.3069043 64.83203125 132.79980469 C61.80255536 135.8727243 58.7532314 138.92438216 55.67211914 141.94555664 C54.29106473 143.31992198 52.94909936 144.73321439 51.60839844 146.14697266 C48.47264794 149.08967363 46.52921085 149.42498307 42.26074219 149.35009766 C38.97549524 147.61084927 36.70428319 145.83396056 34.19824219 143.10009766 C31.72980316 140.87053983 30.48361889 141.20191942 27.26074219 141.35009766 C27.31294922 142.67074219 27.31294922 142.67074219 27.36621094 144.01806641 C27.39328125 145.17951172 27.42035156 146.34095703 27.44824219 147.53759766 C27.50044922 149.26042969 27.50044922 149.26042969 27.55371094 151.01806641 C27.23397752 154.65450116 26.44232491 156.46068906 24.26074219 159.35009766 C19.39225291 161.78434229 11.93610372 160.66266423 6.52148438 160.70019531 C4.76776874 160.71676432 3.0141209 160.74406709 1.26074219 160.78222656 C-1.26825971 160.83697717 -3.79568074 160.85886356 -6.32519531 160.87353516 C-7.1076059 160.89620453 -7.89001648 160.9188739 -8.69613647 160.94223022 C-12.58624764 160.92712559 -14.34441658 160.71700019 -17.24072266 158.02563477 C-19.13404494 154.6452309 -19.14476844 152.38648563 -18.98925781 148.53759766 C-18.95316406 147.37615234 -18.91707031 146.21470703 -18.87988281 145.01806641 C-18.83347656 144.13763672 -18.78707031 143.25720703 -18.73925781 142.35009766 C-21.02501376 141.49894183 -21.02501376 141.49894183 -23.73925781 141.35009766 C-26.01138113 142.93316942 -26.01138113 142.93316942 -27.92675781 145.22509766 C-32.35640296 150.08669673 -32.35640296 150.08669673 -36.36425781 150.85009766 C-41.5713922 150.07867034 -44.09015747 146.98098286 -47.73925781 143.35009766 C-48.21766113 142.87862305 -48.69606445 142.40714844 -49.18896484 141.92138672 C-52.2618833 138.89191197 -55.31381896 135.84285528 -58.33447266 132.76123047 C-59.70910114 131.3803906 -61.12433713 130.04035738 -62.54003906 128.70166016 C-65.44800432 125.59225504 -65.73925781 123.56556222 -65.73925781 119.35009766 C-64.32174893 116.04257693 -62.69509293 114.30901405 -60.05175781 111.85009766 C-57.46903348 109.59137549 -57.46903348 109.59137549 -57.59472656 106.69384766 C-57.64242187 105.92041016 -57.69011719 105.14697266 -57.73925781 104.35009766 C-58.6196875 104.38490234 -59.50011719 104.41970703 -60.40722656 104.45556641 C-61.56867188 104.48263672 -62.73011719 104.50970703 -63.92675781 104.53759766 C-65.64958984 104.58980469 -65.64958984 104.58980469 -67.40722656 104.64306641 C-71.04366131 104.32333299 -72.84984921 103.53168038 -75.73925781 101.35009766 C-78.17350245 96.48160838 -77.05182439 89.02545919 -77.08935547 83.61083984 C-77.10592448 81.85712421 -77.13322725 80.10347637 -77.17138672 78.35009766 C-77.22613732 75.82109575 -77.24802372 73.29367473 -77.26269531 70.76416016 C-77.28536469 69.98174957 -77.30803406 69.19933899 -77.33139038 68.39321899 C-77.31628574 64.50310782 -77.10616035 62.74493889 -74.41479492 59.84863281 C-71.03439105 57.95531052 -68.77564579 57.94458703 -64.92675781 58.10009766 C-63.7653125 58.13619141 -62.60386719 58.17228516 -61.40722656 58.20947266 C-60.52679688 58.25587891 -59.64636719 58.30228516 -58.73925781 58.35009766 C-57.88810198 56.06434171 -57.88810198 56.06434171 -57.73925781 53.35009766 C-59.32232957 51.07797434 -59.32232957 51.07797434 -61.61425781 49.16259766 C-66.47585689 44.7329525 -66.47585689 44.7329525 -67.23925781 40.72509766 C-66.4678305 35.51796327 -63.37014301 32.999198 -59.73925781 29.35009766 C-59.2677832 28.87169434 -58.79630859 28.39329102 -58.31054688 27.90039062 C-55.28203232 24.82844612 -52.2307793 21.78075794 -49.15625 18.75488281 C-47.75608623 17.3667811 -46.37640176 15.95812075 -44.99707031 14.54931641 C-42.51982652 12.13636095 -41.4709179 11.48946148 -38.11425781 10.85009766 C-33.64532524 11.51216174 -31.80654129 13.6024966 -28.66894531 16.72119141 C-26.09234305 18.89617753 -24.05724715 19.35009766 -20.73925781 19.35009766 C-20.79146484 18.02945313 -20.79146484 18.02945313 -20.84472656 16.68212891 C-20.87179688 15.52068359 -20.89886719 14.35923828 -20.92675781 13.16259766 C-20.97896484 11.43976563 -20.97896484 11.43976563 -21.03222656 9.68212891 C-20.71249314 6.04569415 -19.92084054 4.23950625 -17.73925781 1.35009766 C-12.87076854 -1.08414698 -5.41461935 0.03753108 0 0 Z M-3.73925781 17.35009766 C-3.82175781 19.26822266 -3.90425781 21.18634766 -3.98925781 23.16259766 C-4.23283841 28.82584659 -4.23283841 28.82584659 -6.40332031 31.07275391 C-9.16229611 32.58142462 -11.94468419 33.80583353 -14.86425781 34.97509766 C-18.8491035 36.55778319 -18.8491035 36.55778319 -22.73925781 38.35009766 C-28.18433838 39.00726255 -30.81618108 38.69495106 -35.23925781 35.35009766 C-36.39425781 34.36009766 -37.54925781 33.37009766 -38.73925781 32.35009766 C-41.04925781 34.66009766 -43.35925781 36.97009766 -45.73925781 39.35009766 C-44.08301695 43.26423621 -44.08301695 43.26423621 -41.67675781 45.22509766 C-39.16669054 47.97807466 -39.01097207 49.65745632 -38.73925781 53.35009766 C-39.62988281 56.31494141 -39.62988281 56.31494141 -40.98925781 59.28759766 C-41.68921875 60.84414062 -41.68921875 60.84414062 -42.40332031 62.43212891 C-42.84417969 63.39505859 -43.28503906 64.35798828 -43.73925781 65.35009766 C-44.28484248 66.72354775 -44.82736474 68.09822671 -45.36425781 69.47509766 C-46.73925781 72.35009766 -46.73925781 72.35009766 -49.73925781 74.35009766 C-53.06523989 74.90530096 -56.3723279 75.08773948 -59.73925781 75.35009766 C-59.73925781 79.31009766 -59.73925781 83.27009766 -59.73925781 87.35009766 C-57.82113281 87.43259766 -55.90300781 87.51509766 -53.92675781 87.60009766 C-48.26350888 87.84367826 -48.26350888 87.84367826 -46.01660156 90.01416016 C-44.50793085 92.77313596 -43.28352194 95.55552403 -42.11425781 98.47509766 C-40.53157228 102.45994335 -40.53157228 102.45994335 -38.73925781 106.35009766 C-38.08209292 111.79517823 -38.39440441 114.42702092 -41.73925781 118.85009766 C-42.72925781 120.00509766 -43.71925781 121.16009766 -44.73925781 122.35009766 C-42.42925781 124.66009766 -40.11925781 126.97009766 -37.73925781 129.35009766 C-33.82511926 127.6938568 -33.82511926 127.6938568 -31.86425781 125.28759766 C-29.11128081 122.77753039 -27.43189915 122.62181192 -23.73925781 122.35009766 C-20.77441406 123.24072266 -20.77441406 123.24072266 -17.80175781 124.60009766 C-16.7640625 125.06673828 -15.72636719 125.53337891 -14.65722656 126.01416016 C-13.21283203 126.67544922 -13.21283203 126.67544922 -11.73925781 127.35009766 C-10.36580772 127.89568232 -8.99112876 128.43820458 -7.61425781 128.97509766 C-4.73925781 130.35009766 -4.73925781 130.35009766 -2.73925781 133.35009766 C-2.18405451 136.67607973 -2.00161599 139.98316775 -1.73925781 143.35009766 C2.22074219 143.35009766 6.18074219 143.35009766 10.26074219 143.35009766 C10.34324219 141.43197266 10.42574219 139.51384766 10.51074219 137.53759766 C10.75432279 131.87434873 10.75432279 131.87434873 12.92480469 129.62744141 C15.68378049 128.11877069 18.46616856 126.89436179 21.38574219 125.72509766 C25.37058788 124.14241212 25.37058788 124.14241212 29.26074219 122.35009766 C34.70582276 121.69293276 37.33766545 122.00524425 41.76074219 125.35009766 C42.91574219 126.34009766 44.07074219 127.33009766 45.26074219 128.35009766 C47.57074219 126.04009766 49.88074219 123.73009766 52.26074219 121.35009766 C50.60450133 117.4359591 50.60450133 117.4359591 48.19824219 115.47509766 C45.68817492 112.72212065 45.53245645 111.042739 45.26074219 107.35009766 C46.15136719 104.38525391 46.15136719 104.38525391 47.51074219 101.41259766 C47.97738281 100.37490234 48.44402344 99.33720703 48.92480469 98.26806641 C49.36566406 97.30513672 49.80652344 96.34220703 50.26074219 95.35009766 C50.80632685 93.97664757 51.34884911 92.6019686 51.88574219 91.22509766 C53.26074219 88.35009766 53.26074219 88.35009766 56.26074219 86.35009766 C59.58672426 85.79489435 62.89381228 85.61245583 66.26074219 85.35009766 C66.26074219 81.39009766 66.26074219 77.43009766 66.26074219 73.35009766 C64.34261719 73.26759766 62.42449219 73.18509766 60.44824219 73.10009766 C54.78499326 72.85651706 54.78499326 72.85651706 52.53808594 70.68603516 C51.02941522 67.92705936 49.80500632 65.14467128 48.63574219 62.22509766 C47.05305665 58.24025197 47.05305665 58.24025197 45.26074219 54.35009766 C44.60357729 48.90501709 44.91588878 46.27317439 48.26074219 41.85009766 C49.25074219 40.69509766 50.24074219 39.54009766 51.26074219 38.35009766 C48.95074219 36.04009766 46.64074219 33.73009766 44.26074219 31.35009766 C40.34660363 33.00633852 40.34660363 33.00633852 38.38574219 35.41259766 C35.63276518 37.92266493 33.95338353 38.0783834 30.26074219 38.35009766 C27.29589844 37.45947266 27.29589844 37.45947266 24.32324219 36.10009766 C23.28554688 35.63345703 22.24785156 35.16681641 21.17871094 34.68603516 C20.21578125 34.24517578 19.25285156 33.80431641 18.26074219 33.35009766 C16.8872921 32.80451299 15.51261313 32.26199073 14.13574219 31.72509766 C11.26074219 30.35009766 11.26074219 30.35009766 9.26074219 27.35009766 C8.70553888 24.02411558 8.52310036 20.71702757 8.26074219 17.35009766 C4.30074219 17.35009766 0.34074219 17.35009766 -3.73925781 17.35009766 Z " fill="#000000" transform="translate(252.7392578125,111.64990234375)"/>
<path d="M0 0 C4.72876909 1.40585027 8.1287171 4.97928846 11.71289062 8.24121094 C14.01437705 10.32210312 16.37070026 12.33739343 18.72265625 14.36083984 C20.64890091 16.02059429 22.56746337 17.68885428 24.484375 19.359375 C29.80849909 23.99443146 35.1750941 28.57965488 40.5390625 33.16845703 C42.40298344 34.76500385 44.2642613 36.36458956 46.125 37.96484375 C46.75269287 38.50423584 47.38038574 39.04362793 48.02709961 39.59936523 C49.221171 40.62558196 50.41472948 41.65239592 51.60766602 42.67993164 C54.08856815 44.81057146 56.57413741 46.89191547 59.15234375 48.90625 C62.27309125 51.47959694 62.2802583 52.35970941 62.6875 56.5 C62.8359375 58.51953125 62.8359375 58.51953125 62.3125 60.6875 C60.140625 63.12109375 60.140625 63.12109375 57.3125 65.6875 C56.41273438 66.53828125 55.51296875 67.3890625 54.5859375 68.265625 C48.85457272 73.54898552 43.03554753 78.61679411 36.9609375 83.5078125 C34.33974881 85.66507399 31.82095719 87.90061 29.3125 90.1875 C25.03095009 94.0835075 20.62763059 97.78391024 16.109375 101.40234375 C14.18581388 102.9739684 12.30170161 104.59473298 10.453125 106.25390625 C2.51579646 113.25936611 2.51579646 113.25936611 -2.125 113.5 C-6.23657672 112.56227198 -7.30651196 112.12670494 -9.6875 108.6875 C-10.17987133 105.2583903 -10.06331435 101.89255572 -9.9375 98.4375 C-9.91945313 97.50164062 -9.90140625 96.56578125 -9.8828125 95.6015625 C-9.83575673 93.29582985 -9.77003713 90.99219055 -9.6875 88.6875 C-11.55338776 88.70082367 -11.55338776 88.70082367 -13.45697021 88.7144165 C-25.16972494 88.79544139 -36.88242293 88.85543621 -48.59539413 88.89474869 C-54.61742568 88.91563898 -60.6392313 88.94398342 -66.66113281 88.98925781 C-72.47070797 89.0326634 -78.28006558 89.05662624 -84.08979034 89.06700897 C-86.30822424 89.0744098 -88.526646 89.08886157 -90.74498749 89.11042023 C-93.84815871 89.13938334 -96.95042668 89.1434589 -100.05371094 89.14160156 C-100.97440369 89.15598267 -101.89509644 89.17036377 -102.84368896 89.18518066 C-108.98837579 89.14528579 -108.98837579 89.14528579 -112.25726318 87.00482178 C-114.00496574 84.17313045 -114.19423125 82.47566969 -114.20507812 79.15625 C-114.21768677 78.04830078 -114.23029541 76.94035156 -114.24328613 75.79882812 C-114.23518921 74.60708984 -114.22709229 73.41535156 -114.21875 72.1875 C-114.2225769 70.95966797 -114.22640381 69.73183594 -114.23034668 68.46679688 C-114.23306842 65.87108541 -114.22568911 63.27534664 -114.20898438 60.6796875 C-114.18758075 56.70250401 -114.20877963 52.72712718 -114.234375 48.75 C-114.23173177 46.22916267 -114.22660691 43.70832647 -114.21875 41.1875 C-114.22684692 39.99576172 -114.23494385 38.80402344 -114.24328613 37.57617188 C-114.23067749 36.46822266 -114.21806885 35.36027344 -114.20507812 34.21875 C-114.20189575 33.24486328 -114.19871338 32.27097656 -114.19543457 31.26757812 C-113.6875 28.6875 -113.6875 28.6875 -112.25726318 26.37017822 C-108.31868476 23.79120122 -104.66420109 24.16138317 -100.05371094 24.23339844 C-99.07776978 24.23281433 -98.10182861 24.23223022 -97.09631348 24.23162842 C-93.8711386 24.23441469 -90.64688839 24.26553314 -87.421875 24.296875 C-85.18557236 24.30433544 -82.94926318 24.3100293 -80.71295166 24.31402588 C-74.82733101 24.32929762 -68.94210526 24.36859318 -63.05664062 24.4128418 C-57.0508356 24.453761 -51.04496675 24.47202976 -45.0390625 24.4921875 C-33.25503484 24.53508556 -21.47130026 24.60335589 -9.6875 24.6875 C-9.7189209 23.81013184 -9.7189209 23.81013184 -9.75097656 22.91503906 C-9.83430115 20.25603535 -9.88620897 17.59730645 -9.9375 14.9375 C-9.97101563 14.01710938 -10.00453125 13.09671875 -10.0390625 12.1484375 C-10.13776617 5.33788446 -10.13776617 5.33788446 -7.89453125 2.09765625 C-5.27445127 0.42358745 -3.12020341 -0.18354138 0 0 Z M6.3125 27.6875 C6.27511719 28.30238281 6.23773438 28.91726562 6.19921875 29.55078125 C6.13347656 30.35902344 6.06773437 31.16726562 6 32 C5.94199219 32.80050781 5.88398438 33.60101563 5.82421875 34.42578125 C5.20744018 37.15184836 4.47461146 37.95619477 2.3125 39.6875 C0.38161945 40.07226086 0.38161945 40.07226086 -1.84465027 40.08622742 C-3.11295937 40.10503464 -3.11295937 40.10503464 -4.40689087 40.1242218 C-5.33117889 40.12278671 -6.25546692 40.12135162 -7.20776367 40.11987305 C-8.18355881 40.1300647 -9.15935394 40.14025635 -10.16471863 40.15075684 C-13.3950263 40.18098826 -16.62503795 40.19016837 -19.85546875 40.19921875 C-22.09321588 40.21605789 -24.3309535 40.23420708 -26.56867981 40.25361633 C-32.46232128 40.30120539 -38.35592423 40.3309572 -44.24969482 40.35705566 C-50.26224375 40.38681625 -56.27465983 40.433362 -62.28710938 40.47851562 C-74.08718554 40.5646502 -85.88724757 40.63039946 -97.6875 40.6875 C-97.6875 51.2475 -97.6875 61.8075 -97.6875 72.6875 C-93.16712036 72.70937378 -93.16712036 72.70937378 -88.55541992 72.73168945 C-78.61277367 72.7819643 -68.6702852 72.84854659 -58.72779369 72.92321491 C-52.69801855 72.96799513 -46.66831219 73.00723435 -40.63842773 73.03393555 C-34.82225389 73.05989219 -29.00634362 73.10024023 -23.19033241 73.15068626 C-20.96834904 73.16740678 -18.74632002 73.17888864 -16.52428246 73.18511391 C-13.41849326 73.19469865 -10.3133863 73.22269041 -7.20776367 73.25512695 C-6.28347565 73.25369186 -5.35918762 73.25225677 -4.40689087 73.2507782 C-3.56135147 73.26331635 -2.71581207 73.27585449 -1.84465027 73.28877258 C-0.74264676 73.29568603 -0.74264676 73.29568603 0.38161945 73.30273914 C2.8690749 73.79840703 3.76158831 74.71687529 5.3125 76.6875 C5.82421875 78.94921875 5.82421875 78.94921875 6 81.375 C6.06574219 82.18324219 6.13148438 82.99148437 6.19921875 83.82421875 C6.25529297 84.74654297 6.25529297 84.74654297 6.3125 85.6875 C9.94427507 83.64703274 12.89518448 81.40131615 15.9375 78.5625 C20.39057608 74.48051359 24.98903519 70.63956469 29.68359375 66.83984375 C33.30400687 63.87573137 36.8195741 60.80010732 40.3125 57.6875 C38.73683098 53.4049124 35.47462788 51.00188285 32.0625 48.1875 C30.79918434 47.1279556 29.53617267 46.06804865 28.2734375 45.0078125 C27.62213867 44.46415039 26.97083984 43.92048828 26.29980469 43.36035156 C24.32050836 41.69424119 22.36420684 40.00478809 20.4140625 38.3046875 C19.78918945 37.76134766 19.16431641 37.21800781 18.52050781 36.65820312 C17.32234223 35.61515435 16.12628365 34.56967896 14.93261719 33.52148438 C12.20217738 31.15906735 9.66606719 29.07800347 6.3125 27.6875 Z " fill="#000000" transform="translate(433.6875,15.3125)"/>
<path d="M0 0 C7.28968985 5.25394034 12.21924172 11.8521518 14.5859375 20.55859375 C15.66491867 31.85025711 14.57414541 40.95998195 7.3359375 49.87109375 C1.57452338 55.97794598 -5.25779617 60.0331922 -13.7109375 60.89453125 C-21.49168462 60.98254875 -27.54272267 60.30884027 -34.4140625 56.55859375 C-35.38279297 56.03265625 -35.38279297 56.03265625 -36.37109375 55.49609375 C-43.77646432 50.84958673 -47.79034314 43.24266267 -49.94921875 34.96484375 C-51.57440589 26.55211034 -50.33498338 18.20953777 -45.7890625 10.93359375 C-35.02255143 -3.93197454 -16.46787415 -9.83275981 0 0 Z M-29.4140625 17.55859375 C-32.3422702 21.3108599 -33.77068375 24.9012114 -33.4140625 29.68359375 C-32.46560386 34.56001241 -30.07008065 38.10330507 -26.3515625 41.37109375 C-22.26287508 43.87706346 -18.08137543 44.1591671 -13.4140625 43.55859375 C-9.28624146 42.17710526 -6.38223992 40.00071231 -3.9765625 36.37109375 C-1.90211599 32.18627959 -1.58790586 28.13166283 -2.4140625 23.55859375 C-5.11585713 18.25507095 -8.70903145 14.46027077 -14.4140625 12.55859375 C-20.7205214 11.81665741 -24.76995438 13.40704255 -29.4140625 17.55859375 Z " fill="#000000" transform="translate(273.4140625,163.44140625)"/>
<path d="M0 0 C8.31952301 6.27963996 13.92561964 13.73603461 15.5 24.25 C16.00906416 31.37689829 14.18720866 37.13886784 9.625 42.6875 C3.78793104 47.61835734 -0.87101822 49.07427148 -8.5234375 48.953125 C-13.84492806 48.45742451 -17.51336797 46.80829194 -21.05859375 42.76953125 C-23.8161635 38.88417737 -25.75367183 34.94772141 -27.4375 30.5 C-30.41532193 22.71185034 -34.53531608 19.23930496 -41.9375 15.76953125 C-43.89264001 14.90162455 -45.85191226 14.0430292 -47.8125 13.1875 C-50.92285888 11.36680212 -52.05132594 10.03561674 -53.375 6.6875 C-53.30523312 3.26892309 -52.89959589 1.38740727 -50.84375 -1.35546875 C-47.43464718 -4.05793792 -44.14820708 -4.71071909 -39.9375 -5.5625 C-39.13489746 -5.72943359 -38.33229492 -5.89636719 -37.50537109 -6.06835938 C-23.76992927 -8.75459625 -11.90529367 -7.90127114 0 0 Z M-18.375 10.6875 C-17.10667312 13.25126764 -15.83543635 15.81352212 -14.5625 18.375 C-14.20607422 19.09623047 -13.84964844 19.81746094 -13.48242188 20.56054688 C-11.58693781 24.36890477 -9.63292874 28.07623857 -7.375 31.6875 C-4.82277664 31.34720355 -3.66689887 31.01747263 -1.9375 29.0625 C-1.23990419 26.11709547 -1.82110436 24.25947811 -3.12890625 21.5625 C-6.93881905 15.82971584 -11.85140661 12.59525556 -18.375 10.6875 Z " fill="#000000" transform="translate(468.375,364.3125)"/>
<path d="M0 0 C1.89162604 3.60309722 2.37353266 6.60954693 1.3125 10.5 C-0.69809496 13.49904388 -3.13810572 15.95589492 -5.6875 18.5 C-11.55279659 24.95790428 -12.86859926 29.68437303 -13 38.1875 C-13.29031238 46.08558753 -14.14210059 53.27357598 -20.24609375 58.94921875 C-26.50114595 63.39482941 -33.33223496 62.99881575 -40.6875 62.5 C-47.2191109 60.28391773 -51.57182173 55.57557264 -54.6875 49.5 C-57.55471279 40.47433721 -56.29365308 30.71709767 -52.2890625 22.31640625 C-46.69170283 12.47324449 -39.45166452 5.10085116 -28.52734375 1.44140625 C-25.58732064 0.67998762 -22.67599597 0.03735059 -19.6875 -0.5 C-18.20056641 -0.77263672 -18.20056641 -0.77263672 -16.68359375 -1.05078125 C-5.01675106 -2.8000471 -5.01675106 -2.8000471 0 0 Z M-29.6875 21.5 C-34.86711209 26.73153802 -38.67662007 31.07321256 -38.9375 38.625 C-39.00779973 42.56119548 -39.00779973 42.56119548 -36.6875 45.5 C-34.14542029 45.83343551 -34.14542029 45.83343551 -31.6875 45.5 C-29.62190423 43.43440423 -30.31579706 39.17067329 -30.1875 36.3125 C-29.95664122 31.2977342 -29.63380926 26.44446589 -28.6875 21.5 C-29.0175 21.5 -29.3475 21.5 -29.6875 21.5 Z " fill="#000000" transform="translate(86.6875,409.5)"/>
<path d="M0 0 C4.08288689 1.3609623 4.88685817 3.47953322 7.1875 7.0625 C7.90292969 8.16722656 8.61835938 9.27195313 9.35546875 10.41015625 C9.89816406 11.26480469 10.44085938 12.11945313 11 13 C7.78749581 16.46355085 4.19045059 19.1027973 0.29296875 21.73046875 C-0.35065109 22.16635818 -0.99427094 22.60224762 -1.65739441 23.05134583 C-3.01476245 23.96734764 -4.37387454 24.88076976 -5.73461914 25.79174805 C-7.80369173 27.18158332 -9.85972065 28.58939999 -11.91601562 29.99804688 C-13.24142279 30.88915929 -14.56757119 31.77917041 -15.89453125 32.66796875 C-16.80583549 33.29761787 -16.80583549 33.29761787 -17.73554993 33.93998718 C-21.80346421 36.62403408 -25.13547883 37.74721095 -30 38 C-32.37109375 36.99609375 -32.37109375 36.99609375 -34.4375 35.4375 C-35.18773437 34.88707031 -35.93796875 34.33664063 -36.7109375 33.76953125 C-37.46632813 33.18558594 -38.22171875 32.60164063 -39 32 C-39.77601563 31.42636719 -40.55203125 30.85273438 -41.3515625 30.26171875 C-43.24793156 28.85786957 -45.12913566 27.43755788 -47 26 C-51.33629696 28.78067473 -55.29068373 31.81455522 -59.1875 35.1875 C-60.31966246 36.15700961 -61.4524875 37.12574596 -62.5859375 38.09375 C-63.15151367 38.57714844 -63.71708984 39.06054688 -64.29980469 39.55859375 C-68.4803188 43.10278607 -72.74470281 46.54630188 -77 50 C-80.58816739 48.50493025 -82.6850306 46.45521549 -85.25 43.5625 C-85.95640625 42.78003906 -86.6628125 41.99757812 -87.390625 41.19140625 C-89 39 -89 39 -89 36 C-87.05078125 34.125 -87.05078125 34.125 -84.3125 32 C-82.80816406 30.81083984 -82.80816406 30.81083984 -81.2734375 29.59765625 C-80.7381543 29.17629395 -80.20287109 28.75493164 -79.65136719 28.32080078 C-76.86060243 26.08868409 -74.15377347 23.75917016 -71.4375 21.4375 C-60.0882315 11.79825731 -60.0882315 11.79825731 -55 8 C-54.2265625 7.4121875 -53.453125 6.824375 -52.65625 6.21875 C-48.93589295 4.51176265 -46.92220174 4.91215206 -43 6 C-40.5682899 7.44224608 -38.45904132 9.1666551 -36.3125 11 C-31.71802337 15.20425726 -31.71802337 15.20425726 -26 17 C-23.06907202 15.53684529 -23.06907202 15.53684529 -20.02734375 13.34375 C-19.46302139 12.96263062 -18.89869904 12.58151123 -18.317276 12.18884277 C-16.5156428 10.97102155 -14.72576835 9.73734811 -12.9375 8.5 C-11.14516743 7.26349461 -9.3506927 6.03105848 -7.54701233 4.81115723 C-5.91232392 3.70528316 -4.28780846 2.58441627 -2.66381836 1.46289062 C-1.34522827 0.73875977 -1.34522827 0.73875977 0 0 Z " fill="#000000" transform="translate(441,153)"/>
<path d="M0 0 C2.98853164 2.90222025 5.15828202 5.63703259 7.25 9.25 C8.03117187 10.58804688 8.03117187 10.58804688 8.828125 11.953125 C9.21484375 12.62859375 9.6015625 13.3040625 10 14 C6.31924529 18.25242506 1.73776075 20.70922519 -3.0625 23.5 C-11.16267866 28.27750718 -19.152456 33.19899108 -27.08227539 38.25390625 C-27.83114014 38.73085937 -28.58000488 39.2078125 -29.3515625 39.69921875 C-30.00979004 40.12033936 -30.66801758 40.54145996 -31.34619141 40.9753418 C-34.14232244 42.70775425 -36.44980117 43.56875084 -39.796875 43.5546875 C-44.88872422 42.27269709 -48.974439 38.22414763 -53 35 C-54.3298503 33.99537272 -55.6617936 32.99346939 -57 32 C-60.2720594 33.42111983 -62.31965496 35.13535987 -64.75 37.73046875 C-65.4409375 38.45041016 -66.131875 39.17035156 -66.84375 39.91210938 C-68.28711156 41.43522189 -69.72458502 42.96393485 -71.15625 44.49804688 C-71.8471875 45.21412109 -72.538125 45.93019531 -73.25 46.66796875 C-73.87390625 47.33078857 -74.4978125 47.9936084 -75.140625 48.67651367 C-77 50 -77 50 -79.0847168 49.82861328 C-81.87415375 48.62181289 -83.65738442 46.81476271 -85.8125 44.6875 C-86.62332031 43.90761719 -87.43414062 43.12773437 -88.26953125 42.32421875 C-90 40 -90 40 -89.79736328 38.04858398 C-88.87128963 35.6693176 -87.86627164 34.59710185 -85.97265625 32.8984375 C-85.34963623 32.33020264 -84.72661621 31.76196777 -84.0847168 31.17651367 C-83.41738525 30.58201416 -82.75005371 29.98751465 -82.0625 29.375 C-80.69391998 28.13043581 -79.3267379 26.88433269 -77.9609375 25.63671875 C-76.95111816 24.71705322 -76.95111816 24.71705322 -75.92089844 23.77880859 C-72.44952267 20.56421228 -69.1560626 17.18202073 -65.85546875 13.79296875 C-63.40556998 11.42559289 -62.29682095 11.04234992 -58.87890625 10.5546875 C-52.80084825 11.25247059 -49.38088128 15.01218023 -44.87304688 18.91015625 C-41.00991745 22.23820063 -41.00991745 22.23820063 -36.171875 22.78515625 C-31.44016439 20.12211222 -26.85958339 17.27906289 -22.3125 14.3125 C-20.43359375 13.10026042 -18.5546875 11.88802083 -16.67578125 10.67578125 C-15.75104004 10.07588379 -14.82629883 9.47598633 -13.87353516 8.85791016 C-9.26588694 5.87879351 -4.63319139 2.93917903 0 0 Z " fill="#000000" transform="translate(451,198)"/>
<path d="M0 0 C3.70858506 1.48743887 5.42633266 3.50160917 7.78515625 6.68359375 C8.82833008 8.07481445 8.82833008 8.07481445 9.89257812 9.49414062 C10.60865234 10.46544922 11.32472656 11.43675781 12.0625 12.4375 C13.48893769 14.35431556 14.91724671 16.26974032 16.34765625 18.18359375 C16.97679932 19.03493896 17.60594238 19.88628418 18.25415039 20.76342773 C19.73981016 22.66667611 21.24648205 24.34679849 23 26 C23.97839844 25.6390625 24.95679688 25.278125 25.96484375 24.90625 C40.00186868 19.87126914 40.00186868 19.87126914 47 21 C50.9511156 24.37897856 53.4534191 28.06719679 56.03125 32.55078125 C56.38964966 33.16841843 56.74804932 33.7860556 57.11730957 34.42240906 C58.25228834 36.38160081 59.376487 38.34671498 60.5 40.3125 C61.62326853 42.26190037 62.74875474 44.21000245 63.875 46.15768433 C64.5980878 47.40922744 65.31947277 48.66175608 66.0390625 49.91531372 C67.95566718 53.24445379 69.93917152 56.50910987 72.03125 59.73046875 C74 63 74 63 74 66 C67.07 69.96 67.07 69.96 60 74 C55.35334893 67.13010511 50.94279658 60.14314553 46.625 53.0625 C45.98433594 52.02287109 45.34367187 50.98324219 44.68359375 49.91210938 C44.07902344 48.92146484 43.47445312 47.93082031 42.8515625 46.91015625 C42.30322754 46.01433838 41.75489258 45.11852051 41.18994141 44.19555664 C40 42 40 42 40 40 C38.94941406 40.3609375 37.89882812 40.721875 36.81640625 41.09375 C21.8106951 46.11650739 21.8106951 46.11650739 15 45 C9.8704952 40.66583653 6.07670479 35.02859142 2.0625 29.6875 C1.37220703 28.77548828 0.68191406 27.86347656 -0.02929688 26.92382812 C-1.38470465 25.13160648 -2.73559026 23.3359543 -4.08154297 21.53662109 C-5.32471402 19.89287622 -6.58833085 18.26431839 -7.87548828 16.65478516 C-8.43349121 15.95015137 -8.99149414 15.24551758 -9.56640625 14.51953125 C-10.06213135 13.90827393 -10.55785645 13.2970166 -11.06860352 12.66723633 C-11.37596436 12.11704834 -11.6833252 11.56686035 -12 11 C-10.68774191 7.06322574 -8.8038606 6.1728218 -5.4375 3.8125 C-4.42558594 3.09707031 -3.41367188 2.38164063 -2.37109375 1.64453125 C-1.58863281 1.10183594 -0.80617188 0.55914062 0 0 Z " fill="#000000" transform="translate(85,123)"/>
<path d="M0 0 C3.12215428 1.35727511 4.93163119 2.78281963 7.06640625 5.421875 C7.6294043 6.11152344 8.19240234 6.80117187 8.77246094 7.51171875 C9.36317383 8.25035156 9.95388672 8.98898438 10.5625 9.75 C11.17512695 10.50410156 11.78775391 11.25820312 12.41894531 12.03515625 C16.89453883 17.56287424 21.30286018 23.14592702 25.62329102 28.79589844 C27.90471919 31.86147346 27.90471919 31.86147346 31 34 C33.39152122 33.24618305 35.71466922 32.43412754 38.0625 31.5625 C43.92299903 29.51017156 48.72884336 28.07474738 55 29 C58.86820193 32.05025614 60.7835998 36.04449089 62.890625 40.390625 C63.24010193 41.09523865 63.58957886 41.79985229 63.949646 42.52581787 C65.05737207 44.7635499 66.15380445 47.00660068 67.25 49.25 C68.00186373 50.77380306 68.75446017 52.29724484 69.5078125 53.8203125 C71.34705087 57.54274563 73.17618489 61.26998758 75 65 C72.06459587 67.25073569 69.19209865 69.03885246 65.875 70.6875 C65.00617188 71.12449219 64.13734375 71.56148438 63.2421875 72.01171875 C61 73 61 73 59 73 C55.04 65.08 51.08 57.16 47 49 C40.91762554 50.28516276 40.91762554 50.28516276 35 52.125 C31.04128051 53.27962652 27.04866157 54.00688453 23 53 C18.59862198 49.2169974 15.03702619 44.55001404 11.375 40.0625 C10.76470947 39.31830811 10.15441895 38.57411621 9.52563477 37.80737305 C5.16377174 32.47115407 0.86887117 27.08510961 -3.35986328 21.64282227 C-5.45298043 18.95066902 -7.58344867 16.31332406 -9.80859375 13.73046875 C-12 11 -12 11 -12 9 C-10.03062339 7.37643654 -8.06654852 5.86440434 -6 4.375 C-5.42765625 3.95476562 -4.8553125 3.53453125 -4.265625 3.1015625 C-2.84796067 2.06194199 -1.42450738 1.03022409 0 0 Z " fill="#000000" transform="translate(61,163)"/>
</svg>
