<?xml version="1.0" encoding="UTF-8"?>
<svg version="1.1" xmlns="http://www.w3.org/2000/svg" width="512" height="512">
<path d="M0 0 C6.60801718 4.92135107 13.59331015 6.7761643 21.4881134 8.75061035 C22.86424046 9.10939958 24.23988947 9.47002675 25.61508179 9.8323822 C29.2128295 10.77672783 32.81499592 11.70274119 36.41902161 12.62280273 C42.18208443 14.09477463 47.94035042 15.58448092 53.69372749 17.0938549 C55.68411364 17.61156473 57.67772278 18.11495869 59.67205811 18.61720276 C71.55292125 21.71026213 81.85033854 25.62594903 89.35139465 35.78967285 C89.8834552 36.50792236 90.41551575 37.22617187 90.96369934 37.96618652 C91.36492004 38.51250732 91.76614075 39.05882812 92.17951965 39.6217041 C92.77165253 39.44568161 93.3637854 39.26965912 93.97386169 39.08830261 C107.80046344 34.9787316 121.63008334 30.87952134 135.46359253 26.79325867 C141.95115304 24.87594856 148.43582107 22.9496216 154.91566467 21.00639343 C158.29101136 19.99620211 161.6691469 18.99560603 165.04811096 17.99758911 C166.56179979 17.54823951 168.07427885 17.09478849 169.58534241 16.63668823 C189.68024546 10.55058321 212.61789451 5.17104342 232.61701965 14.4342041 C240.79571453 19.08277854 245.99308678 24.99713882 248.9646759 34.00061035 C252.10539744 46.95868663 248.64793826 59.09761035 241.99201965 70.3092041 C230.30052958 87.66105618 208.73661353 92.62276048 190.11701965 99.7467041 C187.5798971 100.72043254 185.04327795 101.69546909 182.50666809 102.67053223 C177.29353573 104.67385432 172.079373 106.67447156 166.86457825 108.67346191 C159.62912261 111.44740394 152.39786779 114.2321834 145.1678009 117.0201416 C135.46432108 120.76153045 125.75747814 124.49402762 116.04707336 128.21740723 C110.37098217 130.39439992 104.6982126 132.57970068 99.0284729 134.7731781 C64.92455959 147.95456403 36.8555473 157.95143647 0.64875793 146.96740723 C-4.89099402 145.2893265 -10.45229973 143.68570537 -16.0118866 142.0748291 C-25.58452005 139.29892853 -35.15223849 136.50690324 -44.71307373 133.69061279 C-46.02960182 133.30386383 -46.02960182 133.30386383 -47.37272644 132.90930176 C-48.13813751 132.68392731 -48.90354858 132.45855286 -49.69215393 132.22634888 C-60.07408168 129.27690544 -69.14993745 129.87766419 -78.82048035 134.6217041 C-80.28545664 135.30650333 -81.75172008 135.98855245 -83.21891785 136.6685791 C-87.43182824 138.62750387 -91.62861545 140.61816775 -95.82048035 142.6217041 C-96.02045257 145.78852121 -96.02045257 145.78852121 -94.32048035 149.0592041 C-91.99128606 155.11065145 -91.69167768 161.75061248 -93.5118866 167.99279785 C-97.51097041 176.84432646 -105.24043653 180.01520569 -113.75798035 183.5592041 C-114.78197937 183.99087891 -115.80597839 184.42255371 -116.86100769 184.86730957 C-118.90775951 185.72793056 -120.95623186 186.58447271 -123.0065155 187.43664551 C-125.42583615 188.45550569 -127.81900457 189.51302941 -130.2071991 190.60217285 C-138.83080311 194.45762424 -146.84294472 196.48085011 -156.19548035 193.9888916 C-163.84810209 190.771312 -167.85803902 183.27698964 -170.88653564 175.92729187 C-171.20762802 175.11488541 -171.5287204 174.30247894 -171.85954285 173.4654541 C-172.21813889 172.58686234 -172.57673492 171.70827057 -172.94619751 170.80305481 C-174.12315419 167.91342227 -175.28403572 165.01760192 -176.44548035 162.1217041 C-177.27932772 160.06866191 -178.11456007 158.01618175 -178.95109558 155.9642334 C-180.25644388 152.76158894 -181.56082113 149.55858044 -182.8609314 146.35380554 C-187.0550741 136.01553999 -191.33621942 125.71451589 -195.63667297 115.42010498 C-196.88216407 112.43615973 -198.12411477 109.45076338 -199.36515808 106.46496582 C-203.12074241 97.43644256 -206.89637094 88.41781227 -210.74633789 79.42906189 C-212.43803476 75.47806468 -214.12043968 71.52313806 -215.80262756 67.56808472 C-216.59582725 65.71143474 -217.39397777 63.85689077 -218.19746399 62.00466919 C-219.30678981 59.44720129 -220.39914557 56.88306326 -221.4884491 54.3170166 C-221.97597153 53.21236809 -221.97597153 53.21236809 -222.4733429 52.08540344 C-225.77201571 44.21947969 -226.75504564 36.85765759 -223.9025116 28.72717285 C-221.15144693 23.37401813 -217.66033356 20.5474128 -212.32048035 17.9967041 C-211.31984558 17.50943848 -211.31984558 17.50943848 -210.29899597 17.0123291 C-203.70395134 13.89109851 -196.96184617 11.10086162 -190.19474792 8.37689209 C-188.35043276 7.63377266 -186.51021756 6.88050367 -184.67008972 6.1270752 C-176.56561554 2.93607958 -170.14305177 0.85257115 -161.69548035 4.1842041 C-154.86423386 7.18073247 -151.55951777 11.62108744 -148.65641785 18.35998535 C-148.13507263 19.56135132 -148.13507263 19.56135132 -147.60319519 20.7869873 C-147.34489929 21.39244385 -147.08660339 21.99790039 -146.82048035 22.6217041 C-145.71462585 22.07868652 -144.60877136 21.53566895 -143.46940613 20.97619629 C-39.61191269 -29.99040165 -39.61191269 -29.99040165 0 0 Z M-92.07048035 13.0592041 C-93.7198233 13.85512346 -95.36973448 14.64986629 -97.02018738 15.44348145 C-100.34744939 17.04600543 -103.67104992 18.65574363 -106.99137878 20.27258301 C-111.56597569 22.50012022 -116.14880114 24.7101879 -120.73454285 26.91467285 C-127.43586769 30.13801325 -134.13073109 33.37439162 -140.82048035 36.6217041 C-140.20625405 41.90133657 -138.49104538 46.26678176 -136.4181366 51.10217285 C-136.068423 51.93249023 -135.71870941 52.76280762 -135.35839844 53.61828613 C-134.20585115 56.35113836 -133.04440069 59.08011246 -131.88298035 61.8092041 C-131.07973339 63.70971634 -130.27717156 65.61051827 -129.4752655 67.51159668 C-127.79397117 71.49602965 -126.10966738 75.47917157 -124.42350769 79.46154785 C-120.55531796 88.60569889 -116.72905962 97.76740592 -112.90003967 106.92800903 C-110.97671888 111.5284154 -109.0508768 116.12776577 -107.12516785 120.72717285 C-106.47915932 122.27038054 -105.83316185 123.81359285 -105.18717957 125.35681152 C-104.73616882 126.43422607 -104.28515808 127.51164062 -103.82048035 128.6217041 C-100.19801206 127.46469826 -96.7661472 126.21702684 -93.35954285 124.5279541 C-92.55774597 124.13736816 -91.7559491 123.74678223 -90.92985535 123.34436035 C-89.27989169 122.53234993 -87.63143665 121.71726652 -85.98454285 120.89904785 C-66.81318846 111.58988058 -49.66291228 116.1206883 -30.2106781 121.91442871 C-25.35079539 123.35250028 -20.48110716 124.75710115 -15.6134491 126.1685791 C-9.04727949 128.0744004 -2.48222924 129.98380514 4.07820129 131.90930176 C5.62485725 132.3632431 5.62485725 132.3632431 7.20275879 132.82635498 C9.15944179 133.40111649 11.11592342 133.97656408 13.07217407 134.55279541 C14.38867195 134.93954437 14.38867195 134.93954437 15.73176575 135.33410645 C16.49717682 135.5594809 17.26258789 135.78485535 18.05119324 136.01705933 C48.94657243 144.79425133 84.8001307 124.25423215 113.01296997 113.17037964 C125.36631988 108.31797606 137.7475652 103.54046644 150.13835144 98.7845459 C153.47471351 97.50334983 156.81027913 96.22010247 160.14558411 94.93615723 C169.27506553 91.42240959 178.40471261 87.90986851 187.55233765 84.443573 C190.89216746 83.17649881 194.22881663 81.90119847 197.56486511 80.62420654 C199.07229433 80.04962617 200.58122108 79.47895572 202.09178162 78.91265869 C214.86353308 74.12309265 226.26428852 69.03579483 232.49201965 56.2467041 C235.32983771 49.211777 236.11888429 42.87311938 233.3006134 35.69592285 C230.72905746 30.93809635 227.41927054 28.44408829 222.3709259 26.5904541 C201.16190501 20.75459612 179.32159263 29.63216584 159.02003479 35.6472168 C155.6904937 36.63143904 152.35767299 37.60441887 149.02522278 38.57873535 C131.05129095 43.84123054 113.11219632 49.22054906 95.17951965 54.6217041 C95.06197327 55.56852051 94.94442688 56.51533691 94.82331848 57.49084473 C94.65856018 58.74059082 94.49380188 59.99033691 94.3240509 61.2779541 C94.16525452 62.51352051 94.00645813 63.74908691 93.84284973 65.02209473 C92.31438017 73.31644701 87.83871215 81.36965028 80.85139465 86.2467041 C68.81256644 93.74393844 56.74332618 94.33482709 43.12148666 91.23295784 C38.90699671 90.18610995 34.72283174 89.04156595 30.53889465 87.8795166 C28.71476277 87.38929737 26.89014639 86.90087787 25.06507874 86.41415405 C20.31411754 85.14163436 15.57054152 83.8434757 10.82801819 82.53991699 C6.94700696 81.47782636 3.06116208 80.43412673 -0.8250618 79.39129829 C-8.85630462 77.23589443 -16.88451703 75.06893527 -24.90348816 72.86828613 C-25.63491531 72.66976044 -26.36634247 72.47123474 -27.11993408 72.26669312 C-30.78077632 71.25633868 -34.38559635 70.25732211 -37.82048035 68.6217041 C-39.36211209 65.53844061 -39.1179557 63.01292311 -38.82048035 59.6217041 C-37.38298035 57.6217041 -37.38298035 57.6217041 -34.82048035 56.6217041 C-28.99742757 56.76992326 -23.40436933 58.07811655 -17.82902527 59.66296387 C-17.08620804 59.86793488 -16.34339081 60.07290588 -15.57806396 60.28408813 C-13.98137581 60.72534316 -12.38550845 61.16957741 -10.790411 61.61654854 C-8.25548523 62.32583133 -5.71794826 63.02494054 -3.17944336 63.72129822 C4.03227941 65.70098081 11.24008935 67.69451716 18.44343567 69.70446777 C22.86583391 70.93768623 27.29218251 72.15575981 31.7212429 73.36482048 C33.39594484 73.82516915 35.06910876 74.29115532 36.74056435 74.76315498 C52.59233546 79.52521111 52.59233546 79.52521111 68.55451965 77.0592041 C73.59806731 74.08561246 77.04484705 69.99420136 79.55451965 64.7467041 C81.05990302 57.21978726 80.37671677 52.03458555 77.05451965 45.07873535 C71.30139314 37.53974248 63.72206982 35.1541299 54.8240509 32.8951416 C53.0561042 32.42269516 53.0561042 32.42269516 51.25244141 31.94070435 C47.50321103 30.94241983 43.74810312 29.96884984 39.99201965 28.9967041 C36.255372 28.01206492 32.52009744 27.02237109 28.78515625 26.03128052 C26.46900053 25.41858367 24.15162133 24.81048492 21.83279419 24.20797729 C-0.75175232 18.30834843 -0.75175232 18.30834843 -9.88298035 12.1842041 C-21.53287988 4.73265529 -33.23027008 -0.70195515 -47.25798035 -0.8157959 C-48.27795105 -0.86510254 -48.27795105 -0.86510254 -49.31852722 -0.91540527 C-64.38277309 -1.06348991 -78.88428345 6.60196385 -92.07048035 13.0592041 Z M-179.4103241 20.57873535 C-180.15125809 20.88236496 -180.89219208 21.18599457 -181.65557861 21.49882507 C-183.22261029 22.14271734 -184.78853968 22.78929779 -186.35343933 23.43835449 C-188.74214568 24.42764612 -191.13545546 25.40509238 -193.52946472 26.38146973 C-195.05254439 27.00901377 -196.57534048 27.63724662 -198.0978241 28.26623535 C-198.81147629 28.55698441 -199.52512848 28.84773346 -200.26040649 29.14729309 C-205.42236269 31.27879344 -205.42236269 31.27879344 -209.82048035 34.6217041 C-210.99036749 37.79198696 -210.77936145 39.5200854 -209.49333191 42.60510254 C-209.17708862 43.37936584 -208.86084534 44.15362915 -208.53501892 44.95135498 C-208.0034317 46.20356842 -208.0034317 46.20356842 -207.46110535 47.4810791 C-207.09688477 48.36374451 -206.73266418 49.24640991 -206.35740662 50.15582275 C-205.18853656 52.98209873 -204.00456489 55.80177391 -202.82048035 58.6217041 C-202.08033126 60.40830987 -201.34138163 62.19541306 -200.60368347 63.98303223 C-198.27430597 69.61889048 -195.92285558 75.24541531 -193.57048035 80.8717041 C-192.70337422 82.94894736 -191.83643453 85.02626011 -190.96965027 87.1036377 C-189.16784458 91.42146944 -187.36533147 95.73900469 -185.56217957 100.05627441 C-181.50792386 109.76388121 -177.45806946 119.47332164 -173.41020203 129.18359375 C-172.17687299 132.1414381 -170.94257538 135.09887677 -169.70817566 138.05627441 C-169.31933197 138.98883057 -168.93048828 139.92138672 -168.52986145 140.88220215 C-167.76547209 142.7153675 -167.00033115 144.54821967 -166.23439026 146.3807373 C-164.23598975 151.17366095 -162.270965 155.9777345 -160.34538269 160.80041504 C-159.93990707 161.81034515 -159.53443146 162.82027527 -159.1166687 163.86080933 C-158.34122051 165.79619525 -157.5720219 167.73410068 -156.81005859 169.67483521 C-156.28770882 170.97570572 -156.28770882 170.97570572 -155.75480652 172.30285645 C-155.45273788 173.06641449 -155.15066925 173.82997253 -154.83944702 174.6166687 C-153.73757769 176.78483285 -152.72395848 178.11091754 -150.82048035 179.6217041 C-145.27793009 180.26653086 -141.02319461 178.8589635 -136.02360535 176.66467285 C-135.30815552 176.36104324 -134.59270569 176.05741364 -133.85557556 175.74458313 C-132.35383532 175.10407596 -130.85468757 174.45745924 -129.358078 173.80505371 C-127.06925376 172.80867014 -124.77207568 171.83398179 -122.4728241 170.86193848 C-121.01004508 170.23494026 -119.54778631 169.60672663 -118.08610535 168.97717285 C-117.40171387 168.6864238 -116.71732239 168.39567474 -116.01219177 168.09611511 C-112.7386373 166.65881186 -110.03229541 165.47002928 -107.82048035 162.6217041 C-107.26281909 156.65001627 -109.56985497 150.95388687 -111.96891785 145.60998535 C-112.2927948 144.86092422 -112.61667175 144.1118631 -112.95036316 143.34010315 C-113.65275805 141.71864018 -114.36051927 140.09949328 -115.07310486 138.48248291 C-117.03499911 134.02813265 -118.95503512 129.55566897 -120.88298035 125.08654785 C-121.28866241 124.14937927 -121.69434448 123.21221069 -122.11231995 122.24664307 C-126.18479762 112.82418137 -130.1150295 103.34500215 -134.02018738 93.85220337 C-135.19703521 90.99292639 -136.37748193 88.1351585 -137.5587616 85.27770996 C-141.32359704 76.16277665 -145.06340244 67.03864856 -148.75074768 57.89205933 C-150.4750416 53.61918363 -152.20988569 49.35063016 -153.94578552 45.0824585 C-154.77270305 43.04062847 -155.59436356 40.99666079 -156.4105072 38.95050049 C-157.54209237 36.11413947 -158.69105041 33.28540549 -159.84391785 30.4576416 C-160.3380719 29.19850952 -160.3380719 29.19850952 -160.84220886 27.91394043 C-162.74445547 23.30489044 -164.36848168 20.26438199 -168.82048035 17.6217041 C-172.75884562 17.6217041 -175.83147835 19.09443433 -179.4103241 20.57873535 Z " fill="#000000" transform="translate(243.8204803466797,308.3782958984375)"/>
<path d="M0 0 C1.45602631 -0.00744736 1.45602631 -0.00744736 2.94146729 -0.01504517 C6.16817928 -0.02970842 9.39484212 -0.03647565 12.62158203 -0.04199219 C14.85499067 -0.04774016 17.08839928 -0.05349793 19.32180786 -0.05926514 C24.0110904 -0.06978695 28.70035574 -0.0756219 33.38964844 -0.07910156 C39.40808782 -0.08458913 45.42630127 -0.10861793 51.44466972 -0.13707352 C56.05995352 -0.15566687 60.67518255 -0.16090373 65.29050064 -0.16243744 C67.50973877 -0.16547191 69.72897577 -0.17352698 71.94817734 -0.18662262 C75.04896133 -0.2036143 78.14918877 -0.20181967 81.25 -0.1953125 C82.17271698 -0.20452728 83.09543396 -0.21374207 84.04611206 -0.22323608 C84.8902063 -0.21766693 85.73430054 -0.21209778 86.60397339 -0.20635986 C87.70402867 -0.2085597 87.70402867 -0.2085597 88.8263073 -0.21080399 C91.33663996 0.2734506 92.1944537 1.16852011 93.75439453 3.16113281 C94.77212914 6.21433664 94.87773011 8.26213995 94.87464905 11.4571991 C94.87671104 13.10414513 94.87671104 13.10414513 94.8788147 14.78436279 C94.87521942 15.98917297 94.87162415 17.19398315 94.86791992 18.43530273 C94.86806595 19.70370499 94.86821198 20.97210724 94.86836243 22.27894592 C94.86864964 25.75801029 94.8627651 29.23704027 94.85578847 32.71609664 C94.84954238 36.35160762 94.84895014 39.98711937 94.84776306 43.62263489 C94.84465346 50.50740664 94.83644505 57.39216253 94.82641357 64.27692729 C94.81524094 72.1148141 94.80973908 79.95270167 94.80471814 87.79059446 C94.79426214 103.91411653 94.77666986 120.03762265 94.75439453 136.16113281 C96.21462036 136.13756714 96.21462036 136.13756714 97.7043457 136.11352539 C101.3290982 136.05907042 104.95381479 136.02472655 108.57885742 135.99633789 C110.14532561 135.98128659 111.71175189 135.96084074 113.27807617 135.93481445 C115.5346106 135.89826848 117.79058606 135.8813702 120.04736328 135.86816406 C120.74339157 135.85268021 121.43941986 135.83719635 122.15653992 135.82124329 C126.55107193 135.81973525 129.22216658 136.53983259 132.75439453 139.16113281 C133.75439453 140.16113281 133.75439453 140.16113281 134.31689453 143.03613281 C134.17273059 148.54763131 130.46225367 152.26692784 127.15869141 156.39892578 C125.57226075 158.38968665 124.01400835 160.40078563 122.45751953 162.41503906 C120.0514711 165.52554016 117.63738759 168.62948566 115.21533203 171.72753906 C112.29549859 175.4639361 109.39235107 179.21255964 106.50439453 182.97363281 C105.71033203 184.00746094 104.91626953 185.04128906 104.09814453 186.10644531 C103.32470703 187.11449219 102.55126953 188.12253906 101.75439453 189.16113281 C96.1760382 196.43159057 90.57429875 203.68246946 84.94189453 210.91113281 C78.66069607 218.97451027 72.44387515 227.08559774 66.24316406 235.2109375 C62.42940466 240.20672466 58.59985968 245.18968386 54.75439453 250.16113281 C54.02220703 251.1240625 53.29001953 252.08699219 52.53564453 253.07910156 C51.84470703 253.97242188 51.15376953 254.86574219 50.44189453 255.78613281 C49.55050781 256.95015625 49.55050781 256.95015625 48.64111328 258.13769531 C46.52185011 260.41052827 44.53811265 261.78925259 41.75439453 263.16113281 C36.51256158 262.59136836 34.03506175 259.74522599 30.85595703 255.87988281 C27.13749836 251.06938609 23.49836122 246.20110919 19.87158203 241.32128906 C17.01613501 237.49130789 14.09212314 233.72100136 11.12939453 229.97363281 C5.94502454 223.4142898 0.84043789 216.79687787 -4.24560547 210.16113281 C-9.8235579 202.89036895 -15.42570435 195.6397922 -21.05810547 188.41113281 C-26.80865677 181.02896426 -32.50875072 173.60978649 -38.18310547 166.16894531 C-40.19505148 163.53176798 -42.21555428 160.90158567 -44.24560547 158.27832031 C-44.7112793 157.67608643 -45.17695313 157.07385254 -45.65673828 156.45336914 C-46.90905705 154.8354482 -48.16320133 153.21894072 -49.41748047 151.60253906 C-52.4042414 147.61380918 -52.59670431 145.16429131 -52.24560547 140.16113281 C-50.4144534 137.54520129 -49.33592181 137.19123826 -46.24560547 136.16113281 C-43.73192492 136.07645112 -41.24691172 136.04511396 -38.73388672 136.06347656 C-38.00566208 136.06489151 -37.27743744 136.06630646 -36.52714539 136.06776428 C-34.20409008 136.07335623 -31.88113159 136.08590719 -29.55810547 136.09863281 C-27.98193499 136.10364886 -26.40576299 136.10821158 -24.82958984 136.11230469 C-20.96822449 136.12332301 -17.10693139 136.14058207 -13.24560547 136.16113281 C-13.24837085 135.49575658 -13.25113623 134.83038034 -13.2539854 134.14484119 C-13.32024366 117.95341713 -13.36988525 101.76203602 -13.40104198 85.570508 C-13.4165097 77.74039656 -13.43759735 69.91037562 -13.47192383 62.08032227 C-13.50182917 55.25550071 -13.52118117 48.43074471 -13.52787095 41.60585946 C-13.53178131 37.99224145 -13.54096904 34.37881096 -13.56279564 30.76525307 C-13.58696636 26.73086866 -13.58757474 22.6968101 -13.58618164 18.66235352 C-13.59696747 17.46473389 -13.6077533 16.26711426 -13.61886597 15.03320312 C-13.61267998 13.3821331 -13.61267998 13.3821331 -13.60636902 11.69770813 C-13.6091344 10.74365239 -13.61189978 9.78959665 -13.61474895 8.80663013 C-12.3673253 -0.13313467 -7.65234206 0.00923021 0 0 Z M1.75439453 14.16113281 C1.70541016 23.81105469 1.65642578 33.46097656 1.60595703 43.40332031 C1.57058969 49.50098575 1.53472245 55.59864138 1.49658203 61.69628906 C1.43608013 71.38392957 1.37767392 81.07155152 1.33251953 90.75927734 C1.29962931 97.81375376 1.25981475 104.86815085 1.21160448 111.92253983 C1.18630977 115.65949623 1.16453742 119.39639981 1.15105057 123.13341904 C1.13588334 127.3001627 1.10526049 131.46665256 1.07324219 135.63330078 C1.071082 136.87910919 1.06892181 138.1249176 1.06669617 139.40847778 C1.05553268 140.53872375 1.0443692 141.66896973 1.03286743 142.83346558 C1.02733667 143.81978407 1.02180592 144.80610256 1.01610756 145.82230949 C0.75439453 148.16113281 0.75439453 148.16113281 -1.24560547 150.16113281 C-4.04296875 150.47998047 -4.04296875 150.47998047 -7.56591797 150.57519531 C-8.82275391 150.61386719 -10.07958984 150.65253906 -11.37451172 150.69238281 C-13.35257813 150.73878906 -13.35257813 150.73878906 -15.37060547 150.78613281 C-16.71047465 150.8243131 -18.0503193 150.86336487 -19.39013672 150.90332031 C-22.67515166 150.99785312 -25.96015685 151.08340437 -29.24560547 151.16113281 C-26.82974591 155.57034734 -24.38769133 159.44037491 -21.12060547 163.28613281 C-17.76404144 167.30741738 -14.4899492 171.37564432 -11.30810547 175.53613281 C-10.89222168 176.07963379 -10.47633789 176.62313477 -10.04785156 177.18310547 C-9.20202103 178.28969301 -8.35664446 179.39662769 -7.51171875 180.50390625 C-5.43015872 183.22847808 -3.33742036 185.94443167 -1.24560547 188.66113281 C1.2092311 191.85122985 3.66303888 195.04209821 6.11376953 198.23535156 C9.75297866 202.97464842 13.39775375 207.70883325 17.07470703 212.41894531 C24.74872678 222.25015349 32.31065696 232.15435007 39.75439453 242.16113281 C43.54979456 240.89599947 44.24823159 239.45557408 46.56689453 236.22363281 C47.36849589 235.12337248 48.17200702 234.02450191 48.97705078 232.92675781 C49.41807129 232.32412109 49.8590918 231.72148437 50.31347656 231.10058594 C52.9811377 227.50995563 55.74855351 223.99673149 58.50439453 220.47363281 C63.11960111 214.56003052 67.7066364 208.62676232 72.25439453 202.66113281 C76.72189942 196.80212116 81.2241603 190.97177308 85.75439453 185.16113281 C90.46502902 179.11624578 95.15646798 173.05733545 99.81689453 166.97363281 C100.34089844 166.29107422 100.86490234 165.60851562 101.40478516 164.90527344 C107.29520568 158.40231582 107.29520568 158.40231582 110.75439453 151.16113281 C109.91666504 151.14131348 109.07893555 151.12149414 108.21582031 151.10107422 C105.11073619 151.02302669 102.00604914 150.93633646 98.90136719 150.84375 C96.89552482 150.78659245 94.88940536 150.73944685 92.88330078 150.69238281 C90.99804688 150.634375 90.99804688 150.634375 89.07470703 150.57519531 C87.91213379 150.54377441 86.74956055 150.51235352 85.55175781 150.47998047 C82.75439453 150.16113281 82.75439453 150.16113281 80.75439453 148.16113281 C80.4926815 145.82230949 80.4926815 145.82230949 80.47592163 142.83346558 C80.46475815 141.7032196 80.45359467 140.57297363 80.4420929 139.40847778 C80.43993271 138.16266937 80.43777252 136.91686096 80.43554688 135.63330078 C80.42550125 134.32603027 80.41545563 133.01875977 80.40510559 131.671875 C80.37773867 128.0812114 80.3626365 124.49058718 80.34967756 120.89984655 C80.33407617 117.1495037 80.30727649 113.39924161 80.28164673 109.6489563 C80.23480579 102.54461016 80.19808749 95.44024892 80.16497386 88.33582699 C80.11965397 78.73749375 80.05876236 69.13926026 79.99872589 59.5410099 C79.90452206 44.41443414 79.8311798 29.28783024 79.75439453 14.16113281 C54.01439453 14.16113281 28.27439453 14.16113281 1.75439453 14.16113281 Z " fill="#000000" transform="translate(264.24560546875,8.8388671875)"/>
</svg>
