<?xml version="1.0" encoding="UTF-8"?>
<svg version="1.1" xmlns="http://www.w3.org/2000/svg" width="512" height="512">
<path d="M0 0 C0.91449547 -0.00538554 1.82899094 -0.01077108 2.77119839 -0.01631981 C5.81872488 -0.0305645 8.86581486 -0.02350422 11.9133606 -0.01637268 C14.10518746 -0.02207809 16.29701135 -0.02904301 18.48883057 -0.03717041 C24.43103045 -0.05509863 30.37308262 -0.05393393 36.31530142 -0.04822803 C41.28045688 -0.0451355 46.24558401 -0.0512294 51.21073544 -0.05726677 C63.5961842 -0.07211188 75.98156075 -0.06849948 88.36700822 -0.05640347 C99.10717725 -0.04647421 109.84717393 -0.05940868 120.58731638 -0.08333766 C131.63237848 -0.10775935 142.6773565 -0.11692971 153.72244465 -0.11068493 C159.91657844 -0.10731716 166.11056987 -0.10971859 172.30468369 -0.12693596 C178.13080152 -0.14242387 183.95659083 -0.1384287 189.78269577 -0.11963081 C191.9167525 -0.11595 194.05083368 -0.11903852 196.18486786 -0.1295166 C199.10653122 -0.14276293 202.02711275 -0.13114649 204.94873047 -0.11352539 C205.78571751 -0.1231304 206.62270456 -0.1327354 207.48505485 -0.14263147 C216.0232801 -0.03726104 223.78776526 2.81709252 230.07009888 8.68455505 C237.21724525 16.63393215 238.90108401 24.60437783 238.86877441 35.03314209 C238.87330553 36.10589282 238.87783664 37.17864354 238.88250506 38.28390187 C238.89516621 41.87884111 238.89352756 45.47362919 238.89187622 49.06858826 C238.89786038 51.64597265 238.90466566 54.22335524 238.91223145 56.80073547 C238.92882671 63.075483 238.93434032 69.35019294 238.9354562 75.62496058 C238.93640737 80.72676735 238.94052111 85.82856175 238.94685745 90.93036461 C238.96446581 105.403101 238.97369695 119.87580776 238.9721965 134.34855495 C238.97211659 135.12837785 238.97203668 135.90820076 238.97195435 136.71165466 C238.97187258 137.49243255 238.97179082 138.27321043 238.97170658 139.07764824 C238.97089379 151.72946342 238.99003084 164.38115951 239.01823108 177.03294025 C239.04697554 190.03171479 239.06077052 203.03043128 239.05904353 216.0292384 C239.05838017 223.32386791 239.06384875 230.61837257 239.08539963 237.9129734 C239.10554017 244.77403098 239.10492176 251.63482096 239.09036636 258.49589157 C239.08827438 261.01254727 239.09300226 263.52921938 239.10508728 266.04584694 C239.12052965 269.48463024 239.11123705 272.9225033 239.0958252 276.36126709 C239.11125588 277.85078376 239.11125588 277.85078376 239.12699831 279.37039167 C239.0224048 289.95020583 234.95540052 297.01687658 227.60134888 304.38768005 C221.08650857 310.7310772 212.9085487 311.83866282 204.15837097 311.77536011 C202.79759679 311.78343841 202.79759679 311.78343841 201.40933222 311.79167992 C198.39254892 311.80590065 195.37620806 311.79887034 192.35940552 311.79173279 C190.18713531 311.79743941 188.0148681 311.8044048 185.84260559 311.81253052 C179.95831385 311.83044419 174.07417138 311.82929692 168.18986058 311.82358813 C163.27187608 311.82049386 158.35392016 311.82659137 153.43593973 311.83262688 C141.83162802 311.84666448 130.22738995 311.84511701 118.62307739 311.83372498 C106.66298007 311.82224292 94.70310697 311.83632279 82.74303919 311.86312145 C72.46251571 311.88529187 62.18206254 311.89191283 51.90151685 311.88604504 C45.76664226 311.8826777 39.63191139 311.88507601 33.49705696 311.90229607 C27.72755829 311.91778449 21.95839137 311.91378826 16.18890572 311.89499092 C14.07581139 311.89131042 11.96269237 311.89439773 9.84962082 311.90487671 C-3.56163173 311.96628952 -14.39985457 311.93313316 -24.64474487 302.24705505 C-33.79373867 292.54789905 -34.55371994 281.94866951 -34.53236389 269.12931824 C-34.53462945 268.1223122 -34.536895 267.11530615 -34.53922921 266.07778478 C-34.54553868 262.71720422 -34.54474181 259.3566643 -34.54391479 255.99607849 C-34.5469082 253.58090157 -34.55031114 251.16572513 -34.55409241 248.75054932 C-34.56200225 242.87880482 -34.56514627 237.00706979 -34.56570479 231.13532105 C-34.56618099 226.35920215 -34.56824094 221.58308655 -34.57140541 216.80696869 C-34.58020624 203.24665064 -34.5848257 189.68634049 -34.58407494 176.12601957 C-34.58403498 175.39590757 -34.58399502 174.66579557 -34.58395386 173.91355896 C-34.58391298 173.18254885 -34.5838721 172.45153874 -34.58382998 171.6983768 C-34.58342371 159.85706878 -34.59298986 148.01579258 -34.60709222 136.17449376 C-34.62147959 123.99716666 -34.6283611 111.81985505 -34.62749845 99.64251924 C-34.62716728 92.81343633 -34.62987889 85.9843868 -34.6406765 79.15531158 C-34.65077093 72.730119 -34.65042207 66.30497855 -34.64315987 59.87978172 C-34.64211666 57.5272556 -34.6444612 55.17472505 -34.65052032 52.8222065 C-34.72798134 20.65282476 -34.72798134 20.65282476 -26.39865112 10.38768005 C-18.64653413 2.79318466 -10.66322271 -0.07616206 0 0 Z M-13.27365112 22.13768005 C-17.56952453 28.70783939 -17.69018782 34.91991812 -17.65934753 42.54597473 C-17.66317308 43.55424305 -17.66699863 44.56251136 -17.6709401 45.60133326 C-17.68123978 48.97206344 -17.67728367 52.34262232 -17.67330933 55.71336365 C-17.67765747 58.13326169 -17.68284097 60.55315836 -17.688797 62.97305298 C-17.70079702 68.85931155 -17.7033397 74.7455278 -17.70099673 80.63179396 C-17.69921155 85.41797771 -17.70096751 90.20414764 -17.70522118 94.99032974 C-17.70581637 95.67229703 -17.70641155 96.35426432 -17.70702478 97.05689729 C-17.70823657 98.44245397 -17.7094507 99.82801065 -17.71066716 101.21356733 C-17.72153653 114.19919875 -17.7193831 127.18480418 -17.71328231 140.17043705 C-17.70811407 152.03972055 -17.71936719 163.90892196 -17.73838053 175.77818923 C-17.75777128 187.97694593 -17.76601274 200.17566381 -17.76225728 212.37443602 C-17.76034706 219.21854264 -17.76281524 226.06257941 -17.77697182 232.90667343 C-17.79015136 239.34335894 -17.78760877 245.77992133 -17.77456093 252.21660805 C-17.77219493 254.57684319 -17.77493063 256.93708988 -17.78318405 259.29731178 C-17.79365093 262.52353754 -17.7855508 265.74921198 -17.77287292 268.97541809 C-17.78024721 269.90549191 -17.78762149 270.83556573 -17.79521924 271.7938236 C-17.74362088 278.05161334 -17.30279081 285.13272407 -12.94674379 290.01497591 C-7.89865931 294.31744584 -4.31821932 294.53625766 2.0776062 294.53485107 C2.96529607 294.53852776 3.85298594 294.54220445 4.7675755 294.54599255 C7.76002394 294.55705864 10.7524377 294.56087818 13.74490356 294.56468201 C15.88322053 294.57094444 18.02153641 294.57759104 20.15985107 294.58459473 C25.98226008 294.6020247 31.80466086 294.61256187 37.6270895 294.62080026 C41.26244437 294.62594605 44.89779666 294.63202196 48.53314972 294.63831139 C59.90065004 294.6573688 71.26814384 294.67159892 82.63565707 294.67992336 C95.76993084 294.68969961 108.90403626 294.71602709 122.03825068 294.75642425 C132.18182672 294.78655545 142.32535442 294.80138938 152.46897435 294.80470437 C158.53118807 294.80705823 164.59322205 294.81606239 170.65538788 294.84116554 C176.35827144 294.86439883 182.0608563 294.8686985 187.76377487 294.85840416 C189.85759091 294.85790754 191.95142141 294.86426498 194.04519272 294.87796021 C196.90287422 294.89560702 199.75947541 294.88860835 202.61715698 294.87542725 C203.44654242 294.88639649 204.27592786 294.89736574 205.1304462 294.90866739 C210.41068374 294.84983145 213.48164433 293.9802988 217.60134888 290.38768005 C222.27544442 285.20617346 222.1697775 280.58305097 222.10928345 273.94981384 C222.11552341 272.89944773 222.12176337 271.84908162 222.12819242 270.76688623 C222.14414573 267.24767764 222.13150844 263.7291594 222.118927 260.20994568 C222.12434705 257.68680416 222.13146904 255.1636658 222.14016724 252.64053345 C222.15652184 246.49906347 222.15411625 240.35784908 222.14251667 234.21637571 C222.13347937 229.22465814 222.13225962 224.23299537 222.13661194 219.24127197 C222.13753134 218.17518813 222.13753134 218.17518813 222.13846931 217.08756724 C222.13974822 215.64370182 222.14104508 214.19983641 222.14235967 212.75597101 C222.15376307 199.22006651 222.14065557 185.6842704 222.11915821 172.14838368 C222.10128741 160.53652584 222.10439159 148.92482797 222.12283325 137.31297302 C222.14424424 123.82517472 222.15266446 110.33747141 222.1403842 96.84965849 C222.13911001 95.41113505 222.13785253 93.9726116 222.13661194 92.53408813 C222.13599484 91.826326 222.13537773 91.11856386 222.13474193 90.38935438 C222.13128971 85.40422004 222.1371146 80.419146 222.14653015 75.434021 C222.15892669 68.72313872 222.15008803 62.0126052 222.12695312 55.30173683 C222.12165863 52.83704442 222.12319237 50.37232662 222.13200378 47.90764427 C222.14291299 44.54659993 222.1292502 41.1865284 222.10928345 37.82554626 C222.11820633 36.84714232 222.12712922 35.86873837 222.1363225 34.86068583 C222.07097986 29.20104171 221.45089023 25.83795144 217.60134888 21.38768005 C211.43133642 16.63162879 206.79724335 16.23901137 199.20175171 16.24723816 C198.34643254 16.24426704 197.49111337 16.24129591 196.60987544 16.23823476 C193.73885932 16.22955117 190.86788491 16.22803979 187.99685669 16.22654724 C185.94030671 16.22191882 183.88375759 16.21689413 181.82720947 16.21150208 C176.23617873 16.19837825 170.64515999 16.19193313 165.05411625 16.18749142 C161.56111807 16.18456063 158.06812317 16.1804558 154.57512665 16.17598724 C143.64652244 16.16231228 132.71792573 16.15264565 121.78931355 16.14878535 C109.17355334 16.14430464 96.55790147 16.12675608 83.9421742 16.09778476 C74.19087923 16.07616872 64.43961475 16.06608111 54.68829608 16.06474423 C48.86417906 16.06369614 43.04016388 16.05778735 37.21607208 16.03992462 C31.73644054 16.02344541 26.25698743 16.02128779 20.77733994 16.03006363 C18.76822049 16.03083408 16.75909146 16.02649021 14.74999619 16.01660538 C12.00274574 16.0038835 9.25612702 16.00976405 6.50888062 16.02018738 C5.71781268 16.01213097 4.92674475 16.00407457 4.11170506 15.99577403 C-2.65430308 16.05562431 -8.23545863 17.31853941 -13.27365112 22.13768005 Z " fill="#000000" transform="translate(197.39865112304688,0.6123199462890625)"/>
<path d="M0 0 C1.564495 -0.00644217 3.12898884 -0.01317154 4.69348145 -0.02017212 C7.96820866 -0.03211011 11.24283071 -0.03585693 14.51757812 -0.03466797 C18.66825161 -0.03446585 22.81823215 -0.06167155 26.96874237 -0.09621239 C30.20173087 -0.11870748 33.43455914 -0.12249857 36.6676178 -0.12144852 C38.19509753 -0.12377439 39.72258382 -0.13242283 41.24998474 -0.14811325 C55.8492414 -0.28395839 68.65745196 2.61939624 82.1640625 8.28515625 C88.68506957 10.67500761 95.27002208 10.49790315 102.125 10.546875 C104.31120556 10.57493137 106.49740339 10.60359574 108.68359375 10.6328125 C112.1134428 10.67411821 115.54314545 10.71102863 118.97314453 10.73730469 C122.29489477 10.76492641 125.61599917 10.8107807 128.9375 10.859375 C129.95952515 10.86262787 130.98155029 10.86588074 132.0345459 10.86923218 C139.81887339 11.00339691 145.32859566 12.78335301 151.03125 18.3359375 C155.67872407 25.25131019 155.68043131 32.06637408 155.60766602 40.171875 C155.59377345 42.33229065 155.62796924 44.48838442 155.66601562 46.6484375 C155.71553523 55.52596409 154.7997198 61.36736948 148.58837891 67.83935547 C142.8283542 73.12518016 136.76666244 73.63612206 129.35131836 73.64233398 C128.50015945 73.6506575 127.64900055 73.65898102 126.77204895 73.66755676 C123.97168346 73.69156107 121.17155105 73.70041506 118.37109375 73.70703125 C116.41866488 73.71600152 114.46623669 73.72512344 112.5138092 73.73439026 C108.42772757 73.75085438 104.34172766 73.75857626 100.25561523 73.76147461 C95.02086854 73.76687031 89.78688913 73.80461036 84.55235958 73.85021877 C80.52288499 73.87995498 76.49359647 73.88719734 72.46402168 73.88820076 C70.53389516 73.89240622 68.60376825 73.90485354 66.67374992 73.92571831 C63.97585183 73.95257503 61.2797506 73.94782596 58.58178711 73.93530273 C57.78632477 73.95013702 56.99086243 73.96497131 56.17129517 73.98025513 C52.15071211 73.92711001 50.25253351 73.50723402 47.03590393 71.01722717 C45.03125 68.3359375 45.03125 68.3359375 44.40625 64.8359375 C45.20804332 60.34589493 46.45355681 59.12105911 50.03125 56.3359375 C53.00306697 55.84319239 55.40341431 55.65328721 58.36987305 55.69238281 C59.19644409 55.6835054 60.02301514 55.67462799 60.87463379 55.66548157 C63.59782346 55.6418423 66.31971807 55.65297927 69.04296875 55.6640625 C70.93676656 55.65348326 72.83055266 55.64057198 74.72431946 55.62542725 C79.70323197 55.59122262 84.6817526 55.58584491 89.6607666 55.58734131 C96.68902527 55.58411489 103.71717479 55.54147897 110.74531555 55.50360107 C114.48803343 55.48355062 118.23054301 55.47425148 121.97331238 55.47344971 C123.67581183 55.46963038 125.37831122 55.46578651 127.08081055 55.46191406 C127.86057755 55.46401382 128.64034454 55.46611359 129.44374084 55.46827698 C133.36595281 55.53464386 133.36595281 55.53464386 137.03125 54.3359375 C137.06011984 50.35678591 137.07800406 46.37766097 137.09375 42.3984375 C137.10212891 41.26212891 137.11050781 40.12582031 137.11914062 38.95507812 C137.12236328 37.87548828 137.12558594 36.79589844 137.12890625 35.68359375 C137.13414307 34.68336182 137.13937988 33.68312988 137.14477539 32.65258789 C137.29306095 30.37386522 137.29306095 30.37386522 136.03125 29.3359375 C134.68330846 29.22430037 133.32974584 29.17925792 131.97729492 29.16235352 C130.68410591 29.14211876 130.68410591 29.14211876 129.36479187 29.12147522 C128.42327774 29.11103683 127.48176361 29.10059845 126.51171875 29.08984375 C124.51887659 29.05685876 122.52603815 29.02364803 120.53320312 28.99023438 C117.39138828 28.94315228 114.2495831 28.89882706 111.10766602 28.85913086 C96.36861649 28.66367138 82.94399603 28.30213653 69.09375 22.7734375 C67.48177541 22.14377996 65.86852758 21.51737044 64.25390625 20.89453125 C63.56047119 20.61923584 62.86703613 20.34394043 62.15258789 20.06030273 C57.47802534 18.46409752 53.05483625 18.19883453 48.13305664 18.15893555 C47.12229317 18.14907875 47.12229317 18.14907875 46.09111023 18.13902283 C43.8745409 18.11940801 41.65803879 18.10765659 39.44140625 18.09765625 C38.3010986 18.09154296 38.3010986 18.09154296 37.13775444 18.08530617 C33.11731112 18.06450029 29.09690141 18.05017248 25.07641602 18.04077148 C20.93256186 18.02969139 16.78924232 17.99525795 12.64557743 17.95559978 C9.44989543 17.92942554 6.25434109 17.92107919 3.05856133 17.91749001 C1.53117684 17.91262964 0.00379785 17.90103124 -1.52348137 17.88245201 C-3.66313856 17.85803134 -5.80140744 17.85902933 -7.94116211 17.8659668 C-9.1562999 17.86010056 -10.37143768 17.85423431 -11.62339783 17.84819031 C-17.59535616 18.71889263 -21.5324495 22.66931917 -25.84375 26.6484375 C-26.71257812 27.4425 -27.58140625 28.2365625 -28.4765625 29.0546875 C-29.71019531 30.18390625 -29.71019531 30.18390625 -30.96875 31.3359375 C-37.62728882 37.26661985 -44.43234042 43.03213588 -51.20751953 48.82861328 C-54.12943738 51.3292954 -57.04907027 53.83264297 -59.96875 56.3359375 C-52.31863025 65.35915567 -44.38952611 73.98298882 -35.98242188 82.30297852 C-32.46545229 85.7966096 -29.13741636 89.3607814 -25.9375 93.1484375 C-22.48700226 96.98232388 -18.76936076 100.55628324 -15.10180664 104.18115234 C-11.34321018 107.91196722 -7.78774491 111.73561611 -4.3671875 115.78125 C-2.44531628 117.91785544 -0.28793197 119.6492597 2.03125 121.3359375 C2.45535156 120.90023437 2.87945312 120.46453125 3.31640625 120.015625 C15.62268515 107.52001873 15.62268515 107.52001873 21.34024906 107.21123886 C22.71036971 107.21130117 22.71036971 107.21130117 24.10816956 107.21136475 C25.15802536 107.20880173 26.20788116 107.20623871 27.28955078 107.20359802 C29.01709595 107.20674767 29.01709595 107.20674767 30.77954102 107.20996094 C31.99286606 107.2080928 33.2061911 107.20622467 34.45628357 107.20429993 C37.09669701 107.20029081 39.73706222 107.19794685 42.37747383 107.19783783 C46.56011503 107.19669606 50.74266824 107.18384553 54.92527771 107.16827393 C55.631847 107.16570107 56.33841629 107.16312822 57.06639677 107.1604774 C58.51141936 107.15521063 59.95644189 107.14992515 61.40146434 107.14462137 C71.1372038 107.10955779 80.8728347 107.08295355 90.60864258 107.08544922 C97.17730158 107.0870425 103.74566071 107.07089055 110.31422371 107.03474259 C113.78662287 107.01635259 117.25852189 107.0068776 120.73095894 107.01921844 C124.61331436 107.03288149 128.49490919 107.00761304 132.37719727 106.97949219 C134.08348801 106.99478722 134.08348801 106.99478722 135.82424927 107.01039124 C143.38532277 106.91253849 148.60045758 105.29002162 155.03125 101.3359375 C156.38460701 100.52664543 156.38460701 100.52664543 157.76530457 99.70100403 C158.46174576 99.22708725 159.15818695 98.75317047 159.87573242 98.26489258 C160.68745407 97.71694534 161.49917572 97.16899811 162.335495 96.60444641 C163.17739883 96.02728378 164.01930267 95.45012115 164.88671875 94.85546875 C165.7914241 94.24257492 166.69612946 93.62968109 167.62825012 92.99821472 C170.49564997 91.05395923 173.35733253 89.10148384 176.21875 87.1484375 C179.05516053 85.22091862 181.89272098 83.29510288 184.73049927 81.36959839 C186.57467439 80.11695152 188.41752557 78.86235317 190.25900269 77.60574341 C194.33446102 74.82709133 198.41753882 72.06847899 202.56103516 69.39208984 C203.24684158 68.94653244 203.93264801 68.50097504 204.63923645 68.04191589 C205.87710116 67.24116307 207.11988011 66.44792083 208.36894226 65.66474915 C215.66550797 60.93353693 218.89241796 55.17481191 222.23828125 47.4375 C222.79366829 46.18505997 222.79366829 46.18505997 223.36027527 44.90731812 C224.53062568 42.2624677 225.68735051 39.61191288 226.84375 36.9609375 C227.63907829 35.1571569 228.43529342 33.35376705 229.23242188 31.55078125 C231.17565136 27.15028657 233.10669082 22.74462771 235.03125 18.3359375 C230.80231532 18.21959817 226.57379326 18.14863798 222.34375 18.0859375 C221.14556641 18.05242187 219.94738281 18.01890625 218.71289062 17.984375 C217.55595703 17.97148437 216.39902344 17.95859375 215.20703125 17.9453125 C214.14395752 17.92436523 213.08088379 17.90341797 211.9855957 17.88183594 C207.41856299 18.58381766 205.13731156 21.01633015 202.24194336 24.47070312 C201.70706299 25.22029297 201.17218262 25.96988281 200.62109375 26.7421875 C200.02361328 27.56847656 199.42613281 28.39476562 198.81054688 29.24609375 C197.89885742 30.52806641 197.89885742 30.52806641 196.96875 31.8359375 C195.75192044 33.53616511 194.53196514 35.23416088 193.30859375 36.9296875 C192.77484131 37.67927734 192.24108887 38.42886719 191.69116211 39.20117188 C189.46429789 42.06507844 187.30598111 44.69857194 184.03125 46.3359375 C181.84548854 46.43257715 179.65664152 46.46574077 177.46875 46.4609375 C175.70337891 46.46480469 175.70337891 46.46480469 173.90234375 46.46875 C171.03125 46.3359375 171.03125 46.3359375 170.03125 45.3359375 C169.95805379 42.63938896 169.93882463 39.96902292 169.96875 37.2734375 C169.97326172 36.51482422 169.97777344 35.75621094 169.98242188 34.97460938 C169.9942432 33.09501879 170.01217922 31.21546851 170.03125 29.3359375 C171.08570313 29.29339844 172.14015625 29.25085938 173.2265625 29.20703125 C177.88500155 28.14046872 179.37725507 26.1765027 181.90625 22.3984375 C182.7569948 21.21238179 183.61122169 20.02881672 184.46875 18.84765625 C184.89285156 18.25645996 185.31695312 17.66526367 185.75390625 17.05615234 C191.54402089 9.25853236 197.25374001 2.35227695 207.03125 0.3359375 C210.02285066 0.04732695 212.99581436 0.0084105 216 0 C216.8391394 -0.0066568 217.67827881 -0.0133136 218.54284668 -0.02017212 C220.30767643 -0.03024572 222.07254387 -0.03499079 223.83740234 -0.03466797 C226.52375267 -0.03905027 229.20846987 -0.0754494 231.89453125 -0.11328125 C233.61718194 -0.11914892 235.33984035 -0.12311864 237.0625 -0.125 C238.25498352 -0.14655655 238.25498352 -0.14655655 239.47155762 -0.16854858 C245.10994345 -0.12275862 248.40187628 1.07486974 253.03125 4.3359375 C256.03629291 8.84350187 255.58926705 13.05021842 255.03125 18.3359375 C254.06269532 21.8108803 252.64343239 24.96304339 251.0859375 28.2109375 C250.67844269 29.10151855 250.27094788 29.99209961 249.85110474 30.90966797 C248.55537799 33.72779414 247.23109681 36.53140422 245.90625 39.3359375 C245.03984611 41.21530761 244.17524767 43.09551115 243.3125 44.9765625 C241.28278201 49.38084168 239.20951549 53.76180172 237.09802246 58.12744141 C236.18464257 60.01837503 235.28656016 61.91668472 234.39160156 63.81640625 C229.40457059 73.79735161 221.43349892 79.42117876 212.09375 85.0859375 C204.13449131 90.01234366 196.32588226 95.12371993 188.5703125 100.36328125 C187.64284714 100.98838593 186.71538177 101.6134906 185.7598114 102.25753784 C181.97078991 104.81190826 178.18211332 107.36648149 174.4067688 109.94104004 C171.71877812 111.77341695 169.02230921 113.59269582 166.32421875 115.41015625 C165.52170685 115.9627562 164.71919495 116.51535614 163.8923645 117.08470154 C163.12246185 117.60033157 162.3525592 118.11596161 161.55932617 118.6472168 C160.56965096 119.32000923 160.56965096 119.32000923 159.5599823 120.00639343 C151.69519751 124.14150016 144.58074218 124.74873831 135.78540039 124.62548828 C133.9933593 124.61909081 133.9933593 124.61909081 132.16511536 124.61256409 C128.91286235 124.59963181 125.66095653 124.57406393 122.40881276 124.54566431 C118.98889915 124.5213796 115.56901908 124.52135544 112.14903259 124.52096558 C100.52235099 124.51602598 88.89611508 124.48688689 77.26977539 124.39453125 C70.8350633 124.34366424 64.40108853 124.3251909 57.96618837 124.3421191 C54.56931175 124.3496111 51.17431848 124.34052606 47.77775764 124.29086685 C43.98613017 124.24262359 40.19829272 124.25021531 36.40649414 124.27001953 C35.29709473 124.24229965 34.18769531 124.21457977 33.04467773 124.1860199 C25.32661688 124.30762483 21.34910766 126.64787434 15.68602657 131.81872368 C13.71115845 134.266681 13.71115845 134.266681 14.25610447 137.42601204 C14.51190249 138.38628744 14.76770052 139.34656284 15.03125 140.3359375 C15.19318379 142.62424785 15.29522342 144.91741794 15.34375 147.2109375 C15.39982422 148.93957031 15.39982422 148.93957031 15.45703125 150.703125 C14.44539352 159.33452947 9.23217467 164.76175371 3.34375 170.7734375 C2.65474609 171.49208984 1.96574219 172.21074219 1.25585938 172.95117188 C-4.86829827 179.32824458 -4.86829827 179.32824458 -7.62109375 179.5390625 C-8.70519531 179.55453125 -9.78929687 179.57 -10.90625 179.5859375 C-12.52853516 179.62460937 -12.52853516 179.62460937 -14.18359375 179.6640625 C-15.56224609 179.50164062 -15.56224609 179.50164062 -16.96875 179.3359375 C-19.05201622 176.21103817 -19.57516077 174.24971682 -19.47265625 170.51171875 C-18.45901439 166.13498608 -15.10061625 163.37396506 -11.96875 160.3359375 C-11.23914063 159.60632813 -10.50953125 158.87671875 -9.7578125 158.125 C-8.37235667 156.73954417 -6.97732787 155.36355544 -5.5703125 154 C-3.35331327 151.69648373 -2.98164961 150.40760201 -2.40625 147.2109375 C-3.13687639 142.17773347 -5.12165044 140.68546318 -8.77734375 137.34765625 C-10.72994862 135.55515802 -12.39984631 133.74275548 -14.09375 131.7109375 C-17.5215578 127.71446112 -21.229086 124.03661621 -24.96875 120.3359375 C-29.15721137 116.19086863 -33.19545733 112.02677372 -37 107.5234375 C-39.86713692 104.33772982 -42.92307076 101.35009205 -45.96875 98.3359375 C-53.32586491 91.05489461 -53.32586491 91.05489461 -56.40625 87.3984375 C-60.46173774 82.59615918 -65.00863442 78.26938759 -69.47338867 73.85302734 C-73.3909205 69.96249267 -77.16471688 66.02471976 -80.671875 61.75390625 C-82.6788326 59.559552 -84.42387538 58.42037973 -87.36328125 57.96484375 C-90.83286976 58.45901303 -92.15742399 59.85946127 -94.65625 62.2734375 C-98.91490806 66.33168812 -100.87702925 67.72777191 -106.9921875 67.60546875 C-108.96875 67.3359375 -108.96875 67.3359375 -111.46875 65.8359375 C-113.56330578 62.3450112 -113.84079447 59.24049698 -112.96875 55.3359375 C-111.31246858 53.12756227 -110.10246658 51.9849345 -107.96875 50.3359375 C-107.19402344 49.67207031 -106.41929688 49.00820313 -105.62109375 48.32421875 C-99.09750889 42.8436203 -93.92397572 39.90581506 -85.28125 40.06640625 C-81.54913586 40.50139928 -78.43160085 41.9030337 -74.96875 43.3359375 C-70.50018143 43.3359375 -68.50334421 40.35806322 -65.46875 37.3984375 C-61.25116702 33.37631408 -57.03255068 29.46932048 -52.46875 25.8359375 C-48.04639283 22.30718347 -43.9451589 18.53706325 -39.84375 14.6484375 C-27.02912013 2.60254722 -17.44934544 0.01697816 0 0 Z " fill="#000000" transform="translate(184.96875,332.6640625)"/>
<path d="M0 0 C0.48750732 0.48170654 0.97501465 0.96341309 1.47729492 1.4597168 C2.01314209 1.97042725 2.54898926 2.4811377 3.10107422 3.00732422 C9.14638349 8.81612565 15.04395827 14.78633536 20.92749023 20.75830078 C24.39081774 24.26136541 27.85498997 27.69302416 31.59838867 30.8972168 C37.00542508 35.54266095 41.96250711 40.65069068 46.97729492 45.7097168 C47.96664077 46.70409376 48.95622279 47.69823581 49.94604492 48.69213867 C51.75903216 50.51321043 53.57037019 52.33586497 55.38061523 54.15966797 C56.9035827 55.69293432 58.44319324 57.2099126 60.00170898 58.70703125 C61.99344304 60.80218444 62.27175648 61.67667724 62.22729492 64.5222168 C62.07716604 67.62295563 61.82384536 68.39670122 59.85229492 70.9597168 C56.23229958 73.62147807 54.07362583 73.63228415 49.60229492 73.5847168 C48.5065918 73.57569336 47.41088867 73.56666992 46.28198242 73.55737305 C45.01741211 73.5399707 45.01741211 73.5399707 43.72729492 73.5222168 C43.73889648 74.44776367 43.75049805 75.37331055 43.76245117 76.3269043 C43.84180021 85.64508709 43.68446234 94.95796899 43.41479492 104.2722168 C43.38107788 105.96773682 43.38107788 105.96773682 43.34667969 107.69750977 C43.3111499 108.76888184 43.27562012 109.84025391 43.23901367 110.9440918 C43.21282959 111.89896484 43.18664551 112.85383789 43.15966797 113.83764648 C42.64648198 117.023978 41.61845752 118.92183336 39.72729492 121.5222168 C35.78795085 124.14844618 32.40985264 123.81756156 27.8371582 123.81274414 C26.92791595 123.81946136 26.01867371 123.82617859 25.08187866 123.83309937 C22.07039961 123.85212684 19.05914287 123.85600599 16.04760742 123.8581543 C13.95636909 123.86457904 11.86513168 123.87130716 9.77389526 123.87832642 C5.38740963 123.89031116 1.00100281 123.89400602 -3.38549805 123.89282227 C-9.00695721 123.89261904 -14.62791103 123.91991996 -20.24925041 123.95436668 C-24.56953249 123.97660217 -28.88969234 123.98066083 -33.21002579 123.97960281 C-35.28247952 123.98196387 -37.35493636 123.99081569 -39.42733383 124.00626755 C-42.32650904 124.02585902 -45.22458649 124.02011622 -48.1237793 124.00805664 C-48.9800592 124.01929565 -49.83633911 124.03053467 -50.71856689 124.04211426 C-54.72716341 123.9997332 -56.78906335 123.81839335 -60.28201294 121.67935181 C-63.27614432 118.43487944 -63.41937092 115.6398053 -63.58911133 111.39331055 C-63.63108643 110.36584717 -63.67306152 109.33838379 -63.71630859 108.27978516 C-63.75554443 107.1841626 -63.79478027 106.08854004 -63.83520508 104.9597168 C-63.87766357 103.84540283 -63.92012207 102.73108887 -63.96386719 101.58300781 C-64.2973534 92.22593502 -64.38030899 82.88375681 -64.27270508 73.5222168 C-65.48506836 73.57442383 -65.48506836 73.57442383 -66.72192383 73.62768555 C-67.79055664 73.65475586 -68.85918945 73.68182617 -69.96020508 73.7097168 C-71.54381836 73.76192383 -71.54381836 73.76192383 -73.15942383 73.81518555 C-76.66336122 73.48545493 -78.46969019 72.60806391 -81.27270508 70.5222168 C-82.85168561 67.36425573 -83.09198679 63.91551044 -82.27270508 60.5222168 C-80.64454811 58.81791036 -78.96904416 57.15867312 -77.27270508 55.5222168 C-76.29714359 54.54635512 -75.32415931 53.56791151 -74.35351562 52.5871582 C-71.5045466 49.72031148 -68.65246808 46.85658027 -65.79931641 43.99389648 C-64.57770672 42.7672596 -63.35699627 41.53972648 -62.13720703 40.3112793 C-50.4924852 28.58635749 -50.4924852 28.58635749 -44.23779297 23.2668457 C-39.83796513 19.36062508 -35.77687332 15.08503799 -31.64770508 10.8972168 C-10.85929436 -10.18398844 -10.85929436 -10.18398844 0 0 Z M-13.15551758 17.24487305 C-13.89543945 18.01702148 -14.63536133 18.78916992 -15.39770508 19.5847168 C-18.12761842 22.42635257 -20.91489544 25.10189365 -23.90551758 27.6628418 C-29.20228325 32.25142729 -34.09237829 37.2343167 -39.02270508 42.2097168 C-39.96387331 43.15591715 -40.90527835 44.10188202 -41.84692383 45.04760742 C-43.57172255 46.78106726 -45.29548511 48.51555921 -47.01782227 50.25146484 C-49.09813212 52.34641525 -51.18371938 54.43592155 -53.27270508 56.5222168 C-52.63333008 57.1203418 -51.99395508 57.7184668 -51.33520508 58.3347168 C-48.49816685 61.34369673 -48.15053991 63.83277165 -47.97558594 67.81005859 C-47.93561996 68.67072433 -47.89565399 69.53139008 -47.85447693 70.4181366 C-47.81589066 71.34322525 -47.77730438 72.2683139 -47.73754883 73.22143555 C-47.67308311 74.64671318 -47.67308311 74.64671318 -47.60731506 76.1007843 C-47.47091702 79.1369314 -47.34049139 82.17330189 -47.21020508 85.2097168 C-47.1188013 87.267677 -47.02700923 89.32562 -46.93481445 91.38354492 C-46.70960456 96.42958024 -46.48975083 101.47582399 -46.27270508 106.5222168 C-42.64270508 106.5222168 -39.01270508 106.5222168 -35.27270508 106.5222168 C-35.16055664 104.20577148 -35.16055664 104.20577148 -35.04614258 101.8425293 C-33.75117141 80.15530047 -33.75117141 80.15530047 -27.27270508 73.5222168 C-21.79578035 68.86100426 -15.57197827 67.05900981 -8.38598633 67.26831055 C-1.30295879 68.11932125 4.59142683 70.62910783 9.10229492 76.22924805 C14.72679149 85.09741736 13.629712 96.39133501 13.72729492 106.5222168 C17.68729492 106.5222168 21.64729492 106.5222168 25.72729492 106.5222168 C25.80246338 104.60759644 25.80246338 104.60759644 25.87915039 102.65429688 C26.06774062 97.91089924 26.26807249 93.16805724 26.47192383 88.42529297 C26.55845469 86.37399306 26.64181666 84.3225569 26.72192383 82.27099609 C26.83773807 79.3191627 26.9650052 76.36800984 27.09448242 73.41674805 C27.1446199 72.04459892 27.1446199 72.04459892 27.19577026 70.64472961 C27.44143543 65.34525262 27.65768933 60.83062303 31.35229492 56.7097168 C32.03291992 56.1219043 32.03291992 56.1219043 32.72729492 55.5222168 C32.08147461 54.94858398 31.4356543 54.37495117 30.77026367 53.78393555 C23.11588417 46.88347578 15.81053345 39.68025955 8.57958984 32.33740234 C4.33936743 28.051105 0.03694659 23.9303818 -4.55493164 20.02124023 C-6.27270508 18.5222168 -6.27270508 18.5222168 -7.87329102 16.82788086 C-10.14402635 14.70926736 -10.939757 15.21759002 -13.15551758 17.24487305 Z M-17.27270508 87.5222168 C-18.72598774 91.27948417 -18.38356532 95.30582135 -18.33520508 99.2722168 C-18.31458008 101.6647168 -18.29395508 104.0572168 -18.27270508 106.5222168 C-13.32270508 106.5222168 -8.37270508 106.5222168 -3.27270508 106.5222168 C-3.13767025 103.43742124 -3.03859477 100.35853097 -2.96020508 97.2722168 C-2.91831055 96.39952148 -2.87641602 95.52682617 -2.83325195 94.62768555 C-2.68153901 89.28503501 -2.68153901 89.28503501 -5.54223633 84.9128418 C-10.75850712 82.25620031 -13.35079257 83.70630192 -17.27270508 87.5222168 Z " fill="#000000" transform="translate(310.272705078125,37.477783203125)"/>
<path d="M0 0 C1.12795361 -0.00935994 1.12795361 -0.00935994 2.27869415 -0.01890898 C4.80004674 -0.03487215 7.32043701 -0.02222232 9.84179688 -0.00964355 C11.64868738 -0.01506322 13.45557347 -0.022185 15.26245117 -0.03088379 C20.17152718 -0.04913865 25.0802674 -0.04204069 29.98934937 -0.02936745 C35.12311722 -0.01925099 40.25685604 -0.02862936 45.390625 -0.03491211 C54.01242238 -0.04219246 62.63408278 -0.03259062 71.25585938 -0.0135498 C81.22843656 0.00821965 91.20068666 0.00116856 101.17325592 -0.02085543 C109.73046929 -0.03899836 118.2875841 -0.04157316 126.84481049 -0.03110075 C131.95787417 -0.02485974 137.07078404 -0.02404689 142.18383789 -0.0372467 C146.99052263 -0.04878848 151.79678503 -0.04081012 156.60342407 -0.01766968 C158.36910297 -0.01237363 160.13481731 -0.01391164 161.90048218 -0.02272034 C164.30783501 -0.03362444 166.71382798 -0.01997589 169.12109375 0 C169.82264839 -0.00892289 170.52420303 -0.01784577 171.24701691 -0.02703905 C174.62500362 0.02746813 176.30033707 0.30408817 178.99450684 2.41468048 C181.16498504 5.31585941 181.07128618 7.10330939 180.88867188 10.60559082 C180.43166719 13.25512992 179.52372815 14.69017413 177.56054688 16.50793457 C173.99940172 17.69498296 171.16097024 17.63988877 167.39993286 17.64837646 C166.29882056 17.65283315 166.29882056 17.65283315 165.17546356 17.65737987 C162.70892387 17.66607058 160.2424327 17.66757542 157.77587891 17.66906738 C156.01017147 17.67369525 154.24446503 17.67871987 152.47875977 17.68411255 C147.67710232 17.69724053 142.87545885 17.70368214 138.07378626 17.70812321 C135.07513776 17.71105295 132.0764931 17.71515754 129.07784653 17.71962738 C119.69926125 17.73330261 110.32068471 17.74296946 100.94209015 17.74682927 C90.10913817 17.75131193 79.27631224 17.7688694 68.44339859 17.79782987 C60.07389984 17.81942959 51.70443661 17.82953262 43.33491027 17.83087039 C38.33414675 17.83191953 33.33350172 17.83785069 28.33276749 17.85569 C23.62960349 17.8721414 18.92664744 17.87434048 14.22346497 17.86555099 C12.49689554 17.86477908 10.77031506 17.86914365 9.04377365 17.87900925 C6.68730955 17.89168512 4.33158683 17.88587616 1.97512817 17.87542725 C-0.00318654 17.87762709 -0.00318654 17.87762709 -2.02146721 17.87987137 C-5.66062719 17.48386695 -7.55061517 16.71270565 -10.43945312 14.50793457 C-12.00416545 11.37850992 -12.1364727 7.89711234 -11.43945312 4.50793457 C-8.20052348 0.15730809 -5.1085521 -0.06497432 0 0 Z " fill="#000000" transform="translate(215.439453125,175.4920654296875)"/>
<path d="M0 0 C1.12795361 -0.00935994 1.12795361 -0.00935994 2.27869415 -0.01890898 C4.80004674 -0.03487215 7.32043701 -0.02222232 9.84179688 -0.00964355 C11.64868738 -0.01506322 13.45557347 -0.022185 15.26245117 -0.03088379 C20.17152718 -0.04913865 25.0802674 -0.04204069 29.98934937 -0.02936745 C35.12311722 -0.01925099 40.25685604 -0.02862936 45.390625 -0.03491211 C54.01242238 -0.04219246 62.63408278 -0.03259062 71.25585938 -0.0135498 C81.22843656 0.00821965 91.20068666 0.00116856 101.17325592 -0.02085543 C109.73046929 -0.03899836 118.2875841 -0.04157316 126.84481049 -0.03110075 C131.95787417 -0.02485974 137.07078404 -0.02404689 142.18383789 -0.0372467 C146.99052263 -0.04878848 151.79678503 -0.04081012 156.60342407 -0.01766968 C158.36910297 -0.01237363 160.13481731 -0.01391164 161.90048218 -0.02272034 C164.30783501 -0.03362444 166.71382798 -0.01997589 169.12109375 0 C169.82264839 -0.00892289 170.52420303 -0.01784577 171.24701691 -0.02703905 C174.62446015 0.02745936 176.2994499 0.30320835 178.99230957 2.41468048 C181.15991979 5.30796643 181.1312057 7.10260904 180.95507812 10.60559082 C180.3466658 13.53922252 178.94908173 14.80183824 176.56054688 16.50793457 C173.02238586 17.68732158 170.21886204 17.63984074 166.48258972 17.64837646 C165.75738752 17.65134759 165.03218532 17.65431871 164.2850073 17.65737987 C161.84844052 17.66607006 159.41192286 17.66757538 156.9753418 17.66906738 C155.23096105 17.67369533 153.48658131 17.67871995 151.74220276 17.68411255 C146.99832757 17.69724075 142.25446653 17.70368232 137.51057601 17.70812321 C134.54743175 17.71105323 131.58429137 17.7151579 128.62114906 17.71962738 C119.3520186 17.73330335 110.08289698 17.74296955 100.81375712 17.74682927 C90.11042562 17.75131056 79.4072218 17.76886134 68.70392913 17.79782987 C60.4329277 17.81943908 52.16196222 17.82953314 43.89093286 17.83087039 C38.94994057 17.83191895 34.00906829 17.8378377 29.0681057 17.85569 C24.41992985 17.87215755 19.77196437 17.87433259 15.12376976 17.86555099 C13.41858355 17.86477992 11.71338609 17.86913266 10.0082283 17.87900925 C7.6783865 17.89171174 5.34929168 17.88586162 3.01945496 17.87542725 C1.06464596 17.87762709 1.06464596 17.87762709 -0.92965412 17.87987137 C-4.75248655 17.47476211 -7.18173267 16.51807777 -10.43945312 14.50793457 C-12.00416545 11.37850992 -12.1364727 7.89711234 -11.43945312 4.50793457 C-8.20052348 0.15730809 -5.1085521 -0.06497432 0 0 Z " fill="#000000" transform="translate(215.439453125,207.4920654296875)"/>
<path d="M0 0 C1.96492759 3.41726538 2.45865805 6.65564028 1.4375 10.5 C-2.32494557 15.53503745 -7.40130455 15.9033832 -13.25 17.1796875 C-17.37906371 18.82546997 -18.39464694 20.70625715 -20.5625 24.5 C-26.71692097 30.03897887 -31.10649327 30.9435853 -39.296875 30.82421875 C-43.77671678 30.37944977 -46.84900981 28.94354661 -50.5625 26.5 C-51.5525 25.9225 -52.5425 25.345 -53.5625 24.75 C-54.2225 24.3375 -54.8825 23.925 -55.5625 23.5 C-55.8925 24.49 -56.2225 25.48 -56.5625 26.5 C-60.6823185 28.27717661 -62.67561028 28.82847767 -66.9375 27.25 C-69.5625 25.5 -69.5625 25.5 -70.5625 23.5 C-71.13496917 19.34959853 -71.40550591 16.89363982 -69.2109375 13.265625 C-65.84254758 9.19981514 -62.9644617 6.25627464 -57.5625 5.5 C-49.66921973 5.42758458 -45.01904358 8.19563761 -38.5625 12.5 C-35.93718476 12.66713569 -35.93718476 12.66713569 -33.5625 12.5 C-33.170625 11.5925 -32.77875 10.685 -32.375 9.75 C-29.093977 3.86678635 -24.89779216 1.97318052 -18.6875 0.09375 C-12.67216911 -1.58700422 -5.65488692 -3.31017771 0 0 Z " fill="#000000" transform="translate(390.5625,249.5)"/>
<path d="M0 0 C0.7354303 -0.00700928 1.4708606 -0.01401855 2.22857666 -0.02124023 C4.65537467 -0.03882069 7.08100299 -0.02719827 9.5078125 -0.01367188 C11.1964541 -0.0163668 12.88509418 -0.02024922 14.57373047 -0.02526855 C18.11115304 -0.03116364 21.64817133 -0.02260061 25.18554688 -0.00390625 C29.71870095 0.01888364 34.25090777 0.00576057 38.7840271 -0.01819611 C42.27049897 -0.03265401 45.75674645 -0.0280482 49.2432251 -0.01768494 C50.91457227 -0.01501761 52.58593985 -0.01828764 54.25726318 -0.02760315 C56.59393225 -0.03776907 58.92906994 -0.02226936 61.265625 0 C61.95561584 -0.00809692 62.64560669 -0.01619385 63.35650635 -0.02453613 C66.72024206 0.03482079 68.38095908 0.31966977 71.06005859 2.42492676 C72.76751932 4.69681431 73.1766303 5.7132387 73.1328125 8.51757812 C73.14828125 9.50757813 73.14828125 9.50757813 73.1640625 10.51757812 C72.37080564 13.50395687 71.05528572 14.61398005 68.6328125 16.51757812 C66.03539794 16.91265935 63.86044428 17.06560601 61.265625 17.03515625 C60.5301947 17.04216553 59.7947644 17.0491748 59.03704834 17.05639648 C56.61025033 17.07397694 54.18462201 17.06235452 51.7578125 17.04882812 C50.0691709 17.05152305 48.38053082 17.05540547 46.69189453 17.0604248 C43.15447196 17.06631989 39.61745367 17.05775686 36.08007812 17.0390625 C31.54692405 17.01627261 27.01471723 17.02939568 22.4815979 17.05335236 C18.99512603 17.06781026 15.50887855 17.06320445 12.0223999 17.05284119 C10.35105273 17.05017386 8.67968515 17.05344389 7.00836182 17.0627594 C4.67169275 17.07292532 2.33655506 17.05742561 0 17.03515625 C-0.68999084 17.04325317 -1.37998169 17.0513501 -2.09088135 17.05969238 C-5.45461706 17.00033546 -7.11533408 16.71548648 -9.79443359 14.61022949 C-11.50189432 12.33834194 -11.9110053 11.32191755 -11.8671875 8.51757812 C-11.88265625 7.52757812 -11.88265625 7.52757812 -11.8984375 6.51757812 C-10.27738415 0.41478904 -5.4990372 -0.06453026 0 0 Z " fill="#000000" transform="translate(215.3671875,239.482421875)"/>
</svg>
