<?xml version="1.0" encoding="UTF-8"?>
<svg version="1.1" xmlns="http://www.w3.org/2000/svg" width="512" height="512">
<path d="M0 0 C13.89174087 13.75380869 20.96952706 31.00964898 21.19639587 50.47956848 C21.19199242 52.17384224 21.19199242 52.17384224 21.1875 53.90234375 C21.19274185 55.11117722 21.1979837 56.32001068 21.2033844 57.56547546 C21.20976177 60.10410805 21.20852379 62.64277036 21.19995117 65.18139648 C21.1914501 69.01926496 21.22025266 72.85563755 21.25195312 76.69335938 C21.32149983 100.60277988 17.86962002 119.69393549 0.75390625 137.7265625 C-1.53660143 139.77938745 -3.87512054 141.76747422 -6.24609375 143.7265625 C-5.26439209 143.94795898 -4.28269043 144.16935547 -3.27124023 144.39746094 C0.44768653 145.23698616 4.16572902 146.08037489 7.88354492 146.92480469 C9.47836636 147.28650027 11.07341116 147.6472127 12.66870117 148.00683594 C52.58100509 157.00753188 52.58100509 157.00753188 67.75390625 172.7265625 C68.37810959 173.78213097 68.37810959 173.78213097 69.0149231 174.85902405 C70.66113647 177.00529712 70.66113647 177.00529712 73.5866394 177.2118988 C74.73737946 177.20570023 75.88811951 177.19950165 77.07373047 177.19311523 C78.37873505 177.1966954 79.68373962 177.20027557 81.02828979 177.20396423 C82.07418085 177.19301885 82.07418085 177.19301885 83.14120102 177.18185234 C85.32757416 177.15996625 87.51256356 177.16368121 89.69900513 177.17433167 C95.12957009 177.1960051 100.55982876 177.17865827 105.99035645 177.15283203 C110.57797936 177.13141122 115.16471496 177.12951294 119.75232315 177.15574837 C121.9026663 177.16009375 124.05146131 177.13547739 126.20162964 177.11021423 C127.51293854 177.11694656 128.82424744 177.12367889 130.17529297 177.13061523 C131.32762421 177.12521225 132.47995544 177.11980927 133.66720581 177.11424255 C137.8057679 177.93522411 139.11933838 179.47026697 141.75390625 182.7265625 C142.38311195 185.98278809 142.38311195 185.98278809 142.38882446 189.74804688 C142.39662442 190.44299507 142.40442437 191.13794327 142.41246068 191.8539505 C142.43236375 194.1766146 142.4166248 196.49763702 142.40087891 198.8203125 C142.40765586 200.48780268 142.41655943 202.15528538 142.4274292 203.82275391 C142.45022017 208.34762935 142.44138717 212.87193468 142.42553377 217.39682007 C142.41287369 222.13240087 142.42461518 226.8679329 142.4324646 231.60351562 C142.44156085 239.55607873 142.42957391 247.50840965 142.40576172 255.4609375 C142.37855046 264.65481421 142.38736464 273.84813654 142.41489375 283.04199982 C142.43758452 290.93600459 142.44078506 298.82984248 142.4277004 306.72386932 C142.41990571 311.43848254 142.41886477 316.15283517 142.43538284 320.86743164 C142.44982794 325.29996691 142.43980555 329.73178753 142.41091156 334.16424561 C142.4043009 335.79082045 142.40619816 337.41745545 142.41722488 339.04400635 C142.43089423 341.26517499 142.41375276 343.48405529 142.38882446 345.70507812 C142.38693933 346.94761353 142.38505421 348.19014893 142.38311195 349.47033691 C141.55138743 353.77462508 140.19241159 355.03880154 136.75390625 357.7265625 C133.74873972 358.21780854 131.3133378 358.40018403 128.31271362 358.3557682 C127.03496138 358.36666901 127.03496138 358.36666901 125.73139596 358.37779003 C122.86329174 358.39610732 119.9965135 358.37865352 117.12841797 358.36148071 C115.05700939 358.36723923 112.98560592 358.37517853 110.91421318 358.38511693 C105.21143467 358.4060503 99.50907283 358.39564547 93.80629253 358.38018584 C87.66032225 358.36890284 81.51442513 358.38631988 75.36846924 358.40008545 C64.02090393 358.42106702 52.67350906 358.41920208 41.32594794 358.40552811 C30.84356607 358.39295845 20.36123307 358.38966301 9.87884521 358.39564133 C8.83653007 358.39621422 8.83653007 358.39621422 7.77315806 358.39679868 C4.95254326 358.39835533 2.13192849 358.39994732 -0.68868626 358.4015975 C-27.15711597 358.41689817 -53.62546074 358.40301624 -80.09387735 358.37611301 C-103.61796894 358.35238433 -127.14192521 358.35450744 -150.66601562 358.37841797 C-177.08551803 358.40518161 -203.50494538 358.41581312 -229.92445946 358.40035665 C-232.73998386 358.39875302 -235.55550828 358.39718883 -238.37103271 358.39564133 C-239.4109406 358.39504825 -239.4109406 358.39504825 -240.47185673 358.39444319 C-250.94856389 358.38875187 -261.42521685 358.39541452 -271.9019165 358.40803909 C-283.81246238 358.42231976 -295.72284839 358.41831232 -307.63338804 358.39163537 C-313.71398462 358.37846647 -319.79430608 358.3733973 -325.87490082 358.38988113 C-331.43629384 358.4047298 -336.99715555 358.39667633 -342.55850005 358.36999337 C-344.57524454 358.36438682 -346.5920335 358.36729717 -348.60874963 358.37937231 C-351.34144652 358.3944851 -354.07230188 358.37908065 -356.80490112 358.3557682 C-357.59571823 358.36747403 -358.38653533 358.37917987 -359.2013166 358.39124042 C-363.23380653 358.32204928 -365.04124215 357.89009398 -368.2339859 355.34135091 C-370.45343118 352.45712192 -370.87653594 351.23073566 -370.89306641 347.6484375 C-370.91670761 346.17165527 -370.91670761 346.17165527 -370.94082642 344.66503906 C-370.93070526 343.6128418 -370.92058411 342.56064453 -370.91015625 341.4765625 C-370.91493988 340.38569336 -370.91972351 339.29482422 -370.9246521 338.17089844 C-370.92804988 335.86782385 -370.91885618 333.56470095 -370.89794922 331.26171875 C-370.87118435 327.73848833 -370.89770376 324.21844394 -370.9296875 320.6953125 C-370.92638338 318.45572214 -370.91997712 316.21613376 -370.91015625 313.9765625 C-370.9202774 312.92436523 -370.93039856 311.87216797 -370.94082642 310.78808594 C-370.86937612 306.32483946 -370.67250983 303.4724606 -368.43237305 299.55395508 C-363.56814554 296.76422686 -359.11150967 297.10780066 -353.6015625 297.23828125 C-352.47663895 297.24535599 -351.35171539 297.25243073 -350.19270325 297.25971985 C-346.60565226 297.28767106 -343.02017163 297.35041533 -339.43359375 297.4140625 C-336.99937153 297.43914423 -334.5651248 297.46195761 -332.13085938 297.48242188 C-326.16873655 297.53750024 -320.20752735 297.62113545 -314.24609375 297.7265625 C-314.26422119 296.84395752 -314.28234863 295.96135254 -314.30102539 295.05200195 C-314.31512451 293.88886475 -314.32922363 292.72572754 -314.34375 291.52734375 C-314.36187744 290.37661377 -314.38000488 289.22588379 -314.39868164 288.0402832 C-314.00968968 279.5926227 -309.16760444 273.41585709 -303.24609375 267.7265625 C-296.07825504 262.16783044 -291.49634016 261.7265625 -282.24609375 261.7265625 C-282.24609375 255.4565625 -282.24609375 249.1865625 -282.24609375 242.7265625 C-284.73422607 242.75274658 -287.2223584 242.77893066 -289.78588867 242.8059082 C-298.00801777 242.88876862 -306.23016535 242.94399071 -314.45260143 242.98562336 C-319.43778258 243.01171356 -324.42253583 243.04710118 -329.4074707 243.10375977 C-334.21855688 243.15809998 -339.02923158 243.18798738 -343.84060097 243.20094872 C-345.6758605 243.21018499 -347.51109759 243.22822158 -349.34618187 243.25521278 C-351.91772433 243.29153072 -354.48756837 243.29650684 -357.05932617 243.29418945 C-357.81746109 243.31216583 -358.57559601 243.33014221 -359.35670471 243.34866333 C-363.08117508 243.31236478 -364.97480691 242.93784064 -367.94092846 240.62782574 C-370.79506415 237.0356326 -370.87411297 235.25238005 -370.88101196 230.70507812 C-370.88881192 230.01012993 -370.89661187 229.31518173 -370.90464818 228.5991745 C-370.92455125 226.2765104 -370.9088123 223.95548798 -370.89306641 221.6328125 C-370.89984336 219.96532232 -370.90874693 218.29783962 -370.9196167 216.63037109 C-370.94240767 212.10549565 -370.93357467 207.58119032 -370.91772127 203.05630493 C-370.90506119 198.32072413 -370.91680268 193.5851921 -370.9246521 188.84960938 C-370.93374835 180.89704627 -370.92176141 172.94471535 -370.89794922 164.9921875 C-370.87073796 155.79831079 -370.87955214 146.60498846 -370.90708125 137.41112518 C-370.92977202 129.51712041 -370.93297256 121.62328252 -370.9198879 113.72925568 C-370.91209321 109.01464246 -370.91105227 104.30028983 -370.92757034 99.58569336 C-370.94201544 95.15315809 -370.93199305 90.72133747 -370.90309906 86.28887939 C-370.8964884 84.66230455 -370.89838566 83.03566955 -370.90941238 81.40911865 C-370.92308173 79.18795001 -370.90594026 76.96906971 -370.88101196 74.74804688 C-370.87912683 73.50551147 -370.87724171 72.26297607 -370.87529945 70.98278809 C-370.06856432 66.80782343 -368.55438484 65.31907678 -365.24609375 62.7265625 C-362.48899886 62.23049429 -360.34750064 62.04002968 -357.59765625 62.07958984 C-356.84417908 62.07082825 -356.0907019 62.06206665 -355.31439209 62.05303955 C-352.83270056 62.03109752 -350.35280223 62.04557811 -347.87109375 62.0625 C-346.14143534 62.05913033 -344.41177923 62.05427645 -342.68212891 62.04800415 C-339.06064261 62.04063992 -335.43977378 62.05132337 -331.81835938 62.07470703 C-327.1809067 62.10319511 -322.54490083 62.08678865 -317.90750122 62.05684471 C-314.33688495 62.03875924 -310.76661057 62.04453537 -307.19598389 62.05748367 C-305.48638741 62.06081426 -303.77675969 62.05674279 -302.06719971 62.04508591 C-299.67547648 62.03235579 -297.28608143 62.05178038 -294.89453125 62.07958984 C-294.19100525 62.06946869 -293.48747925 62.05934753 -292.76263428 62.04891968 C-288.9129398 62.13166559 -287.338683 62.65138858 -284.30957031 65.11074829 C-282.06523675 67.95583009 -281.5653462 69.15871937 -281.62109375 72.7265625 C-281.60175781 73.9640625 -281.60175781 73.9640625 -281.58203125 75.2265625 C-282.24609375 77.7265625 -282.24609375 77.7265625 -287.24609375 82.7265625 C-308.03609375 82.7265625 -328.82609375 82.7265625 -350.24609375 82.7265625 C-350.24609375 128.9265625 -350.24609375 175.1265625 -350.24609375 222.7265625 C-327.80609375 222.7265625 -305.36609375 222.7265625 -282.24609375 222.7265625 C-282.48273142 204.17866139 -282.48273142 204.17866139 -282.78662109 185.63183594 C-282.80416695 183.28321989 -282.819451 180.9345854 -282.83203125 178.5859375 C-282.86272705 177.39500488 -282.89342285 176.20407227 -282.92504883 174.97705078 C-282.9307667 165.70266619 -280.70235496 157.84912726 -274.50448608 150.72454834 C-272.84776786 149.14471987 -271.18479546 147.94126772 -269.24609375 146.7265625 C-268.62476563 146.31664062 -268.0034375 145.90671875 -267.36328125 145.484375 C-260.38367137 141.63630111 -251.9856433 141.47601726 -244.24609375 142.7265625 C-235.62748045 145.45788116 -229.72996236 149.88996207 -225.14068604 157.57847595 C-221.6827053 164.41964164 -221.72736275 170.7415238 -221.85546875 178.29296875 C-221.85949707 179.42408081 -221.86352539 180.55519287 -221.86767578 181.72058105 C-221.88846466 185.91024197 -221.94430921 190.09967005 -221.99609375 194.2890625 C-222.07859375 203.6734375 -222.16109375 213.0578125 -222.24609375 222.7265625 C-199.80609375 222.7265625 -177.36609375 222.7265625 -154.24609375 222.7265625 C-154.24609375 176.5265625 -154.24609375 130.3265625 -154.24609375 82.7265625 C-175.03609375 82.7265625 -195.82609375 82.7265625 -217.24609375 82.7265625 C-222.24609375 77.7265625 -222.24609375 77.7265625 -222.91015625 75.2265625 C-222.89726562 74.4015625 -222.884375 73.5765625 -222.87109375 72.7265625 C-222.88398438 71.9015625 -222.896875 71.0765625 -222.91015625 70.2265625 C-221.93410119 66.55200229 -220.17823781 65.10719264 -217.24609375 62.7265625 C-214.48899886 62.23049429 -212.34750064 62.04002968 -209.59765625 62.07958984 C-208.84417908 62.07082825 -208.0907019 62.06206665 -207.31439209 62.05303955 C-204.83270056 62.03109752 -202.35280223 62.04557811 -199.87109375 62.0625 C-198.14143534 62.05913033 -196.41177923 62.05427645 -194.68212891 62.04800415 C-191.06064261 62.04063992 -187.43977378 62.05132337 -183.81835938 62.07470703 C-179.1809067 62.10319511 -174.54490083 62.08678865 -169.90750122 62.05684471 C-166.33688495 62.03875924 -162.76661057 62.04453537 -159.19598389 62.05748367 C-157.48638741 62.06081426 -155.77675969 62.05674279 -154.06719971 62.04508591 C-151.67547648 62.03235579 -149.28608143 62.05178038 -146.89453125 62.07958984 C-146.19100525 62.06946869 -145.48747925 62.05934753 -144.76263428 62.04891968 C-141.1734993 62.12606509 -139.28757441 62.69828687 -136.30354309 64.7323761 C-133.64503219 68.60128165 -133.5760821 71.74952144 -133.6784668 76.28051758 C-133.6773716 77.55445374 -133.6773716 77.55445374 -133.67625427 78.85412598 C-133.67972859 81.65210574 -133.71858138 84.44840602 -133.7578125 87.24609375 C-133.7671412 89.18949982 -133.77425704 91.13291768 -133.7792511 93.07633972 C-133.79831637 98.18448509 -133.84741336 103.29191646 -133.902771 108.39978027 C-133.95397349 113.61472922 -133.9767673 118.82979386 -134.00195312 124.04492188 C-134.05553234 134.27244864 -134.14083967 144.49944613 -134.24609375 154.7265625 C-132.75150887 154.32307587 -132.75150887 154.32307587 -131.22673035 153.91143799 C-129.88839632 153.55188885 -128.55004174 153.19241623 -127.21166992 152.83300781 C-126.55865654 152.65649689 -125.90564316 152.47998596 -125.23284149 152.29812622 C-118.38879269 150.46347291 -111.49024288 148.9461171 -104.55859375 147.4765625 C-103.32431641 147.2084375 -102.09003906 146.9403125 -100.81835938 146.6640625 C-99.63564453 146.41140625 -98.45292969 146.15875 -97.234375 145.8984375 C-96.17774658 145.6725293 -95.12111816 145.44662109 -94.0324707 145.21386719 C-91.24609375 144.7265625 -91.24609375 144.7265625 -87.24609375 144.7265625 C-87.24609375 144.0665625 -87.24609375 143.4065625 -87.24609375 142.7265625 C-87.808125 142.48550781 -88.37015625 142.24445313 -88.94921875 141.99609375 C-100.42235718 135.65464819 -108.54670457 121.78265321 -112.43232727 109.62602234 C-114.90111722 100.82969378 -115.55511084 92.02156624 -115.546875 82.92578125 C-115.55116013 81.84633743 -115.55544525 80.76689362 -115.55986023 79.65473938 C-115.56556012 77.3884043 -115.56613619 75.12205093 -115.56176758 72.85571289 C-115.55861101 69.43278027 -115.58211129 66.01071669 -115.60742188 62.58789062 C-115.65177653 47.95663881 -115.67773583 33.46022991 -108.43359375 20.2890625 C-108.08103516 19.62003906 -107.72847656 18.95101562 -107.36523438 18.26171875 C-104.74646419 13.39489358 -101.94419001 8.85532314 -98.24609375 4.7265625 C-97.37404297 3.73462891 -97.37404297 3.73462891 -96.484375 2.72265625 C-70.77381728 -24.76104338 -27.44392253 -24.19158018 0 0 Z M-77.15234375 13.82421875 C-86.19619492 22.04129994 -92.75465512 32.39846342 -94.24609375 44.7265625 C-94.28668469 46.31594133 -94.29983611 47.90626445 -94.28515625 49.49609375 C-94.2795166 50.29249268 -94.27387695 51.0888916 -94.26806641 51.90942383 C-94.26081543 52.50907959 -94.25356445 53.10873535 -94.24609375 53.7265625 C-73.19104323 54.25273639 -55.0829277 53.52896484 -38.828125 38.30078125 C-37.50715841 36.98633796 -36.18880273 35.66927148 -34.87109375 34.3515625 C-33.24609375 32.7265625 -33.24609375 32.7265625 -31.24609375 31.7265625 C-23.28905877 31.8439229 -18.3926351 34.51846489 -11.80859375 38.7890625 C-10.04125601 39.90841875 -8.27182905 41.02448544 -6.5 42.13671875 C-5.72986572 42.63308838 -4.95973145 43.12945801 -4.16625977 43.64086914 C-2.32357229 44.89062535 -2.32357229 44.89062535 -0.24609375 44.7265625 C-2.26644596 30.55394249 -9.04566178 20.24931085 -20.24609375 11.3515625 C-37.67645316 -0.723481 -60.8585215 0.25559564 -77.15234375 13.82421875 Z M-26.24609375 54.7265625 C-26.92671875 55.29503906 -27.60734375 55.86351562 -28.30859375 56.44921875 C-48.10509464 72.21797411 -69.610564 74.16806665 -94.24609375 74.7265625 C-94.75943921 92.90279423 -93.57087373 108.11328463 -80.43359375 122.1015625 C-70.16431389 131.63732237 -58.18210902 135.96223356 -44.24609375 135.7265625 C-31.14516765 134.24533814 -19.40681275 129.06360002 -10.83203125 118.8515625 C-5.63526689 111.50631252 -1.63459335 104.76461168 -0.24609375 95.7265625 C-0.07964355 94.76927246 0.08680664 93.81198242 0.25830078 92.82568359 C1.44216818 85.13806764 2.50111558 77.1674344 -0.24609375 69.7265625 C-5.99328732 63.14771309 -14.32206753 59.95498534 -22.24609375 56.7265625 C-23.58622304 56.07366457 -24.92231044 55.41199665 -26.24609375 54.7265625 Z M-62.24609375 154.7265625 C-58.77363545 164.83785444 -55.25088271 174.92693373 -51.43359375 184.9140625 C-51.14411865 185.68540527 -50.85464355 186.45674805 -50.55639648 187.25146484 C-49.27822078 191.2051585 -49.27822078 191.2051585 -46.24609375 193.7265625 C-41.62609375 181.1865625 -37.00609375 168.6465625 -32.24609375 155.7265625 C-34.97241512 154.36340182 -37.04971851 155.05896647 -39.98046875 155.46484375 C-47.41302766 156.32343245 -54.83931806 155.50185117 -62.24609375 154.7265625 Z M-261.24609375 168.7265625 C-262.57890612 172.86756241 -262.37854863 177.04460362 -262.35961914 181.35058594 C-262.35976517 182.21923782 -262.35991119 183.08788971 -262.36006165 183.98286438 C-262.35936566 186.85058093 -262.3515879 189.71823231 -262.34375 192.5859375 C-262.34188471 194.5756222 -262.34046133 196.56530735 -262.33946228 198.55499268 C-262.33564587 203.78942129 -262.32582304 209.02382211 -262.3147583 214.25823975 C-262.30452537 219.60054142 -262.29996062 224.94284759 -262.29492188 230.28515625 C-262.2842 240.76563917 -262.26661027 251.24609417 -262.24609375 261.7265625 C-255.64609375 261.7265625 -249.04609375 261.7265625 -242.24609375 261.7265625 C-242.17825664 250.24330574 -242.12324213 238.76018257 -242.09065723 227.27677059 C-242.07501637 221.94428486 -242.05380678 216.61194361 -242.01977539 211.27954102 C-241.98712585 206.13131354 -241.96922885 200.98322485 -241.96146202 195.83490181 C-241.95592857 193.872949 -241.94512309 191.9110036 -241.92890358 189.94911003 C-241.90705504 187.1962951 -241.90412994 184.44405011 -241.90551758 181.69116211 C-241.89473175 180.88411331 -241.88394592 180.07706451 -241.87283325 179.24555969 C-241.90128314 174.0130725 -242.73242539 170.3500208 -245.24609375 165.7265625 C-251.59951573 161.49094785 -256.83450876 162.84444918 -261.24609375 168.7265625 Z M-88.32104492 165.37573242 C-89.1125444 165.54308395 -89.90404388 165.71043549 -90.7195282 165.88285828 C-91.56747452 166.07233536 -92.41542084 166.26181244 -93.2890625 166.45703125 C-94.61361198 166.74457024 -94.61361198 166.74457024 -95.96492004 167.03791809 C-97.83443987 167.44638175 -99.70297029 167.85939655 -101.57055664 168.27661133 C-104.40293001 168.90723526 -107.23905682 169.51806554 -110.07617188 170.12695312 C-111.8973987 170.52745043 -113.71837103 170.92910716 -115.5390625 171.33203125 C-116.37688766 171.51138718 -117.21471283 171.6907431 -118.07792664 171.87553406 C-123.8189814 173.17778807 -128.95392877 175.15503047 -134.24609375 177.7265625 C-134.25640121 178.47158524 -134.26670868 179.21660797 -134.27732849 179.98420715 C-134.37527783 187.00295133 -134.47778867 194.02161055 -134.58543301 201.04021168 C-134.64061375 204.6486031 -134.69402595 208.25700271 -134.7434082 211.86547852 C-134.79112336 215.34739393 -134.84346867 218.82921169 -134.8990345 222.31101036 C-134.92935412 224.28686803 -134.9548695 226.26279752 -134.98033142 228.23872375 C-135.00027664 229.43974228 -135.02022186 230.6407608 -135.04077148 231.87817383 C-135.05631577 232.93740555 -135.07186005 233.99663727 -135.08787537 235.08796692 C-135.24609375 237.7265625 -135.24609375 237.7265625 -136.24609375 240.7265625 C-141.97322218 242.63560531 -148.22254116 242.32499233 -154.24609375 242.7265625 C-154.24609375 260.8765625 -154.24609375 279.0265625 -154.24609375 297.7265625 C-105.40609375 297.7265625 -56.56609375 297.7265625 -6.24609375 297.7265625 C-5.95673797 260.01505398 -5.95673797 260.01505398 -5.67797852 222.3034668 C-5.61901855 215.01721191 -5.61901855 215.01721191 -5.5901947 211.60847473 C-5.57094716 209.22278701 -5.5536314 206.83708325 -5.53782654 204.45137024 C-5.51354371 200.84212088 -5.48317185 197.23296959 -5.45141602 193.6237793 C-5.44564576 192.55721194 -5.43987551 191.49064459 -5.4339304 190.39175701 C-5.41926936 188.93715683 -5.41926936 188.93715683 -5.40431213 187.45317078 C-5.39785958 186.60788661 -5.39140703 185.76260244 -5.38475895 184.89170361 C-5.24609375 182.7265625 -5.24609375 182.7265625 -4.24609375 179.7265625 C-1.58912617 178.84090664 0.03580708 178.5815363 2.76635742 178.52124023 C3.56696091 178.50129501 4.36756439 178.48134979 5.19242859 178.46080017 C6.0518959 178.44408768 6.91136322 178.42737518 7.796875 178.41015625 C8.68047195 178.38937515 9.56406891 178.36859406 10.47444153 178.34718323 C13.2966841 178.28180496 16.1190196 178.22285722 18.94140625 178.1640625 C20.85482731 178.12086613 22.76823898 178.07725148 24.68164062 178.03320312 C29.37230062 177.92613555 34.06305408 177.82483498 38.75390625 177.7265625 C36.09072944 175.06338569 33.81757328 174.7783284 30.171875 173.83984375 C29.50826462 173.66850418 28.84465424 173.49716461 28.16093445 173.32063293 C21.19433927 171.54315005 14.19175072 169.92352095 7.17016602 168.37915039 C5.02739515 167.90543814 2.88785399 167.41854429 0.74804688 166.93164062 C-0.62872826 166.62679918 -2.00567515 166.32273219 -3.3828125 166.01953125 C-5.21912231 165.60997192 -5.21912231 165.60997192 -7.0925293 165.19213867 C-10.81904962 164.60317025 -10.81904962 164.60317025 -14.24609375 165.7265625 C-15.73583149 168.33008818 -15.73583149 168.33008818 -16.83984375 171.65161133 C-17.18221069 172.57853539 -17.18221069 172.57853539 -17.53149414 173.52418518 C-18.28425133 175.57232155 -19.01464911 177.62776081 -19.74609375 179.68359375 C-20.26717298 181.10810348 -20.78998402 182.53198082 -21.31445312 183.95524597 C-22.6939791 187.70876085 -24.05622549 191.46828144 -25.41308594 195.2300415 C-27.58185986 201.24168323 -29.76534168 207.24775802 -31.9699707 213.24634361 C-32.73519064 215.34124488 -33.4861651 217.44088239 -34.23632812 219.54121399 C-34.70774039 220.83213604 -35.17971606 222.12285253 -35.65234375 223.41333008 C-36.05775391 224.53838455 -36.46316406 225.66343903 -36.88085938 226.82258606 C-38.3139193 229.87083354 -39.64177089 231.61138419 -42.24609375 233.7265625 C-45.95582738 234.75704406 -48.4223262 234.93084802 -52.16015625 234.00390625 C-57.15158178 230.32036058 -58.26372981 225.07982934 -60.24609375 219.3515625 C-60.70461495 218.08405462 -61.16569519 216.81746995 -61.62915039 215.55175781 C-62.63548108 212.79553872 -63.63082951 210.03571628 -64.61767578 207.27246094 C-67.28065086 199.82478085 -70.00016167 192.39843224 -72.75708008 184.98504639 C-73.67656371 182.49559595 -74.57588743 179.99944879 -75.47460938 177.50244141 C-76.04202843 175.96742552 -76.61034396 174.43274063 -77.1796875 172.8984375 C-77.43036484 172.18624054 -77.68104218 171.47404358 -77.9393158 170.74026489 C-78.72360816 168.55327364 -78.72360816 168.55327364 -80.24609375 165.7265625 C-83.15218401 164.57367783 -85.30825648 164.72281149 -88.32104492 165.37573242 Z M13.75390625 197.7265625 C13.75390625 204.3265625 13.75390625 210.9265625 13.75390625 217.7265625 C49.39390625 217.7265625 85.03390625 217.7265625 121.75390625 217.7265625 C121.75390625 211.1265625 121.75390625 204.5265625 121.75390625 197.7265625 C86.11390625 197.7265625 50.47390625 197.7265625 13.75390625 197.7265625 Z M13.75390625 237.7265625 C13.75390625 244.3265625 13.75390625 250.9265625 13.75390625 257.7265625 C49.39390625 257.7265625 85.03390625 257.7265625 121.75390625 257.7265625 C121.75390625 251.1265625 121.75390625 244.5265625 121.75390625 237.7265625 C86.11390625 237.7265625 50.47390625 237.7265625 13.75390625 237.7265625 Z M-222.24609375 242.7265625 C-222.24609375 248.9965625 -222.24609375 255.2665625 -222.24609375 261.7265625 C-220.43109375 261.9740625 -218.61609375 262.2215625 -216.74609375 262.4765625 C-206.34753174 264.27068059 -200.48599891 268.09996551 -194.24609375 276.7265625 C-190.44099862 283.12961914 -190.62431787 290.46465946 -190.24609375 297.7265625 C-185.29609375 297.7265625 -180.34609375 297.7265625 -175.24609375 297.7265625 C-175.24609375 279.5765625 -175.24609375 261.4265625 -175.24609375 242.7265625 C-190.75609375 242.7265625 -206.26609375 242.7265625 -222.24609375 242.7265625 Z M13.75390625 277.7265625 C13.75390625 284.3265625 13.75390625 290.9265625 13.75390625 297.7265625 C49.39390625 297.7265625 85.03390625 297.7265625 121.75390625 297.7265625 C121.75390625 291.1265625 121.75390625 284.5265625 121.75390625 277.7265625 C86.11390625 277.7265625 50.47390625 277.7265625 13.75390625 277.7265625 Z M-292.12109375 286.3515625 C-293.84380633 289.65519468 -293.84380633 289.65519468 -294.24609375 297.7265625 C-266.52609375 297.7265625 -238.80609375 297.7265625 -210.24609375 297.7265625 C-210.6715826 289.23762761 -210.6715826 289.23762761 -215.24609375 283.7265625 C-219.44389405 282.03148714 -222.99798801 281.47137728 -227.50756836 281.4519043 C-228.72580795 281.44237228 -229.94404755 281.43284027 -231.19920349 281.42301941 C-232.50245071 281.42393082 -233.80569794 281.42484222 -235.1484375 281.42578125 C-236.5131493 281.4218889 -237.87785991 281.41755313 -239.24256897 281.41279602 C-242.09624161 281.40535562 -244.94979049 281.40560927 -247.8034668 281.41088867 C-251.44606162 281.41668202 -255.08814775 281.39974554 -258.73065853 281.376544 C-261.54723533 281.36175624 -264.36369101 281.36094174 -267.18029976 281.36405373 C-269.17156847 281.36329623 -271.16281849 281.3494663 -273.15403748 281.33537292 C-283.4151994 281.37819328 -283.4151994 281.37819328 -292.12109375 286.3515625 Z M-350.24609375 317.7265625 C-350.24609375 324.3265625 -350.24609375 330.9265625 -350.24609375 337.7265625 C-194.48609375 337.7265625 -38.72609375 337.7265625 121.75390625 337.7265625 C121.75390625 331.1265625 121.75390625 324.5265625 121.75390625 317.7265625 C-34.00609375 317.7265625 -189.76609375 317.7265625 -350.24609375 317.7265625 Z " fill="#000000" transform="translate(370.24609375,154.2734375)"/>
<path d="M0 0 C19.39740658 16.94657863 31.83386415 38.46540202 34.00585938 64.34741211 C35.72062892 89.96313883 28.11604164 114.30386077 11.34765625 133.83984375 C-6.64242634 153.67641575 -29.90322568 164.52441227 -56.65234375 165.83984375 C-83.38061818 166.5958951 -107.04407559 155.87212488 -126.27734375 137.71484375 C-144.73583431 118.6170981 -152.32724103 94.97342505 -152.125 68.80126953 C-151.49159491 44.31534326 -141.83455685 23.31034902 -124.65234375 5.83984375 C-123.9046875 5.07929688 -123.15703125 4.31875 -122.38671875 3.53515625 C-112.27456506 -6.14170606 -99.98374593 -12.99919229 -86.65234375 -17.16015625 C-85.67136719 -17.47855469 -84.69039063 -17.79695313 -83.6796875 -18.125 C-54.73233738 -25.90885995 -23.0267372 -18.75373442 0 0 Z M-110.99609375 22.08203125 C-126.19601324 37.95865949 -131.20955441 56.50671427 -130.92578125 77.94921875 C-130.37763859 94.95792272 -122.78354651 109.25868471 -111.65234375 121.83984375 C-111.12253906 122.46375 -110.59273437 123.08765625 -110.046875 123.73046875 C-97.96963748 136.97069952 -79.34397074 143.66517196 -61.85742188 144.71655273 C-43.5230197 145.48331816 -24.91494337 138.91712748 -11.33984375 126.52734375 C4.09255862 111.82922303 12.5978347 94.27692772 13.34765625 72.83203125 C13.34765625 53.61773768 5.78104079 35.2609996 -7.703125 21.62890625 C-37.5821523 -7.2287006 -81.34472225 -6.28444748 -110.99609375 22.08203125 Z " fill="#000000" transform="translate(151.65234375,20.16015625)"/>
<path d="M0 0 C2.87029869 1.79393668 4.49131638 2.98263276 6 6 C6.05784043 7.47983542 6.05253954 8.96238432 6.01489258 10.44287109 C5.9961055 11.36498383 5.97731842 12.28709656 5.95796204 13.2371521 C5.9265638 14.74011337 5.9265638 14.74011337 5.89453125 16.2734375 C5.87045723 19.51545788 5.85698497 22.75743141 5.84350586 25.99951172 C5.82299726 28.23220429 5.7829439 30.46481125 5.72241211 32.69677734 C4.87232135 47.32078055 4.87232135 47.32078055 11.27824402 59.77676392 C12.87479696 61.22170782 14.50436354 62.551723 16.22143555 63.85009766 C20.05932044 66.81964465 20.82377297 68.64053438 21.4375 73.375 C20.85694294 78.1853299 19.38607407 79.61392593 16 83 C12.73952371 84.63023814 10.62198965 84.4673535 7 84 C4.01617193 81.99291405 1.56790037 79.50479506 -1 77 C-2.49447351 75.72267221 -3.9942851 74.45155696 -5.5 73.1875 C-7.53125 71.48046875 -7.53125 71.48046875 -9 70 C-9 69.34 -9 68.68 -9 68 C-9.99 67.67 -10.98 67.34 -12 67 C-14.65576962 63.45722668 -15.37905259 60.86464327 -15.40405273 56.47875977 C-15.41673691 55.39736221 -15.42942108 54.31596466 -15.44248962 53.20179749 C-15.43808617 51.46415382 -15.43808617 51.46415382 -15.43359375 49.69140625 C-15.4388356 48.49192856 -15.44407745 47.29245087 -15.44947815 46.05662537 C-15.45589579 43.52237725 -15.45456473 40.98809934 -15.44604492 38.45385742 C-15.43753848 34.58002577 -15.46629737 30.70767028 -15.49804688 26.83398438 C-15.49965909 24.36979211 -15.49908097 21.90559723 -15.49609375 19.44140625 C-15.50732773 18.28500137 -15.51856171 17.1285965 -15.53013611 15.93714905 C-15.47613545 9.69402972 -15.30265507 5.69494564 -11 1 C-7.54260443 -0.72869779 -3.78024432 -0.48966895 0 0 Z " fill="#000000" transform="translate(97,34)"/>
<path d="M0 0 C3.125 1.875 3.125 1.875 5 5 C5.98876625 10.02622846 5.7769173 13.70513784 3.125 18.125 C-1.29486216 20.7769173 -4.97377154 20.98876625 -10 20 C-13.125 18.125 -13.125 18.125 -15 15 C-15.98876625 9.97377154 -15.7769173 6.29486216 -13.125 1.875 C-8.70513784 -0.7769173 -5.02622846 -0.98876625 0 0 Z " fill="#000000" transform="translate(123,217)"/>
</svg>
