<?xml version="1.0" encoding="UTF-8"?>
<svg version="1.1" xmlns="http://www.w3.org/2000/svg" width="512" height="512">
<path d="M0 0 C1.10794922 -0.01260864 2.21589844 -0.02521729 3.35742188 -0.03820801 C4.54916016 -0.03011108 5.74089844 -0.02201416 6.96875 -0.01367188 C8.19658203 -0.01749878 9.42441406 -0.02132568 10.68945312 -0.02526855 C13.28516459 -0.02799029 15.88090336 -0.02061099 18.4765625 -0.00390625 C22.45374599 0.01749738 26.42912282 -0.0037015 30.40625 -0.02929688 C32.92708733 -0.02665365 35.44792353 -0.02152878 37.96875 -0.01367188 C39.16048828 -0.0217688 40.35222656 -0.02986572 41.58007812 -0.03820801 C43.24200195 -0.01929504 43.24200195 -0.01929504 44.9375 0 C45.91138672 0.00318237 46.88527344 0.00636475 47.88867188 0.00964355 C51.41711633 0.70428102 52.34798216 1.59283565 54.46875 4.51757812 C55.0667302 7.76146932 54.99064898 10.97155051 54.94976807 14.26177979 C54.95318577 15.26158426 54.95660347 16.26138874 54.96012473 17.29149032 C54.96672845 20.65132162 54.94468574 24.01035913 54.92285156 27.37011719 C54.92172363 29.77461732 54.92235589 32.17911883 54.92462158 34.58361816 C54.9255333 39.76525844 54.91416699 44.94671825 54.89167023 50.12830353 C54.85916493 57.61998898 54.84874474 65.11157701 54.84371826 72.60332534 C54.83496328 84.75806638 54.80834224 96.91270006 54.77050781 109.06738281 C54.73379295 120.87466901 54.70547864 132.68192605 54.68847656 144.48925781 C54.68742567 145.21703384 54.68637477 145.94480987 54.68529204 146.69463971 C54.68007189 150.34567038 54.67501706 153.99670125 54.67004442 157.64773226 C54.62857607 187.93775775 54.55782487 218.22765304 54.46875 248.51757812 C55.78069336 248.49663086 57.09263672 248.47568359 58.44433594 248.45410156 C63.31206344 248.38169842 68.17974335 248.33577699 73.04785156 248.29785156 C75.15470382 248.27773687 77.26150025 248.25044145 79.36816406 248.21582031 C82.39662447 248.16729644 85.42434678 248.14460796 88.453125 248.12695312 C89.86582672 248.09598541 89.86582672 248.09598541 91.30706787 248.06439209 C97.84707075 248.06214832 97.84707075 248.06214832 101.06152344 250.41699219 C102.5782814 252.68107712 103.01094507 253.81709375 102.96875 256.51757812 C102.9790625 257.17757813 102.989375 257.83757812 103 258.51757812 C102.20153915 261.52354838 100.92307011 262.61364122 98.46875 264.51757812 C95.71728809 264.90965074 93.36637761 265.055483 90.61633301 265.02094269 C89.41583895 265.02966333 89.41583895 265.02966333 88.19109249 265.03856015 C85.49232769 265.05323148 82.79446225 265.03924199 80.09570312 265.0255127 C78.14819115 265.03011879 76.20068265 265.03646974 74.25318146 265.04442167 C68.8883045 265.06117807 63.52371077 265.05284 58.15883255 265.0404768 C52.37824802 265.03145439 46.5977134 265.04538204 40.81713867 265.05639648 C29.48776483 265.07421638 18.15849678 265.07032627 6.82911873 265.05874592 C-2.37556708 265.04972551 -11.58022316 265.04848156 -20.78491211 265.05284119 C-22.09318576 265.05345412 -23.40145942 265.05406705 -24.74937773 265.05469856 C-27.40681268 265.05597741 -30.06424762 265.05727426 -32.72168255 265.05858892 C-56.94997648 265.0700814 -81.17821686 265.05816312 -105.40650165 265.03721853 C-127.53405289 265.01823545 -149.66151206 265.01993393 -171.7890625 265.0390625 C-196.63739708 265.06047119 -221.48568 265.06890616 -246.33402252 265.05661345 C-248.98187764 265.0553392 -251.62973276 265.05408172 -254.27758789 265.05284119 C-256.23196376 265.05191553 -256.23196376 265.05191553 -258.22582197 265.05097118 C-267.4232656 265.04751229 -276.62067665 265.05335821 -285.81811523 265.0627594 C-297.02126476 265.07395861 -308.22430212 265.07098314 -319.42743874 265.04963642 C-325.14737753 265.03909803 -330.86712909 265.03505161 -336.58706665 265.04823303 C-341.81777667 265.06010506 -347.04812496 265.05368043 -352.27880192 265.03232282 C-354.1764493 265.02783466 -356.0741269 265.03017224 -357.97175503 265.03982598 C-360.54122231 265.05190025 -363.10943261 265.03960736 -365.67883301 265.02094269 C-366.79723241 265.03498968 -366.79723241 265.03498968 -367.93822575 265.04932046 C-371.40416597 264.99861732 -373.21272485 264.76467376 -375.98882294 262.61111784 C-377.66164059 260.34059869 -378.07476767 259.30270897 -378.03125 256.51757812 C-378.04671875 255.52757812 -378.04671875 255.52757812 -378.0625 254.51757812 C-377.23860266 251.41584695 -376.13985113 250.42858724 -373.53125 248.51757812 C-370.19196699 247.9516147 -366.89391243 248.05289798 -363.515625 248.12695312 C-362.54465881 248.13261292 -361.57369263 248.13827271 -360.57330322 248.144104 C-357.47544831 248.16647501 -354.37875467 248.2166734 -351.28125 248.26757812 C-349.17970422 248.28764216 -347.07814028 248.3058931 -344.9765625 248.32226562 C-339.8276783 248.36634232 -334.67966097 248.43537554 -329.53125 248.51757812 C-329.53493717 247.79974277 -329.53862434 247.08190742 -329.54242325 246.34231949 C-329.63072727 228.88279437 -329.69693664 211.42332591 -329.73849869 193.96362686 C-329.75913158 185.52026606 -329.78726595 177.07705424 -329.83300781 168.63378906 C-329.87285347 161.27537365 -329.89867753 153.91706612 -329.90760398 146.55854583 C-329.91282263 142.66153724 -329.92510306 138.7648373 -329.95417023 134.86792755 C-329.98130371 131.20057362 -329.98969936 127.53365572 -329.98368073 123.86621094 C-329.9853073 121.87736453 -330.00684095 119.8885657 -330.02893066 117.89984131 C-330.02343201 116.71636108 -330.01793335 115.53288086 -330.01226807 114.3135376 C-330.01595524 113.28481663 -330.01964241 112.25609566 -330.02344131 111.19620132 C-329.39961724 107.80120108 -328.21598384 106.62070189 -325.53125 104.51757812 C-322.95117188 104.00964355 -322.95117188 104.00964355 -320 104 C-318.89205078 103.98739136 -317.78410156 103.97478271 -316.64257812 103.96179199 C-315.45083984 103.96988892 -314.25910156 103.97798584 -313.03125 103.98632812 C-311.80341797 103.98250122 -310.57558594 103.97867432 -309.31054688 103.97473145 C-306.71483541 103.97200971 -304.11909664 103.97938901 -301.5234375 103.99609375 C-297.54625401 104.01749738 -293.57087718 103.9962985 -289.59375 103.97070312 C-287.07291267 103.97334635 -284.55207647 103.97847122 -282.03125 103.98632812 C-280.83951172 103.9782312 -279.64777344 103.97013428 -278.41992188 103.96179199 C-277.31197266 103.97440063 -276.20402344 103.98700928 -275.0625 104 C-274.08861328 104.00318237 -273.11472656 104.00636475 -272.11132812 104.00964355 C-268.71828203 104.67762542 -267.6801496 105.83778872 -265.53125 108.51757812 C-265.03905869 111.19620132 -265.03905869 111.19620132 -265.05023193 114.3135376 C-265.04473328 115.49701782 -265.03923462 116.68049805 -265.03356934 117.89984131 C-265.04795044 119.1945636 -265.06233154 120.48928589 -265.07714844 121.82324219 C-265.07827697 123.20312466 -265.07764294 124.58300954 -265.07537842 125.96289062 C-265.07423055 129.70654654 -265.0977511 133.44969001 -265.12567425 137.19322681 C-265.15067601 141.10631018 -265.15302892 145.01940524 -265.15777588 148.93255615 C-265.1702093 156.34155663 -265.20303573 163.75032107 -265.24317384 171.1592176 C-265.28788026 179.59442485 -265.30987572 188.02964336 -265.32995558 196.46493959 C-265.37176816 213.81595949 -265.44293271 231.16673484 -265.53125 248.51757812 C-260.25125 248.51757812 -254.97125 248.51757812 -249.53125 248.51757812 C-249.54013245 246.37163147 -249.54901489 244.22568481 -249.5581665 242.01470947 C-249.63982852 221.82543545 -249.69939741 201.63618316 -249.73849869 181.44678116 C-249.75913646 171.06634253 -249.78728026 160.68602498 -249.83300781 150.30566406 C-249.87283839 141.25964203 -249.89867397 132.21370767 -249.90760398 123.16760039 C-249.91282514 118.37635558 -249.92512193 113.58536161 -249.95417023 108.79419708 C-249.98127965 104.28639014 -249.98970409 99.77893785 -249.98368073 95.27105713 C-249.98478297 93.61500879 -249.99276357 91.95894884 -250.0080719 90.30297089 C-250.02793068 88.04433622 -250.02320539 85.78704615 -250.01226807 83.52838135 C-250.01595524 82.26368137 -250.01964241 80.9989814 -250.02344131 79.69595718 C-249.44247879 75.94432833 -248.53643209 74.76466419 -245.53125 72.51757812 C-242.95117188 72.00964355 -242.95117188 72.00964355 -240 72 C-238.89205078 71.98739136 -237.78410156 71.97478271 -236.64257812 71.96179199 C-235.45083984 71.96988892 -234.25910156 71.97798584 -233.03125 71.98632812 C-231.80341797 71.98250122 -230.57558594 71.97867432 -229.31054688 71.97473145 C-226.71483541 71.97200971 -224.11909664 71.97938901 -221.5234375 71.99609375 C-217.54625401 72.01749738 -213.57087718 71.9962985 -209.59375 71.97070312 C-207.07291267 71.97334635 -204.55207647 71.97847122 -202.03125 71.98632812 C-200.83951172 71.9782312 -199.64777344 71.97013428 -198.41992188 71.96179199 C-197.31197266 71.97440063 -196.20402344 71.98700928 -195.0625 72 C-194.08861328 72.00318237 -193.11472656 72.00636475 -192.11132812 72.00964355 C-188.68098006 72.68496899 -187.66792435 73.76622341 -185.53125 76.51757812 C-185.03905869 79.69595718 -185.03905869 79.69595718 -185.05023193 83.52838135 C-185.04681423 84.23417005 -185.04339653 84.93995876 -185.03987527 85.667135 C-185.03328661 88.03208395 -185.05528714 90.39589783 -185.07714844 92.76074219 C-185.07827671 94.45589165 -185.07764345 96.15104308 -185.07537842 97.84619141 C-185.07422955 102.44928442 -185.09776679 107.05196152 -185.12567425 111.65495777 C-185.15065909 116.4649171 -185.1530276 121.27488569 -185.15777588 126.0848999 C-185.17021424 135.19384556 -185.2030475 144.30259946 -185.24317384 153.41146064 C-185.28786478 163.78134112 -185.30987185 174.1512307 -185.32995558 184.52118349 C-185.37177936 205.853425 -185.44295275 227.18548274 -185.53125 248.51757812 C-180.25125 248.51757812 -174.97125 248.51757812 -169.53125 248.51757812 C-169.54013245 245.97073303 -169.54901489 243.42388794 -169.5581665 240.79986572 C-169.63981489 216.84325213 -169.69939108 192.88665685 -169.73849869 168.92993546 C-169.75913981 156.61241418 -169.78729007 144.29499489 -169.83300781 131.97753906 C-169.87282806 121.24391035 -169.89867153 110.51035548 -169.90760398 99.77665496 C-169.91282686 94.09116589 -169.92513483 88.40588809 -169.95417023 82.72046661 C-169.98126321 77.37219993 -169.98970735 72.02423211 -169.98368073 66.67590332 C-169.9847837 64.71024706 -169.99277383 62.7445811 -170.0080719 60.77898407 C-170.02790415 58.10002741 -170.02321411 55.42220674 -170.01226807 52.7432251 C-170.02391943 51.96112301 -170.0355708 51.17902092 -170.04757524 50.37321877 C-170.00851576 46.84904059 -169.81117431 44.88940434 -167.66244125 42.0352211 C-164.94449067 40.09974084 -163.32183332 40.01085477 -160 40 C-158.89205078 39.98739136 -157.78410156 39.97478271 -156.64257812 39.96179199 C-155.45083984 39.96988892 -154.25910156 39.97798584 -153.03125 39.98632812 C-151.80341797 39.98250122 -150.57558594 39.97867432 -149.31054688 39.97473145 C-146.71483541 39.97200971 -144.11909664 39.97938901 -141.5234375 39.99609375 C-137.54625401 40.01749738 -133.57087718 39.9962985 -129.59375 39.97070312 C-127.07291267 39.97334635 -124.55207647 39.97847122 -122.03125 39.98632812 C-120.83951172 39.9782312 -119.64777344 39.97013428 -118.41992188 39.96179199 C-116.75799805 39.98070496 -116.75799805 39.98070496 -115.0625 40 C-114.08861328 40.00318237 -113.11472656 40.00636475 -112.11132812 40.00964355 C-108.63969501 40.69309669 -107.65893239 41.6913567 -105.53125 44.51757812 C-105.14697926 47.38922498 -105.00748644 49.87391885 -105.05023193 52.7432251 C-105.04681423 53.57968748 -105.04339653 54.41614986 -105.03987527 55.27795959 C-105.03327864 58.08506741 -105.05530164 60.89122224 -105.07714844 63.69824219 C-105.07827653 65.70865862 -105.0776438 67.71907671 -105.07537842 69.72949219 C-105.07422886 75.19203486 -105.09777751 80.65422753 -105.12567425 86.11668873 C-105.15064749 91.82352241 -105.15302669 97.53036376 -105.15777588 103.23724365 C-105.17021763 114.0461412 -105.20305556 124.85487729 -105.24317384 135.66370368 C-105.28785416 147.9682554 -105.30986919 160.27281476 -105.32995558 172.57742739 C-105.37178707 197.89090358 -105.44296646 223.20422501 -105.53125 248.51757812 C-100.25125 248.51757812 -94.97125 248.51757812 -89.53125 248.51757812 C-89.54013245 246.27140686 -89.54901489 244.0252356 -89.5581665 241.71099854 C-89.63982466 220.57988944 -89.69939562 199.44880109 -89.73849869 178.31756973 C-89.7591374 167.4528608 -89.78728304 156.58826752 -89.83300781 145.72363281 C-89.87283546 136.25570912 -89.89867328 126.78786917 -89.90760398 117.31986403 C-89.91282563 112.30505874 -89.92512559 107.29049307 -89.95417023 102.27576447 C-89.98127499 97.55784308 -89.98970501 92.84026053 -89.98368073 88.12226868 C-89.98478318 86.38881846 -89.99276648 84.65535718 -90.0080719 82.92197418 C-90.02792314 80.55826124 -90.02320785 78.19583389 -90.01226807 75.83209229 C-90.02391943 75.14337296 -90.0355708 74.45465363 -90.04757524 73.74506402 C-90.0058349 70.41715871 -89.7188392 68.76103854 -87.66244125 66.0921669 C-84.94516809 64.08456303 -83.36043128 64.01098089 -80 64 C-78.89205078 63.98739136 -77.78410156 63.97478271 -76.64257812 63.96179199 C-75.45083984 63.96988892 -74.25910156 63.97798584 -73.03125 63.98632812 C-71.80341797 63.98250122 -70.57558594 63.97867432 -69.31054688 63.97473145 C-66.71483541 63.97200971 -64.11909664 63.97938901 -61.5234375 63.99609375 C-57.54625401 64.01749738 -53.57087718 63.9962985 -49.59375 63.97070312 C-47.07291267 63.97334635 -44.55207647 63.97847122 -42.03125 63.98632812 C-40.83951172 63.9782312 -39.64777344 63.97013428 -38.41992188 63.96179199 C-36.75799805 63.98070496 -36.75799805 63.98070496 -35.0625 64 C-34.08861328 64.00318237 -33.11472656 64.00636475 -32.11132812 64.00964355 C-28.67102231 64.68692935 -27.66537891 65.74782428 -25.53125 68.51757812 C-25.14645338 71.10012187 -25.00661004 73.25357538 -25.05023193 75.83209229 C-25.04681423 76.57054941 -25.04339653 77.30900653 -25.03987527 78.06984115 C-25.03328436 80.54532755 -25.05529127 83.01973063 -25.07714844 85.49511719 C-25.07827666 87.2690834 -25.07764355 89.04305148 -25.07537842 90.8170166 C-25.07422935 95.63497112 -25.09776983 100.45252842 -25.12567425 105.27039051 C-25.1506558 110.30456855 -25.15302734 115.33875538 -25.15777588 120.37298584 C-25.1702152 129.90691898 -25.20304978 139.44066896 -25.24317384 148.9745214 C-25.28786177 159.82806983 -25.3098711 170.68162695 -25.32995558 181.53524446 C-25.37178155 203.86279406 -25.44295663 226.19016812 -25.53125 248.51757812 C-20.25125 248.51757812 -14.97125 248.51757812 -9.53125 248.51757812 C-9.53493717 247.26375462 -9.53862434 246.00993111 -9.54242325 244.71811295 C-9.62901636 214.96855134 -9.69499283 185.21902219 -9.73551132 155.46936549 C-9.74051427 151.80932938 -9.74569154 148.14929353 -9.75097656 144.48925781 C-9.7520258 143.76059705 -9.75307505 143.03193629 -9.75415608 142.2811949 C-9.77157104 130.47597855 -9.8031147 118.67083995 -9.83986118 106.86566976 C-9.87724033 94.75644241 -9.89947943 82.64725584 -9.90760398 70.53797317 C-9.91309807 63.06320512 -9.93046315 55.58865683 -9.96291587 48.11395642 C-9.98651863 42.38659046 -9.9890775 36.65936596 -9.98368073 30.93196106 C-9.98478435 28.57929377 -9.99278286 26.22661842 -10.0080719 23.87400055 C-10.02788098 20.66961667 -10.0232219 17.46618424 -10.01226807 14.26177979 C-10.02391943 13.32403977 -10.0355708 12.38629975 -10.04757524 11.42014337 C-9.98936215 5.14935877 -9.98936215 5.14935877 -7.66244125 1.94031143 C-4.94422421 0.12569347 -3.25833786 0.01064728 0 0 Z M6.46875 16.51757812 C6.46875 93.07757813 6.46875 169.63757813 6.46875 248.51757812 C17.02875 248.51757812 27.58875 248.51757812 38.46875 248.51757812 C38.46875 171.95757812 38.46875 95.39757812 38.46875 16.51757812 C27.90875 16.51757812 17.34875 16.51757812 6.46875 16.51757812 Z M-153.53125 56.51757812 C-153.53125 119.87757813 -153.53125 183.23757813 -153.53125 248.51757812 C-142.97125 248.51757812 -132.41125 248.51757812 -121.53125 248.51757812 C-121.53125 185.15757812 -121.53125 121.79757812 -121.53125 56.51757812 C-132.09125 56.51757812 -142.65125 56.51757812 -153.53125 56.51757812 Z M-73.53125 80.51757812 C-73.53125 135.95757812 -73.53125 191.39757812 -73.53125 248.51757812 C-62.97125 248.51757812 -52.41125 248.51757812 -41.53125 248.51757812 C-41.53125 193.07757813 -41.53125 137.63757813 -41.53125 80.51757812 C-52.09125 80.51757812 -62.65125 80.51757812 -73.53125 80.51757812 Z M-233.53125 88.51757812 C-233.53125 141.31757813 -233.53125 194.11757813 -233.53125 248.51757812 C-222.97125 248.51757812 -212.41125 248.51757812 -201.53125 248.51757812 C-201.53125 195.71757812 -201.53125 142.91757812 -201.53125 88.51757812 C-212.09125 88.51757812 -222.65125 88.51757812 -233.53125 88.51757812 Z M-313.53125 120.51757812 C-313.53125 162.75757813 -313.53125 204.99757813 -313.53125 248.51757812 C-302.97125 248.51757812 -292.41125 248.51757812 -281.53125 248.51757812 C-281.53125 206.27757812 -281.53125 164.03757812 -281.53125 120.51757812 C-292.09125 120.51757812 -302.65125 120.51757812 -313.53125 120.51757812 Z " fill="#000000" transform="translate(393.53125,231.482421875)"/>
<path d="M0 0 C0.6815918 0.21430664 1.36318359 0.42861328 2.06542969 0.64941406 C16.29351879 5.23201941 28.68612402 12.18713576 40 22 C40.80824219 22.66386719 41.61648438 23.32773437 42.44921875 24.01171875 C62.61040869 41.1344876 75.86796012 66.7763423 79 93 C79.28820087 97.92037487 79.33391107 102.82203974 79.3125 107.75 C79.31067719 108.41363556 79.30885437 109.07727112 79.30697632 109.76101685 C79.2616426 119.55649554 78.83324563 128.57488853 76 138 C75.6596875 139.21816406 75.319375 140.43632812 74.96875 141.69140625 C70.60008221 156.08144373 63.51886958 168.37303323 54 180 C53.23300781 180.95519531 52.46601563 181.91039062 51.67578125 182.89453125 C45.41473105 190.32487775 45.41473105 190.32487775 41.3125 191.8125 C37.29631603 192.03983117 35.32284332 191.21522888 32 189 C30.34778692 185.69557384 30.23266905 182.543447 31 179 C32.47635821 176.77090704 34.10627047 174.95746832 35.98046875 173.0546875 C38.47693219 170.51476532 40.72005047 167.73593943 43 165 C32.44 164.67 21.88 164.34 11 164 C9.81001832 169.3225429 9.81001832 169.3225429 8.63745117 174.64892578 C7.6129835 179.11439019 6.36266474 183.01881689 4 187 C0.79989699 188.6000515 -2.52710317 188.49514569 -6 188 C-9.96635751 185.25406018 -10.0102389 183.9488055 -11 179 C-9.02 171.575 -9.02 171.575 -7 164 C-24.16 164 -41.32 164 -59 164 C-57.68 168.95 -56.36 173.9 -55 179 C-56.28571429 185.42857143 -56.28571429 185.42857143 -60 188 C-62.77362928 188.5638384 -65.25653503 188.72873288 -68 188 C-72.64823114 184.73225856 -73.43643698 180.10446789 -74.75 174.875 C-74.97042969 174.05128906 -75.19085938 173.22757813 -75.41796875 172.37890625 C-77 166.37504852 -77 166.37504852 -77 164 C-92.84 164.495 -92.84 164.495 -109 165 C-107.329375 166.815 -105.65875 168.63 -103.9375 170.5 C-102.92894265 171.60609212 -101.92098577 172.7127326 -100.9140625 173.8203125 C-99.20364866 175.69743335 -97.47682046 177.5410355 -95.7109375 179.3671875 C-91.181757 184.15730844 -91.181757 184.15730844 -90.3125 188.1875 C-91.21890342 191.89551399 -92.03548307 193.5416201 -95 196 C-98.31899378 197.33761172 -100.62955609 197.15614064 -104 196 C-126.11958588 180.18449609 -139.83260194 152.96656581 -144.46875 126.72265625 C-148.78892842 96.44964131 -142.49298567 65.70306064 -124 41 C-121.10291539 37.23729252 -118.11524809 33.58396432 -115 30 C-114.20916016 29.08154297 -114.20916016 29.08154297 -113.40234375 28.14453125 C-100.1334082 13.8575188 -81.43071497 4.53550484 -63 -1 C-61.95972656 -1.3196875 -60.91945313 -1.639375 -59.84765625 -1.96875 C-40.95286251 -6.73103174 -18.53407899 -6.00734578 0 0 Z M-47 13 C-48.464375 17.021875 -49.92875 21.04375 -51.4375 25.1875 C-51.89825928 26.44715576 -52.35901855 27.70681152 -52.83374023 29.00463867 C-53.19669189 30.0072876 -53.55964355 31.00993652 -53.93359375 32.04296875 C-54.4913147 33.57473755 -54.4913147 33.57473755 -55.06030273 35.13745117 C-56.16658391 38.31505408 -56.16658391 38.31505408 -57 43 C-41.16 43 -25.32 43 -9 43 C-10.98221335 35.73188439 -13.03236042 28.81505897 -15.6875 21.8125 C-16.780625 18.904375 -17.87375 15.99625 -19 13 C-28.24 13 -37.48 13 -47 13 Z M1 19 C2.14070555 22.81405364 3.28841707 26.62596268 4.4375 30.4375 C4.76298828 31.52611328 5.08847656 32.61472656 5.42382812 33.73632812 C5.73642578 34.77080078 6.04902344 35.80527344 6.37109375 36.87109375 C6.65911865 37.82943115 6.94714355 38.78776855 7.24389648 39.77514648 C7.7989128 41.94623784 7.7989128 41.94623784 9 43 C10.99964982 43.08758003 13.0023611 43.10696576 15.00390625 43.09765625 C16.82631836 43.09282227 16.82631836 43.09282227 18.68554688 43.08789062 C19.96494141 43.07951172 21.24433594 43.07113281 22.5625 43.0625 C24.48739258 43.05573242 24.48739258 43.05573242 26.45117188 43.04882812 C29.63416022 43.03699545 32.81705762 43.02051068 36 43 C27.06673252 32.04395913 15.68349992 24.95248654 3 19 C2.34 19 1.68 19 1 19 Z M-78 23.4375 C-78.66628418 23.79440918 -79.33256836 24.15131836 -80.01904297 24.51904297 C-88.7964573 29.37199093 -95.5510246 35.26122952 -102 43 C-93.09 43 -84.18 43 -75 43 C-73.13391105 38.02376281 -71.36613564 33.18473293 -69.8125 28.125 C-69.46832031 27.01382813 -69.12414062 25.90265625 -68.76953125 24.7578125 C-67.91041016 22.15612583 -67.91041016 22.15612583 -68 20 C-71.93244667 20 -74.61730137 21.62524975 -78 23.4375 Z M-116 60 C-122.86728948 74.71562031 -126.57303024 84.30333266 -128 100 C-113.15 100 -98.3 100 -83 100 C-82.34 94.51375 -81.68 89.0275 -81 83.375 C-80.79117188 81.65458496 -80.58234375 79.93416992 -80.3671875 78.16162109 C-80.20284613 76.78225976 -80.03876638 75.40286722 -79.875 74.0234375 C-79.78863281 73.32001221 -79.70226562 72.61658691 -79.61328125 71.8918457 C-79.13808757 67.8569422 -79 64.09269465 -79 60 C-91.21 60 -103.42 60 -116 60 Z M-61 60 C-64.36981497 73.47925989 -65.21902797 85.94250342 -66 100 C-44.22 100 -22.44 100 0 100 C-0.22301678 80.67138116 -0.22301678 80.67138116 -5 60 C-23.48 60 -41.96 60 -61 60 Z M13 60 C13.756207 70.10812902 13.756207 70.10812902 14.75390625 80.17578125 C14.8732251 81.23966064 14.99254395 82.30354004 15.11547852 83.3996582 C15.26299561 84.690896 15.4105127 85.98213379 15.5625 87.3125 C16.036875 91.499375 16.51125 95.68625 17 100 C31.85 100 46.7 100 62 100 C61.35935718 92.95292901 60.82145584 87.13784437 58.8125 80.5625 C58.53696289 79.5715332 58.53696289 79.5715332 58.25585938 78.56054688 C56.2427496 71.78800823 53.28833622 66.57667244 50 60 C37.79 60 25.58 60 13 60 Z M-128 116 C-127.33706602 123.29227377 -126.69087351 129.21154337 -124.5625 136 C-124.34529297 136.73605469 -124.12808594 137.47210938 -123.90429688 138.23046875 C-122.90480369 141.52609493 -121.92262488 144.11606268 -120 147 C-116.94924916 147.266487 -114.10373821 147.34757146 -111.0546875 147.29296875 C-110.1696756 147.28872391 -109.2846637 147.28447906 -108.37283325 147.28010559 C-105.53991555 147.26328259 -102.70770348 147.22562425 -99.875 147.1875 C-97.95704151 147.17245782 -96.03907189 147.15876861 -94.12109375 147.14648438 C-89.41378969 147.11336727 -84.70701456 147.06156055 -80 147 C-80.30902202 143.14554629 -80.62284242 139.29149742 -80.9375 135.4375 C-81.06801758 133.80844727 -81.06801758 133.80844727 -81.20117188 132.14648438 C-81.33168945 130.55610352 -81.33168945 130.55610352 -81.46484375 128.93359375 C-81.58267212 127.4803772 -81.58267212 127.4803772 -81.70288086 125.99780273 C-82.03432697 122.65365579 -82.52474901 119.32675695 -83 116 C-97.85 116 -112.7 116 -128 116 Z M-66 116 C-65.33527595 133.21909523 -65.33527595 133.21909523 -63 147 C-43.2 147 -23.4 147 -3 147 C-0.66472405 133.21909523 -0.66472405 133.21909523 0 116 C-21.78 116 -43.56 116 -66 116 Z M17 116 C16.505 120.3725 16.01 124.745 15.5 129.25 C15.34337891 130.62317383 15.18675781 131.99634766 15.02539062 133.41113281 C14.90357422 134.49749023 14.78175781 135.58384766 14.65625 136.703125 C14.46772461 138.36843262 14.46772461 138.36843262 14.27539062 140.06738281 C13.93767016 143.17282664 13.93767016 143.17282664 14 147 C27.2 147 40.4 147 54 147 C57.2616253 139.86629103 57.2616253 139.86629103 59.6875 132.625 C59.91824219 131.81289062 60.14898437 131.00078125 60.38671875 130.1640625 C61.29093371 125.49900444 61.56978492 120.73236584 62 116 C47.15 116 32.3 116 17 116 Z " fill="#000000" transform="translate(289,20)"/>
<path d="M0 0 C0.69512695 -0.0038269 1.39025391 -0.00765381 2.10644531 -0.01159668 C3.57228041 -0.0143118 5.03816428 -0.00697835 6.50390625 0.00976562 C8.74328975 0.03118581 10.97946587 0.00995557 13.21875 -0.015625 C14.64584039 -0.01298165 16.07292879 -0.0078565 17.5 0 C19.44132813 0.00676758 19.44132813 0.00676758 21.421875 0.01367188 C24.75 0.53125 24.75 0.53125 27.16992188 2.11132812 C29.34170852 5.43746366 29.26745575 7.8242722 29.28125 11.78125 C29.2850769 12.47637695 29.28890381 13.17150391 29.29284668 13.88769531 C29.2955618 15.35353041 29.28822835 16.81941428 29.27148438 18.28515625 C29.25006419 20.52453975 29.27129443 22.76071587 29.296875 25 C29.29423165 26.42709039 29.2891065 27.85417879 29.28125 29.28125 C29.27673828 30.57546875 29.27222656 31.8696875 29.26757812 33.203125 C28.67081106 37.04044979 27.80716949 38.22195951 24.75 40.53125 C22.00391782 41.26067808 19.52744656 41.08445804 16.75 40.53125 C14.3125 38.96875 14.3125 38.96875 12.75 36.53125 C12.36936779 34.2051643 12.03125868 31.87143143 11.75 29.53125 C11.30720703 29.94898682 10.86441406 30.36672363 10.40820312 30.79711914 C8.35685083 32.73080151 6.30343683 34.66228149 4.25 36.59375 C3.55390625 37.25052734 2.8578125 37.90730469 2.140625 38.58398438 C1.44453125 39.23818359 0.7484375 39.89238281 0.03125 40.56640625 C-0.66742188 41.22785645 -1.36609375 41.88930664 -2.0859375 42.57080078 C-3.54510642 43.89267876 -5.05323052 45.16219291 -6.6015625 46.37841797 C-8.66045823 48.0073309 -10.53974526 49.53875167 -12.25 51.53125 C-12.43463714 54.59138009 -12.43463714 54.59138009 -11.25 57.53125 C-10.14313238 73.17255967 -10.14313238 73.17255967 -15.25 79.53125 C-20.04949078 84.57121631 -24.41713221 88.22317079 -31.5546875 88.796875 C-32.73289062 88.79171875 -33.91109375 88.7865625 -35.125 88.78125 C-36.88457031 88.78898437 -36.88457031 88.78898437 -38.6796875 88.796875 C-42.52197635 88.51101544 -45.59744063 87.70828959 -49.25 86.53125 C-50.0234375 87.31628906 -50.796875 88.10132813 -51.59375 88.91015625 C-56.69642953 94.06541532 -61.7965412 99.12054282 -67.32421875 103.82421875 C-70.36249846 106.51737947 -73.16550541 109.43869342 -76.015625 112.328125 C-78.68305372 114.95824702 -81.46940538 117.4092084 -84.328125 119.828125 C-84.96234375 120.39015625 -85.5965625 120.9521875 -86.25 121.53125 C-87.15105469 122.25183594 -88.05210937 122.97242188 -88.98046875 123.71484375 C-91.97755196 127.43411568 -91.66056477 130.31989675 -91.3125 134.84375 C-90.89960583 146.44165236 -90.89960583 146.44165236 -95.25 151.53125 C-100.07489094 156.56767061 -104.39789639 160.13545441 -111.51953125 160.8671875 C-120.06516771 160.9614062 -125.69586541 160.53225084 -132.1796875 154.8359375 C-137.09176592 149.80156667 -137.09176592 149.80156667 -137.53686523 146.22827148 C-137.9951014 143.11592681 -138.52391462 141.18520944 -140.25 138.53125 C-145.47034731 135.71395689 -150.97206753 134.32841003 -156.6875 132.84375 C-158.23086021 132.40272053 -159.77319688 131.95809242 -161.31445312 131.50976562 C-162.79075814 131.09312143 -164.26794885 130.67960019 -165.74609375 130.26953125 C-166.43787216 130.07700272 -167.12965057 129.88447418 -167.84239197 129.68611145 C-172.60298823 128.43418106 -172.60298823 128.43418106 -177.25 129.53125 C-179.25348966 131.19372014 -181.25334402 132.86057867 -183.25 134.53125 C-189.66352695 137.74907128 -198.07693227 137.84971551 -204.87109375 135.703125 C-207.70871424 134.30774465 -210.01260389 132.76864611 -212.25 130.53125 C-216.95726638 130.89038399 -220.95543621 132.46506878 -225.29296875 134.25390625 C-225.94324539 134.51884384 -226.59352203 134.78378143 -227.26350403 135.05674744 C-229.32394346 135.896595 -231.38100588 136.74429182 -233.4375 137.59375 C-235.50483928 138.44642222 -237.57285347 139.29717372 -239.64363098 140.14146423 C-241.51474487 140.90441346 -243.38282186 141.67479802 -245.25073242 142.44555664 C-248.25 143.53125 -248.25 143.53125 -251.25 143.53125 C-251.1675 144.68625 -251.085 145.84125 -251 147.03125 C-251.04179548 152.95575956 -253.07785816 157.22306587 -257.12109375 161.51953125 C-264.06465613 167.8593056 -269.42585086 168.97722564 -278.78515625 168.859375 C-284.32756584 168.33450194 -288.26688676 166.51436324 -292.25 162.53125 C-296.95726638 162.89038399 -300.95543621 164.46506878 -305.29296875 166.25390625 C-305.94324539 166.51884384 -306.59352203 166.78378143 -307.26350403 167.05674744 C-309.32394346 167.896595 -311.38100588 168.74429182 -313.4375 169.59375 C-315.50483928 170.44642222 -317.57285347 171.29717372 -319.64363098 172.14146423 C-321.51474487 172.90441346 -323.38282186 173.67479802 -325.25073242 174.44555664 C-328.25 175.53125 -328.25 175.53125 -331.25 175.53125 C-331.1675 176.68625 -331.085 177.84125 -331 179.03125 C-331.04179548 184.95575956 -333.07785816 189.22306587 -337.12109375 193.51953125 C-344.06731067 199.8617293 -349.43046973 200.97701897 -358.79296875 200.859375 C-364.14006826 200.35185369 -367.70115162 198.43898136 -372.00292969 195.21923828 C-375.59974145 194.117998 -378.33758831 195.88117665 -381.578125 197.3984375 C-382.2859613 197.71201202 -382.99379761 198.02558655 -383.7230835 198.34866333 C-385.98899623 199.35312758 -388.24515245 200.3772082 -390.5 201.40625 C-393.45620997 202.75414931 -396.42042048 204.0817138 -399.390625 205.3984375 C-400.05862122 205.71094452 -400.72661743 206.02345154 -401.41485596 206.34542847 C-406.24412324 208.48516466 -409.96478224 208.94880051 -415.25 208.53125 C-417.75 207.03125 -417.75 207.03125 -419.25 204.53125 C-419.79686219 201.75136721 -419.97991469 199.27916413 -419.25 196.53125 C-416.00359966 192.47040911 -412.01047913 190.99654582 -407.2734375 189.24609375 C-405.69972327 188.62767681 -404.12682937 188.00716898 -402.5546875 187.38476562 C-400.08834623 186.41872462 -397.61986546 185.46685576 -395.13476562 184.55004883 C-385.51262802 181.48289022 -385.51262802 181.48289022 -378.77905273 174.69897461 C-378.29714369 171.90242432 -378.2401388 169.35944136 -378.25 166.53125 C-375.35090904 160.84044182 -370.68170211 156.24710106 -364.953125 153.3828125 C-358.23771548 151.26726441 -349.87380671 151.27197441 -343.5 154.40625 C-340.25 156.53125 -340.25 156.53125 -338.25 158.53125 C-333.54273362 158.17211601 -329.54456379 156.59743122 -325.20703125 154.80859375 C-324.55675461 154.54365616 -323.90647797 154.27871857 -323.23649597 154.00575256 C-321.17605654 153.165905 -319.11899412 152.31820818 -317.0625 151.46875 C-314.99516072 150.61607778 -312.92714653 149.76532628 -310.85636902 148.92103577 C-308.98525513 148.15808654 -307.11717814 147.38770198 -305.24926758 146.61694336 C-302.25 145.53125 -302.25 145.53125 -299.25 145.53125 C-299.3325 144.37625 -299.415 143.22125 -299.5 142.03125 C-299.45820452 136.10674044 -297.42214184 131.83943413 -293.37890625 127.54296875 C-286.43534387 121.2031944 -281.07414914 120.08527436 -271.71484375 120.203125 C-266.17243416 120.72799806 -262.23311324 122.54813676 -258.25 126.53125 C-253.54273362 126.17211601 -249.54456379 124.59743122 -245.20703125 122.80859375 C-244.55675461 122.54365616 -243.90647797 122.27871857 -243.23649597 122.00575256 C-241.17605654 121.165905 -239.11899412 120.31820818 -237.0625 119.46875 C-234.99516072 118.61607778 -232.92714653 117.76532628 -230.85636902 116.92103577 C-228.98525513 116.15808654 -227.11717814 115.38770198 -225.24926758 114.61694336 C-222.25 113.53125 -222.25 113.53125 -219.25 113.53125 C-219.3325 112.37625 -219.415 111.22125 -219.5 110.03125 C-219.45820452 104.10674044 -217.42214184 99.83943413 -213.37890625 95.54296875 C-206.43835533 89.205944 -201.06021394 88.05060402 -191.6953125 88.2265625 C-184.06169914 88.90164395 -179.8556271 92.43771743 -174.79296875 97.9453125 C-173.25 100.53125 -173.25 100.53125 -172.96313477 102.83422852 C-172.5048986 105.94657319 -171.97608538 107.87729056 -170.25 110.53125 C-165.02965269 113.34854311 -159.52793247 114.73408997 -153.8125 116.21875 C-152.26913979 116.65977947 -150.72680312 117.10440758 -149.18554688 117.55273438 C-147.70924186 117.96937857 -146.23205115 118.38289981 -144.75390625 118.79296875 C-144.06212784 118.98549728 -143.37034943 119.17802582 -142.65760803 119.37638855 C-137.89701177 120.62831894 -137.89701177 120.62831894 -133.25 119.53125 C-131.24651034 117.86877986 -129.24665598 116.20192133 -127.25 114.53125 C-123.16756853 112.44750894 -119.73709523 112.29022535 -115.1875 112.34375 C-113.37572266 112.35341797 -113.37572266 112.35341797 -111.52734375 112.36328125 C-108.25 112.53125 -108.25 112.53125 -106.23193359 113.18432617 C-105.25087646 113.35605347 -105.25087646 113.35605347 -104.25 113.53125 C-101.94155253 111.76898422 -99.98708096 110.05956423 -97.9375 108.03125 C-97.35718018 107.47606689 -96.77686035 106.92088379 -96.17895508 106.34887695 C-92.68025949 102.98751976 -89.2447739 99.56154771 -85.84765625 96.09765625 C-84.08533729 94.36980808 -82.24696908 92.76445827 -80.375 91.15625 C-76.52050779 87.83855361 -72.96091587 84.29071899 -69.43359375 80.62890625 C-67.45697792 78.7300821 -65.53155828 77.39462851 -63.25 75.90625 C-60.55295849 73.70911779 -60.26580616 72.63694617 -59.73828125 69.109375 C-59.62055936 66.46194051 -59.52833381 63.81325588 -59.4609375 61.1640625 C-59.05418597 54.1588972 -56.36468941 50.32714209 -51.3125 45.65625 C-47.22543852 42.16234058 -44.08874793 40.45224901 -38.61328125 40.6875 C-37.63101563 40.77535767 -37.63101563 40.77535767 -36.62890625 40.86499023 C-31.48836083 41.27859036 -27.66520257 41.46546869 -23.26171875 38.55859375 C-20.76732232 35.98661112 -18.51106155 33.30877705 -16.25 30.53125 C-14.86393808 29.24739768 -13.44916317 27.99342596 -12 26.78125 C-8.57409789 23.8497362 -5.398437 20.75839793 -2.25 17.53125 C-3.36375 17.263125 -4.4775 16.995 -5.625 16.71875 C-9.25 15.53125 -9.25 15.53125 -11.25 12.53125 C-11.92630724 5.43002397 -11.92630724 5.43002397 -9.67431641 2.43725586 C-6.36621925 -0.16358146 -4.177554 0.01456319 0 0 Z M-40.625 59.15625 C-42.73706506 62.24311432 -42.86195145 63.8595413 -42.25 67.53125 C-40.75 70.03125 -40.75 70.03125 -38.25 71.53125 C-34.5782913 72.14320145 -32.96186432 72.01831506 -29.875 69.90625 C-27.76293494 66.81938568 -27.63804855 65.2029587 -28.25 61.53125 C-29.75 59.03125 -29.75 59.03125 -32.25 57.53125 C-35.9217087 56.91929855 -37.53813568 57.04418494 -40.625 59.15625 Z M-200.625 107.15625 C-202.73706506 110.24311432 -202.86195145 111.8595413 -202.25 115.53125 C-200.75 118.03125 -200.75 118.03125 -198.25 119.53125 C-194.5782913 120.14320145 -192.96186432 120.01831506 -189.875 117.90625 C-187.76293494 114.81938568 -187.63804855 113.2029587 -188.25 109.53125 C-189.75 107.03125 -189.75 107.03125 -192.25 105.53125 C-195.9217087 104.91929855 -197.53813568 105.04418494 -200.625 107.15625 Z M-120.625 131.15625 C-122.73706506 134.24311432 -122.86195145 135.8595413 -122.25 139.53125 C-120.75 142.03125 -120.75 142.03125 -118.25 143.53125 C-114.5782913 144.14320145 -112.96186432 144.01831506 -109.875 141.90625 C-107.76293494 138.81938568 -107.63804855 137.2029587 -108.25 133.53125 C-109.75 131.03125 -109.75 131.03125 -112.25 129.53125 C-115.9217087 128.91929855 -117.53813568 129.04418494 -120.625 131.15625 Z M-280.625 139.15625 C-282.73706506 142.24311432 -282.86195145 143.8595413 -282.25 147.53125 C-280.75 150.03125 -280.75 150.03125 -278.25 151.53125 C-274.5782913 152.14320145 -272.96186432 152.01831506 -269.875 149.90625 C-267.76293494 146.81938568 -267.63804855 145.2029587 -268.25 141.53125 C-269.75 139.03125 -269.75 139.03125 -272.25 137.53125 C-275.9217087 136.91929855 -277.53813568 137.04418494 -280.625 139.15625 Z M-360.625 171.15625 C-362.73706506 174.24311432 -362.86195145 175.8595413 -362.25 179.53125 C-360.75 182.03125 -360.75 182.03125 -358.25 183.53125 C-354.5782913 184.14320145 -352.96186432 184.01831506 -349.875 181.90625 C-347.76293494 178.81938568 -347.63804855 177.2029587 -348.25 173.53125 C-349.75 171.03125 -349.75 171.03125 -352.25 169.53125 C-355.9217087 168.91929855 -357.53813568 169.04418494 -360.625 171.15625 Z " fill="#000000" transform="translate(451.25,119.46875)"/>
</svg>
