<?xml version="1.0" encoding="UTF-8"?>
<svg version="1.1" xmlns="http://www.w3.org/2000/svg" width="512" height="512">
<path d="M0 0 C5.28 0 10.56 0 16 0 C16 10.56 16 21.12 16 32 C20.29 32.33 24.58 32.66 29 33 C60.31322331 38.78613909 88.18196201 56.30683233 106.75683594 82.18847656 C110.22868017 87.24760543 113.17601642 92.5588234 116 98 C116.70576172 99.34964844 116.70576172 99.34964844 117.42578125 100.7265625 C123.88053833 113.95581695 128 129.30563286 128 144 C138.56 144 149.12 144 160 144 C160 149.28 160 154.56 160 160 C149.44 160 138.88 160 128 160 C127.67 164.29 127.34 168.58 127 173 C121.21386091 204.31322331 103.69316767 232.18196201 77.81152344 250.75683594 C72.75239457 254.22868017 67.4411766 257.17601642 62 260 C60.65035156 260.70576172 60.65035156 260.70576172 59.2734375 261.42578125 C46.065232 267.87026822 30.68569313 272 16 272 C16 282.56 16 293.12 16 304 C10.72 304 5.44 304 0 304 C0 293.44 0 282.88 0 272 C-4.29 271.67 -8.58 271.34 -13 271 C-44.31322331 265.21386091 -72.18196201 247.69316767 -90.75683594 221.81152344 C-94.22868017 216.75239457 -97.17601642 211.4411766 -100 206 C-100.47050781 205.10023438 -100.94101563 204.20046875 -101.42578125 203.2734375 C-107.88053833 190.04418305 -112 174.69436714 -112 160 C-122.56 160 -133.12 160 -144 160 C-144 154.72 -144 149.44 -144 144 C-133.44 144 -122.88 144 -112 144 C-111.505 137.565 -111.505 137.565 -111 131 C-105.25944585 99.93347166 -87.82150851 71.55695081 -61.88574219 53.2878418 C-43.82300017 40.95213955 -22.1011439 32 0 32 C0 21.44 0 10.88 0 0 Z M-59 73 C-59.70382813 73.53882813 -60.40765625 74.07765625 -61.1328125 74.6328125 C-76.42906892 86.95651707 -86.1292628 105.62121202 -92 124 C-92.51240234 125.55460937 -92.51240234 125.55460937 -93.03515625 127.140625 C-97.80035764 144.78295199 -96.72149436 165.72369619 -91 183 C-90.61457031 184.16402344 -90.22914063 185.32804688 -89.83203125 186.52734375 C-85.42934419 198.73803246 -79.02811657 208.85537997 -71 219 C-70.49726563 219.65871094 -69.99453125 220.31742188 -69.4765625 220.99609375 C-54.13155037 240.19953379 -28.23210844 252.13535586 -4.2824707 255.15942383 C25.27738447 258.25254969 52.03812108 249.53675202 75 231 C75.65355469 230.49984375 76.30710937 229.9996875 76.98046875 229.484375 C95.65942565 214.60959925 107.65092494 189.27507546 111 166 C111.91006389 150.66950305 111.85324891 135.65459849 107 121 C106.61457031 119.83597656 106.22914063 118.67195313 105.83203125 117.47265625 C101.4319429 105.26917498 95.04323626 95.12535062 87 85 C86.18789063 83.93652344 86.18789063 83.93652344 85.359375 82.8515625 C69.3014685 62.98193073 43.2192623 51.81049832 18.4609375 48.53125 C-10.2714623 45.82412882 -36.80914515 55.02343212 -59 73 Z " fill="#000000" transform="translate(248,104)"/>
<path d="M0 0 C15.84 0 31.68 0 48 0 C48 5.28 48 10.56 48 16 C42.06 16.33 36.12 16.66 30 17 C34.29 21.29 38.58 25.58 43 30 C45.10375 28.7625 47.2075 27.525 49.375 26.25 C67.43278805 15.84324876 87.53522989 12.59083276 108.0625 17.5 C126.3178086 23.36048497 142.81902983 35.33664739 151.9375 52.5390625 C161.032717 70.63383107 163.65767239 91.99644038 157.37890625 111.5546875 C149.70344476 130.73246946 136.8322618 146.14545613 117.64916992 154.69287109 C100.19913368 162.09591677 78.80415595 163.1256996 61 156 C42.51581918 148.17608417 28.33714532 134.2199229 20.4765625 115.69140625 C13.76450439 98.91126097 13.12580827 77.91962661 20 61 C22.90049151 54.75567761 26.17962596 48.73056106 30 43 C25.71 38.71 21.42 34.42 17 30 C16.67 35.94 16.34 41.88 16 48 C10.72 48 5.44 48 0 48 C0 32.16 0 16.32 0 0 Z M54 44 C53.36578125 44.43828125 52.7315625 44.8765625 52.078125 45.328125 C41.86289876 53.10669177 35.7360456 65.74206464 33 78 C31.57289148 94.80051201 34.08278627 108.09918638 44 122 C46.71484232 119.3911602 48.99142388 116.74031692 51.1875 113.6875 C54.83927051 108.89256655 59.0974727 105.45733785 64 102 C63.49339844 101.23816406 63.49339844 101.23816406 62.9765625 100.4609375 C62.53054688 99.77257812 62.08453125 99.08421875 61.625 98.375 C61.18414062 97.70210938 60.74328125 97.02921875 60.2890625 96.3359375 C55.79755644 88.19678409 55.6039978 77.90093904 57.72265625 68.9453125 C60.87966953 60.53513137 65.95002467 55.0177092 74 51 C82.35141011 47.63116602 93.1468837 47.50498522 101.625 50.6875 C109.78537966 54.61049659 114.73838973 60.40132843 118.1171875 68.765625 C119.13222303 72.48442773 119.38365343 75.98449568 119.375 79.8125 C119.37367065 80.86981323 119.37367065 80.86981323 119.37231445 81.94848633 C119.24017098 87.77822701 118.03208436 92.08173608 115 97 C114.45988281 97.90363281 113.91976562 98.80726563 113.36328125 99.73828125 C112.91339844 100.48464844 112.46351563 101.23101562 112 102 C112.92619141 102.65742188 112.92619141 102.65742188 113.87109375 103.328125 C121.09591351 108.73849231 125.91593295 114.63178688 131 122 C134.25082804 119.04470178 136.18037304 116.1799791 138.125 112.25 C138.62257813 111.26515625 139.12015625 110.2803125 139.6328125 109.265625 C144.91957107 96.63782453 144.99255426 80.72332074 140.33203125 67.89453125 C138.03457426 62.90211005 135.23309687 58.4347789 132 54 C131.56171875 53.36578125 131.1234375 52.7315625 130.671875 52.078125 C122.89330823 41.86289876 110.25793536 35.7360456 98 33 C81.30218503 31.58161501 67.73719112 33.98514454 54 44 Z M74.625 71.625 C72.42092107 76.20270239 72.2028361 80.00552411 73 85 C75.32968931 89.83858548 78.16141452 92.67031069 83 95 C87.99447589 95.7971639 91.79729761 95.57907893 96.375 93.375 C99.95907713 90.13226355 102.59535241 87.53524104 103.3828125 82.6015625 C103.63883919 76.91777006 102.93626932 73.35061345 99 69 C94.64938655 65.06373068 91.08222994 64.36116081 85.3984375 64.6171875 C80.46475896 65.40464759 77.86773645 68.04092287 74.625 71.625 Z M63.59765625 123.6640625 C60.8384879 127.29496809 59.35773275 130.61205461 58 135 C59.82784602 135.96875839 61.66260941 136.92446873 63.5 137.875 C64.5209375 138.40867187 65.541875 138.94234375 66.59375 139.4921875 C73.62878357 142.60631933 80.08570076 143.38965972 87.6875 143.375 C88.56237061 143.37338867 89.43724121 143.37177734 90.33862305 143.37011719 C100.54453794 143.17856262 109.39254702 140.60485311 118 135 C114.16623311 125.63989891 109.98934502 119.96014022 101 115 C87.77606049 109.68520142 72.81452735 112.72705111 63.59765625 123.6640625 Z " fill="#000000" transform="translate(344,344)"/>
<path d="M0 0 C15.84 0 31.68 0 48 0 C48 15.84 48 31.68 48 48 C42.72 48 37.44 48 32 48 C31.67 42.06 31.34 36.12 31 30 C26.71 34.29 22.42 38.58 18 43 C19.2375 45.10375 20.475 47.2075 21.75 49.375 C32.15675124 67.43278805 35.40916724 87.53522989 30.5 108.0625 C24.63951503 126.3178086 12.66335261 142.81902983 -4.5390625 151.9375 C-22.63383107 161.032717 -43.99644038 163.65767239 -63.5546875 157.37890625 C-82.73246946 149.70344476 -98.14545613 136.8322618 -106.69287109 117.64916992 C-114.09591677 100.19913368 -115.1256996 78.80415595 -108 61 C-100.17608417 42.51581918 -86.2199229 28.33714532 -67.69140625 20.4765625 C-50.91126097 13.76450439 -29.91962661 13.12580827 -13 20 C-6.75567761 22.90049151 -0.73056106 26.17962596 5 30 C9.29 25.71 13.58 21.42 18 17 C12.06 16.67 6.12 16.34 0 16 C0 10.72 0 5.44 0 0 Z M-74 44 C-74.63421875 44.43828125 -75.2684375 44.8765625 -75.921875 45.328125 C-86.13710124 53.10669177 -92.2639544 65.74206464 -95 78 C-96.42710852 94.80051201 -93.91721373 108.09918638 -84 122 C-81.28515768 119.3911602 -79.00857612 116.74031692 -76.8125 113.6875 C-73.16072949 108.89256655 -68.9025273 105.45733785 -64 102 C-64.50660156 101.23816406 -64.50660156 101.23816406 -65.0234375 100.4609375 C-65.46945313 99.77257812 -65.91546875 99.08421875 -66.375 98.375 C-66.81585938 97.70210938 -67.25671875 97.02921875 -67.7109375 96.3359375 C-72.20244356 88.19678409 -72.3960022 77.90093904 -70.27734375 68.9453125 C-67.12033047 60.53513137 -62.04997533 55.0177092 -54 51 C-45.64858989 47.63116602 -34.8531163 47.50498522 -26.375 50.6875 C-18.21462034 54.61049659 -13.26161027 60.40132843 -9.8828125 68.765625 C-8.86777697 72.48442773 -8.61634657 75.98449568 -8.625 79.8125 C-8.62632935 80.86981323 -8.62632935 80.86981323 -8.62768555 81.94848633 C-8.75982902 87.77822701 -9.96791564 92.08173608 -13 97 C-13.54011719 97.90363281 -14.08023438 98.80726563 -14.63671875 99.73828125 C-15.08660156 100.48464844 -15.53648438 101.23101562 -16 102 C-15.07380859 102.65742188 -15.07380859 102.65742188 -14.12890625 103.328125 C-6.90408649 108.73849231 -2.08406705 114.63178688 3 122 C6.25082804 119.04470178 8.18037304 116.1799791 10.125 112.25 C10.62257813 111.26515625 11.12015625 110.2803125 11.6328125 109.265625 C16.91957107 96.63782453 16.99255426 80.72332074 12.33203125 67.89453125 C10.03457426 62.90211005 7.23309687 58.4347789 4 54 C3.56171875 53.36578125 3.1234375 52.7315625 2.671875 52.078125 C-5.10669177 41.86289876 -17.74206464 35.7360456 -30 33 C-46.69781497 31.58161501 -60.26280888 33.98514454 -74 44 Z M-53.375 71.625 C-55.57907893 76.20270239 -55.7971639 80.00552411 -55 85 C-52.67031069 89.83858548 -49.83858548 92.67031069 -45 95 C-40.00552411 95.7971639 -36.20270239 95.57907893 -31.625 93.375 C-28.04092287 90.13226355 -25.40464759 87.53524104 -24.6171875 82.6015625 C-24.36116081 76.91777006 -25.06373068 73.35061345 -29 69 C-33.35061345 65.06373068 -36.91777006 64.36116081 -42.6015625 64.6171875 C-47.53524104 65.40464759 -50.13226355 68.04092287 -53.375 71.625 Z M-64.40234375 123.6640625 C-67.1615121 127.29496809 -68.64226725 130.61205461 -70 135 C-68.17215398 135.96875839 -66.33739059 136.92446873 -64.5 137.875 C-63.4790625 138.40867187 -62.458125 138.94234375 -61.40625 139.4921875 C-54.37121643 142.60631933 -47.91429924 143.38965972 -40.3125 143.375 C-39.43762939 143.37338867 -38.56275879 143.37177734 -37.66137695 143.37011719 C-27.45546206 143.17856262 -18.60745298 140.60485311 -10 135 C-13.83376689 125.63989891 -18.01065498 119.96014022 -27 115 C-40.22393951 109.68520142 -55.18547265 112.72705111 -64.40234375 123.6640625 Z " fill="#000000" transform="translate(120,344)"/>
<path d="M0 0 C14.35546434 11.70990834 26.06794902 27.89121936 28.30664062 46.72021484 C29.76601625 68.44058871 26.97909464 88.67535502 12.32739258 105.62890625 C-0.87957734 120.09489289 -17.32732525 130.10586173 -37.24804688 131.03271484 C-56.89563562 131.59483083 -72.28945775 127.65614926 -88.69335938 116.72021484 C-92.98335938 121.01021484 -97.27335937 125.30021484 -101.69335938 129.72021484 C-95.75335938 130.05021484 -89.81335938 130.38021484 -83.69335938 130.72021484 C-83.69335938 136.00021484 -83.69335938 141.28021484 -83.69335938 146.72021484 C-99.53335938 146.72021484 -115.37335938 146.72021484 -131.69335938 146.72021484 C-131.69335938 130.88021484 -131.69335938 115.04021484 -131.69335938 98.72021484 C-126.41335938 98.72021484 -121.13335937 98.72021484 -115.69335938 98.72021484 C-115.36335938 104.66021484 -115.03335937 110.60021484 -114.69335938 116.72021484 C-110.40335937 112.43021484 -106.11335938 108.14021484 -101.69335938 103.72021484 C-103.54960937 100.56458984 -103.54960937 100.56458984 -105.44335938 97.34521484 C-115.85011061 79.2874268 -119.10252662 59.18498495 -114.19335938 38.65771484 C-108.3328744 20.40240625 -96.35671198 3.90118501 -79.15429688 -5.21728516 C-54.07967623 -17.82087913 -22.90831524 -17.31334898 0 0 Z M-77.69335938 14.72021484 C-78.32757813 15.15849609 -78.96179688 15.59677734 -79.61523438 16.04833984 C-89.83046062 23.82690661 -95.95731377 36.46227948 -98.69335938 48.72021484 C-100.12046789 65.52072685 -97.6105731 78.81940122 -87.69335938 92.72021484 C-84.97851705 90.11137504 -82.70193549 87.46053177 -80.50585938 84.40771484 C-76.85408887 79.61278139 -72.59588668 76.17755269 -67.69335938 72.72021484 C-68.19996094 71.95837891 -68.19996094 71.95837891 -68.71679688 71.18115234 C-69.1628125 70.49279297 -69.60882813 69.80443359 -70.06835938 69.09521484 C-70.50921875 68.42232422 -70.95007813 67.74943359 -71.40429688 67.05615234 C-75.89580294 58.91699893 -76.08936158 48.62115389 -73.97070312 39.66552734 C-70.81368985 31.25534622 -65.7433347 25.73792405 -57.69335938 21.72021484 C-49.34194927 18.35138087 -38.54647567 18.22520006 -30.06835938 21.40771484 C-21.90797971 25.33071143 -16.95496964 31.12154327 -13.57617188 39.48583984 C-12.56113635 43.20464258 -12.30970594 46.70471053 -12.31835938 50.53271484 C-12.31968872 51.59002808 -12.31968872 51.59002808 -12.32104492 52.66870117 C-12.45318839 58.49844185 -13.66127502 62.80195092 -16.69335938 67.72021484 C-17.23347656 68.62384766 -17.77359375 69.52748047 -18.33007812 70.45849609 C-18.77996094 71.20486328 -19.22984375 71.95123047 -19.69335938 72.72021484 C-18.76716797 73.37763672 -18.76716797 73.37763672 -17.82226562 74.04833984 C-10.59744586 79.45870715 -5.77742643 85.35200172 -0.69335938 92.72021484 C2.55746867 89.76491662 4.48701366 86.90019395 6.43164062 82.97021484 C6.92921875 81.98537109 7.42679687 81.00052734 7.93945312 79.98583984 C13.2262117 67.35803937 13.29919489 51.44353559 8.63867188 38.61474609 C6.34121489 33.62232489 3.5397375 29.15499374 0.30664062 24.72021484 C-0.13164062 24.08599609 -0.56992187 23.45177734 -1.02148438 22.79833984 C-8.80005114 12.5831136 -21.43542401 6.45626044 -33.69335938 3.72021484 C-50.39117435 2.30182986 -63.95616826 4.70535938 -77.69335938 14.72021484 Z M-57.06835938 42.34521484 C-59.27243831 46.92291724 -59.49052328 50.72573895 -58.69335938 55.72021484 C-56.36367007 60.55880033 -53.53194486 63.39052554 -48.69335938 65.72021484 C-43.69888348 66.51737875 -39.89606177 66.29929377 -35.31835938 64.09521484 C-31.73428224 60.85247839 -29.09800697 58.25545588 -28.31054688 53.32177734 C-28.05452019 47.6379849 -28.75709006 44.0708283 -32.69335938 39.72021484 C-37.04397283 35.78394553 -40.61112943 35.08137566 -46.29492188 35.33740234 C-51.22860041 36.12486244 -53.82562292 38.76113771 -57.06835938 42.34521484 Z M-68.09570312 94.38427734 C-70.85487147 98.01518294 -72.33562662 101.33226945 -73.69335938 105.72021484 C-71.86551336 106.68897323 -70.03074997 107.64468357 -68.19335938 108.59521484 C-67.17242187 109.12888672 -66.15148437 109.66255859 -65.09960938 110.21240234 C-58.0645758 113.32653418 -51.60765861 114.10987457 -44.00585938 114.09521484 C-43.13098877 114.09360352 -42.25611816 114.09199219 -41.35473633 114.09033203 C-31.14882144 113.89877746 -22.30081236 111.32506795 -13.69335938 105.72021484 C-17.52712627 96.36011376 -21.70401435 90.68035506 -30.69335938 85.72021484 C-43.91729889 80.40541627 -58.87883203 83.44726596 -68.09570312 94.38427734 Z " fill="#000000" transform="translate(475.693359375,21.27978515625)"/>
<path d="M0 0 C14.35546434 11.70990834 26.06794902 27.89121936 28.30664062 46.72021484 C29.7597904 68.3479274 26.40276483 85.57602854 14.30664062 103.72021484 C18.59664062 108.01021484 22.88664063 112.30021484 27.30664062 116.72021484 C27.63664063 110.78021484 27.96664062 104.84021484 28.30664062 98.72021484 C33.58664063 98.72021484 38.86664063 98.72021484 44.30664062 98.72021484 C44.30664062 114.56021484 44.30664062 130.40021484 44.30664062 146.72021484 C28.46664062 146.72021484 12.62664062 146.72021484 -3.69335938 146.72021484 C-3.69335938 141.44021484 -3.69335938 136.16021484 -3.69335938 130.72021484 C2.24664062 130.39021484 8.18664062 130.06021484 14.30664062 129.72021484 C10.01664062 125.43021484 5.72664063 121.14021484 1.30664062 116.72021484 C-0.79710938 117.95771484 -2.90085937 119.19521484 -5.06835938 120.47021484 C-23.12614742 130.87696608 -43.22858927 134.12938209 -63.75585938 129.22021484 C-82.01116797 123.35972987 -98.51238921 111.38356745 -107.63085938 94.18115234 C-116.72607638 76.08638378 -119.35103176 54.72377447 -113.07226562 35.16552734 C-105.39680414 15.98774539 -92.52562117 0.57475871 -73.3425293 -7.97265625 C-49.67027596 -18.01543039 -20.79092472 -15.71309507 0 0 Z M-77.69335938 14.72021484 C-78.32757813 15.15849609 -78.96179688 15.59677734 -79.61523438 16.04833984 C-89.83046062 23.82690661 -95.95731377 36.46227948 -98.69335938 48.72021484 C-100.12046789 65.52072685 -97.6105731 78.81940122 -87.69335938 92.72021484 C-84.97851705 90.11137504 -82.70193549 87.46053177 -80.50585938 84.40771484 C-76.85408887 79.61278139 -72.59588668 76.17755269 -67.69335938 72.72021484 C-68.19996094 71.95837891 -68.19996094 71.95837891 -68.71679688 71.18115234 C-69.1628125 70.49279297 -69.60882813 69.80443359 -70.06835938 69.09521484 C-70.50921875 68.42232422 -70.95007813 67.74943359 -71.40429688 67.05615234 C-75.89580294 58.91699893 -76.08936158 48.62115389 -73.97070312 39.66552734 C-70.81368985 31.25534622 -65.7433347 25.73792405 -57.69335938 21.72021484 C-49.34194927 18.35138087 -38.54647567 18.22520006 -30.06835938 21.40771484 C-21.90797971 25.33071143 -16.95496964 31.12154327 -13.57617188 39.48583984 C-12.56113635 43.20464258 -12.30970594 46.70471053 -12.31835938 50.53271484 C-12.31968872 51.59002808 -12.31968872 51.59002808 -12.32104492 52.66870117 C-12.45318839 58.49844185 -13.66127502 62.80195092 -16.69335938 67.72021484 C-17.23347656 68.62384766 -17.77359375 69.52748047 -18.33007812 70.45849609 C-18.77996094 71.20486328 -19.22984375 71.95123047 -19.69335938 72.72021484 C-18.76716797 73.37763672 -18.76716797 73.37763672 -17.82226562 74.04833984 C-10.59744586 79.45870715 -5.77742643 85.35200172 -0.69335938 92.72021484 C2.55746867 89.76491662 4.48701366 86.90019395 6.43164062 82.97021484 C6.92921875 81.98537109 7.42679687 81.00052734 7.93945312 79.98583984 C13.2262117 67.35803937 13.29919489 51.44353559 8.63867188 38.61474609 C6.34121489 33.62232489 3.5397375 29.15499374 0.30664062 24.72021484 C-0.13164063 24.08599609 -0.56992188 23.45177734 -1.02148438 22.79833984 C-8.80005114 12.5831136 -21.43542401 6.45626044 -33.69335938 3.72021484 C-50.39117435 2.30182986 -63.95616826 4.70535938 -77.69335938 14.72021484 Z M-57.06835938 42.34521484 C-59.27243831 46.92291724 -59.49052328 50.72573895 -58.69335938 55.72021484 C-56.36367007 60.55880033 -53.53194486 63.39052554 -48.69335938 65.72021484 C-43.69888348 66.51737875 -39.89606177 66.29929377 -35.31835938 64.09521484 C-31.73428224 60.85247839 -29.09800697 58.25545588 -28.31054688 53.32177734 C-28.05452019 47.6379849 -28.75709006 44.0708283 -32.69335938 39.72021484 C-37.04397283 35.78394553 -40.61112943 35.08137566 -46.29492188 35.33740234 C-51.22860041 36.12486244 -53.82562292 38.76113771 -57.06835938 42.34521484 Z M-68.09570312 94.38427734 C-70.85487147 98.01518294 -72.33562662 101.33226945 -73.69335938 105.72021484 C-71.86551336 106.68897323 -70.03074997 107.64468357 -68.19335938 108.59521484 C-67.17242187 109.12888672 -66.15148437 109.66255859 -65.09960938 110.21240234 C-58.0645758 113.32653418 -51.60765861 114.10987457 -44.00585938 114.09521484 C-43.13098877 114.09360352 -42.25611816 114.09199219 -41.35473633 114.09033203 C-31.14882144 113.89877746 -22.30081236 111.32506795 -13.69335938 105.72021484 C-17.52712627 96.36011376 -21.70401435 90.68035506 -30.69335938 85.72021484 C-43.91729889 80.40541627 -58.87883203 83.44726596 -68.09570312 94.38427734 Z " fill="#000000" transform="translate(123.693359375,21.27978515625)"/>
<path d="M0 0 C1.91091919 -0.36076355 1.91091919 -0.36076355 4.26611328 -0.34057617 C5.14687531 -0.34034958 6.02763733 -0.34012299 6.93508911 -0.33988953 C7.88721283 -0.32440567 8.83933655 -0.30892181 9.8203125 -0.29296875 C10.79410858 -0.28872391 11.76790466 -0.28447906 12.77120972 -0.28010559 C15.88941805 -0.26327786 19.00698617 -0.22561811 22.125 -0.1875 C24.23566777 -0.17245846 26.34634564 -0.15876914 28.45703125 -0.14648438 C33.63824023 -0.11336109 38.81907439 -0.06312151 44 0 C47 5.625 47 5.625 47 9 C50.63 7.68 54.26 6.36 58 5 C68.23 15.23 78.46 25.46 89 36 C87.68 39.63 86.36 43.26 85 47 C86.3921875 47.185625 86.3921875 47.185625 87.8125 47.375 C91 48 91 48 94 50 C94.36076355 51.91091919 94.36076355 51.91091919 94.34057617 54.26611328 C94.34034958 55.14687531 94.34012299 56.02763733 94.33988953 56.93508911 C94.32440567 57.88721283 94.30892181 58.83933655 94.29296875 59.8203125 C94.28872391 60.79410858 94.28447906 61.76790466 94.28010559 62.77120972 C94.26327786 65.88941805 94.22561811 69.00698617 94.1875 72.125 C94.17245846 74.23566777 94.15876914 76.34634564 94.14648438 78.45703125 C94.11336109 83.63824023 94.06312151 88.81907439 94 94 C88.375 97 88.375 97 85 97 C86.98 102.445 86.98 102.445 89 108 C78.77 118.23 68.54 128.46 58 139 C52.555 137.02 52.555 137.02 47 135 C46.814375 136.3921875 46.814375 136.3921875 46.625 137.8125 C46 141 46 141 44 144 C42.08908081 144.36076355 42.08908081 144.36076355 39.73388672 144.34057617 C38.85312469 144.34034958 37.97236267 144.34012299 37.06491089 144.33988953 C36.11278717 144.32440567 35.16066345 144.30892181 34.1796875 144.29296875 C33.20589142 144.28872391 32.23209534 144.28447906 31.22879028 144.28010559 C28.11058195 144.26327786 24.99301383 144.22561811 21.875 144.1875 C19.76433223 144.17245846 17.65365436 144.15876914 15.54296875 144.14648438 C10.36175977 144.11336109 5.18092561 144.06312151 0 144 C-3 138.375 -3 138.375 -3 135 C-6.63 136.32 -10.26 137.64 -14 139 C-24.23 128.77 -34.46 118.54 -45 108 C-43.68 104.37 -42.36 100.74 -41 97 C-42.65 96.67 -44.3 96.34 -46 96 C-47.32 95.34 -48.64 94.68 -50 94 C-50 79.48 -50 64.96 -50 50 C-44 47 -44 47 -41 47 C-42.98 41.555 -42.98 41.555 -45 36 C-34.77 25.77 -24.54 15.54 -14 5 C-10.37 6.32 -6.74 7.64 -3 9 C-2.814375 7.6078125 -2.814375 7.6078125 -2.625 6.1875 C-2 3 -2 3 0 0 Z M12 16 C11.484375 17.588125 10.96875 19.17625 10.4375 20.8125 C9.02314662 24.35339889 8.10177911 26.56468644 4.5625 28.1875 C0.96843869 29.00719819 -0.56429424 29.11660437 -4 28 C-6.31 27.34 -8.62 26.68 -11 26 C-15.29 30.29 -19.58 34.58 -24 39 C-23.2265625 41.0728125 -23.2265625 41.0728125 -22.4375 43.1875 C-21.20949478 46.88889309 -20.63911129 49.2313851 -22 53 C-22.24105469 53.82371094 -22.48210937 54.64742187 -22.73046875 55.49609375 C-25.0006966 59.97368161 -29.44187422 60.42218723 -34 62 C-34 68.6 -34 75.2 -34 82 C-32.411875 82.515625 -30.82375 83.03125 -29.1875 83.5625 C-25.64660111 84.97685338 -23.43531356 85.89822089 -21.8125 89.4375 C-20.99280181 93.03156131 -20.88339563 94.56429424 -22 98 C-22.66 100.31 -23.32 102.62 -24 105 C-19.71 109.29 -15.42 113.58 -11 118 C-9.63875 117.484375 -8.2775 116.96875 -6.875 116.4375 C-2.01220596 114.81911329 1.20004235 114.99115206 6.02734375 116.73046875 C9.82451087 119.17419017 10.53339268 123.91445104 12 128 C18.6 128 25.2 128 32 128 C32.515625 126.411875 33.03125 124.82375 33.5625 123.1875 C34.97685338 119.64660111 35.89822089 117.43531356 39.4375 115.8125 C43.03156131 114.99280181 44.56429424 114.88339563 48 116 C50.31 116.66 52.62 117.32 55 118 C59.29 113.71 63.58 109.42 68 105 C67.484375 103.618125 66.96875 102.23625 66.4375 100.8125 C65.19753618 97.09260854 64.7320868 94.80373959 66 91 C66.185625 90.071875 66.37125 89.14375 66.5625 88.1875 C66.706875 87.465625 66.85125 86.74375 67 86 C67.62648438 85.79503906 68.25296875 85.59007812 68.8984375 85.37890625 C69.71570313 85.10949219 70.53296875 84.84007812 71.375 84.5625 C72.18710937 84.29566406 72.99921875 84.02882813 73.8359375 83.75390625 C76.01031799 83.04820271 76.01031799 83.04820271 78 82 C78 75.4 78 68.8 78 62 C76.411875 61.484375 74.82375 60.96875 73.1875 60.4375 C69.64660111 59.02314662 67.43531356 58.10177911 65.8125 54.5625 C64.99280181 50.96843869 64.88339563 49.43570576 66 46 C66.66 43.69 67.32 41.38 68 39 C63.71 34.71 59.42 30.42 55 26 C53.618125 26.515625 52.23625 27.03125 50.8125 27.5625 C47.11110691 28.79050522 44.7686149 29.36088871 41 28 C40.17628906 27.75894531 39.35257812 27.51789063 38.50390625 27.26953125 C34.02631839 24.9993034 33.57781277 20.55812578 32 16 C25.4 16 18.8 16 12 16 Z " fill="#000000" transform="translate(234,184)"/>
<path d="M0 0 C8.80288754 6.34043826 15.4186507 14.72648904 17.58203125 25.4921875 C18.92007691 37.90936834 17.85729499 48.88109459 10.39453125 59.2421875 C3.58210875 67.3274193 -4.72289951 73.55522767 -15.48876953 74.71533203 C-28.40007937 75.61089799 -39.16843729 74.04490094 -49.3515625 65.46484375 C-57.86959925 57.33325857 -62.42046403 48.68416257 -62.88867188 36.85693359 C-63.04371176 24.34263074 -60.22647828 14.71931927 -51.41796875 5.4921875 C-37.63784493 -7.66275112 -16.31305228 -10.17259803 0 0 Z M-42.19140625 21.6484375 C-46.12351302 27.55912028 -46.11660152 33.61334174 -45.41796875 40.4921875 C-43.64454442 47.13691664 -38.97130405 51.66586709 -33.41796875 55.4921875 C-27.41909871 58.43281007 -20.53513345 58.59102538 -14.10546875 56.875 C-7.97664014 54.16969675 -3.17844083 49.08355055 -0.24609375 43.1015625 C1.66008982 37.09528598 1.64641812 29.98927192 -0.91796875 24.1796875 C-4.39834133 18.24695275 -9.85358805 13.56055006 -16.41796875 11.4921875 C-28.14191837 10.06609888 -34.72539236 12.80600765 -42.19140625 21.6484375 Z " fill="#000000" transform="translate(278.41796875,221.5078125)"/>
<path d="M0 0 C8.34468007 4.97590182 13.53387008 11.86345977 16.109375 21.2578125 C17.10789012 32.35758522 16.45884702 41.9922991 9.359375 51.0703125 C3.68970122 57.1408723 -3.36319277 60.85433149 -11.66015625 61.59375 C-19.46122094 61.76693689 -26.12078919 61.52758446 -32.890625 57.2578125 C-33.51195312 56.9071875 -34.13328125 56.5565625 -34.7734375 56.1953125 C-39.8272507 53.04488349 -43.28365286 48.58548376 -45.890625 43.2578125 C-46.220625 41.2778125 -46.550625 39.2978125 -46.890625 37.2578125 C-52.500625 37.2578125 -58.110625 37.2578125 -63.890625 37.2578125 C-63.890625 31.9778125 -63.890625 26.6978125 -63.890625 21.2578125 C-58.280625 21.2578125 -52.670625 21.2578125 -46.890625 21.2578125 C-46.560625 19.2778125 -46.230625 17.2978125 -45.890625 15.2578125 C-41.67505865 7.02742106 -35.61698277 1.58039118 -27.09765625 -1.875 C-18.45861974 -4.21101231 -8.11096168 -3.89217289 0 0 Z M-29.265625 20.8828125 C-31.46970393 25.46051489 -31.6877889 29.26333661 -30.890625 34.2578125 C-28.56093569 39.09639798 -25.72921048 41.92812319 -20.890625 44.2578125 C-15.89614911 45.0549764 -12.09332739 44.83689143 -7.515625 42.6328125 C-3.93154787 39.39007605 -1.29527259 36.79305354 -0.5078125 31.859375 C-0.25178581 26.17558256 -0.95435568 22.60842595 -4.890625 18.2578125 C-9.24123845 14.32154318 -12.80839506 13.61897331 -18.4921875 13.875 C-23.42586604 14.66246009 -26.02288855 17.29873537 -29.265625 20.8828125 Z " fill="#000000" transform="translate(487.890625,226.7421875)"/>
<path d="M0 0 C8.34296853 4.97488123 13.53708251 11.86384564 16.109375 21.2578125 C16.90141412 30.14522817 17.00868644 38.48982528 12.109375 46.2578125 C11.75875 46.87914062 11.408125 47.50046875 11.046875 48.140625 C7.89644599 53.1944382 3.43704626 56.65084036 -1.890625 59.2578125 C-4.860625 59.7528125 -4.860625 59.7528125 -7.890625 60.2578125 C-7.890625 65.8678125 -7.890625 71.4778125 -7.890625 77.2578125 C-13.170625 77.2578125 -18.450625 77.2578125 -23.890625 77.2578125 C-23.890625 71.6478125 -23.890625 66.0378125 -23.890625 60.2578125 C-25.870625 59.9278125 -27.850625 59.5978125 -29.890625 59.2578125 C-38.12101644 55.04224615 -43.56804632 48.98417027 -47.0234375 40.46484375 C-49.35944981 31.82580724 -49.04061039 21.47814918 -45.1484375 13.3671875 C-35.94791101 -2.06226686 -16.31539333 -7.82919881 0 0 Z M-29.265625 20.8828125 C-31.46970393 25.46051489 -31.6877889 29.26333661 -30.890625 34.2578125 C-28.56093569 39.09639798 -25.72921048 41.92812319 -20.890625 44.2578125 C-15.89614911 45.0549764 -12.09332739 44.83689143 -7.515625 42.6328125 C-3.93154787 39.39007605 -1.29527259 36.79305354 -0.5078125 31.859375 C-0.25178581 26.17558256 -0.95435568 22.60842595 -4.890625 18.2578125 C-9.24123845 14.32154318 -12.80839506 13.61897331 -18.4921875 13.875 C-23.42586604 14.66246009 -26.02288855 17.29873537 -29.265625 20.8828125 Z " fill="#000000" transform="translate(271.890625,10.7421875)"/>
<path d="M0 0 C5.28 0 10.56 0 16 0 C16 5.61 16 11.22 16 17 C17.98 17.33 19.96 17.66 22 18 C30.23039144 22.21556635 35.67742132 28.27364223 39.1328125 36.79296875 C41.46882481 45.43200526 41.14998539 55.77966332 37.2578125 63.890625 C32.28293127 72.23359353 25.39396686 77.42770751 16 80 C7.14929815 80.78876721 -1.2980685 80.96004389 -9 76 C-10.05960938 75.34644531 -10.05960938 75.34644531 -11.140625 74.6796875 C-18.04510724 69.99998287 -21.79991429 63.99943444 -24 56 C-24.79203912 47.11258433 -24.89931144 38.76798722 -20 31 C-19.649375 30.37867188 -19.29875 29.75734375 -18.9375 29.1171875 C-15.78707099 24.0633743 -11.32767126 20.60697214 -6 18 C-4.02 17.67 -2.04 17.34 0 17 C0 11.39 0 5.78 0 0 Z M-5.375 39.625 C-7.57907893 44.20270239 -7.7971639 48.00552411 -7 53 C-4.67031069 57.83858548 -1.83858548 60.67031069 3 63 C7.99447589 63.7971639 11.79729761 63.57907893 16.375 61.375 C19.95907713 58.13226355 22.59535241 55.53524104 23.3828125 50.6015625 C23.63883919 44.91777006 22.93626932 41.35061345 19 37 C14.64938655 33.06373068 11.08222994 32.36116081 5.3984375 32.6171875 C0.46475896 33.40464759 -2.13226355 36.04092287 -5.375 39.625 Z " fill="#000000" transform="translate(248,424)"/>
<path d="M0 0 C0.62132812 0.391875 1.24265625 0.78375 1.8828125 1.1875 C2.50414062 1.538125 3.12546875 1.88875 3.765625 2.25 C8.8194382 5.40042901 12.27584036 9.85982874 14.8828125 15.1875 C15.3778125 18.1575 15.3778125 18.1575 15.8828125 21.1875 C21.4928125 21.1875 27.1028125 21.1875 32.8828125 21.1875 C32.8828125 26.4675 32.8828125 31.7475 32.8828125 37.1875 C27.2728125 37.1875 21.6628125 37.1875 15.8828125 37.1875 C15.5528125 39.1675 15.2228125 41.1475 14.8828125 43.1875 C10.66739465 51.41760152 4.61049103 56.86113197 -3.90625 60.3203125 C-12.14366993 62.54501715 -22.57828039 62.58564396 -30.1640625 58.4453125 C-31.13085938 57.82269531 -31.13085938 57.82269531 -32.1171875 57.1875 C-32.82359375 56.75179687 -33.53 56.31609375 -34.2578125 55.8671875 C-41.16365834 51.18655865 -44.91434774 45.18728649 -47.1171875 37.1875 C-48.11570262 26.08772728 -47.46665952 16.4530134 -40.3671875 7.375 C-30.49609298 -3.1940507 -13.00174606 -7.11882674 0 0 Z M-28.4921875 20.8125 C-30.69626643 25.39020239 -30.9143514 29.19302411 -30.1171875 34.1875 C-27.78749819 39.02608548 -24.95577298 41.85781069 -20.1171875 44.1875 C-15.12271161 44.9846639 -11.31988989 44.76657893 -6.7421875 42.5625 C-3.15811037 39.31976355 -0.52183509 36.72274104 0.265625 31.7890625 C0.52165169 26.10527006 -0.18091818 22.53811345 -4.1171875 18.1875 C-8.46780095 14.25123068 -12.03495756 13.54866081 -17.71875 13.8046875 C-22.65242854 14.59214759 -25.24945105 17.22842287 -28.4921875 20.8125 Z " fill="#000000" transform="translate(55.1171875,226.8125)"/>
</svg>
