<?xml version="1.0" encoding="UTF-8"?>
<svg version="1.1" xmlns="http://www.w3.org/2000/svg" width="512" height="512">
<path d="M0 0 C1.05441284 0.01027222 1.05441284 0.01027222 2.13012695 0.02075195 C9.36134246 0.24476107 13.34648152 2.16362406 18.75 6.6875 C24.58120881 13.62191048 26.94826273 19.39055857 28.0625 28.4375 C28.76890625 28.11523438 29.4753125 27.79296875 30.203125 27.4609375 C36.46886223 25.21828292 43.65058595 25.50742018 49.8125 28 C58.25695139 32.3905028 64.0189299 38.34483002 67.0625 47.4375 C67.76758916 52.71716838 67.75492506 57.94700601 67.72192383 63.26025391 C67.73039011 64.83807638 67.74104019 66.4158884 67.75369263 67.99368286 C67.78169906 72.24930073 67.77939236 76.50441214 67.77139878 80.76009417 C67.76826202 85.21777214 67.79334219 89.6752921 67.81535339 94.13290405 C67.85272494 102.56160012 67.8649373 110.99013486 67.8679778 119.41890562 C67.87267612 129.01999959 67.90562422 138.62093271 67.94087565 148.22195554 C68.01271889 167.96045209 68.04931233 187.69888278 68.0625 207.4375 C68.85857327 206.19077512 69.65109581 204.94178266 70.44216919 203.69187927 C70.88389528 202.99659842 71.32562138 202.30131758 71.78073311 201.58496761 C73.78533034 198.22647266 75.28961348 194.69682164 76.8046875 191.09765625 C77.48531386 189.5239314 78.16631504 187.95036861 78.84765625 186.37695312 C79.89460363 183.93938331 80.93740802 181.5002169 81.97314453 179.05786133 C88.58089341 163.52448672 95.74974412 151.14571543 111.47265625 143.48046875 C117.5748212 141.02303581 123.05522904 140.07414091 129.5625 140.0625 C130.28308594 140.03800781 131.00367188 140.01351562 131.74609375 139.98828125 C137.30102868 139.95814598 140.47624069 141.30135029 145.0625 144.4375 C149.89634123 149.53262995 151.40024488 154.04486229 151.32919312 160.92675781 C150.85587698 165.38272135 149.01943244 169.15906518 147.14453125 173.1875 C146.73805862 174.09653076 146.331586 175.00556152 145.91279602 175.94213867 C145.0619835 177.84193525 144.20427312 179.73865678 143.33990479 181.63232422 C141.74385941 185.13723346 140.19296347 188.66108515 138.64186096 192.18605042 C136.69208177 196.60950749 134.71911748 201.02262696 132.75 205.4375 C131.88160576 207.38738491 131.01336399 209.33733773 130.14526367 211.28735352 C128.34836801 215.32348698 126.55082861 219.35933288 124.75292969 223.39501953 C121.71211183 230.22237897 118.6785739 237.05296308 115.64582825 243.88391113 C112.330269 251.35148147 109.00989844 258.8169031 105.68791199 266.28161621 C103.27873029 271.69704728 100.87647373 277.11548346 98.4797821 282.53645325 C96.95455521 285.98379788 95.4248094 289.42912539 93.89413452 292.87405396 C93.18935675 294.46291094 92.48648172 296.05261372 91.78579712 297.64328003 C82.43146599 318.87318982 72.78282271 339.78136285 50.0625 349.4375 C49.4025 349.4375 48.7425 349.4375 48.0625 349.4375 C48.0625 358.6775 48.0625 367.9175 48.0625 377.4375 C49.7125 378.0975 51.3625 378.7575 53.0625 379.4375 C56.43556698 382.55739039 57.89752312 386.10128973 58.45556641 390.62109375 C58.55389798 394.2396955 58.49915394 397.81984531 58.375 401.4375 C58.35244141 402.68917969 58.32988281 403.94085938 58.30664062 405.23046875 C58.24804778 408.30073367 58.16605402 411.36847761 58.0625 414.4375 C59.15046875 414.55738281 60.2384375 414.67726563 61.359375 414.80078125 C65.97840833 415.59498213 67.80985805 417.11093437 71.0625 420.4375 C73.99912356 425.17852967 74.49485881 429.23564563 74.45068359 434.69018555 C74.45856903 435.898591 74.45856903 435.898591 74.46661377 437.13140869 C74.47975768 439.77921248 74.47109829 442.42640946 74.4609375 445.07421875 C74.46295926 446.91933812 74.46587154 448.76445672 74.46963501 450.60957336 C74.47405024 454.46871581 74.46765089 458.32764946 74.45361328 462.18676758 C74.43648579 467.13681663 74.4463901 472.08637896 74.46433067 477.03641033 C74.47515944 480.84277531 74.47172698 484.64902441 74.4639473 488.45539284 C74.46194464 490.28107575 74.46440685 492.10676914 74.47138596 493.9324398 C74.47898953 496.47957739 74.4674137 499.02591984 74.45068359 501.57299805 C74.45675629 502.32889725 74.46282898 503.08479645 74.46908569 503.86360168 C74.40707229 508.9498081 74.40707229 508.9498081 72.67300415 511.40412903 C70.54333576 512.77061883 69.08090095 512.83768401 66.5625 512.8125 C65.7890625 512.82023438 65.015625 512.82796875 64.21875 512.8359375 C61.52742224 512.33862694 60.68215971 511.62009022 59.0625 509.4375 C57.77570147 505.73367502 57.9287126 501.9699537 57.94897461 498.09863281 C57.94882858 497.36653091 57.94868256 496.63442902 57.9485321 495.88014221 C57.94922724 493.46693938 57.95700092 491.0538143 57.96484375 488.640625 C57.96670935 486.96482383 57.96813258 485.28902212 57.96913147 483.61322021 C57.97294548 479.20736174 57.98276624 474.80153634 57.99383545 470.39569092 C58.00407357 465.89791308 58.00863424 461.40012989 58.01367188 456.90234375 C58.0243895 448.08071465 58.04145253 439.25911008 58.0625 430.4375 C57.33659668 430.45321045 56.61069336 430.4689209 55.86279297 430.48510742 C52.55444212 430.54770355 49.24621619 430.58656912 45.9375 430.625 C44.22433594 430.66270508 44.22433594 430.66270508 42.4765625 430.70117188 C31.76084632 430.79462289 31.76084632 430.79462289 27.0625 427.4375 C25.6725592 424.6576184 25.87761796 422.5188674 26.0625 419.4375 C27.4625 415.7375 27.4625 415.7375 30.0625 414.4375 C32.10305005 414.36684383 34.14584257 414.35328024 36.1875 414.375 C39.095625 414.4059375 39.095625 414.4059375 42.0625 414.4375 C42.0625 406.8475 42.0625 399.2575 42.0625 391.4375 C8.0725 391.4375 -25.9175 391.4375 -60.9375 391.4375 C-61.2675 399.0275 -61.5975 406.6175 -61.9375 414.4375 C-60.14086914 414.41655273 -58.34423828 414.39560547 -56.49316406 414.37402344 C-50.55404419 414.30949733 -44.61502356 414.26354981 -38.67566299 414.23025131 C-35.07491714 414.20938487 -31.47455084 414.18108579 -27.87402344 414.13574219 C-24.39862087 414.09224875 -20.92358312 414.06835579 -17.44792938 414.05799103 C-15.47804216 414.04701385 -13.50830153 414.015793 -11.53863525 413.98431396 C-9.73722076 413.98386078 -9.73722076 413.98386078 -7.89941406 413.98339844 C-6.84240295 413.97451599 -5.78539185 413.96563354 -4.6963501 413.95648193 C-1.2169547 414.56313035 -0.04821665 415.65011128 2.0625 418.4375 C2.5625 421.9375 2.5625 421.9375 2.0625 425.4375 C-0.15613029 428.34467073 -1.45694929 429.27731643 -4.9375 430.4375 C-7.25213704 430.55585778 -9.56996295 430.61451089 -11.88745117 430.64282227 C-12.59014633 430.65272186 -13.29284149 430.66262146 -14.01683044 430.67282104 C-16.33800901 430.70439234 -18.65920805 430.72917613 -20.98046875 430.75390625 C-22.59044423 430.77447956 -24.20041436 430.79547613 -25.81037903 430.81687927 C-30.04686138 430.87206106 -34.28339216 430.92148749 -38.5199585 430.96972656 C-42.84342761 431.01997001 -47.16682644 431.07564123 -51.49023438 431.13085938 C-59.97259681 431.23839334 -68.45501807 431.33984887 -76.9375 431.4375 C-76.94114563 432.39327942 -76.94479126 433.34905884 -76.94854736 434.33380127 C-76.98548099 443.33903901 -77.04323552 452.34393427 -77.12140274 461.34891129 C-77.16092017 465.97855299 -77.19308761 470.60800327 -77.20849609 475.23779297 C-77.22363474 479.70544084 -77.25803011 484.17256262 -77.30580902 488.6399765 C-77.32065175 490.34476907 -77.32854267 492.04963674 -77.32938385 493.75449371 C-77.33174667 496.1419134 -77.35876831 498.52787104 -77.39160156 500.91503906 C-77.3865712 501.62066483 -77.38154083 502.32629059 -77.37635803 503.05329895 C-77.44863562 506.44767738 -77.72469793 508.16610746 -79.84661865 510.87225342 C-82.10321305 512.5615538 -83.15215524 513.00544013 -85.9375 513 C-86.5975 513.02191406 -87.2575 513.04382813 -87.9375 513.06640625 C-91.12291021 512.06474405 -92.14432968 510.19894068 -93.9375 507.4375 C-94.31962707 504.76247091 -94.47611745 502.5044601 -94.43920898 499.83666992 C-94.44461197 499.08801163 -94.45001495 498.33935333 -94.45558167 497.56800842 C-94.46805557 495.10092227 -94.4515831 492.63500664 -94.43359375 490.16796875 C-94.43374882 488.44550007 -94.43523911 486.72303104 -94.43800354 485.00056458 C-94.4393871 481.39173948 -94.42684078 477.783312 -94.40405273 474.17456055 C-94.37573217 469.56460256 -94.37838856 464.95530821 -94.39114285 460.34530163 C-94.39812389 456.78748481 -94.39028209 453.22981935 -94.37788582 449.67202187 C-94.37339032 447.97328587 -94.37301778 446.27453351 -94.37695122 444.57579613 C-94.3798857 442.19236802 -94.36324919 439.80982897 -94.34155273 437.42651367 C-94.34605438 436.7337735 -94.35055603 436.04103333 -94.35519409 435.32730103 C-94.26782464 429.504729 -92.97179943 424.03332518 -89.32421875 419.37890625 C-88.76347656 418.92386719 -88.20273438 418.46882813 -87.625 418 C-87.07199219 417.52691406 -86.51898438 417.05382812 -85.94921875 416.56640625 C-83.33822474 415.10120767 -80.88724207 414.79945707 -77.9375 414.4375 C-77.95321045 413.81818604 -77.9689209 413.19887207 -77.98510742 412.56079102 C-78.0481403 409.70728995 -78.08670437 406.85393609 -78.125 404 C-78.15013672 403.02611328 -78.17527344 402.05222656 -78.20117188 401.04882812 C-78.28761154 392.43367473 -77.14313388 384.84331562 -70.9375 378.4375 C-70.2775 378.1075 -69.6175 377.7775 -68.9375 377.4375 C-68.6075 367.2075 -68.2775 356.9775 -67.9375 346.4375 C-69.2575 345.7775 -70.5775 345.1175 -71.9375 344.4375 C-91.53045342 327.53623027 -103.25219183 303.89851266 -106.9375 278.4375 C-107.20041926 274.73458911 -107.23151661 271.04942938 -107.22802734 267.33813477 C-107.23474457 266.28956802 -107.24146179 265.24100128 -107.24838257 264.16065979 C-107.26721044 260.73335906 -107.27127745 257.30625529 -107.2734375 253.87890625 C-107.27987042 251.48282289 -107.28659915 249.08674031 -107.29360962 246.69065857 C-107.30554013 241.68869197 -107.30929424 236.68679426 -107.30810547 231.68481445 C-107.30790123 225.26984428 -107.33533021 218.8553119 -107.36964989 212.4404459 C-107.39184612 207.50172379 -107.39594543 202.56310886 -107.39488602 197.62434196 C-107.39724807 195.2579998 -107.40610539 192.89165495 -107.42155075 190.52536201 C-107.44108521 187.22695767 -107.43542425 183.92952252 -107.42333984 180.63110352 C-107.43457886 179.65288635 -107.44581787 178.67466919 -107.45739746 177.66680908 C-107.39573022 171.06319507 -107.39573022 171.06319507 -105.03213501 167.83580017 C-102.78583842 166.33625639 -101.61731118 165.86976599 -98.9375 165.875 C-98.2775 165.85308594 -97.6175 165.83117187 -96.9375 165.80859375 C-93.66590724 166.83735632 -92.72844453 168.5405121 -90.9375 171.4375 C-90.35723476 174.75001386 -90.41456357 178.01834751 -90.45507812 181.37402344 C-90.45116562 182.3715715 -90.44725311 183.36911957 -90.44322205 184.39689636 C-90.4372484 186.56196207 -90.44041458 188.72706791 -90.4516449 190.89211273 C-90.46893433 194.33356498 -90.4613796 197.77417885 -90.4473877 201.21563721 C-90.41775572 209.77301446 -90.43084983 218.3302321 -90.44256592 226.88763428 C-90.45082314 234.10528475 -90.44259117 241.32256963 -90.41343689 248.54016876 C-90.40641781 251.90395298 -90.42293467 255.26706701 -90.44055176 258.63079834 C-90.43468263 285.77786314 -83.0441126 309.29151909 -63.75 328.9375 C-59.94131168 332.6229088 -55.97769608 335.97447479 -51.9375 339.4375 C-51.9375 351.3175 -51.9375 363.1975 -51.9375 375.4375 C-24.2175 375.4375 3.5025 375.4375 32.0625 375.4375 C32.0625 363.8875 32.0625 352.3375 32.0625 340.4375 C37.5869898 334.9130102 37.5869898 334.9130102 42.25 333.625 C53.65886002 329.7607087 61.62179413 320.98467218 67.0874939 310.46466064 C68.17523814 308.23665925 69.23395321 305.99729807 70.28125 303.75 C70.67139786 302.91913376 71.06154572 302.08826752 71.46351624 301.23222351 C75.24311519 293.13692139 78.84311016 284.96574794 82.40356445 276.7722168 C84.34348339 272.30966891 86.2942591 267.85187792 88.24609375 263.39453125 C88.64589447 262.48148224 89.04569519 261.56843323 89.45761108 260.62771606 C93.59279052 251.20092551 97.82219545 241.81735614 102.0625 232.4375 C109.1957839 216.65417243 116.20166619 200.81781068 123.13867188 184.94726562 C123.49605438 184.13009064 123.85343689 183.31291565 124.22164917 182.47097778 C124.90882252 180.8992466 125.59530909 179.32721492 126.28103638 177.75485229 C128.52411812 172.62369093 130.84426608 167.53401447 133.2565918 162.47973633 C134.24603643 160.33832046 134.24603643 160.33832046 134.0625 157.4375 C125.03875927 156.47828347 118.62431302 158.45181124 111.0625 163.4375 C100.95799763 171.6933616 96.60031493 187.84796989 91.65039062 199.45898438 C86.58992255 211.07219487 81.07089959 223.28928175 68.6875 228.421875 C65.26960472 229.49544467 61.8329619 230.28033017 58.32421875 230.99609375 C42.67834027 234.40473575 27.94613872 242.29379302 18.72265625 255.69140625 C14.48195667 262.37870024 11.78619071 269.40247551 9.69555664 277.02026367 C8.62808026 280.90733986 7.40318609 284.13842276 5.0625 287.4375 C2.20925563 288.86412219 0.22795451 288.74783868 -2.9375 288.4375 C-5.8125 286.9375 -5.8125 286.9375 -7.9375 284.4375 C-8.34638402 278.78527978 -7.59983761 274.07290729 -5.8125 268.6875 C-5.58804199 267.99648193 -5.36358398 267.30546387 -5.13232422 266.59350586 C1.63726173 246.45922188 14.46316257 231.43054893 33.37109375 221.7421875 C39.25217576 218.92742686 44.75088873 216.96843599 51.0625 215.4375 C51.0486945 194.02767878 51.00646979 172.61808157 50.93040943 151.20838737 C50.89575588 141.26748068 50.87040343 131.32671271 50.86694336 121.38574219 C50.86390398 112.7212035 50.84341697 104.05691184 50.80197543 95.39246857 C50.78064137 90.80461452 50.76804688 86.21711171 50.77634621 81.62920761 C50.78388383 77.30998574 50.76807578 72.99147569 50.73443985 68.67238426 C50.72620303 67.08816945 50.7264609 65.50388391 50.73590279 63.91967583 C50.74753503 61.75330236 50.72839674 59.58925793 50.70173645 57.42306519 C50.69897107 56.2118292 50.69620569 55.00059322 50.69335651 53.75265312 C49.84782063 49.30935917 48.21517534 47.64000066 45.0625 44.4375 C41.99820224 42.90535112 39.4459358 43.20811452 36.0625 43.4375 C32.23550192 45.13838803 30.60537373 46.5897276 29.0625 50.4375 C28.76023654 52.77055818 28.76023654 52.77055818 28.79748535 55.29541016 C28.78921219 56.27117004 28.78093903 57.24692993 28.77241516 58.2522583 C28.77388802 59.84828888 28.77388802 59.84828888 28.77539062 61.4765625 C28.76855759 62.60213562 28.76172455 63.72770874 28.75468445 64.88739014 C28.74109246 67.3318685 28.73204175 69.77637533 28.72697449 72.22088623 C28.7186976 76.08697464 28.69820414 79.95282546 28.67443848 83.81884766 C28.62617849 92.02503081 28.59315432 100.23123485 28.5625 108.4375 C28.52698386 117.94529081 28.48500619 127.45294951 28.42655945 136.96063232 C28.40645266 140.77406331 28.39816379 144.58740589 28.39025879 148.40087891 C28.3772893 150.73340174 28.36376942 153.06592159 28.34960938 155.3984375 C28.35108223 156.99446808 28.35108223 156.99446808 28.35258484 158.6227417 C28.34431168 159.59850159 28.33603851 160.57426147 28.32751465 161.57958984 C28.32458153 162.42613129 28.32164841 163.27267273 28.3186264 164.14486694 C28.03486029 166.68490794 27.4242198 168.28308188 26.0625 170.4375 C23.10492408 172.16275262 21.3679394 172.45582636 17.9375 172.25 C14.86456506 171.38156187 13.93395543 170.94867242 12.0625 168.4375 C11.68611908 165.88586044 11.68611908 165.88586044 11.68395996 162.77093506 C11.67575729 161.59053146 11.66755463 160.41012787 11.65910339 159.19395447 C11.66525162 157.89728348 11.67139984 156.60061249 11.67773438 155.26464844 C11.67362962 153.88641409 11.66816931 152.5081832 11.66145325 151.12995911 C11.64971851 148.16046436 11.64724741 145.19115552 11.65180969 142.22164154 C11.65861429 137.52309169 11.64275886 132.82478667 11.62341309 128.12628174 C11.58552607 118.14670107 11.57276063 108.16714155 11.5625 98.1875 C11.55142591 87.42752178 11.53601975 76.66765618 11.49178743 65.90775514 C11.47345787 61.24061481 11.46952957 56.57375385 11.47672272 51.90658617 C11.47824854 48.9966577 11.46743526 46.08686789 11.45334435 43.17697716 C11.44745681 41.19237569 11.45642747 39.2077474 11.46589661 37.22315979 C11.42231811 30.89207929 11.30995642 25.95678061 8.0625 20.4375 C4.7223473 17.40099755 3.03117537 16.4544943 -1.5 16.375 C-5.54167687 17.62424558 -7.26107956 19.21005182 -9.9375 22.4375 C-11.26585022 25.09420044 -11.06826834 27.10367208 -11.07553101 30.07992554 C-11.08098434 31.28011826 -11.08643768 32.48031097 -11.09205627 33.71687317 C-11.09317611 35.05392451 -11.09422662 36.3909759 -11.09521484 37.72802734 C-11.09988208 39.13068298 -11.1050255 40.5333371 -11.11061096 41.93598938 C-11.12190006 44.96056349 -11.13033029 47.98512769 -11.13673019 51.00971603 C-11.14739828 55.79131506 -11.16763964 60.57284302 -11.18984985 65.35440063 C-11.2518151 78.95270537 -11.30580267 92.5510061 -11.33886719 106.14941406 C-11.35720124 113.65660277 -11.38612132 121.16367269 -11.4268719 128.6707741 C-11.44796162 132.64477748 -11.46340193 136.61863103 -11.46567917 140.59269333 C-11.46782363 144.33068109 -11.48367185 148.06835684 -11.51006889 151.80624962 C-11.52070731 153.83316182 -11.51650397 155.86013484 -11.5118866 157.8870697 C-11.52852608 159.69581825 -11.52852608 159.69581825 -11.54550171 161.54110718 C-11.54881186 162.58935354 -11.552122 163.63759991 -11.55553246 164.71761131 C-11.99371018 167.83775762 -12.7442893 169.20324534 -14.9375 171.4375 C-18.28255326 172.45555969 -20.30895167 172.60892227 -23.6875 171.6875 C-25.9375 170.4375 -25.9375 170.4375 -27.9375 167.4375 C-28.19083309 165.27070808 -28.19083309 165.27070808 -28.19578552 162.70657349 C-28.20261353 161.73363342 -28.20944153 160.76069336 -28.21647644 159.75827026 C-28.21392349 158.69222565 -28.21137054 157.62618103 -28.20874023 156.52783203 C-28.21396698 155.40401123 -28.21919373 154.28019043 -28.22457886 153.12231445 C-28.23483218 150.67836024 -28.24060157 148.2343841 -28.24246025 145.79040909 C-28.24611377 141.92412297 -28.26281279 138.0580957 -28.28321838 134.19186401 C-28.33171254 124.58766988 -28.36328049 114.98344309 -28.38452148 105.37915039 C-28.40248712 97.26870565 -28.43186303 89.15852526 -28.47856331 81.04818344 C-28.49022782 78.48453591 -28.49614378 75.92085562 -28.49624443 73.35718155 C-28.49643613 69.77324513 -28.51467823 66.18981498 -28.53686523 62.60595703 C-28.53228806 61.54396088 -28.52771088 60.48196472 -28.522995 59.38778687 C-28.58542366 53.05564373 -29.16253013 49.31157594 -33.6875 44.625 C-36.93921564 42.90881674 -39.31210162 43.05587912 -42.9375 43.4375 C-46.47452144 44.80407647 -47.65815618 45.95269303 -49.55407715 49.24310303 C-51.78614761 54.76677218 -51.3517424 60.6212838 -51.32226562 66.48535156 C-51.33051234 68.48561721 -51.33875988 70.48588285 -51.34703827 72.48614836 C-51.35301941 74.62485917 -51.35166166 76.763453 -51.34819031 78.90216827 C-51.34136107 83.36470969 -51.35727972 87.82699542 -51.37658691 92.28948975 C-51.41758613 102.56135072 -51.42899839 112.83320407 -51.44011688 123.10513306 C-51.45062201 132.53332558 -51.46735261 141.96139467 -51.50821257 151.38951087 C-51.52658559 155.82695449 -51.5304559 160.26410408 -51.52327728 164.70157671 C-51.52212366 166.79425193 -51.52774804 168.88677549 -51.53645325 170.97943115 C-51.54703527 173.53232682 -51.54685153 176.08529782 -51.53410339 178.63818359 C-51.54230606 179.75968811 -51.55050873 180.88119263 -51.55895996 182.03668213 C-51.55967247 183.0129871 -51.56038498 183.98929207 -51.56111908 184.99518204 C-52.00093672 187.84913785 -52.63856502 188.7432342 -54.9375 190.4375 C-57.09375 190.8359375 -57.09375 190.8359375 -59.4375 190.8125 C-60.2109375 190.82023438 -60.984375 190.82796875 -61.78125 190.8359375 C-64.44806642 190.3431562 -65.29931317 189.5651451 -66.9375 187.4375 C-68.19688742 183.65933775 -68.08196373 180.12587559 -68.0793457 176.18994141 C-68.08282013 175.34897415 -68.08629456 174.5080069 -68.08987427 173.64155579 C-68.09722725 171.81474087 -68.10257507 169.98791704 -68.10616493 168.16109085 C-68.11333002 165.26937864 -68.12899649 162.37783615 -68.14750671 159.48617554 C-68.19997763 151.26424469 -68.24796449 143.04240723 -68.26342773 134.8203125 C-68.27350558 129.79164461 -68.30282377 124.76340427 -68.34474754 119.73490524 C-68.35706397 117.81880297 -68.36217763 115.90264034 -68.35994911 113.98649979 C-68.35759778 111.30515103 -68.37974872 108.62503048 -68.4074707 105.94384766 C-68.40086929 105.15302292 -68.39426788 104.36219818 -68.38746643 103.54740906 C-68.47225309 98.55194746 -69.3409953 95.93025713 -72.9375 92.4375 C-75.84968567 90.75149777 -77.56914419 90.42982592 -80.9375 90.5 C-84.70786448 91.6782389 -86.39739992 93.46195419 -88.9375 96.4375 C-90.58039852 99.72329704 -90.09509123 103.3755492 -90.11328125 106.98828125 C-90.1364825 108.73634013 -90.16059997 110.48438704 -90.18554688 112.23242188 C-90.22064432 114.99088509 -90.24999469 117.74890916 -90.26342773 120.50756836 C-90.27892372 123.16834862 -90.31914587 125.82784189 -90.36328125 128.48828125 C-90.36137283 129.30927811 -90.35946442 130.13027496 -90.35749817 130.97615051 C-90.44292794 134.98566306 -90.65239869 136.98691827 -92.84838867 140.45751953 C-94.9375 142.4375 -94.9375 142.4375 -96.9375 143.06640625 C-97.5975 143.04449219 -98.2575 143.02257812 -98.9375 143 C-99.5975 143.00128906 -100.2575 143.00257813 -100.9375 143.00390625 C-103.99288627 142.13861131 -105.02619589 140.99878444 -106.9375 138.4375 C-107.54408435 135.28117561 -107.49786246 132.16311346 -107.46875 128.95703125 C-107.4725769 128.02960617 -107.47640381 127.10218109 -107.48034668 126.14665222 C-107.48306702 124.18393876 -107.4756973 122.22118911 -107.45898438 120.25854492 C-107.4376974 117.27764255 -107.45871864 114.29918381 -107.484375 111.31835938 C-107.48172938 109.40624474 -107.47659956 107.49413161 -107.46875 105.58203125 C-107.47684692 104.70045853 -107.48494385 103.8188858 -107.49328613 102.91059875 C-107.36055868 93.99130322 -104.28789317 86.78789317 -97.9375 80.4375 C-90.00022778 74.29251506 -83.11619077 72.9935457 -73.2578125 74.05078125 C-70.9375 74.4375 -70.9375 74.4375 -68.9375 75.4375 C-68.907771 74.4630896 -68.907771 74.4630896 -68.87744141 73.46899414 C-68.78122067 70.47897478 -68.67194101 67.48956352 -68.5625 64.5 C-68.51609375 62.96762695 -68.51609375 62.96762695 -68.46875 61.40429688 C-68.07140724 51.04027311 -67.01822138 42.43525748 -59.9375 34.4375 C-52.34127355 28.07786855 -45.62234168 26.22223535 -35.83984375 26.171875 C-32.8499902 26.44550897 -30.64961405 27.18345828 -27.9375 28.4375 C-27.8446875 26.519375 -27.8446875 26.519375 -27.75 24.5625 C-26.81908475 16.46481259 -23.24975414 9.86756191 -16.9765625 4.69140625 C-11.35192254 1.23257593 -6.60099824 -0.09882917 0 0 Z " fill="#000000" transform="translate(251.9375,-0.4375)"/>
<path d="M0 0 C2.57714844 1.05395508 2.57714844 1.05395508 5.109375 2.51953125 C6.02847656 3.04740234 6.94757813 3.57527344 7.89453125 4.11914062 C8.83683594 4.67794922 9.77914063 5.23675781 10.75 5.8125 C11.70777344 6.35970703 12.66554688 6.90691406 13.65234375 7.47070312 C20.72294427 11.5844164 20.72294427 11.5844164 23 15 C23.41857482 18.83693587 23.54644269 21.11203064 21.5 24.4375 C18.00896678 26.61939576 14.9598124 26.65354908 11 26 C7.51935469 24.57914653 4.38710045 22.71322089 1.1875 20.75 C0.34251953 20.25886719 -0.50246094 19.76773437 -1.37304688 19.26171875 C-5.36867565 16.88147921 -8.46921001 15.00064169 -11 11 C-11.5 8.0625 -11.5 8.0625 -11 5 C-7.62452852 0.43318565 -5.56444365 -0.51447306 0 0 Z " fill="#000000" transform="translate(425,265)"/>
<path d="M0 0 C2.57714844 1.05395508 2.57714844 1.05395508 5.109375 2.51953125 C6.02847656 3.04740234 6.94757813 3.57527344 7.89453125 4.11914062 C8.83683594 4.67794922 9.77914062 5.23675781 10.75 5.8125 C11.70777344 6.35970703 12.66554688 6.90691406 13.65234375 7.47070312 C20.72294427 11.5844164 20.72294427 11.5844164 23 15 C23.41857482 18.83693587 23.54644269 21.11203064 21.5 24.4375 C18.00842934 26.61973166 14.96001308 26.6611187 11 26 C7.52017449 24.5559544 4.38625037 22.6676788 1.1875 20.6875 C0.34251953 20.18798828 -0.50246094 19.68847656 -1.37304688 19.17382812 C-8.71855104 14.76885939 -8.71855104 14.76885939 -11 12 C-11.65341537 7.58944623 -11.51318284 5.7093998 -8.875 2.0625 C-5.44256163 -0.39990144 -4.13419328 -0.37709244 0 0 Z " fill="#000000" transform="translate(75,116)"/>
<path d="M0 0 C2.98496444 2.09754258 3.85227852 3.49352636 4.875 7 C5.01103681 10.26488353 4.72178761 11.29969934 3 14 C0.00533444 16.4063063 -3.33093926 18.2801611 -6.625 20.25 C-7.50285156 20.80429687 -8.38070312 21.35859375 -9.28515625 21.9296875 C-14.84453982 25.28349096 -18.50117262 26.77435916 -25 26 C-27.5 25.0625 -27.5 25.0625 -29 23 C-29.62072396 19.87864522 -29.85872687 17.07754909 -29 14 C-25.02103153 10.0603494 -19.91635779 7.47608503 -15.0625 4.75 C-13.88397461 4.06164062 -13.88397461 4.06164062 -12.68164062 3.359375 C-8.34461276 0.92047732 -5.12264792 -0.79168195 0 0 Z " fill="#000000" transform="translate(95,265)"/>
<path d="M0 0 C1.23685547 -0.02900391 2.47371094 -0.05800781 3.74804688 -0.08789062 C4.94107422 -0.09626953 6.13410156 -0.10464844 7.36328125 -0.11328125 C9.0016394 -0.13515503 9.0016394 -0.13515503 10.6730957 -0.1574707 C14.3800923 0.4204809 16.03155731 1.71577296 18.6875 4.3125 C19.3515625 6.3125 19.3515625 6.3125 19.3125 8.3125 C19.32539062 8.9725 19.33828125 9.6325 19.3515625 10.3125 C18.31519827 13.43378522 16.37833395 14.51046434 13.6875 16.3125 C10.70483398 16.83007812 10.70483398 16.83007812 7.43359375 16.84375 C6.24958984 16.84890625 5.06558594 16.8540625 3.84570312 16.859375 C2.00395508 16.83617187 2.00395508 16.83617187 0.125 16.8125 C-1.10669922 16.82796875 -2.33839844 16.8434375 -3.60742188 16.859375 C-4.79013672 16.85421875 -5.97285156 16.8490625 -7.19140625 16.84375 C-8.2697876 16.83923828 -9.34816895 16.83472656 -10.45922852 16.83007812 C-13.96816573 16.19356346 -15.12581942 15.07220874 -17.3125 12.3125 C-18.68999054 8.82285729 -18.42364829 7.58772434 -17 4.0625 C-13.41040593 -1.78720885 -6.20511102 0.04805197 0 0 Z " fill="#000000" transform="translate(61.3125,195.6875)"/>
<path d="M0 0 C1.28197266 -0.00064453 2.56394531 -0.00128906 3.88476562 -0.00195312 C4.88141235 0.01363647 4.88141235 0.01363647 5.89819336 0.02954102 C7.931003 0.05855677 9.96121192 0.05013309 11.99414062 0.03710938 C21.82886538 0.10145332 21.82886538 0.10145332 24.22241211 1.84350586 C25.99087726 4.38776529 26.24810198 6.42129957 26.37109375 9.49609375 C25.23329503 11.82340931 24.20268661 13.66450089 22.37109375 15.49609375 C18.29300531 15.76223959 14.21127885 15.76735341 10.12524414 15.79125977 C8.07695063 15.80843978 6.03028553 15.85230364 3.98242188 15.89648438 C2.69142578 15.90486328 1.40042969 15.91324219 0.0703125 15.921875 C-1.71113159 15.94374878 -1.71113159 15.94374878 -3.52856445 15.96606445 C-6.62890625 15.49609375 -6.62890625 15.49609375 -9.01635742 13.68823242 C-11.36641609 10.49350467 -11.18080816 8.35940715 -10.62890625 4.49609375 C-7.52198872 0.29239633 -5.09095458 -0.00802935 0 0 Z " fill="#000000" transform="translate(442.62890625,195.50390625)"/>
</svg>
