<?xml version="1.0" encoding="UTF-8"?>
<svg version="1.1" xmlns="http://www.w3.org/2000/svg" width="512" height="512">
<path d="M0 0 C4.07510151 3.3234553 6.96993006 6.19760313 7.72265625 11.57421875 C7.79044517 19.08523156 5.5195923 23.49580765 0.41605663 29.11294746 C-0.4369789 29.95764532 -1.29001444 30.80234318 -2.16889954 31.67263794 C-2.64671488 32.1486343 -3.12453021 32.62463066 -3.61682481 33.11505115 C-5.20509409 34.69496521 -6.80039444 36.26757837 -8.39575195 37.84033203 C-9.54127509 38.97709816 -10.68631784 40.11434857 -11.83091736 41.25204468 C-14.28910315 43.69378595 -16.75022108 46.13251905 -19.21355629 48.56906509 C-23.1059444 52.42001722 -26.98902879 56.28025883 -30.8704071 60.14230347 C-41.90601747 71.12038314 -52.95171323 82.08824704 -64.01196289 93.04150391 C-70.12592809 99.09648387 -76.23097489 105.1603094 -82.32629079 111.23406398 C-86.18527399 115.07837751 -90.05509459 118.91133258 -93.93314993 122.73640084 C-96.33706959 125.11266674 -98.73052226 127.49925767 -101.12105751 129.88898087 C-102.23460013 130.99793871 -103.35246689 132.10257324 -104.47483444 133.20259857 C-106.00184213 134.7004167 -107.5128373 136.21271954 -109.02070618 137.72976685 C-109.87185658 138.57371065 -110.72300699 139.41765446 -111.59994984 140.28717232 C-113.51600772 142.38787606 -113.51600772 142.38787606 -113.14567852 144.69413567 C-111.8255225 147.55248371 -110.22038419 150.19399768 -108.58984375 152.88671875 C-94.01153023 177.89776067 -90.24365184 206.85154764 -97.01953125 235.0234375 C-101.33856441 251.32419417 -109.33049839 265.80674016 -120.27734375 278.57421875 C-120.75558594 279.18523437 -121.23382813 279.79625 -121.7265625 280.42578125 C-137.2966735 299.96649362 -162.57651364 310.88471673 -186.54296875 315.15625 C-212.72244153 318.08637928 -237.75274658 313.41463388 -260.27734375 299.57421875 C-260.95410156 299.00058594 -261.63085938 298.42695313 -262.328125 297.8359375 C-264.14647258 296.37999988 -264.14647258 296.37999988 -266.09486008 296.71149635 C-269.14660219 297.91783127 -270.83997831 299.78457359 -273.14630127 302.11605835 C-273.85962447 302.83082838 -273.85962447 302.83082838 -274.58735824 303.56003821 C-276.18036759 305.15981836 -277.76238284 306.77004602 -279.34472656 308.38037109 C-280.48434809 309.52902381 -281.62467022 310.67698181 -282.76564026 311.82429504 C-285.22252917 314.29745414 -287.67477612 316.7750953 -290.12366486 319.25617599 C-293.99848962 323.18109177 -297.88578479 327.09349307 -301.77532959 331.0038147 C-312.13635863 341.42403803 -322.48141992 351.86006525 -332.81759524 362.30493987 C-339.60588623 369.16453057 -346.40130516 376.01688296 -353.21046138 382.85576785 C-357.07582299 386.73916848 -360.92946014 390.63372734 -364.77468824 394.53705955 C-367.17405355 396.96742469 -369.58386866 399.38721739 -371.99668694 401.8042202 C-373.11044025 402.92412211 -374.21990144 404.04831221 -375.32460976 405.17713737 C-386.62072991 416.71054417 -386.62072991 416.71054417 -395.74609375 417.89453125 C-402.20648391 417.27333989 -406.10863114 414.48516556 -410.27734375 409.57421875 C-412.85243308 404.83605438 -412.76434452 399.70180762 -411.27734375 394.57421875 C-408.74863794 390.47092509 -406.0130001 387.06407479 -402.60058594 383.67041016 C-401.67993347 382.74990875 -400.75928101 381.82940735 -399.81072998 380.88101196 C-398.81533402 379.89582615 -397.81982772 378.9107518 -396.82421875 377.92578125 C-395.79816665 376.9034644 -394.772559 375.8807013 -393.74737549 374.85751343 C-391.06227233 372.18000644 -388.37121558 369.50856327 -385.67883301 366.83837891 C-382.92676695 364.10685824 -380.18043115 361.36958932 -377.43359375 358.6328125 C-372.05373866 353.27433637 -366.66757484 347.92225943 -361.27734375 342.57421875 C-364.54435616 339.27211381 -367.83275028 336.22130955 -371.46484375 333.32421875 C-376.90782549 328.91730056 -382.10339925 324.29115869 -387.27734375 319.57421875 C-389.00623075 318.03223846 -390.73539569 316.49056974 -392.46484375 314.94921875 C-399.21519019 308.86335954 -405.37181498 302.47753823 -411.27734375 295.57421875 C-412.06753906 294.67316406 -412.85773438 293.77210938 -413.671875 292.84375 C-437.94426235 264.95342872 -460.69460143 234.93108124 -458.27734375 196.57421875 C-454.86486592 166.39720889 -425.75269743 135.93972807 -406.27734375 114.57421875 C-404.75635123 112.86602715 -403.23551737 111.15769426 -401.71484375 109.44921875 C-395.31114637 102.34511697 -388.60511383 95.72083027 -381.27734375 89.57421875 C-380.73609863 89.11917969 -380.19485352 88.66414063 -379.63720703 88.1953125 C-365.06963386 76.00174309 -349.86807053 64.86487084 -333.27734375 55.57421875 C-332.50970703 55.14254395 -331.74207031 54.71086914 -330.95117188 54.26611328 C-293.68834826 33.52117769 -251.90023485 21.96173911 -209.27734375 20.57421875 C-208.20613281 20.53296875 -207.13492188 20.49171875 -206.03125 20.44921875 C-162.66276623 19.59989716 -120.81517842 30.75381731 -82.11157227 49.79443359 C-81.39670654 50.14586426 -80.68184082 50.49729492 -79.9453125 50.859375 C-79.32938232 51.1675415 -78.71345215 51.47570801 -78.07885742 51.79321289 C-77.48435791 52.05094482 -76.8898584 52.30867676 -76.27734375 52.57421875 C-75.68728043 52.85234909 -75.0972171 53.13047943 -74.48927307 53.41703796 C-72.05941689 53.83552391 -72.05941689 53.83552391 -69.83807373 51.70257568 C-68.92954651 50.76786438 -68.02101929 49.83315308 -67.08496094 48.87011719 C-66.58028793 48.35814285 -66.07561493 47.84616852 -65.5556488 47.31867981 C-64.45936109 46.20334251 -63.36888907 45.08226625 -62.28356171 43.95626068 C-60.56208291 42.17100833 -58.82549533 40.40180982 -57.08404541 38.63604736 C-52.75883442 34.24392759 -48.46087564 29.82544387 -44.16229248 25.4072876 C-40.53514075 21.68119296 -36.89774478 17.96568621 -33.24625397 14.26343536 C-31.54082975 12.52575534 -29.85126272 10.77363229 -28.1618042 9.02044678 C-20.50640754 1.18378977 -11.1056916 -6.95296301 0 0 Z M-380.359375 134.75 C-382.04004539 136.65966685 -383.65579969 138.61411054 -385.27734375 140.57421875 C-386.57478516 142.03988281 -386.57478516 142.03988281 -387.8984375 143.53515625 C-398.71613947 155.77222121 -408.09814677 168.95413884 -416.90234375 182.69921875 C-417.64774414 183.85296997 -417.64774414 183.85296997 -418.40820312 185.0300293 C-424.01774383 193.95102736 -427.39808784 202.88761898 -425.65234375 213.51171875 C-423.38116841 222.92951301 -417.96038241 230.9543926 -412.58984375 238.88671875 C-411.66401489 240.2624707 -411.66401489 240.2624707 -410.71948242 241.66601562 C-405.83607589 248.86648724 -400.76935114 255.82511227 -395.27734375 262.57421875 C-394.86484375 263.08291504 -394.45234375 263.59161133 -394.02734375 264.11572266 C-388.45748383 270.94856529 -382.59359411 277.49565411 -376.58984375 283.94921875 C-375.98438721 284.60317627 -375.37893066 285.25713379 -374.75512695 285.9309082 C-370.50359682 290.45316306 -365.99745526 294.54864046 -361.27734375 298.57421875 C-360.11214141 299.59375085 -358.94803057 300.61453212 -357.78515625 301.63671875 C-351.20524536 307.36717784 -344.59407338 312.78631273 -337.27734375 317.57421875 C-333.81422872 316.081492 -331.53635161 314.10205871 -328.86010742 311.46337891 C-327.99628952 310.6155484 -327.13247162 309.7677179 -326.24247742 308.89419556 C-324.85788078 307.51764297 -324.85788078 307.51764297 -323.4453125 306.11328125 C-322.48463804 305.16157605 -321.52388762 304.20994753 -320.56306458 303.25839233 C-318.55467583 301.26646365 -316.55069608 299.27020942 -314.54907227 297.27148438 C-311.98046219 294.70827739 -309.39605774 292.16164472 -306.80747509 289.61863136 C-304.81996707 287.66081297 -302.84375517 285.69188895 -300.87053871 283.71967697 C-299.46060131 282.31600216 -298.03908604 280.92398823 -296.61747742 279.53213501 C-295.76942032 278.67800018 -294.92136322 277.82386536 -294.04760742 276.94384766 C-293.29356125 276.19487213 -292.53951508 275.44589661 -291.76261902 274.67422485 C-290.04243644 272.71635413 -290.04243644 272.71635413 -290.43940735 270.48397827 C-291.70865332 267.5912115 -293.32915566 264.96294079 -294.96484375 262.26171875 C-309.54604132 237.24572885 -313.29485445 208.31539016 -306.54296875 180.13671875 C-302.3115801 164.15147273 -294.48917281 150.47825729 -284.27734375 137.57421875 C-283.77460938 136.91550781 -283.271875 136.25679688 -282.75390625 135.578125 C-266.75358523 115.55460187 -239.25495758 103.36983034 -214.27734375 100.57421875 C-190.21602337 99.20782611 -161.51607572 101.96234117 -142.2265625 118.3125 C-140.3983382 119.78564481 -140.3983382 119.78564481 -138.4019165 119.37620544 C-135.73734708 118.37038005 -134.34725436 117.01834507 -132.33496094 115.00415039 C-131.57447449 114.24989273 -130.81398804 113.49563507 -130.03045654 112.71852112 C-129.21989807 111.8987529 -128.4093396 111.07898468 -127.57421875 110.234375 C-126.73642883 109.39708359 -125.89863892 108.55979218 -125.03546143 107.6971283 C-123.26678159 105.92610795 -121.50179416 104.15139353 -119.74023438 102.37329102 C-117.03285987 99.64228302 -114.31237377 96.92487528 -111.58984375 94.20898438 C-109.87550745 92.48907295 -108.16193903 90.7683957 -106.44921875 89.046875 C-105.63056335 88.22913101 -104.81190796 87.41138702 -103.96844482 86.56886292 C-103.22056702 85.81145309 -102.47268921 85.05404327 -101.70214844 84.27368164 C-101.03914734 83.60607315 -100.37614624 82.93846466 -99.6930542 82.25062561 C-98.06227656 80.68525032 -98.06227656 80.68525032 -98.27734375 78.57421875 C-191.26711015 34.13663127 -291.74346596 53.62511564 -380.359375 134.75 Z M-251.27734375 150.57421875 C-252.16035156 151.3528125 -253.04335937 152.13140625 -253.953125 152.93359375 C-267.94327253 166.01428494 -276.34824122 183.26687372 -277.515625 202.5 C-277.94222227 219.25015998 -274.50640423 232.9884402 -266.27734375 247.57421875 C-260.38444308 242.68505852 -254.97961012 237.41203109 -249.57836914 231.98876953 C-248.62189882 231.0320166 -247.66520719 230.07548487 -246.70831299 229.11915588 C-244.13012034 226.54124835 -241.55500714 223.96028497 -238.98046422 221.37873316 C-236.28235396 218.67434141 -233.58138245 215.97281027 -230.88072205 213.27096558 C-225.77550306 208.16264735 -220.67283701 203.05178699 -215.57109874 197.93999279 C-209.75924958 192.11693864 -203.94453647 186.2967479 -198.1295892 180.47678781 C-186.17566659 168.51243269 -174.22531898 156.54451305 -162.27734375 144.57421875 C-187.37441249 124.01450281 -228.24100612 129.86190103 -251.27734375 150.57421875 Z M-141.00898075 169.18280792 C-141.76761638 169.94236534 -142.526252 170.70192276 -143.30787659 171.48449707 C-144.17590912 172.35115494 -145.04394165 173.21781281 -145.9382782 174.11073303 C-146.90754726 175.08354177 -147.87676867 176.056398 -148.84594727 177.02929688 C-149.86064551 178.04427696 -150.87556355 179.05903736 -151.89068604 180.07359314 C-154.65517955 182.83779856 -157.41656897 185.60508658 -160.17743421 188.37291527 C-163.05978359 191.26149627 -165.94494622 194.14726447 -168.82981873 197.0333252 C-174.29647287 202.50309323 -179.76057191 207.97540642 -185.22377008 213.44862604 C-191.44178304 219.67779837 -197.66262003 225.90414713 -203.8837024 232.13025379 C-216.6847401 244.94175717 -229.48220574 257.75682335 -242.27734375 270.57421875 C-228.75065154 281.65539131 -210.2809089 284.11504192 -193.27734375 282.57421875 C-178.30030793 280.61001733 -164.55920336 274.73985196 -153.27734375 264.57421875 C-152.38273437 263.77242188 -151.488125 262.970625 -150.56640625 262.14453125 C-139.86708683 252.03147591 -133.46508198 240.69723876 -129.27734375 226.57421875 C-129.03113281 225.75824219 -128.78492188 224.94226563 -128.53125 224.1015625 C-123.65781392 204.50698847 -128.60247417 184.72265331 -138.27734375 167.57421875 C-139.54915047 167.46078598 -139.54915047 167.46078598 -141.00898075 169.18280792 Z " fill="#000000" transform="translate(458.27734375,48.42578125)"/>
<path d="M0 0 C22.86651519 13.01227527 46.71099773 51.81448145 54.30859375 76.37890625 C59.37030774 95.5676638 55.87543354 114.62081771 46.36035156 131.68115234 C39.142394 143.98484239 30.83678858 155.80784811 22 167 C21.28714844 167.90492188 20.57429688 168.80984375 19.83984375 169.7421875 C14.98190643 175.79104772 9.84451386 181.52838087 4.5703125 187.2109375 C2.41922571 189.5450955 0.32074342 191.90746617 -1.75 194.3125 C-7.3574231 200.75903867 -13.51590949 206.45153329 -20 212 C-20.91265625 212.80179688 -21.8253125 213.60359375 -22.765625 214.4296875 C-37.65623745 227.41069345 -53.83619427 238.26186289 -71 248 C-71.77956055 248.44472656 -72.55912109 248.88945312 -73.36230469 249.34765625 C-109.98133665 270.02591281 -152.08506271 280.75036212 -194 282 C-195.65708984 282.061875 -195.65708984 282.061875 -197.34765625 282.125 C-213.48664463 282.43875919 -229.78333666 280.7468332 -245.6875 278.125 C-246.63681396 277.97579102 -247.58612793 277.82658203 -248.56420898 277.67285156 C-255.41669992 276.45975786 -260.03070117 274.59118267 -264.375 268.875 C-266.66080449 264.37090423 -266.89330377 259.92857255 -266 255 C-263.84098002 249.76172201 -261.15546374 246.48088067 -256 244 C-247.13612718 242.75978734 -238.14419547 244.45214819 -229.39526367 245.85522461 C-171.37547744 255.13066547 -110.91682644 236.79036544 -63.73828125 202.96875 C-47.35001281 191.00344627 -30.99052566 177.6502238 -18 162 C-17.13375 161.02160156 -16.2675 160.04320312 -15.375 159.03515625 C-4.55934063 146.79875014 4.82178055 133.6185538 13.625 119.875 C14.12193359 119.10583252 14.61886719 118.33666504 15.13085938 117.54418945 C21.47364072 107.45709977 23.04785357 98.91628823 22 87 C21.20237586 83.5861687 19.81542706 80.98493398 18 78 C17.05060547 76.32550781 17.05060547 76.32550781 16.08203125 74.6171875 C6.08685429 57.22162605 -6.42028576 41.51720534 -19.3203125 26.20703125 C-22.79518212 21.64121419 -22.58527503 16.50158526 -22 11 C-20.68276463 6.79436901 -18.38925474 4.309815 -14.9375 1.5625 C-10.28418951 -0.75412656 -5.04888091 -0.97673941 0 0 Z " fill="#000000" transform="translate(456,161)"/>
</svg>
