<?xml version="1.0" encoding="UTF-8"?>
<svg version="1.1" xmlns="http://www.w3.org/2000/svg" width="512" height="512">
<path d="M0 0 C0.74357758 -0.00511093 1.48715515 -0.01022186 2.25326538 -0.01548767 C4.70741866 -0.02936983 7.16129068 -0.02842798 9.61547852 -0.02612305 C11.32414352 -0.03001071 13.03280755 -0.03434552 14.74147034 -0.03910828 C18.32165663 -0.04656749 21.90174431 -0.04628136 25.48193359 -0.04101562 C30.06638485 -0.03522102 34.65043209 -0.05215308 39.23481655 -0.0753603 C42.76331435 -0.09010298 46.29171497 -0.09096862 49.82023811 -0.08785057 C51.51030337 -0.0883635 53.20037411 -0.093596 54.89040947 -0.10366249 C57.25533057 -0.1160203 59.61946617 -0.1092397 61.984375 -0.09765625 C62.68012131 -0.10529999 63.37586761 -0.11294373 64.09269714 -0.12081909 C68.41679429 -0.07408352 71.12522074 0.62046326 74.55688477 3.2746582 C76.83890966 6.69769554 76.80595835 7.90078588 76.80298042 11.92247295 C76.80696252 13.1058338 76.81094462 14.28919465 76.81504738 15.50841492 C76.80630886 17.46801792 76.80630886 17.46801792 76.7973938 19.46720886 C76.79826549 20.86398135 76.8000158 22.26075351 76.80257213 23.65752393 C76.80705682 27.50451945 76.79902666 31.3514042 76.78901601 35.1983856 C76.7803999 39.34356589 76.78330036 43.48873966 76.78482056 47.63392639 C76.78587058 54.81865615 76.77958178 62.00334966 76.76834488 69.1880703 C76.75210866 79.57603676 76.7468838 89.96398566 76.7443689 100.35196344 C76.73998884 117.20470432 76.72667132 134.05742587 76.70776367 150.91015625 C76.6894129 167.28352766 76.67525247 183.65689382 76.66674805 200.03027344 C76.6662226 201.03908977 76.66569715 202.04790611 76.66515578 203.08729263 C76.66254576 208.14809678 76.66001833 213.20890097 76.65753198 218.26970518 C76.63678981 260.27136977 76.60140743 302.27301257 76.55688477 344.2746582 C84.80688477 344.2746582 93.05688477 344.2746582 101.55688477 344.2746582 C101.55244354 341.01593338 101.54800232 337.75720856 101.54342651 334.3997345 C101.50364071 304.52663158 101.47377675 274.65353534 101.45475411 244.78041231 C101.45225265 240.86630346 101.44966401 236.95219469 101.44702148 233.03808594 C101.44649686 232.25884703 101.44597224 231.47960813 101.44543172 230.67675593 C101.43672566 218.05423119 101.42095457 205.43172464 101.40257917 192.8092107 C101.38388574 179.86037559 101.37276922 166.91155002 101.36870778 153.96270198 C101.36596156 145.97055573 101.35728328 137.9784609 101.34105183 129.98633047 C101.3292447 123.8612016 101.32797202 117.73611205 101.3306694 111.61097336 C101.33011787 109.09586838 101.32612235 106.58076151 101.31847382 104.06566811 C101.30856042 100.63853971 101.31090282 97.21163339 101.31637573 93.78450012 C101.31055005 92.78352682 101.30472437 91.78255353 101.29872215 90.7512477 C101.34234337 80.68288377 101.34234337 80.68288377 105.19947815 76.48840332 C108.51408432 74.78183008 111.63199346 74.84002564 115.27539062 74.85473633 C116.04822891 74.84626678 116.8210672 74.83779724 117.61732483 74.82907104 C120.16896068 74.8056952 122.71999375 74.80467898 125.27172852 74.8059082 C127.04765565 74.79880704 128.82358049 74.79110811 130.59950256 74.78283691 C134.32095722 74.76939084 138.04219973 74.76782392 141.76367188 74.77368164 C146.5299738 74.77957839 151.29525734 74.74898835 156.06136227 74.70856476 C159.72886122 74.68270083 163.39611451 74.67980912 167.06369209 74.68345642 C168.82076134 74.68176399 170.57784178 74.67210954 172.3348217 74.65431213 C174.79356701 74.63214664 177.25024545 74.64180992 179.70898438 74.65942383 C180.4327829 74.64616058 181.15658142 74.63289734 181.90231323 74.61923218 C185.39371494 74.67727575 187.36650533 75.14187688 190.24502182 77.14951611 C193.59001527 81.67122872 193.23712445 85.40782624 193.15815735 90.89839172 C193.16456553 92.52188664 193.16456553 92.52188664 193.17110318 94.17817944 C193.1793508 97.81142494 193.15181692 101.4435207 193.12451172 105.07666016 C193.12310164 107.67834954 193.12389243 110.28004091 193.12672424 112.88172913 C193.12934528 118.48628493 193.11366582 124.09054956 193.08553505 129.69503212 C193.04488948 137.79810846 193.03187679 145.90104409 193.02559509 154.00421133 C193.01465354 167.1511621 192.98138319 180.2979577 192.93408203 193.44482422 C192.8881828 206.21532414 192.8527927 218.9857819 192.83154297 231.75634766 C192.83022935 232.54360087 192.82891573 233.33085409 192.82756231 234.14196346 C192.82103709 238.09140483 192.81471856 242.04084651 192.80850279 245.99028838 C192.75667411 278.75186262 192.66723608 311.51322862 192.55688477 344.2746582 C201.13688477 344.2746582 209.71688477 344.2746582 218.55688477 344.2746582 C218.54800232 341.74034119 218.53911987 339.20602417 218.52996826 336.59490967 C218.44831951 312.75602541 218.38874352 288.91715955 218.34963608 265.07816696 C218.32899505 252.82117957 218.30084495 240.56429467 218.25512695 228.30737305 C218.21530644 217.62648205 218.18946317 206.94566525 218.18053079 196.26470208 C218.17530795 190.60715823 218.16300027 184.94982669 218.13396454 179.29235077 C218.10687112 173.97034852 218.0984275 168.64864662 218.10445404 163.32658195 C218.10335108 161.37060096 218.09536121 159.41461021 218.08006287 157.45868874 C218.06022992 154.79286746 218.06492089 152.1281877 218.0758667 149.46234131 C218.06421533 148.68413017 218.05256397 147.90591903 218.04055953 147.10412574 C218.07924853 143.63029619 218.29239479 141.63762907 220.36400223 138.79467392 C223.58739306 136.56035236 226.69149853 136.7160216 230.47485352 136.75708008 C231.26880524 136.7500708 232.06275696 136.74306152 232.88076782 136.73583984 C235.50233041 136.71825035 238.12281141 136.72988547 240.74438477 136.7434082 C242.56754768 136.74071355 244.39070919 136.73683135 246.21386719 136.73181152 C250.0337493 136.7259152 253.85325712 136.73448366 257.6730957 136.75317383 C262.56943046 136.77596357 267.46488822 136.76284119 272.3611908 136.73888397 C276.12559619 136.72442956 279.88979367 136.72903032 283.65420532 136.73939514 C285.45952457 136.74206342 287.26486271 136.7387891 289.07015991 136.72947693 C291.59358719 136.71931703 294.11559451 136.73480333 296.63891602 136.75708008 C297.38501129 136.74898315 298.13110657 136.74088623 298.89981079 136.73254395 C302.28880292 136.78796896 304.22328871 137.03021195 306.98925781 139.05700684 C310.09889292 143.45606781 309.69708365 148.08860186 309.67713928 153.31048584 C309.67842092 154.53455277 309.67842092 154.53455277 309.67972845 155.78334832 C309.68137713 158.52103376 309.67587185 161.25865809 309.67041016 163.99633789 C309.67012813 165.95749409 309.67028633 167.91865039 309.67085266 169.87980652 C309.67114002 175.20792134 309.66525317 180.53601374 309.6582787 185.86412334 C309.65203498 191.43083775 309.65144056 196.99755265 309.6502533 202.56427002 C309.64714299 213.10747524 309.63893364 223.65067012 309.62890381 234.19387078 C309.61773335 246.19615218 309.61222986 258.19843406 309.60720837 270.20071936 C309.5967508 294.89203824 309.57895614 319.58334721 309.55688477 344.2746582 C317.80688477 344.2746582 326.05688477 344.2746582 334.55688477 344.2746582 C334.54578171 342.35643753 334.53467865 340.43821686 334.52323914 338.46186829 C334.42199188 320.40676623 334.34668057 302.35172147 334.29782391 284.29639912 C334.27203724 275.01340144 334.23687796 265.73061561 334.1796875 256.44775391 C334.12986659 248.35722643 334.09759711 240.26685238 334.08644229 232.17617577 C334.07992126 227.89175087 334.06458578 223.60776489 334.02823448 219.32348061 C333.99429548 215.29082989 333.98382737 211.25879887 333.99134636 207.22601891 C333.98997085 205.74614469 333.98002521 204.26624974 333.96085739 202.78649902 C333.93595999 200.76527404 333.94494673 198.74371652 333.95561218 196.72236633 C333.95100322 195.59132634 333.94639425 194.46028635 333.94164562 193.29497242 C334.75833801 189.28568976 336.39333584 187.78776128 339.55688477 185.2746582 C342.37967222 184.79417334 344.59193493 184.61764345 347.40478516 184.67529297 C348.17937576 184.67135025 348.95396637 184.66740753 349.75202942 184.66334534 C352.30353197 184.6566513 354.85323099 184.68575974 357.40454102 184.71606445 C359.18142856 184.72031636 360.95832167 184.72264333 362.73521423 184.72312927 C366.45508075 184.72928959 370.17434391 184.75196575 373.89404297 184.78759766 C378.66124735 184.83290264 383.42790604 184.84762569 388.19530582 184.85133457 C391.8627612 184.85576386 395.53010216 184.87106842 399.19750786 184.89021111 C400.95536801 184.89908727 402.71324035 184.9058202 404.47111702 184.91037178 C406.92707952 184.91941869 409.38254991 184.94181229 411.83837891 184.96826172 C412.92711304 184.96925873 412.92711304 184.96925873 414.0378418 184.97027588 C420.61198816 185.06794857 420.61198816 185.06794857 423.55688477 187.2746582 C425.76539475 190.69380401 425.80397726 193.54823963 425.7973938 197.56414795 C425.80151779 199.50344429 425.80151779 199.50344429 425.8057251 201.48191833 C425.79864722 202.91250703 425.79137761 204.34309479 425.78393555 205.77368164 C425.78337134 207.28164157 425.78368818 208.78960204 425.78482056 210.29756165 C425.7853947 214.39021756 425.77363041 218.4827564 425.75967264 222.57538509 C425.74717557 226.85284266 425.74599559 231.13030287 425.74362183 235.40777588 C425.73740405 243.50730029 425.7209892 251.60677076 425.70092285 259.70627141 C425.67857312 268.92746289 425.66757275 278.14865694 425.65753198 287.36986876 C425.63662324 306.3381625 425.60144146 325.30640601 425.55688477 344.2746582 C426.56271606 344.2432373 426.56271606 344.2432373 427.58886719 344.21118164 C430.64055257 344.12779793 433.69199794 344.07592805 436.74438477 344.0246582 C437.79948242 343.99114258 438.85458008 343.95762695 439.94165039 343.9230957 C447.78945439 343.82406979 447.78945439 343.82406979 451.75366211 346.15161133 C453.80367573 348.56522065 454.23558446 349.63859596 454.18188477 352.7746582 C454.19477539 353.5274707 454.20766602 354.2802832 454.22094727 355.0559082 C453.21141218 358.42894308 451.4999789 359.39930317 448.55688477 361.2746582 C445.69511391 361.65919203 443.22275262 361.81299191 440.36557007 361.77802277 C439.54074922 361.78383653 438.71592837 361.78965029 437.86611295 361.79564023 C435.0900537 361.81028934 432.31487181 361.79633221 429.53881836 361.78259277 C427.53340896 361.78719974 425.52800292 361.79355128 423.52260399 361.80150175 C418.0022975 361.81824614 412.48226655 361.80992545 406.96195889 361.79755688 C401.01231935 361.78852961 395.06272816 361.80246456 389.11309814 361.81347656 C378.12828847 361.83026092 367.14356098 361.82877027 356.15874809 361.81783069 C346.01140122 361.80777455 335.86408667 361.80513881 325.71673584 361.80992126 C325.04404063 361.81022681 324.37134541 361.81053235 323.6782655 361.81084714 C320.94768186 361.81209247 318.21709825 361.81336606 315.48651465 361.8146862 C289.86349346 361.82692644 264.24052842 361.81582165 238.61751589 361.79429861 C215.84532231 361.77531571 193.07321819 361.7770142 170.30102539 361.79614258 C144.72533355 361.81755398 119.14969133 361.82605842 93.57399178 361.81369352 C90.84833909 361.81241062 88.1226864 361.81115927 85.39703369 361.80992126 C84.72589217 361.80960496 84.05475066 361.80928865 83.36327152 361.80896275 C73.2214765 361.80440991 63.07971731 361.80973945 52.93792725 361.81983948 C41.40801636 361.83126455 29.87820603 361.82805688 18.34830713 361.8067165 C12.46216742 361.79618217 6.57620959 361.79212487 0.69007111 361.80531311 C-4.69361581 361.81719342 -10.07695149 361.81074658 -15.46060634 361.7894029 C-17.41275011 361.7849183 -19.36492329 361.78724446 -21.31704831 361.79690605 C-23.96239282 361.80899873 -26.6065205 361.79666807 -29.25180054 361.77802277 C-30.01694812 361.78738743 -30.78209569 361.7967521 -31.57042956 361.80640054 C-35.23822748 361.7544195 -37.29004958 361.37219244 -40.4135685 359.38186979 C-42.72124009 356.98589032 -43.12422998 356.05175929 -43.06811523 352.7746582 C-43.08100586 352.0218457 -43.09389648 351.2690332 -43.10717773 350.4934082 C-42.05506239 346.97810518 -40.61864108 346.13913374 -37.44311523 344.2746582 C-33.49467198 343.78013436 -29.60190277 343.89850857 -25.63061523 344.0246582 C-24.55618164 344.04270508 -23.48174805 344.06075195 -22.37475586 344.0793457 C-19.72996059 344.12636429 -17.08699934 344.19206661 -14.44311523 344.2746582 C-14.44482398 343.20788344 -14.44482398 343.20788344 -14.44656724 342.11955768 C-14.51366693 299.9912372 -14.56515743 257.86292291 -14.59631122 215.73455976 C-14.60006345 210.67883402 -14.60394641 205.62310839 -14.60791016 200.56738281 C-14.60869709 199.56085719 -14.60948402 198.55433156 -14.6102948 197.51730516 C-14.62335715 181.20885319 -14.64701556 164.90043287 -14.67457362 148.59199969 C-14.70260474 131.86440396 -14.71928663 115.13682483 -14.72538072 98.40920657 C-14.72950193 88.08312438 -14.74252949 77.75713163 -14.76686464 67.43107697 C-14.78269352 60.35502314 -14.78752206 53.27901571 -14.78361937 46.20294545 C-14.78169337 42.11730203 -14.78469486 38.03181517 -14.80073166 33.94619942 C-14.81530038 30.20738326 -14.81608747 26.46882937 -14.80581192 22.73000129 C-14.80393855 20.73345312 -14.81690447 18.73690815 -14.83035916 16.74040443 C-14.82438602 15.55654488 -14.81841287 14.37268532 -14.81225872 13.15295124 C-14.81396746 11.62021013 -14.81396746 11.62021013 -14.81571072 10.05650455 C-14.38032275 6.80584134 -13.3404674 4.92515992 -11.44311523 2.2746582 C-8.00057552 -0.31445203 -4.13752498 -0.01469018 0 0 Z M2.55688477 17.2746582 C2.55688477 125.1846582 2.55688477 233.0946582 2.55688477 344.2746582 C21.36688477 344.2746582 40.17688477 344.2746582 59.55688477 344.2746582 C59.55688477 236.3646582 59.55688477 128.4546582 59.55688477 17.2746582 C40.74688477 17.2746582 21.93688477 17.2746582 2.55688477 17.2746582 Z M118.55688477 92.2746582 C118.55688477 175.4346582 118.55688477 258.5946582 118.55688477 344.2746582 C137.36688477 344.2746582 156.17688477 344.2746582 175.55688477 344.2746582 C175.55688477 261.1146582 175.55688477 177.9546582 175.55688477 92.2746582 C156.74688477 92.2746582 137.93688477 92.2746582 118.55688477 92.2746582 Z M235.55688477 154.2746582 C235.55688477 216.9746582 235.55688477 279.6746582 235.55688477 344.2746582 C254.36688477 344.2746582 273.17688477 344.2746582 292.55688477 344.2746582 C292.55688477 281.5746582 292.55688477 218.8746582 292.55688477 154.2746582 C273.74688477 154.2746582 254.93688477 154.2746582 235.55688477 154.2746582 Z M351.55688477 202.2746582 C351.55688477 249.1346582 351.55688477 295.9946582 351.55688477 344.2746582 C370.36688477 344.2746582 389.17688477 344.2746582 408.55688477 344.2746582 C408.55688477 297.4146582 408.55688477 250.5546582 408.55688477 202.2746582 C389.74688477 202.2746582 370.93688477 202.2746582 351.55688477 202.2746582 Z " fill="#000000" transform="translate(50.443115234375,129.725341796875)"/>
<path d="M0 0 C2.17578125 1.2578125 2.17578125 1.2578125 4.3125 3.125 C5.17359375 3.85589844 6.0346875 4.58679688 6.921875 5.33984375 C7.40462891 5.75862793 7.88738281 6.17741211 8.38476562 6.60888672 C11.56907134 9.35135558 14.82044491 12.01381425 18.0625 14.6875 C18.79065918 15.28965332 19.51881836 15.89180664 20.26904297 16.51220703 C26.62225002 21.74303726 33.12732444 26.75167409 39.6875 31.71875 C43.38237084 34.51850641 47.03556175 37.36815298 50.68188477 40.23071289 C59.55293206 47.18909364 68.59921158 53.85657337 77.77636719 60.40429688 C79.95752135 61.96951686 82.12519595 63.5516128 84.2890625 65.140625 C96.59638603 74.15995575 109.25064489 82.62051247 122 91 C122.88510254 91.58313965 123.77020508 92.1662793 124.68212891 92.76708984 C180.90774182 129.76751706 240.10057682 162.37017157 301.84082031 189.18945312 C305.57598998 190.81235982 309.30042201 192.45875585 313.0234375 194.109375 C327.02399856 200.26883971 341.21016152 205.8662855 355.5 211.3125 C356.37279602 211.64548096 357.24559204 211.97846191 358.14483643 212.3215332 C370.68999471 217.09664003 383.31122703 221.62149169 396 226 C395.35933594 224.90945312 394.71867187 223.81890625 394.05859375 222.6953125 C392.15115413 219.44844345 391.08349051 216.84056335 391 213 C392.60411848 209.47093933 393.74159362 208.17227092 397 206 C400.62463784 205.52722115 402.37700485 205.58469061 405.44824219 207.63208008 C408.31563608 210.29289651 409.997811 212.87746444 411.953125 216.26171875 C412.29881531 216.8529805 412.64450562 217.44424225 413.00067139 218.05342102 C414.0931682 219.92617766 415.17192411 221.80641186 416.25 223.6875 C417.34523486 225.57750069 418.4432047 227.46588346 419.54217529 229.35371399 C420.53177171 231.05693868 421.5145906 232.7640958 422.49707031 234.47143555 C423.77377022 236.85595422 423.77377022 236.85595422 425 238 C425.56302521 243.6302521 425.56302521 243.6302521 425 246 C421.14199967 250.60226024 416.24423456 253.91118169 411.375 257.375 C410.57537842 257.94500732 409.77575684 258.51501465 408.9519043 259.10229492 C406.63971022 260.74224993 404.32055822 262.37191259 402 264 C401.40687012 264.42265137 400.81374023 264.84530273 400.20263672 265.28076172 C395.89442891 268.33601128 392.32923873 270.72128865 387.125 271.8125 C384 271 384 271 381 268.4375 C379 265 379 265 378.75 261.5 C381.44502819 253.95392106 389.51307305 250.14810295 396 246 C393.15202789 244.10135193 390.95586875 243.2048077 387.734375 242.14453125 C386.08864502 241.59406128 386.08864502 241.59406128 384.40966797 241.0324707 C382.59813232 240.42858521 382.59813232 240.42858521 380.75 239.8125 C340.88245407 226.31508177 302.02048629 210.02571749 264 192 C262.85934082 191.46052734 261.71868164 190.92105469 260.54345703 190.36523438 C235.20003926 178.34677781 210.21913538 165.69974156 185.91601562 151.67871094 C182.83041321 149.90237117 179.73609283 148.1418986 176.640625 146.3828125 C154.37606884 133.69415935 132.88649094 120.00931548 111.5625 105.8125 C110.67071045 105.21925934 109.7789209 104.62601868 108.86010742 104.01480103 C97.10924568 96.18923463 85.48862199 88.20557746 74 80 C73.09709229 79.35796631 72.19418457 78.71593262 71.26391602 78.05444336 C60.330958 70.26472551 49.61506259 62.21617839 39 54 C38.26249512 53.4313623 37.52499023 52.86272461 36.76513672 52.27685547 C23.52518548 42.06838866 10.46838585 31.65395132 -2.3125 20.875 C-2.84593018 20.42552002 -3.37936035 19.97604004 -3.92895508 19.51293945 C-10.81466075 13.66722129 -10.81466075 13.66722129 -11.9375 9.625 C-12 6 -12 6 -10.1875 3.125 C-6.79064928 -0.17479784 -4.68784637 -0.38434517 0 0 Z " fill="#000000" transform="translate(55,21)"/>
</svg>
