<?xml version="1.0" encoding="UTF-8"?>
<svg version="1.1" xmlns="http://www.w3.org/2000/svg" width="512" height="512">
<path d="M0 0 C1.2065625 0.3403125 2.413125 0.680625 3.65625 1.03125 C32.65101636 9.89741823 56.89314551 29.71265712 72 56 C86.82077546 83.95847835 90.19630148 116.64445298 81.10107422 147.02172852 C76.10044193 162.36832263 68.28922354 175.64587225 58 188 C57.44441406 188.69609375 56.88882813 189.3921875 56.31640625 190.109375 C46.62672288 201.97858065 33.08905048 210.75482317 19.546875 217.625 C16.92628844 218.88284684 16.92628844 218.88284684 15 221 C14.69940057 223.36509361 14.50484988 225.74441881 14.375 228.125 C14.26285156 230.04699219 14.26285156 230.04699219 14.1484375 232.0078125 C14.07496094 233.48894531 14.07496094 233.48894531 14 235 C14.58007812 235.02578125 15.16015625 235.0515625 15.7578125 235.078125 C21.21153183 235.47410462 24.76936272 236.26129728 29 240 C34.81564568 247.84739369 34.58400328 256.60380433 34 266 C32.93716058 271.47831199 31.06916694 276.05414115 27 280 C24.87109375 280.625 24.87109375 280.625 23 281 C23.02618408 281.8564209 23.05236816 282.7128418 23.0793457 283.59521484 C23.16533938 286.81943365 23.22761905 290.04306181 23.2746582 293.26806641 C23.29956805 294.65498264 23.33351002 296.04177087 23.37719727 297.42822266 C23.69698382 307.84950224 22.5444849 315.34258003 15.89453125 323.62109375 C14.86392578 324.52021484 14.86392578 324.52021484 13.8125 325.4375 C13.13832031 326.05496094 12.46414063 326.67242187 11.76953125 327.30859375 C3.66778652 332.2564858 -5.05823123 332.44583442 -14.3125 332.3984375 C-15.56200439 332.40130768 -16.81150879 332.40417786 -18.09887695 332.40713501 C-21.39620034 332.40968353 -24.69309041 332.39772211 -27.99035645 332.38085938 C-29.99859207 332.37500411 -32.0064344 332.38084296 -34.01464844 332.39111328 C-37.90578122 332.40974257 -41.79634231 332.4073757 -45.6875 332.3984375 C-47.4660437 332.40754654 -47.4660437 332.40754654 -49.28051758 332.4168396 C-58.60669039 332.33866638 -67.28027364 331.45117493 -74.375 324.875 C-75.16648437 324.17117188 -75.95796875 323.46734375 -76.7734375 322.7421875 C-83.60238092 314.33180455 -83.51079275 305.84829734 -83.25 295.4375 C-83.22989497 294.03322873 -83.2116513 292.62892952 -83.1953125 291.22460938 C-83.14845439 287.81568219 -83.08285505 284.40821043 -83 281 C-83.77988281 280.71382813 -84.55976563 280.42765625 -85.36328125 280.1328125 C-88.79934562 278.65657744 -90.0080356 277.15966766 -92 274 C-95.29914641 264.92734738 -95.5168292 253.8417636 -91.90625 244.83203125 C-89.78218406 240.53812208 -87.86274778 238.46332751 -83.625 236.1875 C-80.10574227 235.03463971 -77.65233826 234.90226137 -74 235 C-74.03309742 232.74937546 -74.10257876 230.49926535 -74.1875 228.25 C-74.23970703 226.37054688 -74.23970703 226.37054688 -74.29296875 224.453125 C-74.69586773 220.89739424 -74.69586773 220.89739424 -77.23828125 218.71484375 C-79.78829142 217.13145695 -82.32404962 215.67087115 -85 214.3125 C-111.1395205 200.31044191 -131.36441697 176.93129177 -140.47265625 148.578125 C-149.95246405 117.16385243 -147.09870864 85.08681731 -132 56 C-125.15697375 43.78075142 -125.15697375 43.78075142 -120 42 C-116.95262103 42.18657422 -114.7941818 42.50705957 -112.1875 44.125 C-110.31633921 47.07946441 -110.16064996 49.52282089 -110 53 C-111.23365514 55.50289649 -112.41777934 57.49821091 -114 59.75 C-128.59723132 82.38056857 -131.74788593 108.89397062 -126.44873047 134.94482422 C-122.95562297 150.94318055 -114.53662674 167.72645262 -102.734375 179.203125 C-101 181 -101 181 -101 183 C-100.41089844 183.26554688 -99.82179687 183.53109375 -99.21484375 183.8046875 C-96.94187646 185.03136826 -95.42206649 186.3441234 -93.5625 188.125 C-86.90690211 194.08523691 -79.05621457 198.45982574 -71.125 202.5 C-65.7160404 205.44853046 -61.72863616 209.78804569 -58.81640625 215.19921875 C-57.67759195 219.10606015 -57.78757893 222.76985555 -57.875 226.8125 C-57.91625 229.514375 -57.9575 232.21625 -58 235 C-51.4 235 -44.8 235 -38 235 C-38.08436154 220.10940092 -38.17909938 205.21890244 -38.28752708 190.32845879 C-38.33761365 183.41430745 -38.38405695 176.50016773 -38.421875 169.5859375 C-38.45837843 162.91393969 -38.50509872 156.24208502 -38.55806351 149.57019424 C-38.57660297 147.02412275 -38.59171257 144.4780239 -38.60334396 141.93191147 C-38.6202137 138.36707223 -38.64925142 134.80252497 -38.68115234 131.23779297 C-38.68331253 130.18402969 -38.68547272 129.13026642 -38.68769836 128.04457092 C-38.74513458 123.02368178 -38.84019674 118.64215948 -41 114 C-45.04646856 111.30235429 -50.29078112 111.28337974 -55 112 C-57.87029869 113.79393668 -59.49131638 114.98263276 -61 118 C-61.62270317 123.9875305 -60.74222701 127.63477325 -58 133 C-58 136.94040155 -58.52931112 138.46009217 -61.125 141.4375 C-64 143 -64 143 -67.5625 143.0625 C-72.77132087 141.45250082 -74.01925866 138.61121791 -76.75 134.125 C-79.40774764 127.37727405 -79.12266943 118.92414545 -77.15625 112.05078125 C-73.84013571 104.73516426 -68.61009291 100.28393633 -61.9375 96.0625 C-54.63668249 93.37714184 -44.92178028 93.71813702 -37.875 96.875 C-36.56780625 97.55425208 -35.27317323 98.25894075 -34 99 C-31.46955394 100.58377402 -31.46955394 100.58377402 -29 101 C-25.97763043 99.26325246 -25.97763043 99.26325246 -23 97 C-15.50583916 93.95315857 -6.83306615 93.6255169 0.953125 95.83984375 C8.2632553 99.16976507 12.71442665 104.38731954 16.9375 111.0625 C19.39734922 117.80774693 19.16686051 126.33735452 17.015625 133.08984375 C14.98076691 137.36681399 13.14529082 140.5207213 9 143 C5.57180074 142.87971231 3.05274169 142.6667364 0.125 140.8125 C-1.5337914 138.14000274 -1.87669947 136.14416347 -2 133 C-1.525625 132.071875 -1.05125 131.14375 -0.5625 130.1875 C1.47458198 126.03185275 1.78001781 122.55429753 1 118 C-0.79393668 115.12970131 -1.98263276 113.50868362 -5 112 C-9.77139645 111.59691543 -14.90112426 111.26741617 -19 114 C-21.59029017 119.56742381 -21.30652517 125.22674478 -21.31884766 131.23779297 C-21.32889328 132.36032974 -21.3389389 133.48286652 -21.34928894 134.63941956 C-21.38011662 138.34033712 -21.39715522 142.04118235 -21.4140625 145.7421875 C-21.43277445 148.31194684 -21.45234788 150.88170004 -21.4727478 153.45144653 C-21.51882952 159.51797564 -21.55623876 165.58450113 -21.58942068 171.65111268 C-21.62769806 178.56048853 -21.67709342 185.46977106 -21.72740483 192.37906814 C-21.83060708 206.585976 -21.91951104 220.7929465 -22 235 C-15.4 235 -8.8 235 -2 235 C-2.0825 232.36 -2.165 229.72 -2.25 227 C-2.31728243 219.24935699 -1.68226377 214.22182427 3.51953125 208.2578125 C7.59884975 204.25848064 12.26213475 201.70483752 17.3125 199.125 C24.32500457 195.5403691 30.17154651 191.34057099 36 186 C37.37091797 184.76830078 37.37091797 184.76830078 38.76953125 183.51171875 C54.64669613 168.52278687 64.74093987 148.57722569 68 127 C68.19335938 125.7934375 68.19335938 125.7934375 68.390625 124.5625 C68.68807477 122.37076483 68.87261725 120.20796775 69 118 C69.05285156 117.15953125 69.10570312 116.3190625 69.16015625 115.453125 C70.0570228 87.22132568 58.36228473 61.19348029 39.25 40.8125 C19.55915735 22.14353741 -6.49741357 12.62551667 -33.52392578 13.03857422 C-52.89231653 13.93844163 -72.7719394 19.86219221 -88.32421875 31.78125 C-91.13580785 33.82604207 -93.65835837 33.35803303 -97 33 C-99.375 31.9375 -99.375 31.9375 -101 30 C-102.0625 26.6875 -102.0625 26.6875 -102 23 C-98.66596627 18.2595189 -95.10574251 15.37566168 -90.125 12.5 C-89.14370117 11.92536011 -89.14370117 11.92536011 -88.14257812 11.33911133 C-62.57958312 -3.23118427 -28.44859727 -8.56219918 0 0 Z M-77 251 C-78.36538938 253.73077876 -78.13231826 255.95560367 -78.125 259 C-78.12757813 260.0725 -78.13015625 261.145 -78.1328125 262.25 C-78.1872341 264.96182052 -78.1872341 264.96182052 -77 267 C-45.98 267 -14.96 267 17 267 C18.36538938 264.26922124 18.13231826 262.04439633 18.125 259 C18.12757813 257.9275 18.13015625 256.855 18.1328125 255.75 C18.1872341 253.03817948 18.1872341 253.03817948 17 251 C-14.02 251 -45.04 251 -77 251 Z M-67 283 C-69.667435 306.10078628 -69.667435 306.10078628 -62 314 C-58.48766203 315.92837173 -55.54231806 316.25498356 -51.57055664 316.2746582 C-49.97849144 316.28895622 -49.97849144 316.28895622 -48.35426331 316.30354309 C-47.21770798 316.30263168 -46.08115265 316.30172028 -44.91015625 316.30078125 C-43.14423378 316.30720894 -43.14423378 316.30720894 -41.34263611 316.31376648 C-38.85546511 316.31950382 -36.36827734 316.32001445 -33.88110352 316.31567383 C-30.0799492 316.3125145 -26.27957373 316.33597953 -22.47851562 316.36132812 C-20.05989681 316.36360125 -17.64127591 316.36430455 -15.22265625 316.36328125 C-14.08812515 316.372491 -12.95359406 316.38170074 -11.78468323 316.39118958 C-3.9458133 316.37687373 -3.9458133 316.37687373 3 313 C9.60289603 305.81356733 9.60289603 305.81356733 7 283 C-17.42 283 -41.84 283 -67 283 Z " fill="#000000" transform="translate(286,3)"/>
<path d="M0 0 C12.2415003 9.4382299 20.35163487 21.64654998 23.6171875 36.87890625 C25.76213507 54.36679512 23.00954668 70.36631351 11.98828125 84.59765625 C10.3730981 86.45528069 8.73495039 88.2545028 7 90 C8.03898438 90.09796875 9.07796875 90.1959375 10.1484375 90.296875 C25.75438089 91.90863329 38.54894178 96.71542279 49 109 C56.84637406 119.07570597 58.61087364 130.51577142 58.49609375 142.97265625 C58.49754898 144.25812851 58.49900421 145.54360077 58.50050354 146.86802673 C58.50187436 149.5615644 58.48953934 152.25456089 58.46655273 154.94799805 C58.43791159 158.39807503 58.44099179 161.84727283 58.45364285 165.29741764 C58.46225436 168.6059234 58.44717597 171.91416547 58.43359375 175.22265625 C58.43652939 176.46008072 58.43946503 177.69750519 58.44248962 178.97242737 C58.42980545 180.11469284 58.41712128 181.25695831 58.40405273 182.43383789 C58.39864975 183.43911026 58.39324677 184.44438263 58.38768005 185.4801178 C58 188 58 188 56.92810059 189.82164001 C53.99958003 191.61140734 51.07790869 191.43399873 47.74633789 191.41992188 C47.01105362 191.42839142 46.27576935 191.43686096 45.51820374 191.44558716 C43.08617891 191.4689976 40.65478525 191.4699784 38.22265625 191.46875 C36.5325851 191.47584924 34.84251637 191.48354789 33.15245056 191.49182129 C29.60913393 191.50527542 26.06604013 191.50683077 22.52270508 191.50097656 C17.98157733 191.49507992 13.44151852 191.52566524 8.90059757 191.56609344 C5.40984841 191.59194171 1.9193576 191.59485051 -1.57147408 191.59120178 C-3.24563852 191.59289579 -4.91981454 191.60256533 -6.59388542 191.62034607 C-8.93563248 191.64248051 -11.27520383 191.6328649 -13.61694336 191.61523438 C-14.30850525 191.62849762 -15.00006714 191.64176086 -15.71258545 191.65542603 C-19.3502601 191.59178023 -20.77422407 191.21172232 -23.46534729 188.68811035 C-25 186 -25 186 -24.9375 182.375 C-24.00364749 179.01313098 -23.69218757 178.01490768 -21 176 C-18.73168945 175.65942383 -18.73168945 175.65942383 -16.11328125 175.70703125 C-14.7065918 175.7215332 -14.7065918 175.7215332 -13.27148438 175.73632812 C-12.29501953 175.76146484 -11.31855469 175.78660156 -10.3125 175.8125 C-9.32443359 175.82603516 -8.33636719 175.83957031 -7.31835938 175.85351562 C-4.87835769 175.88887797 -2.43945281 175.93822967 0 176 C-0.02320313 174.96359375 -0.04640625 173.9271875 -0.0703125 172.859375 C-0.08907667 171.48959056 -0.10727618 170.1197983 -0.125 168.75 C-0.14175781 168.06808594 -0.15851563 167.38617188 -0.17578125 166.68359375 C-0.21201492 162.95152587 -0.14772666 160.12605054 2 157 C4.67633026 154.9184098 6.11753668 155.00412409 9.5625 155.125 C13 156 13 156 14.703125 157.5390625 C16.55587718 161.05482719 16.31958572 164.38639529 16.1875 168.25 C16.125625 170.8075 16.06375 173.365 16 176 C24.91 176 33.82 176 43 176 C42.90238364 170.93165602 42.79924063 165.86400465 42.68261719 160.79614258 C42.64464218 159.07680811 42.60973823 157.35740266 42.578125 155.63793945 C42.42441422 134.39228367 42.42441422 134.39228367 32.40234375 116.18359375 C25.12620978 109.32029007 16.28092982 107.39614086 6.56835938 107.48242188 C5.08333672 107.47190796 5.08333672 107.47190796 3.5683136 107.46118164 C0.32649903 107.44371241 -2.91442802 107.45518527 -6.15625 107.46875 C-8.42728847 107.46605192 -10.69832581 107.46216686 -12.96936035 107.45715332 C-17.71682796 107.45127324 -22.46399344 107.45977338 -27.21142578 107.47851562 C-33.27726545 107.50130385 -39.34239702 107.48817282 -45.40821075 107.46422577 C-50.09414951 107.44972766 -54.77992216 107.45439223 -59.46586609 107.46473694 C-61.70163559 107.46739312 -63.93742049 107.46417376 -66.173172 107.45481873 C-69.30530382 107.44458709 -72.4363107 107.46024706 -75.56835938 107.48242188 C-76.93555367 107.47027649 -76.93555367 107.47027649 -78.33036804 107.45788574 C-87.11724472 107.57233745 -94.98436475 110.22931676 -101.46875 116.30078125 C-108.69460181 124.31926477 -110.28024989 132.61250309 -110.4140625 143.08984375 C-110.43342865 144.03436905 -110.4527948 144.97889435 -110.4727478 145.95204163 C-110.53217692 148.94710467 -110.57878154 151.94220691 -110.625 154.9375 C-110.66321356 156.97722962 -110.70226723 159.01694369 -110.7421875 161.05664062 C-110.83941796 166.03767611 -110.91927732 171.01856062 -111 176 C-102.42 176 -93.84 176 -85 176 C-85.07876747 171.24341673 -85.07876747 171.24341673 -85.18017578 166.48730469 C-85.21081633 162.81241518 -85.10907126 160.069787 -83 157 C-80.32366974 154.9184098 -78.88246332 155.00412409 -75.4375 155.125 C-72 156 -72 156 -70.296875 157.5390625 C-68.44578209 161.05167857 -68.67938997 164.38639608 -68.8125 168.25 C-68.82603516 168.99507812 -68.83957031 169.74015625 -68.85351562 170.5078125 C-68.88872796 172.33885416 -68.94253149 174.16952169 -69 176 C-68.38479492 175.97905273 -67.76958984 175.95810547 -67.13574219 175.93652344 C-64.34066191 175.85322983 -61.54584285 175.80129987 -58.75 175.75 C-57.78191406 175.71648437 -56.81382812 175.68296875 -55.81640625 175.6484375 C-48.66166957 175.54975148 -48.66166957 175.54975148 -45.359375 177.796875 C-43.35529798 181.04486189 -43.46647145 183.26530012 -44 187 C-45.57653809 189.18640137 -45.57653809 189.18640137 -48 191 C-51.3013916 191.50793457 -51.3013916 191.50793457 -55.27539062 191.51757812 C-56.00106735 191.5245874 -56.72674408 191.53159668 -57.47441101 191.53881836 C-59.86874873 191.55639717 -62.26190066 191.54477706 -64.65625 191.53125 C-66.32247138 191.53394497 -67.98869123 191.53782744 -69.65490723 191.54284668 C-73.14525338 191.54874153 -76.63518979 191.5401795 -80.12548828 191.52148438 C-84.59811263 191.49869445 -89.0697769 191.51181766 -93.54236603 191.53577423 C-96.98251573 191.55023277 -100.42243803 191.54562605 -103.8625946 191.53526306 C-105.5116131 191.53259591 -107.16065227 191.53586515 -108.80964661 191.54518127 C-111.11518992 191.55534829 -113.41918157 191.53984614 -115.72460938 191.51757812 C-117.03602905 191.51439575 -118.34744873 191.51121338 -119.6986084 191.50793457 C-123 191 -123 191 -125.42236328 189.3044281 C-127.33575619 186.50956644 -127.50625319 184.98068573 -127.51757812 181.61157227 C-127.53018677 180.53267227 -127.54279541 179.45377228 -127.55578613 178.34217834 C-127.54768921 177.17867355 -127.53959229 176.01516876 -127.53125 174.81640625 C-127.5350769 173.60991928 -127.53890381 172.40343231 -127.54284668 171.16038513 C-127.54557019 168.60243905 -127.5381785 166.04446532 -127.52148438 163.48657227 C-127.50025041 159.60823695 -127.52118616 155.73178999 -127.546875 151.85351562 C-127.54422853 149.36197513 -127.53909698 146.8704358 -127.53125 144.37890625 C-127.53934692 143.23361954 -127.54744385 142.08833282 -127.55578613 140.90834045 C-127.39923559 127.16033976 -123.24814395 115.0287133 -113.96875 104.75 C-103.19371953 94.44344911 -90.50004273 90.90476457 -76 90 C-76.42410156 89.58492188 -76.84820312 89.16984375 -77.28515625 88.7421875 C-87.8947699 77.59626371 -92.95369924 63.23423559 -93.375 48 C-92.93272019 31.3776504 -86.79263342 16.79263342 -75 5 C-53.38181633 -13.02917263 -23.71393225 -15.98112826 0 0 Z M-66.96484375 20.3203125 C-74.27923769 30.18623921 -77.96149959 40.71028705 -77 53 C-74.91880702 64.65140319 -69.36321746 75.68212072 -59.609375 82.7265625 C-57.12082112 84.27618348 -54.61324683 85.67263653 -52 87 C-51.35289062 87.33 -50.70578125 87.66 -50.0390625 88 C-39.06570986 92.81531086 -27.73041849 91.11912618 -16.82421875 87.22265625 C-6.00004682 82.51555142 1.42974096 73.21295331 6.02734375 62.63671875 C9.97851174 51.51154067 8.98836238 39.59293424 4 29 C-2.52289715 17.60107577 -11.4090475 10.65587272 -23.8671875 6.35546875 C-40.09999862 3.65000023 -56.04178835 7.42111785 -66.96484375 20.3203125 Z " fill="#000000" transform="translate(454,321)"/>
<path d="M0 0 C0.88365234 0.00563965 1.76730469 0.0112793 2.67773438 0.01708984 C18.06863672 0.30305032 32.12711337 6.51323548 43.1875 17.3125 C54.19893313 30.22045413 60.03176428 44.77277186 59.53125 61.89453125 C58.02240861 76.8972155 52.53761217 89.20506255 42.1875 100.3125 C43.71117187 100.44205078 43.71117187 100.44205078 45.265625 100.57421875 C60.88794795 102.08900674 72.99750887 106.84598047 83.4375 119 C89.74558293 127.23450347 93.25954281 136.59735188 93.36450195 146.95727539 C93.38375481 148.61908592 93.38375481 148.61908592 93.40339661 150.31446838 C93.41078354 151.50104538 93.41817047 152.68762238 93.42578125 153.91015625 C93.433853 155.13657333 93.44192474 156.36299042 93.45024109 157.62657166 C93.46405401 160.21628414 93.47478861 162.80601461 93.48266602 165.39575195 C93.49995117 169.36378959 93.54387206 173.33100933 93.58789062 177.29882812 C93.59801173 179.81509805 93.60652964 182.33137503 93.61328125 184.84765625 C93.63078934 186.03625748 93.64829742 187.2248587 93.66633606 188.44947815 C93.66194771 190.10656044 93.66194771 190.10656044 93.6574707 191.79711914 C93.66333694 192.76798965 93.66920319 193.73886017 93.67524719 194.739151 C93.02053381 198.19341183 92.06805277 199.30810849 89.1875 201.3125 C85.8861084 201.82043457 85.8861084 201.82043457 81.91210938 201.83007812 C80.82359428 201.84059204 80.82359428 201.84059204 79.71308899 201.85131836 C77.31875127 201.86889717 74.92559934 201.85727706 72.53125 201.84375 C70.86502862 201.84644497 69.19880877 201.85032744 67.53259277 201.85534668 C64.04224662 201.86124153 60.55231021 201.8526795 57.06201172 201.83398438 C52.58938737 201.81119445 48.1177231 201.82431766 43.64513397 201.84827423 C40.20498427 201.86273277 36.76506197 201.85812605 33.3249054 201.84776306 C31.6758869 201.84509591 30.02684773 201.84836515 28.37785339 201.85768127 C26.07231008 201.86784829 23.76831843 201.85234614 21.46289062 201.83007812 C20.15147095 201.82689575 18.84005127 201.82371338 17.4888916 201.82043457 C14.1875 201.3125 14.1875 201.3125 11.76403809 199.49890137 C9.45874858 196.30184056 9.63880759 194.15334685 10.1875 190.3125 C11.546875 188.109375 11.546875 188.109375 14.1875 186.3125 C17.78209748 185.81732586 21.31785006 185.93718589 24.9375 186.0625 C25.92105469 186.08054687 26.90460938 186.09859375 27.91796875 186.1171875 C30.34213783 186.16425874 32.76432059 186.22999258 35.1875 186.3125 C35.15269531 185.20390625 35.11789063 184.0953125 35.08203125 182.953125 C35.05388651 181.48959852 35.02658708 180.02605561 35 178.5625 C34.97486328 177.83289063 34.94972656 177.10328125 34.92382812 176.3515625 C34.87969735 173.11530552 34.96081706 170.74265136 36.484375 167.8515625 C39.17210684 165.42274061 41.65223995 165.43654421 45.1875 165.3125 C47.76504291 166.07879654 48.77085296 166.70606356 50.28515625 168.91015625 C51.55122049 172.28084677 51.39888636 175.51989483 51.3125 179.0625 C51.27125 181.455 51.23 183.8475 51.1875 186.3125 C59.7675 186.3125 68.3475 186.3125 77.1875 186.3125 C77.11322715 180.35274378 77.03015032 174.39441349 76.92504883 168.43530273 C76.89194772 166.41129126 76.86387043 164.38719076 76.84106445 162.36303711 C76.80724463 159.44086027 76.75491659 156.51948842 76.69921875 153.59765625 C76.68963387 152.25647484 76.68963387 152.25647484 76.67985535 150.88819885 C76.44322337 140.60467015 73.41056863 132.72262021 66.1875 125.3125 C58.7499996 119.41131725 51.50583374 118.01287229 42.20996094 118.02197266 C41.22052994 118.01525543 40.23109894 118.00853821 39.21168518 118.00161743 C35.94836368 117.98265685 32.68524812 117.978714 29.421875 117.9765625 C27.14512041 117.97013258 24.86836664 117.96340408 22.59161377 117.95639038 C17.82033372 117.94442199 13.04912604 117.94070905 8.27783203 117.94189453 C2.18054147 117.94209754 -3.91628206 117.91481151 -10.01346207 117.88035011 C-14.71653349 117.85805008 -19.41949313 117.85405797 -24.122612 117.85511398 C-26.36956133 117.85276209 -28.61651394 117.84396192 -30.86341095 117.82844925 C-34.01506189 117.80872967 -37.16571385 117.81465149 -40.31738281 117.82666016 C-41.23512985 117.81542114 -42.15287689 117.80418213 -43.09843445 117.79260254 C-52.43061126 117.88240913 -60.26159368 120.8723952 -67.05859375 127.33984375 C-77.25005723 138.80240289 -76.17244873 154.08369562 -76.4375 168.5 C-76.47576446 170.23243969 -76.51482081 171.96486207 -76.5546875 173.69726562 C-76.65121498 177.90224395 -76.73150358 182.10708049 -76.8125 186.3125 C-67.9025 186.3125 -58.9925 186.3125 -49.8125 186.3125 C-49.93070701 181.22655675 -49.93070701 181.22655675 -50.08276367 176.14160156 C-50.11990173 172.97088964 -50.00656359 170.67906455 -48.51171875 167.85546875 C-45.79017566 165.3841825 -43.40791849 165.37448997 -39.8125 165.3125 C-36.9375 166.5625 -36.9375 166.5625 -34.8125 168.3125 C-33.6062748 171.93117559 -33.70433082 175.23756251 -33.75 179 C-33.75451172 179.70189453 -33.75902344 180.40378906 -33.76367188 181.12695312 C-33.77543073 182.85550538 -33.79336546 184.58401365 -33.8125 186.3125 C-32.88969238 186.27322388 -32.88969238 186.27322388 -31.94824219 186.2331543 C-29.15325592 186.12904079 -26.35867742 186.06413251 -23.5625 186 C-22.11037109 185.9371582 -22.11037109 185.9371582 -20.62890625 185.87304688 C-13.46936882 185.74960657 -13.46936882 185.74960657 -10.13671875 188.60546875 C-8.33567019 192.28725827 -8.72839672 194.40972819 -9.8125 198.3125 C-10.91674805 199.99917603 -10.91674805 199.99917603 -12.8125 201.3125 C-15.31829768 201.60841948 -17.57598274 201.72257571 -20.08203125 201.70068359 C-20.81892181 201.70594055 -21.55581238 201.71119751 -22.31503296 201.71661377 C-24.75190398 201.72982234 -27.18812228 201.72107302 -29.625 201.7109375 C-31.31746547 201.712958 -33.00993009 201.71586923 -34.70239258 201.71963501 C-38.24992154 201.72405951 -41.79722393 201.71762335 -45.34472656 201.70361328 C-49.89467909 201.6865212 -54.44410077 201.69636173 -58.99403381 201.71433067 C-62.48901376 201.72516518 -65.9838676 201.72172373 -69.47885132 201.7139473 C-71.15660668 201.71194436 -72.83437344 201.71440785 -74.51211548 201.72138596 C-76.85604225 201.72899511 -79.19910632 201.71740465 -81.54296875 201.70068359 C-82.23812592 201.70675629 -82.93328308 201.71282898 -83.64950562 201.71908569 C-86.3843145 201.68289559 -88.37836013 201.57782488 -90.74060059 200.13414001 C-92.22984249 197.60324708 -92.2077156 195.71036497 -92.23242188 192.77807617 C-92.24833374 191.64226608 -92.26424561 190.50645599 -92.28063965 189.33622742 C-92.28084106 188.10507706 -92.28104248 186.8739267 -92.28125 185.60546875 C-92.29267029 183.69729118 -92.29267029 183.69729118 -92.30432129 181.75056458 C-92.31514533 179.04929622 -92.31933239 176.34890025 -92.31347656 173.64770508 C-92.30764018 170.22617342 -92.33790512 166.80609039 -92.37859344 163.38483715 C-92.41109587 160.0833437 -92.40635369 156.78212057 -92.40625 153.48046875 C-92.42264526 152.27158493 -92.43904053 151.06270111 -92.45593262 149.81718445 C-92.35449961 137.05841621 -88.71167309 125.62600706 -79.8125 116.3125 C-79.15507813 115.61511719 -78.49765625 114.91773438 -77.8203125 114.19921875 C-67.16859055 103.84012653 -55.0715949 101.3029521 -40.8125 100.3125 C-41.32039063 99.80203125 -41.82828125 99.2915625 -42.3515625 98.765625 C-53.64659052 86.83604485 -58.34979518 72.83480359 -58.16186523 56.59765625 C-57.64560393 40.97331406 -51.37298519 26.95031097 -40.48828125 15.71875 C-29.02692047 5.41189125 -15.33915629 -0.10253447 0 0 Z M-32.125 30.625 C-40.28304073 40.90921565 -42.92394187 52.39198821 -41.8125 65.3125 C-39.22222447 77.58687384 -32.84197444 86.89166108 -22.8125 94.3125 C-12.41696271 100.84494289 -1.8681149 102.49277078 10.1875 100.3125 C22.73500917 96.59757407 31.6843623 89.46623399 38.37109375 78.34375 C43.80881052 68.30488826 44.61356198 57.67025935 41.5625 46.75 C37.48977403 34.53182209 29.1607229 25.13282635 17.82421875 19.04296875 C0.33060643 11.53053736 -19.39838336 16.85947588 -32.125 30.625 Z " fill="#000000" transform="translate(91.8125,310.6875)"/>
<path d="M0 0 C4.37739141 1.50722762 7.23315726 4.93517234 10.3666687 8.21652222 C11.10764297 8.96502945 11.84861725 9.71353668 12.61204529 10.48472595 C14.96513722 12.87025482 17.29247432 15.27928036 19.62057495 17.68917847 C21.21210564 19.30725895 22.80518915 20.92381367 24.39987183 22.53878784 C27.30093671 25.49010924 30.19897583 28.44405187 33.07540894 31.41940308 C33.65306503 32.015952 34.23072113 32.61250092 34.82588196 33.22712708 C36.97188882 35.63776268 37.18911439 36.81690438 37.49557495 40.12667847 C37.18307495 43.75167847 37.18307495 43.75167847 35.68307495 46.18917847 C32.86739604 47.94897779 30.72351776 48.35388114 27.41281128 48.27441406 C22.75818971 47.18319249 19.7643188 43.44413975 16.52682495 40.12277222 C15.73908691 39.34031631 14.95134888 38.55786041 14.13973999 37.75169373 C12.48295225 36.09596592 10.83610587 34.43023819 9.19869995 32.75534058 C6.68960257 30.19583723 4.14293861 27.67879235 1.58932495 25.16378784 C-0.01724592 23.54833674 -1.62149489 21.93057247 -3.22317505 20.31027222 C-3.98553467 19.55894516 -4.74789429 18.8076181 -5.53335571 18.03352356 C-10.66711975 12.71290878 -10.66711975 12.71290878 -11.41653442 7.90426636 C-10.81692505 4.75167847 -10.81692505 4.75167847 -8.81692505 1.75167847 C-5.51415873 -0.45016575 -3.87339504 -0.61491313 0 0 Z " fill="#000000" transform="translate(342.8169250488281,261.2483215332031)"/>
<path d="M0 0 C2.64945898 2.22212689 2.94990078 3.71168082 3.54101562 7.11352539 C2.73547109 12.90028685 -0.53426201 15.55785304 -4.59375 19.55859375 C-5.37383423 20.34774673 -6.15391846 21.13689972 -6.9576416 21.94996643 C-8.61019556 23.61165478 -10.27170442 25.26447863 -11.94140625 26.90893555 C-14.48969079 29.42731179 -16.99550415 31.98308055 -19.5 34.54492188 C-21.11217192 36.15606241 -22.72668123 37.76486814 -24.34375 39.37109375 C-25.08991577 40.13659042 -25.83608154 40.9020871 -26.6048584 41.69078064 C-32.55425893 47.45851595 -32.55425893 47.45851595 -37.38476562 47.57446289 C-41 47 -41 47 -43.5 45.4375 C-45.68071663 41.89383548 -45.75331723 40.10900306 -45 36 C-39.82344568 28.41194295 -32.15626612 21.9701323 -25.67382812 15.48852539 C-23.73538765 13.54787096 -21.80512138 11.59931506 -19.875 9.65039062 C-18.64111374 8.41357473 -17.40675582 7.17722914 -16.171875 5.94140625 C-15.59685242 5.35919815 -15.02182983 4.77699005 -14.42938232 4.17713928 C-9.52108987 -0.70307191 -6.80702426 -1.58020206 0 0 Z " fill="#000000" transform="translate(177,262)"/>
</svg>
