<?xml version="1.0" encoding="UTF-8"?>
<svg version="1.1" xmlns="http://www.w3.org/2000/svg" width="512" height="512">
<path d="M0 0 C0.69641602 -0.00700928 1.39283203 -0.01401855 2.11035156 -0.02124023 C4.40730932 -0.03881383 6.70303021 -0.02720107 9 -0.01367188 C10.59896073 -0.01636701 12.19791987 -0.0202496 13.796875 -0.02526855 C17.14599226 -0.03116269 20.49468243 -0.0226038 23.84375 -0.00390625 C28.13478591 0.01888377 32.42482111 0.00576017 36.71582031 -0.01819611 C40.01700366 -0.03265667 43.31795011 -0.02804703 46.61914062 -0.01768494 C48.20117308 -0.01501834 49.78322711 -0.0182851 51.36523438 -0.02760315 C53.57740163 -0.03777366 55.787953 -0.02226378 58 0 C59.8871875 0.00477356 59.8871875 0.00477356 61.8125 0.00964355 C65.57732486 0.60957601 66.73248897 1.51029843 69 4.51757812 C70.18585363 8.075139 70.18093271 11.33270616 70.203125 15.03710938 C70.20882507 15.77330002 70.21452515 16.50949066 70.22039795 17.26799011 C70.22983756 18.82553678 70.23637781 20.38310333 70.24023438 21.94067383 C70.24992231 24.31106899 70.28094675 26.68059015 70.3125 29.05078125 C70.31903241 30.56705217 70.32428195 32.08332926 70.328125 33.59960938 C70.3466452 34.65460381 70.3466452 34.65460381 70.36553955 35.73091125 C70.34469969 40.38739601 69.46743169 43.56901162 67 47.51757812 C63.87057535 49.08229045 60.38917777 49.2145977 57 48.51757812 C54.10873304 46.29329446 53.0947723 45.14878204 52.54589844 41.49316406 C52.57731934 39.76501465 52.57731934 39.76501465 52.609375 38.00195312 C52.61936523 36.87499023 52.62935547 35.74802734 52.63964844 34.58691406 C52.67606445 33.1615332 52.71248047 31.73615234 52.75 30.26757812 C52.8325 25.73007813 52.915 21.19257813 53 16.51757812 C37.49 16.51757812 21.98 16.51757812 6 16.51757812 C6 100.99757813 6 185.47757813 6 272.51757812 C21.51 272.51757812 37.02 272.51757812 53 272.51757812 C52.97905273 266.35875977 52.95810547 260.19994141 52.93652344 253.85449219 C52.87035832 233.54633448 52.82590303 213.23817263 52.79275131 192.92993546 C52.77211019 180.61241418 52.74395993 168.29499489 52.69824219 155.97753906 C52.65842194 145.24391035 52.63257847 134.51035548 52.62364602 123.77665496 C52.61842314 118.09116589 52.60611517 112.40588809 52.57707977 106.72046661 C52.54998679 101.37219993 52.54154265 96.02423211 52.54756927 90.67590332 C52.5464663 88.71024706 52.53847617 86.7445811 52.5231781 84.77898407 C52.50334585 82.10002741 52.50803589 79.42220674 52.51898193 76.7432251 C52.50733057 75.96112301 52.4956792 75.17902092 52.48367476 74.37321877 C52.52275078 70.8475484 52.70645524 68.90065203 54.88162613 66.06206894 C57.42646595 64.20664493 58.84093301 63.59279401 62 63.51757812 C65.34610205 64.69855532 67.41338407 65.45492879 69.16074944 68.62026501 C70.24217851 72.35364189 70.26973839 75.89870756 70.24050903 79.74958801 C70.24307231 80.98718724 70.24307231 80.98718724 70.24568737 82.24978846 C70.24897938 85.01207322 70.2379833 87.77411461 70.22705078 90.53637695 C70.22648661 92.51738479 70.22680335 94.49839304 70.22793579 96.47940063 C70.22851005 101.85706881 70.21674377 107.23464793 70.20278788 112.61229539 C70.19029282 118.23238566 70.18911098 123.85247794 70.18673706 129.47257996 C70.1805187 140.11493133 70.16410303 150.75724165 70.14403808 161.39957494 C70.1216902 173.51553686 70.11068844 185.63150073 70.10064721 197.74747813 C70.07973713 222.67086756 70.0445542 247.59422054 70 272.51757812 C70.83249268 272.50186768 71.66498535 272.48615723 72.52270508 272.4699707 C75.61447856 272.41881171 78.70603618 272.38121332 81.7980957 272.3527832 C83.79327701 272.33029479 85.78826213 272.29217615 87.78320312 272.25390625 C89.03681641 272.24423828 90.29042969 272.23457031 91.58203125 272.22460938 C92.73936768 272.20889893 93.8967041 272.19318848 95.08911133 272.17700195 C98 272.51757812 98 272.51757812 99.84643555 273.82495117 C101.768536 276.64525222 101.88410461 279.15661169 102 282.51757812 C100.86349056 284.89391605 99.85558971 286.66198841 98 288.51757812 C95.48533108 288.61915845 92.99799644 288.65488554 90.48269844 288.64900589 C89.68215426 288.65105852 88.88161008 288.65311116 88.05680698 288.65522599 C85.33954292 288.66093859 82.62232887 288.65943354 79.90505981 288.65802002 C77.95117886 288.66060122 75.99729844 288.66361368 74.04341877 288.66702342 C68.64712133 288.67512547 63.25083718 288.67688477 57.85453439 288.67762089 C52.04530238 288.67946589 46.23607736 288.68701037 40.42684937 288.6937561 C27.71223754 288.70736245 14.99762886 288.71336766 2.28301096 288.71776676 C-5.64877102 288.72052517 -13.58055177 288.72476177 -21.51233292 288.72927094 C-43.45237846 288.74146636 -65.39242298 288.75180071 -87.33247185 288.75514603 C-88.75202531 288.75536766 -90.17157877 288.75558945 -91.59113223 288.75581138 C-93.01417351 288.75603202 -94.43721479 288.7562525 -95.86025608 288.75647283 C-98.71526837 288.75691539 -101.57028067 288.7573625 -104.42529297 288.7578125 C-105.13317324 288.75792189 -105.84105351 288.75803128 -106.57038471 288.75814399 C-129.53260453 288.76177606 -152.49479282 288.77770096 -175.45700056 288.80100286 C-199.71693015 288.82557681 -223.9768417 288.83931772 -248.2367841 288.84051394 C-261.46804283 288.84143252 -274.69926027 288.84723051 -287.93050766 288.86533356 C-299.19485033 288.88069064 -310.45913896 288.88588108 -321.7234901 288.87759545 C-327.47566632 288.87367337 -333.22773355 288.87469404 -338.97989655 288.8886528 C-344.23897967 288.90129884 -349.49787087 288.90027685 -354.75695337 288.88806209 C-356.66611812 288.88608884 -358.57529604 288.88925763 -360.48444222 288.89790645 C-363.06687135 288.90887068 -365.64860762 288.90160374 -368.23101616 288.88951492 C-369.35945543 288.90090771 -369.35945543 288.90090771 -370.51069146 288.91253066 C-375.49368572 288.86169202 -375.49368572 288.86169202 -377.93087399 287.20526958 C-379.73421568 284.35856645 -379.8853299 281.84301094 -380 278.51757812 C-378.65437601 275.57002081 -377.91445456 273.9748054 -375 272.51757812 C-372.96767366 272.43230184 -370.93252994 272.41041677 -368.8984375 272.41992188 C-367.68671875 272.42314453 -366.475 272.42636719 -365.2265625 272.4296875 C-363.32003906 272.44225586 -363.32003906 272.44225586 -361.375 272.45507812 C-360.09625 272.45958984 -358.8175 272.46410156 -357.5 272.46875 C-354.33328708 272.48056609 -351.16666644 272.49703998 -348 272.51757812 C-348.00666183 271.63110092 -348.01332367 270.74462372 -348.02018738 269.83128357 C-348.08040274 261.4600072 -348.12602735 253.08880401 -348.15543652 244.7173605 C-348.17106457 240.41393704 -348.19225028 236.11069317 -348.22631836 231.80737305 C-348.25901427 227.65117195 -348.27687452 223.49514315 -348.28463173 219.33882332 C-348.29015693 217.75645296 -348.30094627 216.17409159 -348.31719017 214.59179497 C-348.33910112 212.36820276 -348.34196133 210.14531437 -348.34057617 207.92163086 C-348.34723801 206.65810287 -348.35389984 205.39457489 -348.36076355 204.09275818 C-347.93677035 199.89096995 -346.93340718 197.25457398 -345 193.51757812 C-342.07881347 192.05698486 -339.4893976 192.36601264 -336.22705078 192.34057617 C-335.53092682 192.33400497 -334.83480286 192.32743378 -334.11758423 192.32066345 C-331.81015927 192.30092614 -329.50279936 192.28926771 -327.1953125 192.27929688 C-326.40779476 192.27522135 -325.62027702 192.27114582 -324.80889511 192.26694679 C-320.64164237 192.24608539 -316.47442258 192.23178333 -312.30712891 192.22241211 C-308.00045458 192.21134018 -303.6942959 192.176932 -299.38780403 192.13724041 C-296.07810497 192.11111236 -292.76852955 192.10272376 -289.45873642 192.09913063 C-287.87108752 192.09425569 -286.28344447 192.08261585 -284.69589615 192.06409264 C-282.47409263 192.03977807 -280.25363374 192.04065111 -278.03173828 192.04760742 C-276.76758087 192.04174118 -275.50342346 192.03587494 -274.20095825 192.02983093 C-271 192.51757812 -271 192.51757812 -268.58889771 194.08253479 C-266.45477852 197.35314981 -266.46788285 200.17104221 -266.54589844 203.94824219 C-266.54531433 204.69009766 -266.54473022 205.43195313 -266.54412842 206.19628906 C-266.54690975 208.64240714 -266.57800214 211.0872986 -266.609375 213.53320312 C-266.61683726 215.2314182 -266.62253027 216.92964189 -266.62652588 218.62786865 C-266.64178349 223.09313822 -266.68106611 227.55788566 -266.7253418 232.02294922 C-266.76629193 236.58098284 -266.78453633 241.13910099 -266.8046875 245.69726562 C-266.84756064 254.63763587 -266.91791125 263.57748185 -267 272.51757812 C-256.44 272.51757812 -245.88 272.51757812 -235 272.51757812 C-235.02094727 268.29750977 -235.04189453 264.07744141 -235.06347656 259.72949219 C-235.12966879 245.8075778 -235.1741079 231.88565733 -235.20724869 217.96362686 C-235.22788158 209.52026606 -235.25601595 201.07705424 -235.30175781 192.63378906 C-235.34160347 185.27537365 -235.36742753 177.91706612 -235.37635398 170.55854583 C-235.38157263 166.66153724 -235.39385306 162.7648373 -235.42292023 158.86792755 C-235.45005371 155.20057362 -235.45844936 151.53365572 -235.45243073 147.86621094 C-235.4540573 145.87736453 -235.47559095 143.8885657 -235.49768066 141.89984131 C-235.49218201 140.71636108 -235.48668335 139.53288086 -235.48101807 138.3135376 C-235.48470524 137.28481663 -235.48839241 136.25609566 -235.49219131 135.19620132 C-234.86593289 131.78795274 -233.71663937 130.60844989 -231 128.51757812 C-227.8125 128.00964355 -227.8125 128.00964355 -224 128 C-223.30358398 127.99299072 -222.60716797 127.98598145 -221.88964844 127.97875977 C-219.59269068 127.96118617 -217.29696979 127.97279893 -215 127.98632812 C-213.40103927 127.98363299 -211.80208013 127.9797504 -210.203125 127.97473145 C-206.85400774 127.96883731 -203.50531757 127.9773962 -200.15625 127.99609375 C-195.86521409 128.01888377 -191.57517889 128.00576017 -187.28417969 127.98180389 C-183.98299634 127.96734333 -180.68204989 127.97195297 -177.38085938 127.98231506 C-175.79882692 127.98498166 -174.21677289 127.9817149 -172.63476562 127.97239685 C-170.42259837 127.96222634 -168.212047 127.97773622 -166 128 C-164.1128125 128.00477356 -164.1128125 128.00477356 -162.1875 128.00964355 C-158.32514004 128.62511842 -157.38599396 129.48042151 -155 132.51757812 C-154.50780869 135.19620132 -154.50780869 135.19620132 -154.51898193 138.3135376 C-154.51348328 139.49701782 -154.50798462 140.68049805 -154.50231934 141.89984131 C-154.52389099 143.84192474 -154.52389099 143.84192474 -154.54589844 145.82324219 C-154.54702697 147.20312466 -154.54639294 148.58300954 -154.54412842 149.96289062 C-154.54298055 153.70654654 -154.5665011 157.44969001 -154.59442425 161.19322681 C-154.61942601 165.10631018 -154.62177892 169.01940524 -154.62652588 172.93255615 C-154.6389593 180.34155663 -154.67178573 187.75032107 -154.71192384 195.1592176 C-154.75663026 203.59442485 -154.77862572 212.02964336 -154.79870558 220.46493959 C-154.84051821 237.81598012 -154.91387497 255.16669707 -155 272.51757812 C-144.77 272.51757812 -134.54 272.51757812 -124 272.51757812 C-124.00666183 270.02750717 -124.01332367 267.53743622 -124.02018738 264.97190857 C-124.08146703 241.53128213 -124.12612606 218.09066624 -124.15543652 194.64997768 C-124.17090659 182.59824397 -124.19199889 170.54656904 -124.22631836 158.49487305 C-124.2562163 147.99084451 -124.27557398 137.48685853 -124.28226548 126.98278862 C-124.28617705 121.42076318 -124.29537287 115.85885951 -124.31719017 110.29687309 C-124.33756145 105.06107692 -124.34383245 99.82545263 -124.33932304 94.58962059 C-124.34014795 92.66877051 -124.34610972 90.74791464 -124.35761642 88.82709885 C-124.37257055 86.20189989 -124.36894298 83.5773475 -124.36076355 80.95213318 C-124.36950207 80.19433341 -124.3782406 79.43653364 -124.38724393 78.65577024 C-124.34462417 73.58535985 -123.37752182 70.02104317 -121 65.51757812 C-118.07881347 64.05698486 -115.4893976 64.36601264 -112.22705078 64.34057617 C-111.53092682 64.33400497 -110.83480286 64.32743378 -110.11758423 64.32066345 C-107.81015927 64.30092614 -105.50279936 64.28926771 -103.1953125 64.27929688 C-102.01403589 64.27318358 -102.01403589 64.27318358 -100.80889511 64.26694679 C-96.64164237 64.24608539 -92.47442258 64.23178333 -88.30712891 64.22241211 C-84.00045458 64.21134018 -79.6942959 64.176932 -75.38780403 64.13724041 C-72.07810497 64.11111236 -68.76852955 64.10272376 -65.45873642 64.09913063 C-63.87108752 64.09425569 -62.28344447 64.08261585 -60.69589615 64.06409264 C-58.47409263 64.03977807 -56.25363374 64.04065111 -54.03173828 64.04760742 C-52.13550217 64.03880806 -52.13550217 64.03880806 -50.20095825 64.02983093 C-46.25800407 64.63064003 -45.34939275 65.32906231 -43 68.51757812 C-42.61572926 71.38922498 -42.47623644 73.87391885 -42.51898193 76.7432251 C-42.51556423 77.57968748 -42.51214653 78.41614986 -42.50862527 79.27795959 C-42.50202864 82.08506741 -42.52405164 84.89122224 -42.54589844 87.69824219 C-42.54702653 89.70865862 -42.5463938 91.71907671 -42.54412842 93.72949219 C-42.54297886 99.19203486 -42.56652751 104.65422753 -42.59442425 110.11668873 C-42.61939749 115.82352241 -42.62177669 121.53036376 -42.62652588 127.23724365 C-42.63896763 138.0461412 -42.67180556 148.85487729 -42.71192384 159.66370368 C-42.75660416 171.9682554 -42.77861919 184.27281476 -42.79870558 196.57742739 C-42.84053707 221.89090358 -42.91171646 247.20422501 -43 272.51757812 C-32.44 272.51757812 -21.88 272.51757812 -11 272.51757812 C-11.00888245 269.16893616 -11.01776489 265.82029419 -11.0269165 262.37017822 C-11.10647305 231.67913449 -11.16620856 200.98811373 -11.20426132 170.29699101 C-11.20926429 166.27644432 -11.21444156 162.25589788 -11.21972656 158.23535156 C-11.2207758 157.43491605 -11.22182505 156.63448053 -11.22290608 155.80978939 C-11.2403225 142.840602 -11.27186697 129.87148535 -11.30861118 116.90233997 C-11.34598624 103.59981909 -11.36822857 90.29733532 -11.37635398 76.99476409 C-11.38184891 68.78297751 -11.39921862 60.57139089 -11.43166587 52.35966584 C-11.4527714 46.73244809 -11.45920907 41.10533407 -11.45400551 35.47807959 C-11.45143748 32.22889969 -11.45760874 28.98014476 -11.4768219 25.73101044 C-11.49662047 22.21136171 -11.49197549 18.69257992 -11.48101807 15.1729126 C-11.49266943 14.14178982 -11.5043208 13.11066704 -11.51632524 12.04829812 C-11.45820007 5.17683461 -11.45820007 5.17683461 -9.16915512 1.88336563 C-6.05358484 -0.07832301 -3.66645841 0.00927415 0 0 Z M-107 80.51757812 C-107 143.87757813 -107 207.23757813 -107 272.51757812 C-91.16 272.51757812 -75.32 272.51757812 -59 272.51757812 C-59 209.15757812 -59 145.79757812 -59 80.51757812 C-74.84 80.51757812 -90.68 80.51757812 -107 80.51757812 Z M-218 144.51757812 C-218 186.75757813 -218 228.99757813 -218 272.51757812 C-202.49 272.51757812 -186.98 272.51757812 -171 272.51757812 C-171 230.27757812 -171 188.03757812 -171 144.51757812 C-186.51 144.51757812 -202.02 144.51757812 -218 144.51757812 Z M-331 208.51757812 C-331 229.63757813 -331 250.75757813 -331 272.51757812 C-315.16 272.51757812 -299.32 272.51757812 -283 272.51757812 C-283 251.39757812 -283 230.27757812 -283 208.51757812 C-298.84 208.51757812 -314.68 208.51757812 -331 208.51757812 Z " fill="#000000" transform="translate(395,207.482421875)"/>
<path d="M0 0 C0.69641602 -0.00700928 1.39283203 -0.01401855 2.11035156 -0.02124023 C4.40730932 -0.03881383 6.70303021 -0.02720107 9 -0.01367188 C10.59896073 -0.01636701 12.19791987 -0.0202496 13.796875 -0.02526855 C17.14599226 -0.03116269 20.49468243 -0.0226038 23.84375 -0.00390625 C28.13478591 0.01888377 32.42482111 0.00576017 36.71582031 -0.01819611 C40.01700366 -0.03265667 43.31795011 -0.02804703 46.61914062 -0.01768494 C48.20117308 -0.01501834 49.78322711 -0.0182851 51.36523438 -0.02760315 C53.57740163 -0.03777366 55.787953 -0.02226378 58 0 C59.8871875 0.00477356 59.8871875 0.00477356 61.8125 0.00964355 C65.57732486 0.60957601 66.73248897 1.51029843 69 4.51757812 C70.10527403 7.83340022 70.14035161 10.3284056 70.16113281 13.8215332 C70.17074036 15.12331009 70.1803479 16.42508698 70.19024658 17.76631165 C70.19509497 19.1899091 70.1993737 20.6135086 70.203125 22.03710938 C70.20887922 23.49818422 70.21463692 24.95925905 70.22039795 26.42033386 C70.23090075 29.48440909 70.23674794 32.54845814 70.24023438 35.61254883 C70.24571365 39.52992914 70.26973226 43.44696091 70.29820633 47.36423206 C70.31687441 50.38320409 70.32204054 53.40209292 70.32357025 56.42111778 C70.32658857 57.8647521 70.33458936 59.30838523 70.34775543 60.75196266 C70.36489916 62.77638441 70.36107888 64.80095042 70.35644531 66.82543945 C70.36009094 67.97555008 70.36373657 69.12566071 70.36749268 70.31062317 C69.94843523 73.96756229 68.90048926 76.38206758 67 79.51757812 C63.87057535 81.08229045 60.38917777 81.2145977 57 80.51757812 C54.90869141 79.11694336 54.90869141 79.11694336 53 76.51757812 C52.37348422 73.1873141 52.39503615 69.8832808 52.390625 66.50195312 C52.37408875 65.53098694 52.35755249 64.56002075 52.34051514 63.55963135 C52.29197881 60.46221629 52.27065143 57.3652924 52.25 54.26757812 C52.22184507 52.16599084 52.19191832 50.06442649 52.16015625 47.96289062 C52.0862181 42.81449355 52.03667771 37.66637004 52 32.51757812 C45.06757847 40.14219011 45.06757847 40.14219011 38.5 48.08007812 C35.01599958 52.389556 31.34031724 56.32635532 27.3359375 60.15429688 C25.46684855 62.04526479 23.75714629 63.95126161 22.03515625 65.97070312 C17.22161417 71.5187876 12.00357987 76.66344874 6.80297852 81.8449707 C5.066064 83.57652512 3.33456111 85.31336171 1.60351562 87.05078125 C-3.56831925 92.22572116 -8.7454253 97.32865634 -14.31616211 102.07885742 C-16.88645904 104.27499484 -19.33873024 106.58833944 -21.8125 108.89257812 C-26.45904128 113.1850902 -31.2409924 117.25095844 -36.171875 121.21679688 C-38.67838936 123.25593632 -41.13634775 125.34175808 -43.58374023 127.45117188 C-50.81704283 133.6703366 -58.35155035 139.41557702 -66.03417969 145.06640625 C-67.86716333 146.41951787 -69.68901659 147.78611092 -71.5078125 149.15820312 C-138.99170024 199.79013919 -216.3309882 234.82372837 -300 246.51757812 C-300.92006836 246.65035156 -301.84013672 246.783125 -302.78808594 246.91992188 C-314.17728128 248.51306669 -325.57927061 248.73654295 -337.0625 248.83007812 C-337.78243134 248.83979645 -338.50236267 248.84951477 -339.24411011 248.85952759 C-341.29979615 248.8831494 -343.35436152 248.88543621 -345.41015625 248.88085938 C-347.20658569 248.88533081 -347.20658569 248.88533081 -349.03930664 248.88989258 C-352 248.51757812 -352 248.51757812 -353.85717773 247.20581055 C-355.76663481 244.38506804 -355.88432273 241.87221883 -356 238.51757812 C-355 235.70507812 -355 235.70507812 -353 233.51757812 C-346.96714412 231.22702857 -341.14703239 231.20269375 -334.75 231.08007812 C-281.11575086 229.38798422 -228.47550024 215.20006935 -180 192.51757812 C-178.9682666 192.0420752 -177.9365332 191.56657227 -176.87353516 191.07666016 C-154.62146147 180.80673625 -133.52925695 168.88605274 -113 155.51757812 C-111.92878906 154.82277344 -110.85757813 154.12796875 -109.75390625 153.41210938 C-80.2930192 134.02468709 -52.50229405 112.03939109 -26.66723633 88.04125977 C-25.43335781 86.91362237 -24.18631326 85.80035395 -22.93237305 84.69506836 C-15.76557152 78.35676471 -8.99223942 71.66257844 -2.23999023 64.88793945 C-0.30890453 62.95147264 1.62749882 61.02043856 3.56445312 59.08984375 C9.58983276 53.06770648 15.50133334 47.03125882 21 40.51757812 C22.45445517 38.9098944 23.91220895 37.30518098 25.375 35.70507812 C30.88819983 29.59611228 36.42974119 23.37296634 41 16.51757812 C40.40753479 16.52646057 39.81506958 16.53534302 39.20465088 16.54449463 C33.04050338 16.63296108 26.87653607 16.69330938 20.71191406 16.73730469 C18.41105831 16.75742501 16.11025371 16.78472446 13.80957031 16.81933594 C10.50312683 16.86783425 7.19735915 16.89054291 3.890625 16.90820312 C2.86132874 16.92884827 1.83203247 16.94949341 0.77154541 16.97076416 C-6.36520724 16.97300856 -6.36520724 16.97300856 -9.64746094 14.61816406 C-11.10200854 12.35915186 -11.54165485 11.18348861 -11.5 8.51757812 C-11.51546875 7.52757812 -11.51546875 7.52757812 -11.53125 6.51757812 C-9.93997703 0.52690342 -5.4948528 0.01389899 0 0 Z " fill="#000000" transform="translate(395,47.482421875)"/>
<path d="M0 0 C0.62970703 0.20898926 1.25941406 0.41797852 1.90820312 0.63330078 C17.57101106 5.95116665 30.29869464 14.43737678 42 26 C42.71542969 26.64324219 43.43085938 27.28648438 44.16796875 27.94921875 C59.91416469 42.43823338 70.98751336 66.89394574 72.17700195 88.1652832 C72.72049155 118.19145931 72.72049155 118.19145931 68 132 C67.79101074 132.62825684 67.58202148 133.25651367 67.36669922 133.90380859 C62.04936621 149.56903011 53.56423791 162.29706058 42 174 C41.35675781 174.71542969 40.71351563 175.43085938 40.05078125 176.16796875 C25.22870972 192.27612024 0.75626347 202.88061483 -20.96582031 204.17700195 C-35.75332357 204.46815847 -49.83015018 204.60678974 -64 200 C-64.97018066 199.68651611 -64.97018066 199.68651611 -65.95996094 199.36669922 C-81.63257087 194.0964387 -94.32608132 185.53556112 -106 174 C-107.07314453 173.03513672 -107.07314453 173.03513672 -108.16796875 172.05078125 C-123.85119056 157.61971288 -135.0602802 133.10953968 -136.16113281 111.89477539 C-136.48582326 86.40091208 -134.86853477 58.16931289 -116.43359375 38.25 C-114.26019994 36.35494272 -112.88348564 35.85582572 -110 36 C-106.06385984 37.54358438 -104.36773424 38.44839864 -102 42 C-101.33559449 47.18382319 -102.99064477 50.36924114 -105.6875 54.625 C-109.43533603 60.87745919 -112.57992819 67.09729518 -115 74 C-115.3196875 74.89847656 -115.639375 75.79695313 -115.96875 76.72265625 C-122.10764461 97.83931687 -118.73007948 121.70846564 -108.75 141 C-97.44870164 161.55336981 -79.95587303 175.3023234 -58 183 C-57.10152344 183.3196875 -56.20304687 183.639375 -55.27734375 183.96875 C-34.16068313 190.10764461 -10.29153436 186.73007948 9 176.75 C29.55336981 165.44870164 43.3023234 147.95587303 51 126 C51.3196875 125.10152344 51.639375 124.20304688 51.96875 123.27734375 C58.11999661 102.11819454 54.72078745 78.24442999 44.6875 58.9375 C41.10051781 52.41029519 37.03393231 46.50997822 32 41 C31.41089844 40.319375 30.82179687 39.63875 30.21484375 38.9375 C15.39521536 22.82784026 -7.80906807 13.94808431 -29.37890625 12.96875 C-49.4034253 13.14156138 -67.34699639 18.8979976 -84 30 C-86.875 30.4375 -86.875 30.4375 -90 30 C-92.93525054 27.71702736 -94.61584659 25.96038352 -96 22.5 C-96 19.17698888 -94.87470353 17.71852795 -93 15 C-70.03863493 -6.23107891 -28.2685721 -9.57195321 0 0 Z " fill="#000000" transform="translate(152,20)"/>
<path d="M0 0 C2 2 2 2 2.1953125 5.2578125 C2.17210937 6.53398438 2.14890625 7.81015625 2.125 9.125 C2.10695312 10.40632813 2.08890625 11.68765625 2.0703125 13.0078125 C2.04710937 13.99523438 2.02390625 14.98265625 2 16 C2.886875 16.103125 3.77375 16.20625 4.6875 16.3125 C11.80290202 17.78928155 17.43269974 22.67089595 21.5 28.5625 C25.71433114 35.65781457 27.35941208 42.72832308 26 51 C24.15902197 53.42490058 22.96584011 54.74344872 20 55.53125 C19.34 55.5209375 18.68 55.510625 18 55.5 C17.34 55.5103125 16.68 55.520625 16 55.53125 C13.06701618 54.75217617 11.87715995 53.35042697 10 51 C9.09375 48.37890625 9.09375 48.37890625 8.5 45.5625 C7.38845927 41.14574294 6.54969815 38.07000921 3 35 C-1.05060427 32.62737433 -4.53790791 31.57808731 -9.1875 32.5625 C-13.42302119 33.91886533 -16.75596599 35.94997212 -19.109375 39.828125 C-20.73401847 43.78997486 -20.53724586 47.80152307 -20 52 C-17.75707767 56.56891586 -15.49320959 58.74105122 -11 61 C-8.37695036 61.57215098 -5.83430609 62.04374236 -3.1875 62.4375 C5.79858216 63.95161976 13.79386617 66.51419453 19.56640625 74.04296875 C26.06351478 83.38941162 26.8730517 91.91555883 26 103 C23.87914347 111.97871597 17.11021756 118.76430379 9.87109375 124.08984375 C7.31885737 125.33132825 4.79661678 125.62737925 2 126 C2.04640625 126.89203125 2.0928125 127.7840625 2.140625 128.703125 C2.19476563 130.45882812 2.19476563 130.45882812 2.25 132.25 C2.29640625 133.41015625 2.3428125 134.5703125 2.390625 135.765625 C2 139 2 139 0.234375 141.390625 C-2.12011624 143.08651729 -3.14452314 143.54461683 -6 143.5 C-6.66 143.5103125 -7.32 143.520625 -8 143.53125 C-11.00101226 142.73410612 -12.16507889 141.4844507 -14 139 C-14.390625 135.765625 -14.390625 135.765625 -14.25 132.25 C-14.21390625 131.07953125 -14.1778125 129.9090625 -14.140625 128.703125 C-14.09421875 127.81109375 -14.0478125 126.9190625 -14 126 C-14.90878906 125.88785156 -15.81757812 125.77570313 -16.75390625 125.66015625 C-24.48199239 124.08849974 -30.53296855 117.20421034 -35 111 C-38.76592374 104.73681477 -38.99168815 97.10709843 -38 90 C-36.01455178 87.2286452 -35.04190584 87.01086448 -31.625 86.125 C-27.53967894 85.98412686 -26.07731302 86.36230312 -23 89 C-21.76469311 91.27556532 -21.1295171 93.403253 -20.58203125 95.92578125 C-19.5642256 100.54505304 -18.45173597 103.54826403 -15 107 C-10.52574524 109.71514605 -6.09164515 109.65153753 -1 109 C3.40608743 106.83701163 6.1987497 104.60319521 8 100 C8.68426057 94.95674616 8.5739862 91.16923116 6.3125 86.5625 C1.91710807 81.69193056 -2.48663177 80.50358102 -8.8125 79.5625 C-17.79858216 78.04838024 -25.79386617 75.48580547 -31.56640625 67.95703125 C-38.05589546 58.62154919 -38.89362032 50.07647907 -38 39 C-37.1277968 35.62433787 -35.85340784 32.9386269 -34 30 C-33.649375 29.37867187 -33.29875 28.75734375 -32.9375 28.1171875 C-29.78707099 23.0633743 -25.32767126 19.60697214 -20 17 C-16.71484375 16.3359375 -16.71484375 16.3359375 -14 16 C-14.05220703 14.53626953 -14.05220703 14.53626953 -14.10546875 13.04296875 C-14.13253906 11.77066406 -14.15960938 10.49835937 -14.1875 9.1875 C-14.23970703 7.29064453 -14.23970703 7.29064453 -14.29296875 5.35546875 C-14 2 -14 2 -12.59765625 0.1015625 C-8.19504434 -2.93397921 -4.88066341 -1.71727046 0 0 Z " fill="#000000" transform="translate(126,49)"/>
</svg>
