<?xml version="1.0" encoding="UTF-8"?>
<svg version="1.1" xmlns="http://www.w3.org/2000/svg" width="512" height="512">
<path d="M0 0 C0.92554688 0.40089844 1.85109375 0.80179687 2.8046875 1.21484375 C17.65751337 8.47295271 28.51056857 21.48638944 34 37 C34 37.66 34 38.32 34 39 C34.59425781 39.07476562 35.18851563 39.14953125 35.80078125 39.2265625 C49.32023588 41.37117272 61.53496505 49.72404793 69.71606445 60.60888672 C80.25467133 75.53210463 83.37044642 91.83087014 80.85546875 109.70703125 C79.99455093 114.6862448 78.17415984 119.05304184 75.828125 123.51953125 C74.74010638 125.99773739 74.74010638 125.99773739 75.73046875 128.53125 C76.14941406 129.3459375 76.56835938 130.160625 77 131 C81.53848289 141.19017857 83.44765634 150.11886023 80 161 C76.30744038 169.85962258 76.30744038 169.85962258 73.42944336 172.36987305 C71.59084576 174.46659656 71.68310308 175.46185208 71.8125 178.2109375 C71.83820068 179.03706543 71.86390137 179.86319336 71.89038086 180.71435547 C71.92655518 181.59236816 71.96272949 182.47038086 72 183.375 C72.3138002 200.86350657 67.5019308 216.09305936 55.32788086 228.93798828 C43.60425913 240.62784725 28.07334046 246.57605773 11.6875 247.3125 C2.40557723 247.07493708 -6.53356735 244.62847113 -15 241 C-15.33 274 -15.66 307 -16 341 C-14.35 341.66 -12.7 342.32 -11 343 C-4.74008679 346.67875439 -0.26480368 351.50428333 3 358 C3.66015625 360.77734375 3.66015625 360.77734375 4 363 C4.53625 363.0825 5.0725 363.165 5.625 363.25 C12.12491276 365.30260403 17.34655956 370.36503255 21 376 C21.99 378.97 22.98 381.94 24 385 C32.58 385 41.16 385 50 385 C50 371.8 50 358.6 50 345 C46.96554688 345.03480469 43.93109375 345.06960938 40.8046875 345.10546875 C37.85580384 345.12888553 34.90693065 345.14709005 31.95800781 345.16479492 C29.91336406 345.17985288 27.86875245 345.20030357 25.82421875 345.22631836 C22.88012748 345.26283311 19.93646443 345.27975651 16.9921875 345.29296875 C16.0825827 345.30845261 15.17297791 345.32393646 14.23580933 345.33988953 C9.07510081 345.34124858 5.44851687 344.93167329 1 342 C-1.42843172 337.14313655 -0.31257287 329.71670825 -0.35009766 324.31567383 C-0.36664961 322.56879344 -0.39392995 320.82198057 -0.43212891 319.07543945 C-0.48698252 316.55384274 -0.50878326 314.03383225 -0.5234375 311.51171875 C-0.54610687 310.73446945 -0.56877625 309.95722015 -0.59213257 309.15641785 C-0.57786764 305.48294719 -0.22617852 303.32265728 1.89779663 300.29267883 C6.31594881 297.02744997 9.85583503 297.31108261 15.21875 297.38476562 C16.24532715 297.37921661 17.2719043 297.3736676 18.32958984 297.36795044 C21.72020258 297.35614759 25.10948088 297.38043725 28.5 297.40625 C30.85742125 297.40796098 33.21484441 297.40789555 35.57226562 297.40612793 C40.51190401 297.40778155 45.45108878 297.42648816 50.390625 297.45800781 C56.7226987 297.49768501 63.05417812 297.5020532 69.38635254 297.49454498 C74.25396164 297.49147561 79.12143711 297.50359476 83.98901367 297.52067566 C86.32380332 297.52770755 88.65860812 297.53082997 90.9934082 297.52998352 C94.25630063 297.53178098 97.51848072 297.55315938 100.78125 297.58007812 C101.74659668 297.57714752 102.71194336 297.57421692 103.70654297 297.57119751 C108.55132964 297.63287375 112.15881294 297.68307648 116 301 C117.20915439 304.62746318 117.20026375 307.99371578 117.23828125 311.7734375 C117.246353 312.53419586 117.25442474 313.29495422 117.26274109 314.07876587 C117.27656024 315.68757868 117.28729209 317.29642054 117.29516602 318.90527344 C117.31238974 321.35929081 117.35629371 323.81196404 117.40039062 326.265625 C117.41051741 327.83071929 117.41903356 329.395825 117.42578125 330.9609375 C117.44328934 331.69130219 117.46079742 332.42166687 117.47883606 333.17416382 C117.4635003 336.79461795 117.09765515 338.84389177 115.16088867 341.93994141 C112.10484628 344.8533846 109.67273914 345.12513679 105.62036133 345.11352539 C104.73967484 345.11344986 103.85898834 345.11337433 102.95161438 345.11329651 C102.00465195 345.10813522 101.05768951 345.10297394 100.08203125 345.09765625 C99.10965012 345.0962413 98.13726898 345.09482635 97.13542175 345.09336853 C94.02774996 345.08776817 90.92015004 345.07521562 87.8125 345.0625 C85.70638125 345.05748505 83.60026137 345.05292213 81.49414062 345.04882812 C76.32937707 345.03864925 71.16476906 345.01907383 66 345 C66 358.2 66 371.4 66 385 C92.73 385 119.46 385 147 385 C147 381.7 147 378.4 147 375 C147.07388111 373.24835343 147.16719527 371.49717272 147.29698181 369.7487793 C147.36284988 368.83760849 147.42871796 367.92643768 147.49658203 366.98765564 C147.56981689 366.02622147 147.64305176 365.06478729 147.71850586 364.07421875 C147.79492813 363.03233902 147.8713504 361.99045929 147.9500885 360.91700745 C148.20126611 357.50688263 148.45783687 354.09719007 148.71484375 350.6875 C148.89201251 348.30763225 149.06897572 345.92774918 149.2457428 343.54785156 C149.61572735 338.57842674 149.98843487 333.60921551 150.36303711 328.64013672 C150.84373625 322.26027321 151.31722051 315.87989769 151.78865719 309.49934387 C152.15195173 304.59394783 152.51920857 299.68885465 152.8876667 294.78384399 C153.06397066 292.42991615 153.23898482 290.07589135 153.41270256 287.72177124 C153.65510827 284.44440195 153.90287631 281.16748191 154.15209961 277.890625 C154.25891556 276.42418297 154.25891556 276.42418297 154.3678894 274.92811584 C154.4365773 274.03950363 154.5052652 273.15089142 154.57603455 272.23535156 C154.6341075 271.46112854 154.69218046 270.68690552 154.75201321 269.88922119 C155 268 155 268 156 266 C155.18425003 266.00888245 154.36850006 266.01776489 153.5280304 266.0269165 C145.8330778 266.1071291 138.13832846 266.16799795 130.4430666 266.20724869 C126.48700917 266.22810652 122.53129775 266.25639036 118.57543945 266.30175781 C114.75639136 266.34528121 110.93767567 266.36915069 107.11839867 266.37950897 C105.66273962 266.3868888 104.20709838 266.4013002 102.75158119 266.42292023 C100.70939733 266.45204276 98.66857946 266.45595264 96.6262207 266.45410156 C95.46484085 266.46298401 94.303461 266.47186646 93.10688782 266.48101807 C89.27555299 265.88783885 87.63260802 264.82325695 85 262 C84.37854004 259.67893982 84.37854004 259.67893982 84.38476562 257.09545898 C84.37546021 256.12442734 84.36615479 255.15339569 84.35656738 254.15293884 C84.38116028 252.59030052 84.38116028 252.59030052 84.40625 250.99609375 C84.40620972 249.92126236 84.40616943 248.84643097 84.40612793 247.73902893 C84.41148614 245.46861925 84.42908152 243.19821024 84.45800781 240.92797852 C84.49988747 237.44685413 84.4990749 233.96766207 84.4921875 230.48632812 C84.50267883 228.28123651 84.51561662 226.0761549 84.53125 223.87109375 C84.53145142 222.82731064 84.53165283 221.78352753 84.53186035 220.70811462 C84.54777222 219.74023514 84.56368408 218.77235565 84.58007812 217.77514648 C84.58849731 216.9233934 84.5969165 216.07164032 84.60559082 215.19407654 C85.08986757 212.50007167 85.84300006 211.6412671 88 210 C91.17013523 208.94328826 93.42549197 208.8664452 96.75595093 208.85282898 C97.95607315 208.84567368 99.15619537 208.83851837 100.39268494 208.83114624 C101.71119949 208.82845734 103.02971405 208.82576843 104.38818359 208.82299805 C105.7893643 208.81673231 107.19054335 208.81008541 108.59172058 208.80308533 C113.19394781 208.78205984 117.79617533 208.771686 122.3984375 208.76171875 C123.98294721 208.75767096 125.56745674 208.75355404 127.15196609 208.74936867 C134.59449645 208.7303222 142.0370169 208.71608869 149.47956693 208.7077567 C158.07183994 208.69797867 166.66385572 208.67164232 175.25603807 208.63125581 C181.89731293 208.60110971 188.53851398 208.58628936 195.17985594 208.58297569 C199.14669626 208.58062392 203.11326158 208.57164704 207.08002853 208.54651451 C210.81146506 208.52325415 214.54244512 208.51899203 218.27393532 208.52927589 C220.29474923 208.53000818 222.31553985 208.51090374 224.33625793 208.49121094 C226.14490074 208.50162666 226.14490074 208.50162666 227.99008179 208.51225281 C229.03610754 208.50986445 230.08213329 208.5074761 231.1598568 208.50501537 C234.75358623 209.13133619 236.42267534 210.46247528 239 213 C240.25610015 216.6897942 240.34352813 218.26386829 238.6875 221.8125 C237 224 237 224 235 225 C233.22611188 225.09332602 231.4486734 225.12191465 229.67233276 225.12025452 C227.97696381 225.12231651 227.97696381 225.12231651 226.24734497 225.12442017 C224.37863235 225.11902725 224.37863235 225.11902725 222.47216797 225.11352539 C221.16489746 225.11367142 219.85762695 225.11381744 218.51074219 225.1139679 C214.92005239 225.1142555 211.3293958 225.10836466 207.73871374 225.10139394 C203.98841869 225.09515433 200.23812293 225.09455612 196.48782349 225.09336853 C189.38343968 225.09025701 182.27907122 225.08204603 175.17469418 225.07201904 C167.08774211 225.06085235 159.00078933 225.05534605 150.91383147 225.05032361 C134.27587725 225.03986327 117.63794415 225.02152001 101 225 C101 233.25 101 241.5 101 250 C161.06 250 221.12 250 283 250 C283 241.75 283 233.5 283 225 C276.59706535 225.19726849 276.59706535 225.19726849 270.19628906 225.45043945 C263.63727211 225.55255352 263.63727211 225.55255352 260.35546875 222.70703125 C258.51190949 219.02522558 258.91146194 216.91873702 260 213 C261.57885966 210.94061784 262.69142423 210.15428789 265 209 C269.59842191 208.7005429 274.20548417 208.72186362 278.8125 208.6875 C280.09705078 208.65849609 281.38160156 208.62949219 282.70507812 208.59960938 C283.94322266 208.59123047 285.18136719 208.58285156 286.45703125 208.57421875 C287.59116455 208.55963623 288.72529785 208.54505371 289.89379883 208.5300293 C293.66546461 209.10068532 295.29595982 210.36523916 298 213 C299.15837176 215.31674352 299.14443667 216.6986108 299.17700195 219.27856445 C299.18983719 220.16320877 299.20267242 221.04785309 299.21589661 221.95930481 C299.22697701 223.39677315 299.22697701 223.39677315 299.23828125 224.86328125 C299.246353 225.84741501 299.25442474 226.83154877 299.26274109 227.84550476 C299.27658665 229.93108353 299.28730668 232.016685 299.29516602 234.10229492 C299.31237493 237.28933755 299.35625667 240.47534191 299.40039062 243.66210938 C299.41051779 245.68749236 299.41903382 247.71288418 299.42578125 249.73828125 C299.45204338 251.16664055 299.45204338 251.16664055 299.47883606 252.62385559 C299.46470139 256.94363998 299.41092939 259.33467319 297.09838867 263.07885742 C293.6077512 266.27464872 291.46605546 266.12252134 286.80615234 266.11352539 C285.50495453 266.11344986 284.20375671 266.11337433 282.86312866 266.11329651 C281.43739789 266.10818947 280.0116675 266.10297347 278.5859375 266.09765625 C277.13148039 266.09579147 275.67702266 266.09436785 274.2225647 266.09336853 C270.39207224 266.08954805 266.56161763 266.07972176 262.73114014 266.06866455 C258.82336947 266.05844035 254.91559269 266.05386874 251.0078125 266.04882812 C243.3385244 266.03809908 235.6692675 266.02102828 228 266 C228.15033691 267.92653915 228.15033691 267.92653915 228.30371094 269.89199829 C229.25117938 282.04274238 230.19293456 294.19391783 231.12921143 306.34552956 C231.61064872 312.59157993 232.0940422 318.83746562 232.58203125 325.08300781 C233.05358716 331.11918322 233.51984124 337.15574761 233.98254395 343.19260788 C234.15928473 345.48662066 234.3378807 347.78049134 234.51843262 350.07420731 C234.77252937 353.30642983 235.0198025 356.53911168 235.265625 359.77197266 C235.37783386 361.16921318 235.37783386 361.16921318 235.49230957 362.59468079 C236.05387456 370.12577645 236 377.38040508 236 385 C262.73 385 289.46 385 317 385 C317 371.8 317 358.6 317 345 C312.32263672 345.05220703 312.32263672 345.05220703 307.55078125 345.10546875 C304.52580684 345.12887483 301.50084257 345.14708546 298.47583008 345.16479492 C296.37584914 345.17986772 294.2758996 345.20032941 292.17602539 345.22631836 C289.15503176 345.26276754 286.13445489 345.27974159 283.11328125 345.29296875 C282.17664139 345.30845261 281.24000153 345.32393646 280.27497864 345.33988953 C275.41392638 345.34114045 271.8435674 345.33975543 268 342 C265.41983111 338.56383245 265.69372597 334.69773731 265.69921875 330.56640625 C265.69493362 329.85145493 265.6906485 329.1365036 265.68623352 328.39988708 C265.68050346 326.89119524 265.6799802 325.38247577 265.68432617 323.8737793 C265.68748479 321.57357339 265.66401742 319.27465629 265.63867188 316.97460938 C265.63639849 315.50520995 265.63569557 314.03580708 265.63671875 312.56640625 C265.627509 311.88292618 265.61829926 311.19944611 265.60881042 310.49525452 C265.65055399 306.15658982 266.33732167 303.44207501 269 300 C272.11788139 297.92141241 272.8108033 297.74793733 276.35128784 297.73257446 C277.68448563 297.71977951 277.68448563 297.71977951 279.0446167 297.70672607 C280.01715393 297.70763245 280.98969116 297.70853882 281.99169922 297.70947266 C283.53112686 297.69939682 283.53112686 297.69939682 285.10165405 297.68911743 C288.50271412 297.67008094 291.90357744 297.66621035 295.3046875 297.6640625 C297.66496869 297.65763846 300.02524907 297.6509104 302.38552856 297.64389038 C307.33695319 297.63190343 312.28830798 297.62821101 317.23974609 297.62939453 C323.58759127 297.62959779 329.93498908 297.60229473 336.2827282 297.56785011 C341.1588853 297.54562341 346.03493404 297.5415557 350.91113663 297.54261398 C353.25153266 297.54025168 355.59193141 297.53139297 357.93227768 297.51594925 C361.20500855 297.49637564 364.4767655 297.50209399 367.74951172 297.51416016 C368.71800049 297.50292114 369.68648926 297.49168213 370.68432617 297.48010254 C374.9100015 297.51973534 377.37975324 297.6438705 381.10220337 299.78120422 C383.11043753 302.12911727 383.62444343 302.96132881 383.61523438 305.98657227 C383.62453979 306.75739639 383.63384521 307.52822052 383.64343262 308.32240295 C383.62703735 309.14542404 383.61064209 309.96844513 383.59375 310.81640625 C383.59379028 311.66927719 383.59383057 312.52214813 383.59387207 313.40086365 C383.58851897 315.20050441 383.57094498 317.00014474 383.54199219 318.79956055 C383.50009041 321.55655154 383.50092735 324.31110329 383.5078125 327.06835938 C383.49732137 328.81772533 383.48438367 330.56707869 383.46875 332.31640625 C383.46854858 333.14145157 383.46834717 333.96649689 383.46813965 334.81654358 C383.34950045 340.54032166 383.34950045 340.54032166 381.72375488 342.67857361 C378.59059215 345.0804487 375.43847905 345.12481906 371.59863281 345.11352539 C370.3077475 345.11341209 370.3077475 345.11341209 368.99078369 345.11329651 C368.07085632 345.10813522 367.15092896 345.10297394 366.203125 345.09765625 C364.77996979 345.09553383 364.77996979 345.09553383 363.32806396 345.09336853 C360.30201038 345.08777742 357.27603117 345.07522652 354.25 345.0625 C352.19661565 345.05748385 350.14323014 345.05292115 348.08984375 345.04882812 C343.05984423 345.0386624 338.03000523 345.01908518 333 345 C333 358.2 333 371.4 333 385 C336.19042969 384.95359375 339.38085938 384.9071875 342.66796875 384.859375 C345.76243499 384.82816834 348.85688362 384.80388681 351.95141602 384.78027344 C354.0999335 384.76017414 356.2483964 384.73289007 358.39672852 384.69824219 C361.48727905 384.64965087 364.57710555 384.62701421 367.66796875 384.609375 C368.62648239 384.58872986 369.58499603 384.56808472 370.57255554 384.54681396 C374.91931351 384.54535569 377.32864545 384.589505 381.10644531 386.89941406 C383.14780414 389.16396426 383.66209118 390.00054788 383.5625 393 C383.56378906 393.66 383.56507813 394.32 383.56640625 395 C382.71485423 398.00685955 381.4843094 399.09530388 379 401 C376.08929519 401.39191054 373.55782986 401.53755941 370.64782715 401.50336456 C369.79346982 401.50917833 368.93911249 401.51499209 368.05886555 401.52098203 C365.17633135 401.53565972 362.29463833 401.52166066 359.41210938 401.50793457 C357.33260409 401.51254041 355.25310205 401.51889118 353.17360687 401.52684355 C347.44388556 401.54360347 341.71442937 401.53526025 335.98470688 401.52289867 C329.8114819 401.51387771 323.63830369 401.5278032 317.46508789 401.53881836 C306.06561315 401.55560886 294.66624697 401.55410901 283.26677489 401.54317249 C272.73667871 401.53311935 262.20661367 401.53047921 251.67651367 401.53526306 C250.97865035 401.5355686 250.28078703 401.53587414 249.56177634 401.53618894 C246.7290851 401.53743425 243.89639388 401.53870784 241.06370267 401.540028 C214.4784206 401.55227032 187.89319263 401.54116014 161.30791891 401.51964041 C137.67660445 401.50065727 114.0453762 401.50235576 90.4140625 401.52148438 C63.87812222 401.54289226 37.34222976 401.55140218 10.80628204 401.53903532 C7.97868348 401.53775241 5.15108491 401.53650105 2.32348633 401.53526306 C1.62723418 401.53494675 0.93098203 401.53463044 0.21363133 401.53430455 C-10.31112411 401.52975025 -20.83584504 401.53508395 -31.3605957 401.54518127 C-43.3249731 401.55660237 -55.28924863 401.5534069 -67.25362206 401.5320583 C-73.36240802 401.52151871 -79.47101865 401.51747552 -85.57980347 401.53065491 C-91.16578634 401.54252444 -96.75143043 401.53610639 -102.33738232 401.5147447 C-104.36423499 401.51025548 -106.39111596 401.51259643 -108.41795063 401.52224785 C-111.16165651 401.53431639 -113.90418405 401.52203461 -116.64782715 401.50336456 C-117.84323514 401.51741156 -117.84323514 401.51741156 -119.06279278 401.53174233 C-122.61593079 401.48302784 -124.61295862 401.29215068 -127.48880768 399.12137175 C-130.35046862 395.10424792 -129.61829434 390.70902963 -129 386 C-126.340361 376.18635877 -121.72737902 369.60912446 -113.0859375 364.359375 C-109.45879622 361.99562001 -107.72804399 359.69016613 -105.875 355.8125 C-101.66878141 348.1031919 -95.10377668 342.54504458 -86.8125 339.6171875 C-80.08208487 338.14023529 -72.5330638 337.93607926 -65.9375 340.125 C-62.30636599 341.20661439 -61.42364973 340.37952945 -58 339 C-53.1322154 338.51818144 -48.4977697 338.46080291 -43.875 340.125 C-40.01892395 341.55604962 -40.01892395 341.55604962 -32 339 C-32 306.33 -32 273.66 -32 240 C-35.96 241.65 -39.92 243.3 -44 245 C-62.70633304 248.96801004 -79.79629881 246.35296882 -96 236 C-108.97799964 226.452239 -117.83152192 212.00266831 -120.75390625 196.09765625 C-121.0334769 192.57861612 -120.92915375 189.1488931 -120.82446289 185.62353516 C-120.30261593 174.91067449 -120.30261593 174.91067449 -125.4921875 165.8515625 C-129.2926989 161.18461327 -129.38663214 155.53246785 -129.375 149.75 C-129.3747583 148.62609863 -129.3747583 148.62609863 -129.37451172 147.47949219 C-129.24770023 141.29910073 -127.83170914 136.498063 -125 131 C-123.19491998 127.53973535 -123.19491998 127.53973535 -123.609375 123.82421875 C-123.98578125 123.11910156 -124.3621875 122.41398437 -124.75 121.6875 C-130.82162437 110.12148315 -131.04594305 94.11375729 -128.125 81.55078125 C-125.63420099 73.57858573 -121.91146536 66.72882256 -117 60 C-116.278125 58.96875 -115.55625 57.9375 -114.8125 56.875 C-107.34419637 48.42724671 -96.24459856 41.22471102 -85.0625 39.25 C-81.41230621 37.76012498 -81.21034115 36.99030746 -79.6875 33.5 C-79.26017578 32.30890625 -79.26017578 32.30890625 -78.82421875 31.09375 C-78 29 -78 29 -76 27 C-69.11111111 26.33333333 -69.11111111 26.33333333 -65.5 28.5 C-62.73851997 33.10246671 -63.55057348 37.10375656 -64.73046875 42.08203125 C-67.18589649 50.37035265 -67.18589649 50.37035265 -70.29296875 52.7734375 C-73.09090411 54.04118888 -75.61580125 54.71633798 -78.625 55.3125 C-88.72819948 57.72038784 -97.70779273 62.57506564 -104 71 C-111.25886155 83.04737432 -114.37065634 95.29339447 -111.28125 109.24609375 C-109.70249418 113.73408914 -107.63213914 117.68015384 -105.1875 121.75 C-103.4452462 124.79082807 -103.00022262 125.99569592 -102.8125 129.625 C-104.13307253 133.37820614 -105.78760011 135.50369643 -108.52734375 138.32421875 C-112.29556201 142.61219125 -112.48288355 146.63520903 -112.38671875 152.17578125 C-111.63749905 157.6473554 -108.68189096 161.41154743 -104.75 165.125 C-102.27793914 167.77363664 -102.13408911 169.37959406 -102 173 C-102.30480709 174.5268064 -102.64148488 176.04740527 -103 177.5625 C-105.20321354 187.61277544 -103.56432681 197.82855583 -99 207 C-97.52347536 209.2258609 -95.98310841 211.29613375 -94.26953125 213.34375 C-93 215 -93 215 -92 218 C-90.16077134 219.05806603 -90.16077134 219.05806603 -88 220 C-86.59428059 220.96492021 -85.19891325 221.94504024 -83.8125 222.9375 C-73.6531991 229.7435676 -62.77811588 231.0034522 -50.89453125 228.73046875 C-46.65316744 227.66011108 -42.81341812 226.13719037 -39 224 C-37.96101563 223.51015625 -36.92203125 223.0203125 -35.8515625 222.515625 C-32.2439371 219.33300753 -31.83830854 217.26718193 -31.35522461 212.5859375 C-31.04050115 203.72986752 -31.65088651 197.54401121 -37.88671875 190.8359375 C-40.81068527 187.81516028 -43.89702791 185.01042724 -47.08496094 182.27197266 C-48.07657227 181.41909668 -49.06818359 180.5662207 -50.08984375 179.6875 C-51.00628662 178.94886719 -51.92272949 178.21023437 -52.86694336 177.44921875 C-55.60472448 174.30564312 -55.86496831 172.11683443 -56 168 C-54.65437601 165.05244268 -53.91445456 163.45722728 -51 162 C-48.05576984 161.38661872 -46.8215548 161.17405396 -44 162 C-40.3669201 164.70605509 -37.17836911 167.77900908 -34 171 C-33.67 171.33 -33.34 171.66 -33 172 C-32.99120064 171.10797127 -32.99120064 171.10797127 -32.98222351 170.19792175 C-32.91836878 164.01729245 -32.83397007 157.8371877 -32.73754883 151.65698242 C-32.70426144 149.34943551 -32.67624151 147.04180643 -32.65356445 144.73413086 C-32.62008892 141.42005338 -32.56777602 138.10673155 -32.51171875 134.79296875 C-32.50532883 133.7585112 -32.4989389 132.72405365 -32.49235535 131.6582489 C-32.47256119 130.6974794 -32.45276703 129.7367099 -32.43237305 128.74682617 C-32.42126999 127.90077316 -32.41016693 127.05472015 -32.39872742 126.18302917 C-31.90922382 123.50300117 -31.14665689 122.63403897 -29 121 C-25.43682497 119.91555543 -23.69706457 119.69899485 -20.25 121.1875 C-16.80610127 123.96175175 -16.1136427 126.05226274 -15.5859375 130.453125 C-15.51632813 131.70609375 -15.44671875 132.9590625 -15.375 134.25 C-15.26285156 136.14492188 -15.26285156 136.14492188 -15.1484375 138.078125 C-15.09945312 139.04234375 -15.05046875 140.0065625 -15 141 C-14.44570312 140.43410156 -13.89140625 139.86820313 -13.3203125 139.28515625 C-12.59585938 138.55167969 -11.87140625 137.81820312 -11.125 137.0625 C-10.40570313 136.33160156 -9.68640625 135.60070312 -8.9453125 134.84765625 C-5.80468739 131.86469304 -3.31579157 131.58908538 1.01953125 131.66015625 C3 132 3 132 5.5625 134.0625 C7.55220371 138.12841628 7.42987131 139.6746393 6 144 C3.94311523 145.63256836 3.94311523 145.63256836 1.30859375 147.30859375 C-6.70347461 152.71116127 -13.66569375 158.17891093 -15.59790039 168.05651855 C-17.6115094 185.52429477 -16.24528254 203.51051029 -15 221 C-12.80761501 222.14297371 -10.61072399 223.27531856 -8.41015625 224.40234375 C-7.49103455 224.88350647 -7.49103455 224.88350647 -6.55334473 225.37438965 C3.56782259 230.52680178 14.09924934 231.02724866 25 228 C38.10446582 222.87835112 46.07041806 215.488855 52.0703125 202.72265625 C55.4952713 194.06050318 55.90599552 185.0534787 54 176 C53.64993166 173.2559159 53.50189129 170.73120281 54 168 C56.1875 165.5 56.1875 165.5 59 163 C63.35377438 157.89314032 64.80827026 153.39179781 64.4921875 146.6796875 C63.48377917 141.18946434 60.33809317 137.4437321 56.625 133.4375 C55 131 55 131 54.9375 127.75 C56.05669873 123.79988685 57.68632155 120.81870932 59.72265625 117.2890625 C65.06624448 107.71309094 65.58615263 96.40204561 63.30859375 85.7734375 C59.58739138 74.71881958 52.56963676 65.31749652 42.36328125 59.49609375 C36.83829876 56.85576688 31.28194183 55.1096207 25.3125 53.7734375 C22.64761493 52.88214148 21.64974212 52.2677871 20 50 C19.20225115 47.8576356 18.4822526 45.68576301 17.8125 43.5 C13.84993622 31.69798571 6.86765905 23.21635948 -4 17 C-13.69491265 12.24018892 -24.98322465 11.15222261 -35.44140625 13.90625 C-37.45081524 14.61042336 -39.45188869 15.33910206 -41.44140625 16.09765625 C-45.76335301 17.6218848 -49.09935591 17.85028815 -53.375 15.9375 C-55.83289714 13.00693033 -56 10.77910616 -56 7 C-53.28885641 1.70094661 -48.38628459 -0.15350424 -43 -2 C-29.38122784 -6.09002953 -13.02632319 -5.78746114 0 0 Z M172 266 C170.41036905 279.3374118 169.25770852 292.67968552 168.2734375 306.07421875 C168.11956579 308.13924205 167.96547829 310.20424928 167.81118774 312.26924133 C167.49150299 316.55751613 167.17408224 320.84595035 166.85839844 325.13452148 C166.45448232 330.6198109 166.0452618 336.10468943 165.63443565 341.58946514 C165.31680414 345.8367141 165.00170582 350.08414803 164.687397 354.33164406 C164.53741191 356.35503307 164.38670293 358.37836857 164.23524094 360.40164757 C164.02456945 363.22160464 163.81725726 366.04178931 163.61083984 368.86206055 C163.54852676 369.68758423 163.48621368 370.51310791 163.42201233 371.36364746 C163.36600357 372.13818771 163.30999481 372.91272797 163.25228882 373.71073914 C163.20326605 374.37409617 163.15424328 375.03745321 163.10373497 375.72091198 C162.96308946 378.81093544 163 381.90677738 163 385 C181.81 385 200.62 385 220 385 C220.03996203 377.31811214 220.03996203 377.31811214 219.70301819 369.7040863 C219.63715012 368.78305618 219.57128204 367.86202606 219.50341797 366.91308594 C219.39356567 365.454552 219.39356567 365.454552 219.28149414 363.96655273 C219.20507187 362.91331314 219.1286496 361.86007355 219.0499115 360.7749176 C218.79872074 357.32752478 218.54217178 353.88055685 218.28515625 350.43359375 C218.10800135 348.02890894 217.9310379 345.62421003 217.7542572 343.21949768 C217.38427529 338.19879996 217.01155389 333.17831485 216.63696289 328.15795898 C216.15602667 321.70850721 215.68264038 315.25852631 215.21134281 308.80836391 C214.84828562 303.85238055 214.48095365 298.89672117 214.1123333 293.94114876 C213.93589464 291.56128355 213.76088242 289.18131216 213.58729744 286.80123711 C213.34523236 283.49011156 213.0973565 280.17947224 212.84790039 276.86889648 C212.77668976 275.87832245 212.70547913 274.88774841 212.6321106 273.86715698 C212.5634227 272.97150528 212.4947348 272.07585358 212.42396545 271.15306091 C212.3658925 270.37054175 212.30781954 269.58802259 212.24798679 268.78179073 C212.17951859 266.97855803 212.17951859 266.97855803 211 266 C208.1156618 265.91134792 205.25537842 265.88478704 202.37109375 265.90234375 C201.50686295 265.9037587 200.64263214 265.90517365 199.75221252 265.90663147 C196.98060708 265.91224761 194.2090812 265.92480281 191.4375 265.9375 C189.5631522 265.94251292 187.68880315 265.94707619 185.81445312 265.95117188 C181.20960353 265.96137314 176.60481759 265.98033295 172 266 Z M16 314 C16 318.62 16 323.24 16 328 C44.05 328 72.1 328 101 328 C101 323.38 101 318.76 101 314 C72.95 314 44.9 314 16 314 Z M283 314 C283 318.62 283 323.24 283 328 C310.72 328 338.44 328 367 328 C367 323.38 367 318.76 367 314 C339.28 314 311.56 314 283 314 Z M-90.3125 361.0625 C-92.03546135 364.06172902 -92.50615195 366.26692749 -93.1875 369.625 C-93.90234375 372.55078125 -93.90234375 372.55078125 -95 375 C-97.20526225 376.32670707 -99.12817095 376.78637953 -101.63671875 377.32421875 C-105.53115901 378.43783555 -108.27575566 381.07428421 -111 384 C-111 384.33 -111 384.66 -111 385 C-72.39 385 -33.78 385 6 385 C3.74351153 380.48702306 2.27338513 379.49952715 -2 377 C-3.19625 376.649375 -4.3925 376.29875 -5.625 375.9375 C-10.20732195 373.30690777 -10.52741903 370.54434905 -12.046875 365.6640625 C-13.7435539 360.9217059 -16.74290906 358.79251385 -20.875 356.1875 C-25.26423658 354.5195901 -28.77682141 354.05228621 -33.19921875 355.9375 C-33.95847656 356.30875 -34.71773438 356.68 -35.5 357.0625 C-39.70681616 359.08694054 -42.40973539 359.37707938 -47 358 C-48 357 -49 356 -50 355 C-53.11459232 355.16392591 -54.79683918 355.86099523 -57.375 357.625 C-61.01155005 359.52985955 -63.06303182 358.96697464 -67 358 C-67.99 357.484375 -68.98 356.96875 -70 356.4375 C-77.61978458 352.78635322 -84.40558181 355.79416756 -90.3125 361.0625 Z " fill="#000000" transform="translate(129,75)"/>
<path d="M0 0 C16.20116805 12.39784506 26.19644087 29.7979639 28.9453125 49.98046875 C29.34501941 54.0544046 29.38863342 57.99625151 29.25 62.0859375 C29.79785156 62.03953125 30.34570312 61.993125 30.91015625 61.9453125 C43.89451451 61.35415473 55.69848868 65.71978809 66.25 73.0859375 C67.178125 73.9728125 68.10625 74.8596875 69.0625 75.7734375 C72.6112955 78.34805384 75.19552058 78.94951987 79.4375 79.9609375 C90.7504831 82.66254541 99.57101711 88.48395303 106.25 98.0859375 C109.95586415 104.98013863 112.41044728 111.15925522 112.625 119.0234375 C112.67398437 120.24933594 112.72296875 121.47523438 112.7734375 122.73828125 C112.25 126.0859375 112.25 126.0859375 110.1238699 128.26384068 C106.68926052 130.44145868 104.78645591 130.58640247 100.74464417 130.58714294 C99.42856674 130.59697708 98.11248932 130.60681122 96.75653076 130.61694336 C95.30456283 130.60757158 93.85259749 130.59779228 92.40063477 130.58764648 C90.86597702 130.59143121 89.33132269 130.59693251 87.79667664 130.60401917 C83.63073109 130.61798181 79.46519828 130.60679373 75.29927564 130.59030795 C70.92826865 130.57643551 66.55728511 130.58292089 62.18626404 130.58644104 C54.83642964 130.58914401 47.48675843 130.57566899 40.13696289 130.55249023 C31.66932373 130.52596898 23.20195894 130.52410468 14.73429257 130.5358786 C6.56560838 130.54671057 -1.60297767 130.54042129 -9.77165413 130.52632332 C-13.23500991 130.52060129 -16.69829297 130.52061637 -20.1616497 130.52538872 C-24.25672711 130.53020916 -28.35150979 130.51985036 -32.4465313 130.49843407 C-33.9387106 130.49293093 -35.4309186 130.49234023 -36.92309952 130.49738693 C-58.55158569 130.56128634 -78.20060329 124.78715588 -93.9375 109.4609375 C-105.13574019 98.07298763 -112.10202891 83.99319525 -113.75 68.0859375 C-115.00296875 68.13234375 -116.2559375 68.17875 -117.546875 68.2265625 C-119.19789281 68.26408563 -120.84893642 68.30048521 -122.5 68.3359375 C-123.325 68.36945313 -124.15 68.40296875 -125 68.4375 C-131.11427956 68.53611741 -131.11427956 68.53611741 -134.29296875 66.28515625 C-136.45977309 63.0146178 -136.35549949 60.92076757 -135.75 57.0859375 C-133.9699707 54.39379883 -133.9699707 54.39379883 -130.75 52.0859375 C-126.71912981 51.38835591 -122.74795734 51.50476735 -118.66796875 51.59765625 C-117.49865311 51.60473099 -116.32933746 51.61180573 -115.12458801 51.61909485 C-111.3949042 51.64705256 -107.66672903 51.70979878 -103.9375 51.7734375 C-101.40692274 51.79851835 -98.87632192 51.82133189 -96.34570312 51.84179688 C-90.14662187 51.89688404 -83.94841872 51.98052628 -77.75 52.0859375 C-78.65905195 50.48578678 -79.57921586 48.89194606 -80.50390625 47.30078125 C-81.27069702 45.96841431 -81.27069702 45.96841431 -82.05297852 44.60913086 C-85.61685732 39.31022603 -90.05177933 36.62976492 -96.27734375 35.375 C-97.54707031 35.17648438 -98.81679688 34.97796875 -100.125 34.7734375 C-107.25016104 33.58472432 -110.93095123 31.10857082 -116.19921875 26.30859375 C-123.97015043 19.53729188 -134.09137905 16.53776958 -144.30859375 16.83984375 C-157.03328964 18.1224931 -168.48647965 23.19444182 -176.75 33.0859375 C-178.40687946 35.18991141 -180.0183025 37.31315861 -181.5859375 39.484375 C-182.75 41.0859375 -182.75 41.0859375 -183.75 42.0859375 C-185.64188391 42.38310745 -187.5387928 42.64854615 -189.4375 42.8984375 C-195.63761911 43.89251836 -199.45532254 45.1240134 -203.40234375 50.21875 C-203.84707031 50.83492187 -204.29179687 51.45109375 -204.75 52.0859375 C-202.78994019 52.04666138 -202.78994019 52.04666138 -200.7902832 52.0065918 C-195.93564012 51.91599426 -191.08107155 51.85865305 -186.22583008 51.8112793 C-184.1257673 51.78615699 -182.02579177 51.75205292 -179.92602539 51.70874023 C-176.9048916 51.64798879 -173.88491504 51.61970487 -170.86328125 51.59765625 C-169.92664139 51.57184982 -168.99000153 51.5460434 -168.02497864 51.51945496 C-163.46250651 51.51749815 -161.40829424 51.59536947 -157.65307617 54.39379883 C-155.16213914 57.91754002 -155.0581057 59.85769457 -155.75 64.0859375 C-157.84109748 66.812238 -159.02884908 67.94782177 -162.4372406 68.6006012 C-163.46140579 68.60679977 -164.48557098 68.61299835 -165.54077148 68.61938477 C-167.28794716 68.64313927 -167.28794716 68.64313927 -169.07041931 68.66737366 C-170.32464188 68.66241379 -171.57886444 68.65745392 -172.87109375 68.65234375 C-174.16314224 68.65854233 -175.45519073 68.66474091 -176.78639221 68.67112732 C-179.51931593 68.68152589 -182.25171881 68.67697945 -184.98461914 68.66235352 C-188.47990825 68.6451749 -191.97355202 68.66864832 -195.46865749 68.70384312 C-198.81123254 68.73114009 -202.15341242 68.72107915 -205.49609375 68.71484375 C-206.74829208 68.72810196 -208.00049042 68.74136017 -209.29063416 68.75502014 C-218.94374639 68.65143267 -218.94374639 68.65143267 -222.04321289 65.73413086 C-224.95796638 61.21169758 -224.14936176 58.09588322 -223.15625 53.09765625 C-220.62835081 43.13820157 -215.64741745 37.3155253 -208 30.7109375 C-204.75781346 29.08984423 -201.80625496 28.26813666 -198.3125 27.3359375 C-191.54482493 25.37929675 -188.89073526 22.53858889 -184.75 17.0859375 C-173.98718288 5.53318885 -158.42251604 0.20961588 -142.9375 -0.3515625 C-127.95886981 0.03207725 -113.87697665 4.86114815 -102.75 15.0859375 C-99.54634171 13.71195474 -97.87430521 12.26179969 -95.75 9.5234375 C-71.9160141 -18.29127755 -29.06637132 -20.23085504 0 0 Z M-83.75 20.0859375 C-82.55180026 23.68053672 -81.72177544 23.95201446 -78.5625 25.8359375 C-69.51155221 31.68821436 -64.02164116 40.22980554 -61.4375 50.7109375 C-60.66358911 54.95617687 -60.31198191 58.77875959 -60.75 63.0859375 C-62.29785156 65.27832031 -62.29785156 65.27832031 -64.75 67.0859375 C-67.4173866 67.50395519 -69.69108981 67.69063708 -72.359375 67.6953125 C-73.08618469 67.71184875 -73.81299438 67.72838501 -74.56182861 67.74542236 C-76.87463869 67.79386111 -79.18679157 67.81526239 -81.5 67.8359375 C-83.07164757 67.86410091 -84.64326459 67.89402887 -86.21484375 67.92578125 C-90.05984169 67.99961797 -93.90447572 68.04921698 -97.75 68.0859375 C-92.88426765 84.82094272 -85.98477576 98.04646964 -70.29296875 106.8046875 C-63.50080085 110.22685505 -57.36186856 112.52209538 -49.75 113.0859375 C-49.42128906 112.3125 -49.09257812 111.5390625 -48.75390625 110.7421875 C-44.8731346 102.24445446 -40.60550048 95.76870452 -31.90234375 91.78125 C-29.20515343 90.78659301 -26.49804683 89.92700638 -23.75 89.0859375 C-19.16400248 87.68191672 -17.15987775 85.57784614 -14.125 81.8984375 C-6.72849818 73.51427223 1.7748365 68.74429178 12.25 65.0859375 C14.79421087 50.53968841 10.05240886 37.01793252 1.77734375 25.12109375 C1.27332031 24.44949219 0.76929688 23.77789062 0.25 23.0859375 C-0.36617188 22.25964844 -0.98234375 21.43335937 -1.6171875 20.58203125 C-9.84856765 10.94860284 -23.27868836 4.17979295 -35.86743164 2.86474609 C-54.40936014 1.87252175 -70.24645712 7.00800772 -83.75 20.0859375 Z M-3.75 93.0859375 C-5.4566171 95.42449485 -7.02190561 97.79103334 -8.5234375 100.265625 C-9.75 102.0859375 -9.75 102.0859375 -11.75 103.0859375 C-13.64387931 103.3503334 -15.54013087 103.59787362 -17.4375 103.8359375 C-23.23586576 104.76868781 -26.42150788 106.133836 -30.75 110.0859375 C-31.41 111.4059375 -32.07 112.7259375 -32.75 114.0859375 C9.49 114.0859375 51.73 114.0859375 95.25 114.0859375 C92.48937031 105.80404843 88.62543192 101.1301889 80.875 97.05859375 C77.79632208 95.91783363 74.94789277 95.56942976 71.6875 95.2109375 C65.9035039 94.49968044 63.25093026 93.03813147 59.19921875 88.9609375 C51.20849132 81.27446622 41.11946217 77.99326119 30.25 77.7109375 C16.98832997 78.04140165 5.35689414 83.38469869 -3.75 93.0859375 Z " fill="#000000" transform="translate(398.75,12.9140625)"/>
<path d="M0 0 C0.84615039 -0.00205263 1.69230079 -0.00410527 2.5640921 -0.0062201 C5.42447219 -0.01191424 8.2848045 -0.01042989 11.14518929 -0.00901413 C13.20661574 -0.01159638 15.26804169 -0.01460914 17.32946694 -0.01801753 C23.01382523 -0.02610716 28.6981709 -0.02787819 34.38253427 -0.028615 C40.50533721 -0.03046212 46.62813355 -0.03800767 52.75093269 -0.04475021 C66.84617337 -0.05905673 80.94140989 -0.0648616 95.03665609 -0.06944216 C101.99918135 -0.07177696 108.96170578 -0.07537946 115.9242304 -0.07913754 C139.74921435 -0.09197309 163.57419784 -0.10269286 187.39918518 -0.10614014 C188.89508665 -0.10636177 190.39098812 -0.10658355 191.88688958 -0.10680549 C193.38643746 -0.10702613 194.88598534 -0.10724661 196.38553321 -0.10746694 C199.39397041 -0.10790949 202.40240761 -0.10835661 205.4108448 -0.10880661 C206.1567637 -0.108916 206.90268259 -0.10902539 207.67120508 -0.1091381 C231.86712556 -0.11277014 256.06301609 -0.1286957 280.2589251 -0.15199697 C305.82969463 -0.17657734 331.40044703 -0.19031212 356.97122872 -0.19150805 C359.77667372 -0.19167951 362.58211871 -0.19189495 365.38756371 -0.19214249 C366.07836233 -0.19219826 366.76916095 -0.19225402 367.48089287 -0.19231148 C378.61078661 -0.19346342 389.74064969 -0.20449739 400.87053307 -0.21902954 C412.05105362 -0.23337573 423.2315353 -0.23638905 434.41206609 -0.22858956 C440.47234246 -0.22467054 446.53251538 -0.22567355 452.59277916 -0.23964691 C458.13561531 -0.2523108 463.67826949 -0.25125486 469.22110511 -0.2390562 C471.23118704 -0.23708611 473.24128152 -0.24023753 475.25134574 -0.24890056 C477.97465224 -0.2598987 480.69730574 -0.25257257 483.42059326 -0.24050903 C484.60286343 -0.25190182 484.60286343 -0.25190182 485.80901784 -0.26352477 C490.76593021 -0.21582109 494.26319964 0.55848963 497.83613777 4.13142776 C498.03926277 6.09236526 498.03926277 6.09236526 498.08613777 8.50642776 C498.11191902 9.29791214 498.13770027 10.08939651 498.16426277 10.90486526 C497.83613777 13.13142776 497.83613777 13.13142776 496.83207703 14.74699271 C493.67110038 16.93952781 490.28556157 16.54142108 486.5729847 16.50895119 C485.28766495 16.51549167 485.28766495 16.51549167 483.97637916 16.52216429 C481.07937711 16.53319048 478.18284408 16.52266438 475.2858448 16.51237869 C473.19824224 16.51583235 471.11064149 16.52059493 469.02304459 16.52656043 C463.26636895 16.53914024 457.50984158 16.53286843 451.75316525 16.52360177 C445.55268321 16.51684008 439.35222745 16.52727815 433.15175056 16.53554153 C421.70036008 16.54813832 410.24903605 16.54700756 398.79764587 16.53880713 C388.21983419 16.53126919 377.64203996 16.52928627 367.06422615 16.53287506 C366.36337627 16.53310422 365.6625264 16.53333337 364.94043864 16.53356947 C362.09567096 16.53450344 359.25090329 16.53545864 356.40613563 16.53644876 C329.70399849 16.54563184 303.00189164 16.53729576 276.29975918 16.52115807 C252.5612181 16.50692058 228.8227253 16.50819443 205.08418465 16.52254105 C178.43180475 16.53859471 151.77945163 16.54498066 125.12706757 16.53570426 C122.28739485 16.53474206 119.44772212 16.53380354 116.60804939 16.53287506 C115.90881702 16.53263783 115.20958465 16.5324006 114.48916341 16.53215618 C103.91635798 16.52873952 93.34357188 16.53274245 82.77076912 16.54031372 C70.7525515 16.548877 58.73440339 16.54648818 46.71618795 16.53047149 C40.57920499 16.52256347 34.44232024 16.5195401 28.30533791 16.52941895 C22.69474933 16.53831414 17.08435063 16.533519 11.47377944 16.51748629 C9.43681901 16.51411642 7.39984276 16.51588154 5.36289239 16.52311365 C2.60812584 16.53214915 -0.14597807 16.52296892 -2.90070915 16.50895119 C-3.70376936 16.51597469 -4.50682957 16.52299818 -5.33422494 16.53023452 C-10.67057487 16.47542811 -10.67057487 16.47542811 -13.15540695 14.74259818 C-14.48918118 12.61167812 -14.5638937 11.1345753 -14.53886223 8.63142776 C-14.5465966 7.85799026 -14.55433098 7.08455276 -14.56229973 6.28767776 C-14.06951843 3.62086134 -13.29150732 2.7696146 -11.16386223 1.13142776 C-7.40762473 -0.1206514 -3.91248077 -0.00873168 0 0 Z " fill="#000000" transform="translate(14.163862228393555,495.8685722351074)"/>
<path d="M0 0 C1.32685318 -0.01441132 1.32685318 -0.01441132 2.68051147 -0.02911377 C4.11023788 -0.03548859 4.11023788 -0.03548859 5.56884766 -0.04199219 C7.04292587 -0.0505423 7.04292587 -0.0505423 8.54678345 -0.05926514 C10.62639286 -0.06871237 12.70601723 -0.07524802 14.78564453 -0.07910156 C17.96364497 -0.08880834 21.14099898 -0.11983505 24.31884766 -0.15136719 C26.33967715 -0.1578973 28.36051127 -0.16314774 30.38134766 -0.16699219 C31.33045013 -0.17933899 32.27955261 -0.19168579 33.25741577 -0.20440674 C38.18842531 -0.18779557 41.62524201 -0.09732304 45.60791016 3.16113281 C47.56929403 5.74659337 47.62089279 6.94908307 47.42041016 10.22363281 C46.58450832 13.24573944 46.13556752 14.38241096 43.60791016 16.16113281 C40.78509314 17.03033638 38.23117708 17.29122357 35.28588867 17.30639648 C34.44143692 17.31277634 33.59698517 17.31915619 32.72694397 17.32572937 C31.82270187 17.32684219 30.91845978 17.32795502 29.98681641 17.32910156 C28.58144875 17.33409416 28.58144875 17.33409416 27.14768982 17.33918762 C25.1682077 17.34424513 23.18871708 17.34659631 21.20922852 17.34643555 C18.18507826 17.34862221 15.16129278 17.36679089 12.13720703 17.38574219 C10.21207807 17.38867633 8.28694738 17.39066099 6.36181641 17.39160156 C5.45959854 17.39878708 4.55738068 17.4059726 3.62782288 17.41337585 C-1.7685984 17.39378794 -6.07470359 17.24678044 -10.26708984 13.47363281 C-11.92792739 10.05968896 -11.31161691 7.77356058 -10.39208984 4.16113281 C-7.66966489 0.44873515 -4.39189343 0.0385608 0 0 Z " fill="#000000" transform="translate(274.39208984375,192.8388671875)"/>
<path d="M0 0 C1.04647705 -0.00619858 2.0929541 -0.01239716 3.17114258 -0.01878357 C5.38003612 -0.02587629 7.58898318 -0.02271735 9.79785156 -0.01000977 C13.17613079 0.00385957 16.55164195 -0.03022967 19.9296875 -0.06835938 C22.07812568 -0.06931056 24.22656732 -0.06745178 26.375 -0.0625 C27.88767456 -0.08238731 27.88767456 -0.08238731 29.4309082 -0.10267639 C34.13804519 -0.04021337 36.45320336 0.02475973 40.328125 2.88305664 C42.76847263 6.40483459 42.87475091 8.36653957 42.1875 12.56640625 C40.8515625 14.74804688 40.8515625 14.74804688 38.1875 16.56640625 C34.46235448 17.17650756 30.76764654 17.12642237 27 17.09765625 C25.90534424 17.10148315 24.81068848 17.10531006 23.68286133 17.10925293 C21.36961955 17.11197361 19.05634708 17.10460159 16.74316406 17.08789062 C13.20047478 17.06648465 9.65981364 17.08768851 6.1171875 17.11328125 C3.86978719 17.110638 1.62238813 17.10551309 -0.625 17.09765625 C-1.68549561 17.10575317 -2.74599121 17.1138501 -3.83862305 17.12219238 C-11.16721595 17.02864987 -11.16721595 17.02864987 -14.47631836 14.65820312 C-15.90663397 12.4190392 -16.38015647 11.20651768 -16.375 8.56640625 C-16.39691406 7.90640625 -16.41882813 7.24640625 -16.44140625 6.56640625 C-14.11419192 -0.83442441 -6.30300972 -0.03100016 0 0 Z " fill="#000000" transform="translate(338.8125,165.43359375)"/>
<path d="M0 0 C1.04647705 -0.0038269 2.0929541 -0.00765381 3.17114258 -0.01159668 C5.38005538 -0.01431438 7.58900044 -0.00696322 9.79785156 0.00976562 C13.17586119 0.03117623 16.5517439 0.00995803 19.9296875 -0.015625 C22.07812969 -0.0129817 24.22657055 -0.00785668 26.375 0 C27.38344971 -0.00809692 28.39189941 -0.01619385 29.4309082 -0.02453613 C33.87021755 0.03472787 36.46839192 0.09375107 40.32397461 2.43945312 C42.33676008 4.69879361 42.84893218 5.55164558 42.75 8.53125 C42.75193359 9.52125 42.75193359 9.52125 42.75390625 10.53125 C41.86943891 13.65433469 40.85642888 14.60792821 38.1875 16.53125 C34.54888427 17.14862064 30.93706957 17.09130032 27.25390625 17.0625 C26.18381821 17.0663269 25.11373016 17.07015381 24.01121521 17.07409668 C21.74924783 17.07681738 19.48724908 17.06944521 17.2253418 17.05273438 C13.76604863 17.03134921 10.30883744 17.05252115 6.84960938 17.078125 C4.65103709 17.07548134 2.45246609 17.07035558 0.25390625 17.0625 C-0.77955429 17.07059692 -1.81301483 17.07869385 -2.87779236 17.08703613 C-7.37285445 17.02846946 -10.05665661 16.98910259 -13.96264648 14.62304688 C-15.94962714 12.37618792 -16.49529035 11.49011616 -16.4375 8.53125 C-16.45039063 7.87125 -16.46328125 7.21125 -16.4765625 6.53125 C-14.02276642 -0.85900642 -6.37094957 -0.05115287 0 0 Z " fill="#000000" transform="translate(245.8125,146.46875)"/>
</svg>
