<?xml version="1.0" encoding="UTF-8"?>
<svg version="1.1" xmlns="http://www.w3.org/2000/svg" width="512" height="512">
<path d="M0 0 C1.24486679 -0.01591187 2.48973358 -0.03182373 3.77232361 -0.04821777 C5.12759342 -0.04948505 6.48286462 -0.04966188 7.83813477 -0.04882812 C9.23291835 -0.05593197 10.62769902 -0.06363129 12.0224762 -0.07189941 C14.94361497 -0.08533569 17.86448353 -0.08691698 20.78564453 -0.08105469 C24.52297746 -0.07515888 28.25901115 -0.10574639 31.9960928 -0.14617157 C34.87611332 -0.17206379 37.75582159 -0.17492473 40.63594246 -0.17127991 C42.01343107 -0.17296976 43.39093432 -0.18259955 44.76830864 -0.20042419 C46.69697443 -0.2226373 48.62594741 -0.20969348 50.5546875 -0.1953125 C51.65070786 -0.19736694 52.74672821 -0.19942139 53.8759613 -0.20153809 C58.07812209 0.67890847 59.38708652 1.88727396 61.84204102 5.41992188 C62.74125487 9.05326629 62.93060492 12.6683364 63.12817383 16.39794922 C63.20532623 17.50599915 63.28247864 18.61404907 63.36196899 19.75567627 C63.61170384 23.42131511 63.82850498 27.08812928 64.04516602 30.75585938 C64.21296305 33.31366095 64.38281389 35.87132854 64.55462646 38.42886353 C64.95641215 44.48369124 65.33754031 50.53949559 65.70865512 56.5962702 C66.12855418 63.43104882 66.57429277 70.26405938 67.02249384 77.09703135 C67.79533754 88.88627675 68.54648393 100.67677472 69.28006363 112.46852684 C69.71453113 119.43874881 70.16824803 126.40714857 70.65155029 133.37417603 C71.59328552 148.43152955 71.59328552 148.43152955 69.07250977 151.74804688 C66.73019732 153.50375568 65.72124682 153.98804532 62.84204102 153.98242188 C62.18204102 154.00433594 61.52204102 154.02625 60.84204102 154.04882812 C57.72029224 153.06718447 56.65344845 151.07758617 54.84204102 148.41992188 C54.2043457 145.60839844 54.2043457 145.60839844 54.01391602 142.56054688 C53.93657227 141.44421875 53.85922852 140.32789063 53.77954102 139.17773438 C53.71766602 138.02015625 53.65579102 136.86257813 53.59204102 135.66992188 C53.51469727 134.5278125 53.43735352 133.38570312 53.35766602 132.20898438 C52.95234516 125.91203539 52.84204102 119.74844582 52.84204102 113.41992188 C34.69204102 113.41992188 16.54204102 113.41992188 -2.15795898 113.41992188 C-2.42608398 118.39054687 -2.69420898 123.36117187 -2.97045898 128.48242188 C-4.06446682 148.15183032 -5.57622457 167.78454348 -7.15795898 187.41992188 C-6.5496524 187.29987793 -5.94134583 187.17983398 -5.31460571 187.05615234 C46.58474512 176.81655883 46.58474512 176.81655883 70.32745361 172.25268555 C72.12134293 171.9072876 73.91492609 171.56029561 75.70819092 171.21166992 C78.18295577 170.73100663 80.65878155 170.25626113 83.13500977 169.78320312 C84.20776909 169.57308342 84.20776909 169.57308342 85.30220032 169.35871887 C88.87824512 168.68291995 92.21032291 168.36416824 95.84204102 168.41992188 C95.83315857 167.32855423 95.82427612 166.23718658 95.81512451 165.11274719 C95.73403872 154.8277779 95.67407558 144.54287346 95.63479233 134.25765705 C95.61391741 128.96989432 95.58560124 123.68238962 95.5402832 118.39477539 C95.49682246 113.29193269 95.47290319 108.18933819 95.46253204 103.08632469 C95.45514111 101.13944784 95.44070836 99.19258457 95.41912079 97.24581337 C95.3900838 94.51880156 95.38608514 91.79281536 95.38793945 89.06567383 C95.37355835 88.26078522 95.35917725 87.45589661 95.34436035 86.62661743 C95.36937396 83.22703464 95.78476361 80.55715574 97.09619141 77.41503906 C101.70665322 74.06510628 106.68671062 74.76934263 112.22973633 74.85229492 C113.49828461 74.85156479 114.76683289 74.85083466 116.07382202 74.8500824 C119.54903554 74.84864802 123.02338585 74.87803955 126.49839878 74.91295218 C130.13119185 74.94421301 133.7640048 74.94714617 137.39691162 74.95307922 C144.27475009 74.9686186 151.15219108 75.0096479 158.02985454 75.05982667 C165.86045551 75.11571756 173.69107548 75.14320592 181.52182627 75.16830385 C197.62879718 75.22056404 213.73536837 75.30850763 229.84204102 75.41992188 C230.04260888 74.60920982 230.24317675 73.79849777 230.44982243 72.96321869 C230.84881827 71.35738796 230.84881827 71.35738796 231.25587463 69.71911621 C231.5183175 68.66090416 231.78076036 67.60269211 232.05115604 66.51241302 C233.12129447 62.32799466 234.34137612 58.20106481 235.61938477 54.07617188 C235.99831627 52.85069641 235.99831627 52.85069641 236.38490295 51.60046387 C236.91313031 49.8993613 237.44336485 48.19888073 237.97558594 46.49902344 C238.78558988 43.90051702 239.57835318 41.29710233 240.37133789 38.69335938 C240.89046535 37.02896751 241.41061082 35.36489273 241.93188477 33.70117188 C242.16431381 32.92825806 242.39674286 32.15534424 242.63621521 31.35900879 C242.86647903 30.63725464 243.09674286 29.91550049 243.33398438 29.171875 C243.52923203 28.54188599 243.72447968 27.91189697 243.92564392 27.26281738 C245.21576095 24.66836255 246.5481676 23.2043807 248.84204102 21.41992188 C251.80848694 20.91871643 251.80848694 20.91871643 255.30712891 20.91821289 C256.61851334 20.90883194 257.92989777 20.89945099 259.28102112 20.88978577 C260.70891982 20.90026297 262.13681221 20.91163184 263.56469727 20.92382812 C265.03153047 20.92367312 266.49836409 20.92218397 267.9651947 20.91941833 C271.03606316 20.91803498 274.10646418 20.9305825 277.17724609 20.95336914 C281.11403698 20.98177929 285.05005281 20.97900914 288.98690128 20.96627903 C292.01438523 20.95932611 295.04168987 20.96710615 298.06915092 20.97953606 C299.52082062 20.98405261 300.97250954 20.98438557 302.42418098 20.98047066 C304.45160213 20.97756195 306.47901972 20.99621286 308.50634766 21.01586914 C310.23698204 21.02397362 310.23698204 21.02397362 312.00257874 21.03224182 C314.84204102 21.41992188 314.84204102 21.41992188 316.49573761 22.64261824 C318.2581987 24.96930663 318.2189044 26.34021141 318.22235775 29.24446011 C318.23079769 30.24421759 318.23923763 31.24397508 318.24793333 32.27402824 C318.24192328 33.37537245 318.23591324 34.47671666 318.22972107 35.61143494 C318.23779938 37.36289042 318.23779938 37.36289042 318.24604088 39.14972883 C318.25789959 42.39618641 318.25623609 45.64231679 318.24887407 48.88877761 C318.24415642 52.38783609 318.25663977 55.88683875 318.26689148 59.38587952 C318.28411258 66.24291883 318.28491265 73.09986665 318.27967858 79.95692199 C318.27564174 85.52890862 318.27707463 91.10086814 318.28242683 96.67285347 C318.28317526 97.46504542 318.28392368 98.25723738 318.28469478 99.07343515 C318.28622621 100.68262963 318.28776456 102.2918241 318.28930975 103.90101857 C318.3030468 119.00151075 318.29758868 134.10195117 318.28612453 149.20244218 C318.27619115 163.02503425 318.28913248 176.84749248 318.31305873 190.67006391 C318.33742618 204.8541078 318.34706339 219.03808931 318.340406 233.22215372 C318.33690849 241.1890299 318.33918073 249.15580311 318.35665703 257.1226635 C318.37134966 263.90484075 318.37205318 270.68684255 318.35458612 277.46901625 C318.34604923 280.93082308 318.34399139 284.3923161 318.35923767 287.8541069 C318.37234053 291.60351317 318.3609941 295.3520569 318.34324646 299.10142517 C318.35765397 300.7500954 318.35765397 300.7500954 318.37235254 302.4320721 C318.36253825 303.43443734 318.35272396 304.43680257 318.34261227 305.4695425 C318.34250493 306.33519752 318.34239759 307.20085254 318.342287 308.09273952 C317.66477082 311.24459629 316.34556311 312.44928731 313.84204102 314.41992188 C310.05121392 314.9614686 307.86968291 315.1155487 304.65335464 312.93836594 C302.05147029 309.32071514 302.30155481 305.91452588 302.36102295 301.62481689 C302.35760525 300.72710123 302.35418755 299.82938556 302.35066628 298.90446639 C302.3440667 295.89008979 302.36609795 292.87659953 302.38793945 289.86230469 C302.38906748 287.70410686 302.38843495 285.5459075 302.38616943 283.38771057 C302.38501962 277.52229813 302.40857246 271.65721147 302.43646526 265.79187489 C302.46143424 259.6646317 302.46381737 253.53738143 302.46856689 247.41009521 C302.4810099 235.80434374 302.51384954 224.1987426 302.55396485 212.59305739 C302.60699155 196.91233786 302.62861732 181.23157734 302.65197372 165.55079079 C302.6896099 140.8403885 302.7692921 116.13030348 302.84204102 91.41992188 C239.81204102 91.41992188 176.78204102 91.41992188 111.84204102 91.41992188 C111.84204102 180.18992187 111.84204102 268.95992188 111.84204102 360.41992188 C131.31204102 360.41992188 150.78204102 360.41992188 170.84204102 360.41992188 C170.80723633 355.91851562 170.77243164 351.41710937 170.73657227 346.77929688 C170.71727736 343.18852488 170.70100969 339.59776756 170.68679047 336.00697327 C170.67095288 332.21727077 170.64979118 328.42776978 170.61572266 324.63818359 C170.5831106 320.98773453 170.5651842 317.33748079 170.55740929 313.68689728 C170.55186904 312.29462866 170.54105017 310.90237064 170.52485085 309.51018524 C170.50305479 307.5593052 170.50181542 305.60822833 170.50146484 303.65722656 C170.49147209 301.99176788 170.49147209 301.99176788 170.48127747 300.29266357 C170.88729621 297.05955707 171.55904344 295.71176317 173.84204102 293.41992188 C177.02991267 292.35729799 179.3518811 292.27398448 182.70288086 292.24291992 C183.90778168 292.23008469 185.1126825 292.21724945 186.35409546 292.20402527 C187.65722687 292.19663834 188.96035828 292.1892514 190.30297852 292.18164062 C190.96697285 292.1775651 191.63096718 292.17348957 192.31508255 292.16929054 C195.82862281 292.14845409 199.34212427 292.13414112 202.85571289 292.12475586 C206.47961316 292.11368726 210.10290009 292.0792764 213.72658348 292.03958416 C216.51818973 292.01341185 219.3096498 292.00506363 222.10136795 292.00147438 C224.08503212 291.99425149 226.06859631 291.96781794 228.05209351 291.94108582 C229.26329865 291.94401138 230.47450378 291.94693695 231.72241211 291.94995117 C233.31767227 291.94115181 233.31767227 291.94115181 234.94515991 291.93217468 C238.56128445 292.54102072 240.22504905 293.90424287 242.84204102 296.41992188 C244.20443178 299.14470339 243.96174059 301.28833043 243.95556641 304.33837891 C243.95549088 305.57951447 243.95541534 306.82065002 243.95533752 308.09939575 C243.95023052 309.45884236 243.94501452 310.81828857 243.93969727 312.17773438 C243.93783243 313.56493072 243.93640884 314.95212772 243.93540955 316.33932495 C243.93158949 319.992267 243.92176357 323.64516935 243.91070557 327.2980957 C243.90048045 331.02489678 243.89585482 334.75170446 243.89086914 338.47851562 C243.88067138 345.79235278 243.86109851 353.1060809 243.84204102 360.41992188 C263.31204102 360.41992188 282.78204102 360.41992188 302.84204102 360.41992188 C302.84204102 352.82992188 302.84204102 345.23992187 302.84204102 337.41992188 C306.84204102 333.41992188 306.84204102 333.41992188 310.34204102 332.91992188 C313.84204102 333.41992188 313.84204102 333.41992188 316.02758789 334.95703125 C318.5046618 338.31934578 318.41773415 341.30616869 318.37329102 345.32617188 C318.37711792 346.08788696 318.38094482 346.84960205 318.3848877 347.63439941 C318.38760415 349.24146856 318.38026146 350.84858211 318.36352539 352.45556641 C318.34210888 354.91213774 318.3633328 357.36578498 318.38891602 359.82226562 C318.38627269 361.38607415 318.3811476 362.94988085 318.37329102 364.51367188 C318.38138794 365.24606079 318.38948486 365.97844971 318.39782715 366.73303223 C318.34009789 369.88084463 318.13662954 371.99203327 316.33170319 374.61368132 C312.83654167 377.14940787 309.64667252 376.9721322 305.48986816 376.92328644 C304.63551084 376.9291002 303.78115351 376.93491396 302.90090656 376.9409039 C300.01837237 376.95558159 297.13667935 376.94158253 294.25415039 376.92785645 C292.1746451 376.93246228 290.09514307 376.93881306 288.01564789 376.94676542 C282.28592658 376.96352535 276.55647039 376.95518213 270.82674789 376.94282055 C264.65352292 376.93379958 258.4803447 376.94772507 252.30712891 376.95874023 C240.90765417 376.97553074 229.50828799 376.97403089 218.10881591 376.96309436 C207.57871973 376.95304122 197.04865468 376.95040108 186.51855469 376.95518494 C185.82069137 376.95549048 185.12282805 376.95579602 184.40381736 376.95611082 C181.57112612 376.95735612 178.73843489 376.95862972 175.90574369 376.95994987 C149.32046161 376.9721922 122.73523365 376.96108202 96.14995992 376.93956228 C72.51864547 376.92057915 48.88741722 376.92227763 25.25610352 376.94140625 C-1.27983677 376.96281413 -27.81572922 376.97132406 -54.35167694 376.9589572 C-57.1792755 376.95767428 -60.00687408 376.95642292 -62.83447266 376.95518494 C-63.5307248 376.95486863 -64.22697695 376.95455232 -64.94432765 376.95422642 C-75.4690831 376.94967212 -85.99380402 376.95500582 -96.51855469 376.96510315 C-108.48293208 376.97652425 -120.44720762 376.97332877 -132.41158104 376.95198017 C-138.520367 376.94144059 -144.62897764 376.9373974 -150.73776245 376.95057678 C-156.32374533 376.96244631 -161.90938941 376.95602826 -167.4953413 376.93466657 C-169.52219398 376.93017735 -171.54907495 376.9325183 -173.57590961 376.94216973 C-176.31961549 376.95423827 -179.06214303 376.94195648 -181.80578613 376.92328644 C-183.00119412 376.93733343 -183.00119412 376.93733343 -184.22075176 376.95166421 C-187.77885287 376.90288167 -189.77135806 376.71251498 -192.64868408 374.53485399 C-194.48377226 371.96336293 -194.65840889 370.58207377 -194.65916443 367.44139099 C-194.66899857 366.43894348 -194.6788327 365.43649597 -194.68896484 364.40367126 C-194.67929688 363.31002762 -194.66962891 362.21638397 -194.65966797 361.08959961 C-194.66507095 359.93315948 -194.67047394 358.77671936 -194.67604065 357.5852356 C-194.6885613 353.75773633 -194.67201467 349.93098426 -194.65405273 346.10351562 C-194.65420763 343.4483996 -194.65564105 340.79331057 -194.65846252 338.13819885 C-194.66116375 332.57226814 -194.64769553 327.0065532 -194.62451172 321.44067383 C-194.59788925 315.00468014 -194.59615923 308.5690469 -194.60790008 302.133017 C-194.618676 295.94145051 -194.61249318 289.75001446 -194.5983448 283.55845833 C-194.59381939 280.92336469 -194.59350296 278.28826044 -194.5974102 275.65316582 C-194.6003107 271.97550364 -194.58387062 268.2984367 -194.56201172 264.62084961 C-194.56876419 262.97734779 -194.56876419 262.97734779 -194.57565308 261.30064392 C-194.56574844 260.30101624 -194.55584381 259.30138855 -194.54563904 258.27146912 C-194.54320914 257.40188285 -194.54077925 256.53229658 -194.53827572 255.63635921 C-194.07390404 252.93006042 -193.31819876 252.06665506 -191.15795898 250.41992188 C-188.60180664 249.62036133 -188.60180664 249.62036133 -185.57202148 249.03320312 C-184.47631836 248.81728516 -183.38061523 248.60136719 -182.25170898 248.37890625 C-181.10702148 248.16556641 -179.96233398 247.95222656 -178.78295898 247.73242188 C-177.0775293 247.39500977 -177.0775293 247.39500977 -175.33764648 247.05078125 C-170.52521957 246.12162136 -166.06458402 245.36564006 -161.15795898 245.41992188 C-161.1714356 244.84585004 -161.18491222 244.2717782 -161.19879723 243.68031025 C-161.31521481 234.24152702 -160.62813712 224.86889031 -159.99633789 215.45776367 C-159.87121717 213.55458947 -159.74639311 211.65139574 -159.62184143 209.7481842 C-159.28439115 204.6078593 -158.94222761 199.46785892 -158.59874392 194.32793403 C-158.38419206 191.11420627 -158.17065453 187.90041274 -157.95746994 184.68659401 C-157.21330617 173.46878624 -156.46524518 162.25124598 -155.71362305 151.03393555 C-155.01353284 140.58410849 -154.32213856 130.13373024 -153.63472617 119.68306226 C-153.04333388 110.69815157 -152.4458245 101.71366118 -151.84356439 92.72947246 C-151.48430288 87.36858395 -151.12753708 82.00755782 -150.77696609 76.64609337 C-150.4474638 71.60998067 -150.11035836 66.57443403 -149.76739311 61.53922081 C-149.642894 59.69231412 -149.52111075 57.84522203 -149.40225029 55.99794388 C-149.23952474 53.47554223 -149.06699107 50.95399484 -148.89199829 48.43241882 C-148.84724165 47.70255522 -148.802485 46.97269162 -148.75637209 46.22071093 C-148.45165876 42.00906599 -147.79214564 38.32338134 -146.15795898 34.41992188 C-142.5900899 31.48386294 -139.70968773 31.01008722 -135.15795898 31.04492188 C-134.14733398 31.0371875 -133.13670898 31.02945313 -132.09545898 31.02148438 C-128.75784512 31.47419264 -126.86065961 32.44115892 -124.15795898 34.41992188 C-122.61209023 37.51165939 -122.86436377 40.0142174 -123.15795898 43.41992188 C-124.84545898 45.85742188 -124.84545898 45.85742188 -127.15795898 47.41992188 C-129.80249023 47.51757812 -129.80249023 47.51757812 -132.15795898 47.41992188 C-132.19554321 48.39264038 -132.19554321 48.39264038 -132.23388672 49.38500977 C-133.08575166 71.2031833 -133.08575166 71.2031833 -133.65795898 80.29492188 C-133.73014648 81.44734375 -133.80233398 82.59976563 -133.87670898 83.78710938 C-134.15795898 86.41992188 -134.15795898 86.41992188 -135.15795898 88.41992188 C-119.31795898 88.41992188 -103.47795898 88.41992188 -87.15795898 88.41992188 C-87.48795898 86.76992187 -87.81795898 85.11992187 -88.15795898 83.41992188 C-88.37207476 80.62937924 -88.55156428 77.85069719 -88.69311523 75.05664062 C-88.75758095 73.86866631 -88.75758095 73.86866631 -88.823349 72.6566925 C-88.95911566 70.14043723 -89.08985832 67.62395003 -89.22045898 65.10742188 C-89.31192381 63.39581556 -89.40371707 61.68422676 -89.49584961 59.97265625 C-89.72035691 55.78860477 -89.94036047 51.60433812 -90.15795898 47.41992188 C-92.15991211 47.46875 -94.16186523 47.51757812 -96.16381836 47.56640625 C-98.15795898 47.41992188 -98.15795898 47.41992188 -100.65795898 45.91992188 C-102.911852 42.16343351 -102.64175967 39.77412806 -102.15795898 35.41992188 C-100.34632631 32.74560698 -99.28034822 32.46071829 -96.15795898 31.41992188 C-93.51685422 31.24593981 -90.92548787 31.14313172 -88.28295898 31.10742188 C-87.57526367 31.07841797 -86.86756836 31.04941406 -86.13842773 31.01953125 C-82.46088103 30.97501718 -80.35999452 31.29425256 -77.21264648 33.25195312 C-73.98830068 36.65406704 -73.96413671 39.8085293 -73.6580658 44.31858826 C-73.57254959 45.55066513 -73.48703339 46.782742 -73.39892578 48.05215454 C-73.30802581 49.42009969 -73.21720828 50.78805032 -73.12646484 52.15600586 C-73.02812563 53.59511022 -72.92944892 55.03419155 -72.83045959 56.47325134 C-72.56233649 60.38673127 -72.29925363 64.30053515 -72.03727412 68.21443057 C-71.76204539 72.31694742 -71.48295392 76.41920182 -71.20448303 80.52149963 C-70.73681131 87.42063633 -70.27250134 94.31999341 -69.81005859 101.21948242 C-69.27693599 109.17272756 -68.73808412 117.12556897 -68.19620222 125.07822174 C-67.73035572 131.91727874 -67.26769054 138.75654571 -66.8076182 145.59599358 C-66.53320238 149.67539836 -66.25771936 153.75472311 -65.97935295 157.8338604 C-65.71712832 161.67903239 -65.45892931 165.52445509 -65.20368004 169.37009621 C-65.10993553 170.77291486 -65.01485472 172.17564504 -64.91825485 173.57826996 C-64.78535083 175.51139169 -64.65802545 177.44489444 -64.53086853 179.37840271 C-64.4222016 180.99307009 -64.4222016 180.99307009 -64.31133938 182.64035702 C-64.09805207 187.89613447 -64.15795898 193.15981845 -64.15795898 198.41992188 C-50.95795898 195.77992188 -37.75795898 193.13992188 -24.15795898 190.41992188 C-23.80491699 185.11043457 -23.451875 179.80094727 -23.08813477 174.33056641 C-21.92071761 156.78805198 -20.74609806 139.24602531 -19.56776619 121.7042408 C-18.85352231 111.06868821 -18.14173939 100.4329817 -17.43579102 89.796875 C-16.8203263 80.52412726 -16.20020214 71.25170478 -15.57453144 61.97963989 C-15.24354918 57.07227858 -14.91486796 52.16478804 -14.59177017 47.25690079 C-14.28724248 42.63222007 -13.97646016 38.00800106 -13.66099167 33.38405418 C-13.54663813 31.69199914 -13.43451967 29.99979124 -13.32487488 28.30742455 C-11.80656234 4.92603679 -11.80656234 4.92603679 -8.26246738 1.68825722 C-5.41348555 -0.02875392 -3.315583 0.02548748 0 0 Z M3.84204102 16.41992188 C3.51204102 20.85429687 3.18204102 25.28867188 2.84204102 29.85742188 C2.73762695 31.23728271 2.63321289 32.61714355 2.52563477 34.03881836 C2.44442383 35.15329346 2.36321289 36.26776855 2.27954102 37.41601562 C2.19575195 38.54193115 2.11196289 39.66784668 2.02563477 40.82788086 C1.81135996 45.02020162 1.84204102 49.22212876 1.84204102 53.41992188 C17.35204102 53.41992188 32.86204102 53.41992188 48.84204102 53.41992188 C49.41970421 35.33101287 49.41970421 35.33101287 45.84204102 16.41992188 C31.98204102 16.41992188 18.12204102 16.41992188 3.84204102 16.41992188 Z M258.84204102 37.41992188 C255.52486563 45.66763356 255.52486563 45.66763356 252.70141602 54.01367188 C252.35336914 55.14546875 252.00532227 56.27726562 251.64672852 57.44335938 C251.29868164 58.590625 250.95063477 59.73789063 250.59204102 60.91992188 C250.22852539 62.098125 249.86500977 63.27632812 249.49047852 64.49023438 C247.62025145 69.86037642 247.62025145 69.86037642 246.84204102 75.41992188 C265.32204102 75.41992188 283.80204102 75.41992188 302.84204102 75.41992188 C302.84204102 62.87992188 302.84204102 50.33992188 302.84204102 37.41992188 C288.32204102 37.41992188 273.80204102 37.41992188 258.84204102 37.41992188 Z M0.84204102 69.41992188 C-1.42739213 78.49765445 -0.76841729 88.07092124 -1.15795898 97.41992188 C16.33204102 97.41992188 33.82204102 97.41992188 51.84204102 97.41992188 C51.18870855 83.38963074 51.18870855 83.38963074 49.84204102 69.41992188 C33.67204102 69.41992188 17.50204102 69.41992188 0.84204102 69.41992188 Z M-136.15795898 104.41992188 C-136.81795898 114.64992188 -137.47795898 124.87992188 -138.15795898 135.41992188 C-120.33795898 135.41992188 -102.51795898 135.41992188 -84.15795898 135.41992188 C-84.82130389 119.89359576 -84.82130389 119.89359576 -86.15795898 104.41992188 C-102.65795898 104.41992188 -119.15795898 104.41992188 -136.15795898 104.41992188 Z M-139.15795898 151.41992188 C-140.82231498 172.58101948 -142.42235529 193.7413763 -143.84545898 214.91992188 C-143.91189606 215.8972226 -143.97833313 216.87452332 -144.04678345 217.88143921 C-144.23619957 220.67534909 -144.42226635 223.46946064 -144.60717773 226.26367188 C-144.66328217 227.08817337 -144.7193866 227.91267487 -144.77719116 228.76216125 C-144.82767609 229.53803085 -144.87816101 230.31390045 -144.93017578 231.11328125 C-144.97442184 231.77952515 -145.01866791 232.44576904 -145.06425476 233.13220215 C-145.19096225 236.22567242 -145.15795898 239.32385774 -145.15795898 242.41992188 C-136.57795898 240.76992188 -127.99795898 239.11992187 -119.15795898 237.41992188 C-118.86926724 229.70182852 -118.86926724 229.70182852 -118.58984375 221.98339844 C-118.55173584 221.01885742 -118.51362793 220.05431641 -118.47436523 219.06054688 C-118.43770752 218.07602539 -118.4010498 217.09150391 -118.36328125 216.07714844 C-118.18197157 213.73068636 -117.81464079 211.67273775 -117.15795898 209.41992188 C-116.42270996 209.27893066 -115.68746094 209.13793945 -114.92993164 208.99267578 C-111.54752977 208.34382854 -108.16524381 207.69437894 -104.78295898 207.04492188 C-103.62666992 206.82320312 -102.47038086 206.60148437 -101.27905273 206.37304688 C-98.99130484 205.93359248 -96.70386409 205.49253578 -94.41674805 205.04980469 C-92.31539405 204.64363947 -90.21323023 204.24163119 -88.11010742 203.84472656 C-87.20550781 203.67102539 -86.3009082 203.49732422 -85.36889648 203.31835938 C-84.57531738 203.16802246 -83.78173828 203.01768555 -82.96411133 202.86279297 C-81.14820065 202.58295273 -81.14820065 202.58295273 -80.15795898 201.41992188 C-79.66695214 191.58877175 -80.40298654 181.72258142 -81.09545898 171.91992188 C-81.1837068 170.58921635 -81.27159849 169.25848716 -81.35913086 167.92773438 C-81.7421171 162.33329829 -82.23422218 156.96234271 -83.15795898 151.41992188 C-101.63795898 151.41992188 -120.11795898 151.41992188 -139.15795898 151.41992188 Z M85.88952637 185.68377686 C85.17758008 185.81979537 84.46563378 185.95581389 83.73211336 186.09595418 C81.33920376 186.55383556 78.94707969 187.01569683 76.55493164 187.47753906 C74.84154164 187.80625401 73.12810564 188.13472923 71.41462708 188.46298218 C66.74995961 189.35735383 62.08597086 190.25521973 57.4221096 191.15378475 C52.52926848 192.09595294 47.63587357 193.03523653 42.74255371 193.97491455 C34.5069546 195.55687952 26.27178026 197.14104057 18.03686523 198.7265625 C8.55885316 200.55140547 -0.91974976 202.37315223 -10.39870024 204.19311404 C-19.5447409 205.94920565 -28.69040763 207.70723699 -37.83589172 209.46622467 C-41.71085429 210.21149648 -45.58593184 210.95616609 -49.46110535 211.70034027 C-54.05128617 212.58193619 -58.64112986 213.46526815 -63.23073769 214.34984207 C-64.89970857 214.67124763 -66.56878414 214.99211023 -68.2379818 215.31233597 C-79.90652233 217.55141124 -91.53823726 219.93997712 -103.15795898 222.41992188 C-103.17467651 223.23521362 -103.19139404 224.05050537 -103.20861816 224.89050293 C-103.27965047 228.17169706 -103.37539562 231.45183904 -103.47045898 234.73242188 C-103.49301758 235.89966797 -103.51557617 237.06691406 -103.53881836 238.26953125 C-103.59199219 239.94692383 -103.59199219 239.94692383 -103.64624023 241.65820312 C-103.67242432 242.68985596 -103.6986084 243.72150879 -103.72558594 244.78442383 C-104.15795898 247.41992188 -104.15795898 247.41992188 -105.44238281 249.2109375 C-107.38296779 250.57848792 -108.79567972 251.05356206 -111.11889648 251.52539062 C-111.96170166 251.70038086 -112.80450684 251.87537109 -113.67285156 252.05566406 C-114.61668701 252.23774414 -115.56052246 252.41982422 -116.53295898 252.60742188 C-117.53286865 252.80883789 -118.53277832 253.01025391 -119.56298828 253.21777344 C-133.36875468 255.94203157 -147.24439742 258.32460014 -161.10668945 260.7409668 C-162.56075951 260.9954081 -162.56075951 260.9954081 -164.04420471 261.25498962 C-165.88591975 261.57691093 -167.72797836 261.89687452 -169.57041931 262.21461487 C-170.80641624 262.43080727 -170.80641624 262.43080727 -172.06738281 262.65136719 C-172.78775223 262.77618469 -173.50812164 262.9010022 -174.25032043 263.02960205 C-176.36643454 263.42294703 -176.36643454 263.42294703 -179.15795898 264.41992188 C-179.15795898 296.09992188 -179.15795898 327.77992188 -179.15795898 360.41992188 C-88.40795898 360.41992188 2.34204102 360.41992188 95.84204102 360.41992188 C95.84204102 302.33992187 95.84204102 244.25992187 95.84204102 184.41992188 C92.37165935 184.41992188 89.30182074 185.02810426 85.88952637 185.68377686 Z M186.84204102 308.41992188 C186.84204102 325.57992188 186.84204102 342.73992187 186.84204102 360.41992188 C200.37204102 360.41992188 213.90204102 360.41992188 227.84204102 360.41992188 C227.84204102 343.25992188 227.84204102 326.09992188 227.84204102 308.41992188 C214.31204102 308.41992188 200.78204102 308.41992188 186.84204102 308.41992188 Z " fill="#000000" transform="translate(194.157958984375,135.580078125)"/>
<path d="M0 0 C1.74331604 -0.02893593 1.74331604 -0.02893593 3.52185059 -0.05845642 C8.84983491 -0.116493 14.17765863 -0.16580054 19.50585938 -0.19628906 C22.30711316 -0.21402159 25.10734485 -0.2487132 27.90820312 -0.29882812 C31.96304932 -0.37126754 36.01681114 -0.39334533 40.07226562 -0.41235352 C41.31020874 -0.44018417 42.54815186 -0.46801483 43.8236084 -0.49668884 C53.07028422 -0.47508336 61.47991528 1.51858102 68.26062012 8.21583557 C75.42481988 16.96000796 76.13117102 26.39155834 75.43554688 37.27807617 C74.6136135 44.94299263 69.84527159 51.18322174 64.22851562 56.20874023 C58.58374799 59.92183834 53.0722011 61.37815038 46.32226562 61.20874023 C44.95908203 61.21067383 44.95908203 61.21067383 43.56835938 61.21264648 C41.67482934 61.2100419 39.78108512 61.17616009 37.88867188 61.11108398 C35.07905541 61.14695143 32.88296097 61.27376103 30.22851562 62.20874023 C27.9092841 64.94347488 26.65732799 67.94669384 25.22851562 71.20874023 C20.28194126 77.27194637 13.75233746 80.39807459 6.22851562 82.20874023 C3.39648438 82.30639648 3.39648438 82.30639648 1.22851562 82.20874023 C1.25171875 83.10334961 1.27492188 83.99795898 1.29882812 84.91967773 C1.57834582 103.647363 1.57834582 103.647363 -3.33398438 110.08374023 C-8.40634778 115.26637241 -14.14585859 117.40729977 -21.33398438 117.64624023 C-28.67075226 117.30856473 -33.53743561 115.88316238 -38.64648438 110.45874023 C-43.81578374 104.54410003 -44.06297397 97.74406168 -43.89648438 90.27124023 C-43.88746094 89.49200195 -43.8784375 88.71276367 -43.86914062 87.90991211 C-43.84582128 86.00938577 -43.80996023 84.10902015 -43.77148438 82.20874023 C-45.05023438 82.14686523 -46.32898438 82.08499023 -47.64648438 82.02124023 C-55.24045745 81.13766475 -61.48397551 77.98424971 -66.70898438 72.39624023 C-72.43556709 65.16053454 -73.94142247 57.36273871 -73.77148438 48.20874023 C-72.64330762 39.35857696 -69.76993799 32.61053159 -63.03710938 26.68139648 C-55.60232898 21.00661941 -48.46788248 20.94483779 -39.39648438 21.08374023 C-37.72005859 21.09727539 -37.72005859 21.09727539 -36.00976562 21.11108398 C-33.26344976 21.13455677 -30.51757965 21.16739296 -27.77148438 21.20874023 C-27.49304688 20.30124023 -27.21460938 19.39374023 -26.92773438 18.45874023 C-23.86407542 9.84737452 -17.87664614 5.07407316 -9.77148438 1.20874023 C-6.48844314 0.18462578 -3.42991198 0.05334494 0 0 Z M-11.65039062 23.38842773 C-13.35775001 26.16065586 -14.12497407 29.11116742 -14.90039062 32.25561523 C-15.77148438 34.20874023 -15.77148438 34.20874023 -17.43408203 35.3137207 C-20.40571034 36.451593 -22.85992412 36.46505394 -26.04101562 36.48217773 C-27.25982422 36.50280273 -28.47863281 36.52342773 -29.734375 36.54467773 C-32.28899602 36.57059981 -34.8437064 36.58890039 -37.3984375 36.59936523 C-44.36302493 36.73153453 -49.16029974 36.912176 -54.77148438 41.20874023 C-58.17277659 44.93918976 -58.34847974 48.83748406 -58.18164062 53.70483398 C-57.51187933 57.79356719 -55.81717201 60.44133878 -52.77148438 63.20874023 C-48.7897764 65.47284869 -45.10431891 66.34849561 -40.64648438 67.08374023 C-35.97772956 67.93518488 -33.71405611 69.34661484 -30.77148438 73.20874023 C-29.01381071 76.18929526 -28.51658253 78.38622874 -28.46289062 81.83374023 C-28.43775391 82.70514648 -28.41261719 83.57655273 -28.38671875 84.47436523 C-28.35156387 86.29721078 -28.32031344 88.1201358 -28.29296875 89.94311523 C-28.26654297 90.81452148 -28.24011719 91.68592773 -28.21289062 92.58374023 C-28.19943604 93.37522461 -28.18598145 94.16670898 -28.17211914 94.98217773 C-27.67526438 97.74349119 -26.63155131 99.13812664 -24.77148438 101.20874023 C-22.92880569 102.29442527 -22.92880569 102.29442527 -20.77148438 102.20874023 C-18.03964739 101.05300012 -18.03964739 101.05300012 -15.77148438 99.20874023 C-14.84100597 96.41730503 -14.63699121 94.6421723 -14.59570312 91.75170898 C-14.57185547 90.88610352 -14.54800781 90.02049805 -14.5234375 89.12866211 C-14.48075069 87.3189999 -14.44934781 85.50903344 -14.4296875 83.69897461 C-14.25024584 78.06951417 -13.57342511 74.64901419 -9.77148438 70.20874023 C-6.04829625 67.66607517 -2.64547681 66.98657493 1.72851562 66.33374023 C5.68456159 65.64223626 8.93273373 64.98493169 11.95507812 62.11108398 C14.43284444 58.40963553 15.73864007 54.17197023 17.15039062 49.97436523 C18.22851562 47.20874023 18.22851562 47.20874023 20.22851562 46.20874023 C22.3357076 46.08979179 24.44633336 46.02958271 26.55664062 45.99780273 C27.83152344 45.96944336 29.10640625 45.94108398 30.41992188 45.91186523 C32.44514391 45.87074397 34.47013617 45.83384977 36.49560547 45.80737305 C38.45367595 45.7795718 40.4114445 45.73261865 42.36914062 45.68530273 C43.53993164 45.6654834 44.71072266 45.64566406 45.91699219 45.62524414 C50.8809052 45.00091241 54.1525287 43.37196935 57.54101562 39.70874023 C60.37249012 35.51396321 60.56614941 32.18883852 60.22851562 27.20874023 C58.48204912 22.35744439 55.85163994 18.61201472 51.22851562 16.20874023 C47.15150626 15.49070021 43.13632575 15.5553003 39.00585938 15.61499023 C37.23850182 15.61492981 37.23850182 15.61492981 35.43544006 15.61486816 C32.94998832 15.62021922 30.46453678 15.63778385 27.97924805 15.66674805 C24.17574366 15.70863311 20.37400885 15.70781181 16.5703125 15.70092773 C14.15298249 15.71141945 11.7356616 15.72435745 9.31835938 15.73999023 C8.18180405 15.74019165 7.04524872 15.74039307 5.87425232 15.74060059 C4.28218712 15.76446838 4.28218712 15.76446838 2.65795898 15.78881836 C1.72785507 15.79723755 0.79775116 15.80565674 -0.16053772 15.81433105 C-5.19666546 16.5750877 -8.50810187 19.49238124 -11.65039062 23.38842773 Z " fill="#000000" transform="translate(240.771484375,-0.208740234375)"/>
<path d="M0 0 C8.46166073 6.02911982 12.59767144 12.07584176 15 22 C16.79232056 21.9685791 16.79232056 21.9685791 18.62084961 21.93652344 C23.08801107 21.86368388 27.55512088 21.8180415 32.02270508 21.78027344 C33.94987845 21.76025757 35.87699186 21.73303617 37.80395508 21.69824219 C40.58690252 21.64927959 43.36904156 21.62693083 46.15234375 21.609375 C47.00271713 21.58872986 47.85309052 21.56808472 48.72923279 21.54681396 C57.69248891 21.5435122 64.73991581 24.96104768 71.2734375 31 C77.32111657 38.0054563 78.3733496 46.63471535 78.2734375 55.546875 C77.55471235 64.62334688 73.87321245 72.02819246 67 78 C61.17376539 82.24623878 55.05283027 82.74070477 48 83 C48.0314209 83.84594727 48.0314209 83.84594727 48.06347656 84.70898438 C48.14748501 87.30580249 48.19892229 89.90233362 48.25 92.5 C48.28351563 93.386875 48.31703125 94.27375 48.3515625 95.1875 C48.44212643 101.34584725 47.49383722 105.85961486 44 111 C38.8256313 116.1743687 33.35433718 118.1692229 26.1875 118.5 C19.21479683 118.29903236 13.23924992 116.34374186 8.3046875 111.25 C4.88731589 106.71954164 3.86492321 102.99136429 3.90234375 97.453125 C3.90556641 96.60878906 3.90878906 95.76445312 3.91210938 94.89453125 C3.92467773 93.58548828 3.92467773 93.58548828 3.9375 92.25 C3.94201172 91.36183594 3.94652344 90.47367187 3.95117188 89.55859375 C3.962926 87.37232671 3.97935751 85.18619821 4 83 C3.40977051 82.95246582 2.81954102 82.90493164 2.21142578 82.85595703 C-7.00891501 81.99549231 -14.15959908 78.7819166 -20.52734375 71.90234375 C-23.56360542 67.98017019 -26 64.02400833 -26 59 C-26.86625 58.7525 -27.7325 58.505 -28.625 58.25 C-37.25868115 55.05234031 -43.57280643 48.6779459 -47.4375 40.375 C-50.54304947 31.63644089 -50.33342105 21.73213157 -46.38671875 13.3125 C-41.57918555 5.29543055 -35.12052367 -0.67155871 -26.1484375 -3.60546875 C-17.10669898 -5.26586073 -7.98021835 -4.71873781 0 0 Z M-29.8125 18 C-33.11042257 22.52286524 -33.562151 26.52423286 -33 32 C-31.26665298 36.91114988 -28.516273 40.39122119 -24 43 C-21.40852547 43.8877094 -18.83918068 44.60419117 -16.171875 45.2265625 C-14 46 -14 46 -12 49 C-11.7052928 50.40804549 -11.45901476 51.826709 -11.25 53.25 C-10.18750387 58.37842623 -7.91044638 61.56978387 -4 65 C-1.54365641 66.43286709 0.53278133 66.92461682 3.32421875 67.375 C9.37882838 68.38862672 12.76597093 69.44841875 17 74 C20.02281131 79.44942801 19.38801304 85.8117302 19.47851562 91.87109375 C19.50494141 92.74121094 19.53136719 93.61132812 19.55859375 94.5078125 C19.57204834 95.29816895 19.58550293 96.08852539 19.59936523 96.90283203 C20.09540935 99.49943105 20.95796036 100.37250035 23 102 C25.55741218 103.07246317 26.56717905 103.16076207 29.1875 102.1875 C31.15022193 101.11878013 31.15022193 101.11878013 32 99 C32.1157692 97.63460442 32.178466 96.26444117 32.2109375 94.89453125 C32.23929687 94.07533203 32.26765625 93.25613281 32.296875 92.41210938 C32.34836531 90.69876945 32.39280505 88.98520099 32.4296875 87.27148438 C32.67862525 80.6279581 33.46830209 75.63718533 38.25 70.65625 C42.47925282 68.10908637 46.81012154 67.69489389 51.625 66.90625 C55.96653391 65.74046775 58.70907668 63.93846042 61.21484375 60.17578125 C63.34187689 54.691485 63.14558483 50.48432416 61 45 C58.74061142 41.46029122 56.85539597 39.57819956 53 38 C50.68779312 37.70287949 50.68779312 37.70287949 48.203125 37.74462891 C47.2553418 37.73766998 46.30755859 37.73071106 45.33105469 37.72354126 C44.31430664 37.72453827 43.29755859 37.72553528 42.25 37.7265625 C40.09374475 37.70627938 37.93749479 37.68542871 35.78125 37.6640625 C32.38406918 37.64142775 28.98709661 37.62497783 25.58984375 37.61914062 C22.3095139 37.60963793 19.03012073 37.5758934 15.75 37.5390625 C14.73325195 37.54410797 13.71650391 37.54915344 12.66894531 37.55435181 C5.64205089 37.45601769 5.64205089 37.45601769 2.38037109 35.1394043 C0.67682159 32.49911347 0.17222517 30.27654644 -0.375 27.1875 C-1.64048275 21.52394606 -3.46895064 17.70017234 -8 14 C-15.50001403 9.46333164 -24.20190834 11.57419417 -29.8125 18 Z " fill="#000000" transform="translate(57,33)"/>
<path d="M0 0 C1.28163025 -0.0071553 2.5632605 -0.01431061 3.88372803 -0.02168274 C7.39630788 -0.04020048 10.9081289 -0.02725684 14.42067719 -0.00759244 C18.09702946 0.00879283 21.77333362 -0.00001865 25.44970703 -0.00511169 C31.62349571 -0.00963283 37.79698144 0.00623807 43.97070312 0.03417969 C51.10769598 0.06623198 58.24414244 0.06621612 65.38117409 0.04896492 C72.24765497 0.03309925 79.11393559 0.03983354 85.98040771 0.05690193 C88.90221489 0.0637733 91.82386158 0.0627392 94.7456665 0.05535698 C98.82554462 0.04627092 102.9045791 0.07023042 106.984375 0.09765625 C108.1980072 0.09113037 109.4116394 0.08460449 110.66204834 0.07788086 C112.32762787 0.09696754 112.32762787 0.09696754 114.02685547 0.11643982 C114.99138641 0.11924674 115.95591736 0.12205366 116.94967651 0.12494564 C120.2630563 0.7845665 121.4526215 1.98026305 123.4921875 4.63110352 C123.90216885 7.47113906 124.07726235 9.91711225 124.05859375 12.75610352 C124.06479233 13.54001465 124.07099091 14.32392578 124.07737732 15.1315918 C124.08446776 16.7857133 124.08131489 18.43990628 124.06860352 20.09399414 C124.05473017 22.62332501 124.08882103 25.14895973 124.12695312 27.67797852 C124.12790432 29.28735442 124.12604549 30.89673495 124.12109375 32.50610352 C124.13435196 33.26036621 124.14761017 34.01462891 124.16127014 34.79174805 C124.10193722 38.14128102 123.84632098 40.19027678 121.72436523 42.83169556 C116.68876943 45.63509683 111.81625194 45.1708572 106.14624023 45.11694336 C104.26746689 45.1226384 104.26746689 45.1226384 102.35073853 45.12844849 C98.92282877 45.13458279 95.49588619 45.12286308 92.06809115 45.1025424 C88.47851092 45.08494664 84.88894623 45.08849695 81.29933167 45.08926392 C75.27278929 45.08739227 69.24644862 45.07004585 63.2199707 45.04272461 C56.25405379 45.01126094 49.2883576 45.00072899 42.32237476 45.00219572 C34.90251481 45.00354697 27.48273985 44.9896641 20.06290555 44.97130251 C17.9261189 44.96704169 15.78934598 44.96562041 13.65255547 44.96482468 C9.67120446 44.96244122 5.69003667 44.94301241 1.70874023 44.92163086 C-0.06727318 44.92299042 -0.06727318 44.92299042 -1.87916565 44.92437744 C-2.96286438 44.91584747 -4.04656311 44.9073175 -5.1631012 44.89852905 C-6.10421029 44.89517736 -7.04531939 44.89182568 -8.01494694 44.88837242 C-10.65326502 44.61609251 -12.26857303 44.02784096 -14.5078125 42.63110352 C-17.06057125 39.18229297 -16.83035589 35.32292657 -16.84375 31.19750977 C-16.8504068 30.48255844 -16.8570636 29.76760712 -16.86392212 29.0309906 C-16.8740242 27.52231409 -16.8787399 26.01359311 -16.87841797 24.50488281 C-16.88279196 22.20440681 -16.91913448 19.90584981 -16.95703125 17.60571289 C-16.96289997 16.13631838 -16.966869 14.6669148 -16.96875 13.19750977 C-16.98312103 12.51402969 -16.99749207 11.83054962 -17.01229858 11.12635803 C-16.9830421 8.04822608 -16.55973849 5.74261336 -15.25918579 2.94970703 C-10.72822733 -0.86856665 -5.73488416 -0.05525019 0 0 Z M-0.5078125 16.63110352 C-0.5078125 20.59110352 -0.5078125 24.55110352 -0.5078125 28.63110352 C35.1321875 28.63110352 70.7721875 28.63110352 107.4921875 28.63110352 C107.4921875 24.67110352 107.4921875 20.71110352 107.4921875 16.63110352 C71.8521875 16.63110352 36.2121875 16.63110352 -0.5078125 16.63110352 Z " fill="#000000" transform="translate(347.5078125,252.368896484375)"/>
<path d="M0 0 C0.87785363 -0.00623996 1.75570726 -0.01247993 2.66016251 -0.01890898 C5.60753999 -0.03488899 8.55409619 -0.02221508 11.5014801 -0.00964355 C13.6121621 -0.01506248 15.72284032 -0.02218384 17.83351135 -0.03088379 C23.57112452 -0.04914837 29.30845059 -0.04203628 35.04606891 -0.02936745 C41.04554197 -0.01925473 47.04499011 -0.02862844 53.04446411 -0.03491211 C63.12148969 -0.04219411 73.19839809 -0.03258686 83.27540588 -0.0135498 C94.93047336 0.00821401 106.5852609 0.00117322 118.24032158 -0.02085543 C128.24042199 -0.03900067 138.24043807 -0.04157183 148.24054962 -0.03110075 C154.21604092 -0.02486028 160.1914006 -0.02404537 166.16688347 -0.0372467 C171.78529604 -0.04879155 177.40334739 -0.04080413 183.02172089 -0.01766968 C185.08530388 -0.01237507 187.1489172 -0.01390915 189.21248817 -0.02272034 C192.02667371 -0.0336297 194.83969736 -0.01996779 197.65380859 0 C198.47306979 -0.00892289 199.29233099 -0.01784577 200.13641828 -0.02703905 C203.93555073 0.02535088 206.15506398 0.35858736 209.39492893 2.41468048 C211.53546225 4.6601096 212.07493161 5.45971728 212.01539612 8.50793457 C212.02828674 9.16793457 212.04117737 9.82793457 212.05445862 10.50793457 C210.99047882 13.71239137 209.21383883 14.71444521 206.39039612 16.50793457 C203.36906983 16.89359986 200.71622591 17.04892082 197.69850159 17.01586914 C196.38656484 17.02522908 196.38656484 17.02522908 195.04812431 17.03477812 C192.11766979 17.05073178 189.1880443 17.03809454 186.25758362 17.0255127 C184.15660619 17.03093275 182.05563256 17.03805475 179.95466614 17.04675293 C174.2481023 17.06500294 168.54182743 17.0579117 162.83525848 17.04523659 C156.86648778 17.03511768 150.897742 17.04449918 144.92897034 17.05078125 C134.90499931 17.05806087 124.88114613 17.04846162 114.85719299 17.02941895 C103.26402022 17.00764969 91.67112883 17.01470083 80.07796288 17.03672457 C70.12879717 17.05486953 60.17971623 17.05744129 50.23053932 17.04696989 C44.28636182 17.04073002 38.34231662 17.03991299 32.39814758 17.05311584 C26.81008974 17.06466048 21.22239508 17.05667368 15.63437653 17.03353882 C13.58208062 17.02824435 11.52975422 17.02977806 9.4774704 17.03858948 C6.67866285 17.04949925 3.88102349 17.03583655 1.08229065 17.01586914 C-0.13974154 17.02925347 -0.13974154 17.02925347 -1.38646126 17.04290819 C-5.1762966 16.99036165 -7.38187427 16.65248572 -10.61354065 14.60118866 C-12.60960388 12.50793457 -12.60960388 12.50793457 -13.23851013 10.50793457 C-13.21659607 9.84793457 -13.19468201 9.18793457 -13.17210388 8.50793457 C-13.17339294 7.84793457 -13.17468201 7.18793457 -13.17601013 6.50793457 C-11.29841598 -0.12191513 -5.90913627 -0.0641839 0 0 Z " fill="#000000" transform="translate(57.60960388183594,424.4920654296875)"/>
<path d="M0 0 C1.80845398 -0.00361794 1.80845398 -0.00361794 3.65344238 -0.00730896 C6.20210052 -0.00632959 8.75077969 0.00708496 11.29931641 0.03198242 C15.20418441 0.06627832 19.10678907 0.05264655 23.01171875 0.03320312 C25.48698882 0.04010157 27.96225303 0.04977393 30.4375 0.0625 C31.6073645 0.05754013 32.777229 0.05258026 33.98254395 0.04747009 C35.61443665 0.07122459 35.61443665 0.07122459 37.27929688 0.09545898 C38.2354187 0.10165756 39.19154053 0.10785614 40.17663574 0.11424255 C43.48503175 0.78404381 44.67872867 1.9814208 46.71875 4.62890625 C47.12873135 7.4689418 47.30382485 9.91491498 47.28515625 12.75390625 C47.29445412 13.92977295 47.29445412 13.92977295 47.30393982 15.12939453 C47.31103026 16.78351603 47.30787739 18.43770902 47.29516602 20.09179688 C47.28129267 22.62112774 47.31538353 25.14676247 47.35351562 27.67578125 C47.35446682 29.28515715 47.35260799 30.89453768 47.34765625 32.50390625 C47.36091446 33.25816895 47.37417267 34.01243164 47.38783264 34.78955078 C47.32673525 38.23869379 46.95837229 40.30010561 44.91210938 43.10791016 C40.00638684 45.4445043 35.36196628 45.16000516 29.99609375 45.08984375 C28.85846085 45.08892731 27.72082794 45.08801086 26.54872131 45.08706665 C24.14726582 45.08103235 21.7458178 45.06529167 19.34448242 45.04052734 C15.66622228 45.00400527 11.98896947 44.9995082 8.31054688 45 C5.97655378 44.9901692 3.64256752 44.97851237 1.30859375 44.96484375 C0.20748764 44.9626181 -0.89361847 44.96039246 -2.02809143 44.95809937 C-3.05272995 44.94533966 -4.07736847 44.93257996 -5.13305664 44.91943359 C-6.03286758 44.91181 -6.93267853 44.9041864 -7.85975647 44.89633179 C-10.45246658 44.60999739 -12.07285282 43.99494868 -14.28125 42.62890625 C-16.83400875 39.1800957 -16.60379339 35.3207293 -16.6171875 31.1953125 C-16.6238443 30.48036118 -16.6305011 29.76540985 -16.63735962 29.02879333 C-16.6474617 27.52011682 -16.6521774 26.01139585 -16.65185547 24.50268555 C-16.65622946 22.20220955 -16.69257198 19.90365255 -16.73046875 17.60351562 C-16.73633747 16.13412111 -16.7403065 14.66471753 -16.7421875 13.1953125 C-16.75655853 12.51183243 -16.77092957 11.82835236 -16.78573608 11.12416077 C-16.75575501 7.96979319 -16.26623467 5.59398092 -15.02001953 2.6953125 C-10.46862031 -0.73872592 -5.54104853 -0.06279734 0 0 Z M-0.28125 16.62890625 C-0.28125 20.58890625 -0.28125 24.54890625 -0.28125 28.62890625 C9.94875 28.62890625 20.17875 28.62890625 30.71875 28.62890625 C30.71875 24.66890625 30.71875 20.70890625 30.71875 16.62890625 C20.48875 16.62890625 10.25875 16.62890625 -0.28125 16.62890625 Z " fill="#000000" transform="translate(347.28125,310.37109375)"/>
<path d="M0 0 C1.08815506 -0.01283524 2.17631012 -0.02567047 3.29743958 -0.03889465 C4.48278793 -0.04628159 5.66813629 -0.05366852 6.8894043 -0.0612793 C8.09928513 -0.06935104 9.30916595 -0.07742279 10.55570984 -0.08573914 C13.12224892 -0.09960025 15.68880659 -0.11031328 18.25537109 -0.11816406 C22.18647092 -0.13537914 26.11673067 -0.17924922 30.04760742 -0.22338867 C32.53653351 -0.23351469 35.02546676 -0.24203107 37.5144043 -0.2487793 C38.69367996 -0.26628738 39.87295563 -0.28379547 41.08796692 -0.30183411 C42.73438423 -0.29744576 42.73438423 -0.29744576 44.4140625 -0.29296875 C45.37923294 -0.29883499 46.34440338 -0.30470123 47.33882141 -0.31074524 C50.67681737 0.32465933 51.85304432 1.50957454 53.90112305 4.17700195 C54.31110439 7.0170375 54.48619789 9.46301068 54.4675293 12.30200195 C54.47682716 13.47786865 54.47682716 13.47786865 54.48631287 14.67749023 C54.49340331 16.33161174 54.49025044 17.98580472 54.47753906 19.63989258 C54.46366571 22.16922344 54.49775658 24.69485817 54.53588867 27.22387695 C54.53683986 28.83325286 54.53498104 30.44263339 54.5300293 32.05200195 C54.54328751 32.80626465 54.55654572 33.56052734 54.57020569 34.33764648 C54.5091083 37.78678949 54.14074534 39.84820131 52.09448242 42.65600586 C47.18875988 44.9926 42.54433933 44.70810086 37.1784668 44.63793945 C36.04083389 44.63702301 34.90320099 44.63610657 33.73109436 44.63516235 C31.32963887 44.62912805 28.92819085 44.61338737 26.52685547 44.58862305 C22.84859533 44.55210097 19.17134251 44.5476039 15.49291992 44.5480957 C13.15892683 44.53826491 10.82494057 44.52660807 8.4909668 44.51293945 C7.38986069 44.51071381 6.28875458 44.50848816 5.15428162 44.50619507 C4.1296431 44.49343536 3.10500458 44.48067566 2.04931641 44.4675293 C1.14950546 44.4599057 0.24969452 44.4522821 -0.67738342 44.44442749 C-3.27036451 44.15806317 -4.89062071 43.54392539 -7.09887695 42.17700195 C-10.67836972 37.30994229 -9.43175025 30.26150722 -9.41455078 24.47802734 C-9.41139217 22.2502341 -9.43486035 20.02377167 -9.46020508 17.79614258 C-9.46247849 16.37231612 -9.46318137 14.94848611 -9.4621582 13.5246582 C-9.46513916 12.23567627 -9.46812012 10.94669434 -9.47119141 9.61865234 C-8.73572398 2.82003966 -6.52858846 0.06675309 0 0 Z M6.90112305 16.17700195 C6.90112305 20.13700195 6.90112305 24.09700195 6.90112305 28.17700195 C17.13112305 28.17700195 27.36112305 28.17700195 37.90112305 28.17700195 C37.90112305 24.21700195 37.90112305 20.25700195 37.90112305 16.17700195 C27.67112305 16.17700195 17.44112305 16.17700195 6.90112305 16.17700195 Z " fill="#000000" transform="translate(417.098876953125,310.822998046875)"/>
<path d="M0 0 C1.06805878 -0.01283524 2.13611755 -0.02567047 3.23654175 -0.03889465 C4.97401169 -0.04997505 4.97401169 -0.04997505 6.74658203 -0.0612793 C8.52598679 -0.07338692 8.52598679 -0.07338692 10.34133911 -0.08573914 C12.85482314 -0.09958762 15.36832604 -0.11030634 17.88183594 -0.11816406 C21.73164303 -0.13539621 25.58059592 -0.17927942 29.43017578 -0.22338867 C31.86897153 -0.23351352 34.3077746 -0.24203027 36.74658203 -0.2487793 C37.90084686 -0.26628738 39.05511169 -0.28379547 40.24435425 -0.30183411 C41.31871735 -0.29890854 42.39308044 -0.29598297 43.5 -0.29296875 C44.44438934 -0.29883499 45.38877869 -0.30470123 46.36178589 -0.31074524 C49.66697784 0.32958387 50.84554853 1.53861419 52.87939453 4.17700195 C53.28937588 7.0170375 53.46446938 9.46301068 53.44580078 12.30200195 C53.45509865 13.47786865 53.45509865 13.47786865 53.46458435 14.67749023 C53.4716748 16.33161174 53.46852192 17.98580472 53.45581055 19.63989258 C53.4419372 22.16922344 53.47602806 24.69485817 53.51416016 27.22387695 C53.51511135 28.83325286 53.51325253 30.44263339 53.50830078 32.05200195 C53.52155899 32.80626465 53.5348172 33.56052734 53.54847717 34.33764648 C53.4875503 37.77716329 53.11772837 39.84776763 51.08642578 42.65380859 C46.11920852 45.01300991 41.36915923 44.72752574 35.93798828 44.6730957 C34.77815933 44.67455093 33.61833038 44.67600616 32.4233551 44.67750549 C29.9748381 44.67584748 27.52631057 44.66429728 25.07788086 44.64355469 C21.32702474 44.61458021 17.57758024 44.62295291 13.82666016 44.63598633 C11.44709599 44.62974948 9.06753628 44.62135896 6.68798828 44.6105957 C5.56500839 44.61353134 4.4420285 44.61646698 3.28501892 44.61949158 C2.24035965 44.6068074 1.19570038 44.59412323 0.11938477 44.58105469 C-0.79819107 44.5756517 -1.71576691 44.57024872 -2.66114807 44.56468201 C-5.61274695 44.09942653 -6.9752211 43.23242376 -9.12060547 41.17700195 C-10.8921287 35.86243224 -10.34620836 30.11952583 -10.36083984 24.5534668 C-10.37054075 22.31692242 -10.40157319 20.08129934 -10.43310547 17.8449707 C-10.43963663 16.41659072 -10.44488666 14.98820419 -10.44873047 13.55981445 C-10.45807617 12.26446777 -10.46742188 10.96912109 -10.47705078 9.63452148 C-10.09839151 5.96152651 -9.34405826 4.08860188 -7.12060547 1.17700195 C-4.59843078 -0.08408539 -2.82320056 0.02947839 0 0 Z M5.87939453 16.17700195 C5.87939453 20.13700195 5.87939453 24.09700195 5.87939453 28.17700195 C16.10939453 28.17700195 26.33939453 28.17700195 36.87939453 28.17700195 C36.87939453 24.21700195 36.87939453 20.25700195 36.87939453 16.17700195 C26.64939453 16.17700195 16.41939453 16.17700195 5.87939453 16.17700195 Z " fill="#000000" transform="translate(341.12060546875,368.822998046875)"/>
<path d="M0 0 C1.06805878 -0.01283524 2.13611755 -0.02567047 3.23654175 -0.03889465 C4.97401169 -0.04997505 4.97401169 -0.04997505 6.74658203 -0.0612793 C8.52598679 -0.07338692 8.52598679 -0.07338692 10.34133911 -0.08573914 C12.85482314 -0.09958762 15.36832604 -0.11030634 17.88183594 -0.11816406 C21.73164303 -0.13539621 25.58059592 -0.17927942 29.43017578 -0.22338867 C31.86897153 -0.23351352 34.3077746 -0.24203027 36.74658203 -0.2487793 C37.90084686 -0.26628738 39.05511169 -0.28379547 40.24435425 -0.30183411 C41.31871735 -0.29890854 42.39308044 -0.29598297 43.5 -0.29296875 C44.44438934 -0.29883499 45.38877869 -0.30470123 46.36178589 -0.31074524 C49.66697784 0.32958387 50.84554853 1.53861419 52.87939453 4.17700195 C53.28937588 7.0170375 53.46446938 9.46301068 53.44580078 12.30200195 C53.45509865 13.47786865 53.45509865 13.47786865 53.46458435 14.67749023 C53.4716748 16.33161174 53.46852192 17.98580472 53.45581055 19.63989258 C53.4419372 22.16922344 53.47602806 24.69485817 53.51416016 27.22387695 C53.51511135 28.83325286 53.51325253 30.44263339 53.50830078 32.05200195 C53.52155899 32.80626465 53.5348172 33.56052734 53.54847717 34.33764648 C53.48756036 37.77659516 53.11863269 39.8468116 51.08642578 42.65161133 C46.12183454 45.01296684 41.3687386 44.74747953 35.93798828 44.70825195 C34.77815933 44.71207886 33.61833038 44.71590576 32.4233551 44.71984863 C29.97485484 44.72256735 27.52632552 44.71520914 25.07788086 44.69848633 C21.32681715 44.67705864 17.57766471 44.69830136 13.82666016 44.72387695 C11.44709863 44.72123405 9.0675383 44.71610986 6.68798828 44.70825195 C5.00351845 44.72039734 5.00351845 44.72039734 3.28501892 44.73278809 C1.71803001 44.71387512 1.71803001 44.71387512 0.11938477 44.69458008 C-0.79819107 44.69139771 -1.71576691 44.68821533 -2.66114807 44.68493652 C-5.87121406 44.021984 -7.05796069 42.66483763 -9.12060547 40.17700195 C-11.35729188 35.70362914 -10.34783207 29.60492166 -10.36083984 24.62890625 C-10.37052358 22.3834905 -10.40153504 20.13899883 -10.43310547 17.89379883 C-10.43963799 16.46086154 -10.44488749 15.02791772 -10.44873047 13.5949707 C-10.45807617 12.29325928 -10.46742188 10.99154785 -10.47705078 9.65039062 C-10.09915032 5.96793181 -9.35093794 4.09455646 -7.12060547 1.17700195 C-4.59843078 -0.08408539 -2.82320056 0.02947839 0 0 Z M5.87939453 16.17700195 C5.87939453 20.13700195 5.87939453 24.09700195 5.87939453 28.17700195 C16.10939453 28.17700195 26.33939453 28.17700195 36.87939453 28.17700195 C36.87939453 24.21700195 36.87939453 20.25700195 36.87939453 16.17700195 C26.64939453 16.17700195 16.41939453 16.17700195 5.87939453 16.17700195 Z " fill="#000000" transform="translate(418.12060546875,368.822998046875)"/>
<path d="M0 0 C2.08297121 0.00315859 4.16451878 -0.02031136 6.24731445 -0.0456543 C7.56666992 -0.04629883 8.88602539 -0.04694336 10.24536133 -0.04760742 C11.4505542 -0.05058838 12.65574707 -0.05356934 13.89746094 -0.05664062 C17.44230272 0.3484462 19.32311986 1.18561467 22.15551758 3.31567383 C23.64027328 6.28518522 23.3593614 9.33058442 23.39379883 12.58911133 C23.40187057 13.30926422 23.40994232 14.02941711 23.41825867 14.77139282 C23.43209372 16.29621985 23.44281848 17.82107776 23.45068359 19.34594727 C23.46790167 21.67499584 23.51178962 24.00262633 23.5559082 26.33129883 C23.56603502 27.81305923 23.57455116 29.29483169 23.58129883 30.77661133 C23.59880692 31.47152679 23.616315 32.16644226 23.63435364 32.88241577 C23.62013323 36.0609836 23.32491817 38.04880035 21.609375 40.75146484 C18.27678517 42.87582093 15.30140123 42.90883965 11.46801758 42.88208008 C10.72849854 42.88827866 9.98897949 42.89447723 9.22705078 42.90086365 C7.66708693 42.90795196 6.10704728 42.9048049 4.54711914 42.89208984 C2.1625641 42.87821483 -0.21807082 42.91230958 -2.60229492 42.95043945 C-4.12052505 42.95139065 -5.63876007 42.94953179 -7.15698242 42.94458008 C-8.22275513 42.96446739 -8.22275513 42.96446739 -9.31005859 42.98475647 C-12.85992962 42.91810266 -14.56898428 42.55095286 -17.29614258 40.22192383 C-19.20659445 36.63598578 -19.33213894 34.24150997 -19.30541992 30.18676758 C-19.30450348 29.51525162 -19.30358704 28.84373566 -19.30264282 28.15187073 C-19.29662668 26.73903286 -19.2809403 25.32620657 -19.25610352 23.91357422 C-19.21953223 21.75611191 -19.21508494 19.60036736 -19.21557617 17.44262695 C-19.12998927 5.45427313 -19.12998927 5.45427313 -16.84448242 2.31567383 C-12.09941709 -1.11801314 -5.57855192 -0.01773889 0 0 Z M-2.84448242 16.31567383 C-2.84448242 19.61567383 -2.84448242 22.91567383 -2.84448242 26.31567383 C0.45551758 26.31567383 3.75551758 26.31567383 7.15551758 26.31567383 C7.15551758 23.01567383 7.15551758 19.71567383 7.15551758 16.31567383 C3.85551758 16.31567383 0.55551758 16.31567383 -2.84448242 16.31567383 Z " fill="#000000" transform="translate(245.844482421875,365.684326171875)"/>
<path d="M0 0 C2.08297121 0.00315859 4.16451878 -0.02031136 6.24731445 -0.0456543 C7.56666992 -0.04629883 8.88602539 -0.04694336 10.24536133 -0.04760742 C11.4505542 -0.05058838 12.65574707 -0.05356934 13.89746094 -0.05664062 C17.44230272 0.3484462 19.32311986 1.18561467 22.15551758 3.31567383 C23.64027328 6.28518522 23.3593614 9.33058442 23.39379883 12.58911133 C23.40187057 13.30926422 23.40994232 14.02941711 23.41825867 14.77139282 C23.43209372 16.29621985 23.44281848 17.82107776 23.45068359 19.34594727 C23.46790167 21.67499584 23.51178962 24.00262633 23.5559082 26.33129883 C23.56603502 27.81305923 23.57455116 29.29483169 23.58129883 30.77661133 C23.59880692 31.47152679 23.616315 32.16644226 23.63435364 32.88241577 C23.62013323 36.0609836 23.32491817 38.04880035 21.609375 40.75146484 C18.27678517 42.87582093 15.30140123 42.90883965 11.46801758 42.88208008 C10.72849854 42.88827866 9.98897949 42.89447723 9.22705078 42.90086365 C7.66708693 42.90795196 6.10704728 42.9048049 4.54711914 42.89208984 C2.1625641 42.87821483 -0.21807082 42.91230958 -2.60229492 42.95043945 C-4.12052505 42.95139065 -5.63876007 42.94953179 -7.15698242 42.94458008 C-8.22275513 42.96446739 -8.22275513 42.96446739 -9.31005859 42.98475647 C-12.85992962 42.91810266 -14.56898428 42.55095286 -17.29614258 40.22192383 C-19.20659445 36.63598578 -19.33213894 34.24150997 -19.30541992 30.18676758 C-19.30450348 29.51525162 -19.30358704 28.84373566 -19.30264282 28.15187073 C-19.29662668 26.73903286 -19.2809403 25.32620657 -19.25610352 23.91357422 C-19.21953223 21.75611191 -19.21508494 19.60036736 -19.21557617 17.44262695 C-19.12998927 5.45427313 -19.12998927 5.45427313 -16.84448242 2.31567383 C-12.09941709 -1.11801314 -5.57855192 -0.01773889 0 0 Z M-2.84448242 16.31567383 C-2.84448242 19.61567383 -2.84448242 22.91567383 -2.84448242 26.31567383 C0.45551758 26.31567383 3.75551758 26.31567383 7.15551758 26.31567383 C7.15551758 23.01567383 7.15551758 19.71567383 7.15551758 16.31567383 C3.85551758 16.31567383 0.55551758 16.31567383 -2.84448242 16.31567383 Z " fill="#000000" transform="translate(138.844482421875,365.684326171875)"/>
<path d="M0 0 C1.40049334 -0.01152736 2.80094248 -0.03199168 4.20117188 -0.06152344 C6.22963161 -0.10429073 8.25678943 -0.12037863 10.28564453 -0.13061523 C11.49720215 -0.14519775 12.70875977 -0.15978027 13.95703125 -0.17480469 C17.84404433 0.38317445 19.46368804 1.5669397 22.23095703 4.29516602 C24.36835026 8.56995248 23.45793532 14.24253821 23.47119141 18.98876953 C23.48087264 21.08935513 23.51188388 23.18895176 23.54345703 25.28930664 C23.54998989 26.63109772 23.55523925 27.97289578 23.55908203 29.31469727 C23.57310059 31.14158081 23.57310059 31.14158081 23.58740234 33.00537109 C23.20028936 36.57821182 22.38054486 38.44660235 20.23095703 41.29516602 C17.26144564 42.77992171 14.21604644 42.49900984 10.95751953 42.53344727 C10.23736664 42.54151901 9.51721375 42.54959076 8.77523804 42.5579071 C7.25041101 42.57174216 5.7255531 42.58246691 4.20068359 42.59033203 C1.87163502 42.60755011 -0.45599547 42.65143806 -2.78466797 42.69555664 C-4.26642837 42.70568346 -5.74820083 42.7141996 -7.22998047 42.72094727 C-7.92489594 42.73845535 -8.6198114 42.75596344 -9.33578491 42.77400208 C-12.52440694 42.75973668 -14.50304267 42.46519862 -17.20922852 40.73535156 C-19.30389902 37.45843316 -19.32661096 34.59477856 -19.26513672 30.82641602 C-19.26659195 30.10909302 -19.26804718 29.39177002 -19.26954651 28.65270996 C-19.26789038 27.13976978 -19.25636087 25.62681225 -19.2355957 24.11401367 C-19.20663578 21.80257367 -19.2149914 19.49342826 -19.22802734 17.18188477 C-19.22178943 15.70921741 -19.21339807 14.23655727 -19.20263672 12.76391602 C-19.20557236 12.07527466 -19.208508 11.3866333 -19.21153259 10.67712402 C-19.15222853 7.64990953 -18.91447669 5.55618868 -17.42944336 2.89086914 C-13.04900179 -1.31888914 -5.71111037 0.03276099 0 0 Z M-2.76904297 16.29516602 C-2.76904297 19.59516602 -2.76904297 22.89516602 -2.76904297 26.29516602 C0.53095703 26.29516602 3.83095703 26.29516602 7.23095703 26.29516602 C7.23095703 22.99516602 7.23095703 19.69516602 7.23095703 16.29516602 C3.93095703 16.29516602 0.63095703 16.29516602 -2.76904297 16.29516602 Z " fill="#000000" transform="translate(192.76904296875,365.704833984375)"/>
</svg>
