<?xml version="1.0" encoding="UTF-8"?>
<svg version="1.1" xmlns="http://www.w3.org/2000/svg" width="512" height="512">
<path d="M0 0 C6.87636279 1.78195093 13.95670283 -1.81219754 20.34765625 -4.109375 C44.2918136 -11.90181694 71.32774671 -8.49401075 93.5546875 2.63623047 C104.25997967 8.26640081 113.50655275 15.55709762 122.45703125 23.63671875 C123.1840625 24.2915625 123.91109375 24.94640625 124.66015625 25.62109375 C135.49543125 35.92781875 144.96800467 49.10083717 151.86328125 62.3359375 C153.86836241 65.23052771 155.8455879 66.26549301 158.95703125 67.88671875 C165.43641175 71.49331368 170.8723064 75.785092 176.45703125 80.63671875 C177.28976562 81.32378906 178.1225 82.01085937 178.98046875 82.71875 C208.05656668 107.43801938 221.7221655 146.51953317 224.921875 183.51953125 C225.21422342 187.55809066 225.35746159 191.58899567 225.45703125 195.63671875 C225.49699219 196.60480469 225.53695313 197.57289063 225.578125 198.5703125 C226.30522546 228.72359626 220.21487639 261.80126849 198.86328125 284.359375 C182.84268553 299.52172452 163.93734373 305.32376645 142.32128906 305.10498047 C121.44806716 304.47356055 103.79534463 296.7285471 89.45703125 281.63671875 C88.07099262 280.06303951 86.69497607 278.48044108 85.33203125 276.88671875 C79.8345537 270.49590109 73.02528267 266.23163818 65.45703125 262.63671875 C63.07577213 260.25545963 63.11181484 259.52964337 63.01953125 256.26171875 C63.11911071 252.83175954 63.28899226 251.86438448 65.39453125 249.01171875 C69.76256506 247.05056071 72.89397331 247.37459634 77.45703125 248.63671875 C87.29079231 252.51166838 94.62520843 260.47835879 101.45703125 268.26171875 C110.50787602 278.34010889 122.74767371 285.87496006 136.58862305 286.77539062 C153.56526521 287.46329111 169.28077823 285.85005391 182.92578125 274.6015625 C196.68000078 261.60382504 202.15562523 243.73619176 205.45703125 225.63671875 C205.45703125 224.97671875 205.45703125 224.31671875 205.45703125 223.63671875 C204.85375 223.91386719 204.25046875 224.19101563 203.62890625 224.4765625 C202.8296875 224.83878906 202.03046875 225.20101562 201.20703125 225.57421875 C200.418125 225.93386719 199.62921875 226.29351562 198.81640625 226.6640625 C187.70131106 231.24627889 173.59181345 229.32607942 162.4375 225.90234375 C158.80081456 224.35806317 155.27786288 222.45755038 152.45703125 219.63671875 C151.93230161 215.395871 151.769439 211.8113555 153.95703125 208.07421875 C157.52117716 206.02483485 160.50722146 205.94283325 164.45703125 206.63671875 C166.15770602 207.26902091 167.84468691 207.93886694 169.51953125 208.63671875 C177.33752225 211.68551747 187.08626897 212.56011826 194.95703125 209.13671875 C199.70913511 206.24594222 203.96950139 201.61177848 206.45703125 196.63671875 C208.69654545 167.11918728 198.52206904 132.46263314 179.45703125 109.63671875 C178.81765625 108.83621094 178.17828125 108.03570312 177.51953125 107.2109375 C170.89853669 99.34850646 161.76817516 90.29229071 152.45703125 85.63671875 C152.05613281 86.54292969 151.65523438 87.44914062 151.2421875 88.3828125 C145.26787029 101.39426345 137.97939253 109.1192961 124.45703125 114.63671875 C119.05048022 116.6191208 113.94220144 116.87467918 108.20703125 117.01171875 C107.50868164 117.0379834 106.81033203 117.06424805 106.09082031 117.09130859 C102.69600069 117.10195323 100.78394764 116.8730564 98.00390625 114.86328125 C96.37525285 112.51900742 95.91305729 111.45105235 95.95703125 108.63671875 C95.9415625 107.64671875 95.9415625 107.64671875 95.92578125 106.63671875 C96.73931998 103.57398469 97.89623769 102.51357365 100.45703125 100.63671875 C103.33636292 99.82597526 106.24005066 99.48092728 109.20703125 99.13671875 C116.85319548 98.23192265 124.57294641 96.65752807 129.76953125 90.44921875 C133.81156843 85.25862455 135.74768297 79.59897652 135.76953125 73.01171875 C133.95733629 60.44326982 121.62251855 48.73212894 113.45703125 39.63671875 C112.60431641 38.65832031 112.60431641 38.65832031 111.734375 37.66015625 C98.56158333 23.44297444 78.0902515 11.75532713 58.61816406 10.44580078 C47.99928288 10.04151162 37.82836767 10.15968389 27.45703125 12.63671875 C27.41093214 15.70375453 27.41093214 15.70375453 27.76953125 19.01171875 C27.45703125 22.63671875 27.45703125 22.63671875 25.51953125 25.63671875 C21.73021357 28.11137519 20.1720071 27.78987718 15.8581543 27.19335938 C11.9412605 26.28532502 8.76667856 24.42150505 5.33203125 22.38671875 C-14.48355123 11.2911353 -38.16795643 6.75146552 -60.54296875 12.13671875 C-73.58132568 16.2978965 -85.04681817 22.88504013 -95.54296875 31.63671875 C-96.4659375 32.39597656 -97.38890625 33.15523437 -98.33984375 33.9375 C-105.82522555 40.3973422 -111.72683873 47.70320603 -117.54296875 55.63671875 C-118.15760986 56.45438721 -118.15760986 56.45438721 -118.78466797 57.28857422 C-125.35528339 66.07550919 -125.35528339 66.07550919 -126.54296875 76.63671875 C-125.41324024 83.41508979 -123.0400949 89.29517708 -117.54296875 93.63671875 C-111.2210033 97.54740392 -105.17691618 98.57011701 -97.90234375 99.4140625 C-94.25552616 99.91303585 -92.04391306 100.26956702 -89.02734375 102.48046875 C-87.44355053 104.78113679 -86.99983132 105.87592298 -87.04296875 108.63671875 C-87.0275 109.62671875 -87.0275 109.62671875 -87.01171875 110.63671875 C-87.82059758 113.68190962 -88.99257148 114.79364243 -91.54296875 116.63671875 C-94.35445312 117.04566193 -96.67911604 117.2081739 -99.48046875 117.13671875 C-100.61174194 117.11859131 -100.61174194 117.11859131 -101.76586914 117.10009766 C-113.32852609 116.69653586 -125.31021594 112.9893322 -133.57421875 104.56640625 C-138.36713606 98.73773139 -142.54296875 92.32907554 -142.54296875 84.63671875 C-150.42581371 89.35448202 -156.99200441 95.26572596 -163.54296875 101.63671875 C-164.25453125 102.3225 -164.96609375 103.00828125 -165.69921875 103.71484375 C-187.7917875 126.71284565 -197.51606255 162.30156962 -198.0390625 193.4375 C-197.16756362 199.05763844 -193.73067304 203.09035075 -189.296875 206.53515625 C-182.99349386 210.49407269 -175.85153056 211.62576914 -168.54296875 210.63671875 C-165.19140649 209.70393455 -161.90513403 208.63248586 -158.6015625 207.54296875 C-154.54826538 206.34199183 -151.72864509 206.0278931 -147.54296875 206.63671875 C-145.04296875 208.07421875 -145.04296875 208.07421875 -143.54296875 210.63671875 C-142.9395717 213.76863677 -142.90677517 216.50780303 -143.54296875 219.63671875 C-147.93411489 225.23921555 -157.66314961 227.63158205 -164.54296875 228.63671875 C-175.51751302 229.29208906 -186.05644868 229.2174817 -196.54296875 225.63671875 C-194.46130857 236.10316658 -192.26084178 245.9832247 -187.54296875 255.63671875 C-186.99189453 256.81427734 -186.99189453 256.81427734 -186.4296875 258.015625 C-179.48952799 271.72899861 -168.60579978 279.41399558 -154.55859375 284.65625 C-140.0737356 289.36570517 -122.23984328 287.9632661 -108.6796875 281.2109375 C-102.406498 277.61430885 -97.02675426 273.47915393 -92.41796875 267.88671875 C-85.14675288 259.41695082 -72.86313485 249.37446747 -61.37109375 248.35546875 C-58.54296875 248.63671875 -58.54296875 248.63671875 -55.66796875 250.69921875 C-53.54296875 253.63671875 -53.54296875 253.63671875 -52.91796875 257.13671875 C-53.53107389 260.57010751 -54.12048951 262.1212284 -56.73828125 264.40625 C-58.97973961 265.93451707 -61.32066766 267.14085841 -63.73046875 268.38671875 C-70.9015562 272.15490411 -76.38456314 277.30800696 -81.93359375 283.15625 C-96.23479865 298.17251515 -114.14660365 304.76878832 -134.54296875 305.63671875 C-156.04176095 305.82205317 -175.49854694 298.35825883 -190.91015625 283.328125 C-212.68123933 260.42084061 -216.50062289 226.85472176 -216.54296875 196.63671875 C-215.54933807 158.81323864 -205.51277246 122.78398012 -180.54296875 93.63671875 C-179.84429687 92.80398437 -179.145625 91.97125 -178.42578125 91.11328125 C-170.52664418 81.97726863 -161.4632393 74.94873212 -151.22583008 68.64233398 C-145.35862909 65.01304273 -142.55827398 61.19135651 -139.04296875 55.32421875 C-120.36756961 24.9805537 -94.45669342 2.35579469 -59.54296875 -6.36328125 C-40.44249181 -10.76102641 -17.81922239 -7.94920535 0 0 Z " fill="#000000" transform="translate(251.54296875,7.36328125)"/>
<path d="M0 0 C3.40752515 0.20770746 4.31015316 0.47219644 7.0625 2.6875 C10.07366862 8.84075762 8.1234841 14.59493421 6.1875 20.75 C-4.20304066 56.66905596 -5.79809097 114.04442523 12.5 147.625 C14.57492494 150.90763766 16.87322544 153.76844794 19.5 156.625 C20.45712891 157.69814453 20.45712891 157.69814453 21.43359375 158.79296875 C33.6317607 171.07811015 51.48932706 177.15558415 67.16455078 183.63574219 C97.40171393 196.25450751 121.52347699 217.06570644 136.5625 246.4375 C142.80798147 258.16086187 151.65946422 265.07318374 164.1328125 269.265625 C169.77212433 270.89928727 175.09945474 271.03512617 180.9375 270.9375 C181.89720703 270.94072266 182.85691406 270.94394531 183.84570312 270.94726562 C189.77805203 270.9033223 195.35758789 270.27039003 201.1706543 269.08813477 C205.58476262 268.21049474 208.3136949 268.03184745 212.375 270.0625 C215.06476372 273.3060386 215.09391274 275.30950374 215.1640625 279.40625 C214.16806803 282.73404328 212.37967779 283.77377856 209.5 285.625 C191.26021442 292.39544673 166.64655701 290.75517471 149.1015625 283.15234375 C133.1540123 275.29008998 124.79139579 263.19305592 116.48754883 248.21264648 C101.8932901 221.97906053 78.77100548 209.77261791 52.5 197.625 C25.9155655 185.31151522 2.8698912 173.34719608 -8.5 144.625 C-12.44105649 133.58737894 -14.09083887 122.20554971 -15.5 110.625 C-15.60586426 109.77921387 -15.71172852 108.93342773 -15.82080078 108.06201172 C-19.49903156 77.42951924 -19.05512502 45.98228834 -11.5625 16 C-11.20164307 14.54920044 -11.20164307 14.54920044 -10.83349609 13.0690918 C-7.28137182 -0.12468102 -7.28137182 -0.12468102 0 0 Z " fill="#000000" transform="translate(297.5,223.375)"/>
<path d="M0 0 C3.48632554 1.04524844 4.85752335 2.77228877 7.09765625 5.62890625 C8.49789517 9.00471677 9.37063279 12.45479395 10.22265625 16.00390625 C10.47418457 17.02846924 10.72571289 18.05303223 10.98486328 19.10864258 C18.62839841 51.45372529 17.47329355 84.87089601 13.09765625 117.62890625 C12.92145752 118.96018555 12.92145752 118.96018555 12.74169922 120.31835938 C9.55054508 143.33926174 1.22159271 163.38891991 -17.33984375 178.19140625 C-28.95315537 186.48452078 -41.85985991 192.32772294 -55.02734375 197.69140625 C-84.65353394 209.76359244 -106.49226204 225.68145798 -121.46484375 254.37890625 C-127.93901311 266.64104269 -136.37259722 275.55640219 -148.65234375 281.87890625 C-149.59883789 282.37318115 -149.59883789 282.37318115 -150.56445312 282.87744141 C-160.73465835 287.86308614 -170.99725801 289.14178139 -182.21484375 289.00390625 C-183.39385254 288.99520508 -184.57286133 288.98650391 -185.78759766 288.97753906 C-208.99335949 288.58795561 -208.99335949 288.58795561 -215.90234375 281.62890625 C-216.82908477 278.53250096 -216.5873015 275.77165359 -215.90234375 272.62890625 C-214.08984375 270.00390625 -214.08984375 270.00390625 -210.90234375 268.62890625 C-206.26308975 268.55135033 -201.78572552 269.2522299 -197.24609375 270.16015625 C-181.88569764 272.31348281 -165.89414105 272.05714095 -152.58984375 263.44140625 C-144.55492749 257.27567891 -139.54758443 250.37145181 -134.96337891 241.42431641 C-118.03698004 208.59413823 -89.1090122 191.97666566 -56.2109375 178.2421875 C-36.65006258 170.07190732 -19.11513102 160.33971413 -10.21484375 140.00390625 C-6.6105184 129.91416653 -5.31810231 119.2054555 -3.90234375 108.62890625 C-3.7822998 107.74090332 -3.66225586 106.85290039 -3.53857422 105.93798828 C0.11476927 77.44626474 0.54077955 46.1610194 -8.27612305 18.609375 C-9.79348603 13.76867933 -10.23440446 9.71324563 -9.90234375 4.62890625 C-7.4168839 0.48647317 -4.70555012 0.1590345 0 0 Z " fill="#000000" transform="translate(215.90234375,223.37109375)"/>
<path d="M0 0 C2.73566483 3.39296501 3.00045074 5.25122325 3.30859375 9.55078125 C4.43193361 19.57685199 8.31206164 27.76427781 16.109375 34.39453125 C28.58479154 43.7898716 43.58750046 50.1669515 57.74609375 56.55078125 C70.63514611 62.37292931 82.63520143 68.40065769 93.30859375 77.86328125 C94.01628906 78.476875 94.72398437 79.09046875 95.453125 79.72265625 C104.83552165 88.40540956 110.46616964 99.59661599 111.62109375 112.30078125 C111.93314869 121.03831967 111.93314869 121.03831967 109.53125 124.2109375 C107.17955395 125.95921066 106.18909974 126.40828916 103.30859375 126.36328125 C102.31859375 126.37875 102.31859375 126.37875 101.30859375 126.39453125 C98.3315044 125.60374189 97.18062079 124.28777487 95.30859375 121.86328125 C94.4375 118.76171875 94.4375 118.76171875 93.87109375 115.23828125 C91.47949143 102.90937947 86.11135111 93.63472367 75.63598633 86.51098633 C65.4722407 79.90152884 54.57433279 74.7927548 43.55859375 69.7890625 C2.48338002 51.1107848 2.48338002 51.1107848 -7.69140625 33.86328125 C-7.69140625 33.20328125 -7.69140625 32.54328125 -7.69140625 31.86328125 C-8.35140625 31.86328125 -9.01140625 31.86328125 -9.69140625 31.86328125 C-10.06652344 32.95382812 -10.06652344 32.95382812 -10.44921875 34.06640625 C-19.63602943 54.75117494 -49.07069527 64.66759042 -68.0625 73.30078125 C-92.92458448 84.52038651 -92.92458448 84.52038651 -109.00390625 105.73828125 C-110.35259433 109.38030814 -111.09500768 112.90501866 -111.69140625 116.73828125 C-112.22497496 119.93517174 -112.62160468 121.7478402 -114.31640625 124.55078125 C-117.68053933 126.40990743 -120.94860995 126.85746152 -124.69140625 125.86328125 C-127.50489891 123.75811509 -128.55704759 122.56570042 -129.22265625 119.0859375 C-129.06806289 103.45268388 -123.86311391 91.18157248 -113.19140625 79.80078125 C-100.04766757 67.3622208 -83.92972611 60.37511682 -67.69140625 52.86328125 C-64.53392899 51.39845738 -61.37855821 49.92972346 -58.22851562 48.44897461 C-56.31610217 47.55005867 -54.39971328 46.65952661 -52.47851562 45.77954102 C-46.04610012 42.75888153 -40.38249183 39.10985421 -34.69140625 34.86328125 C-33.73621094 34.1671875 -32.78101563 33.47109375 -31.796875 32.75390625 C-25.14009574 26.77639018 -21.12232458 18.41544963 -20.5390625 9.546875 C-20.25051564 5.27497394 -20.07754442 3.36421726 -17.37890625 -0.13671875 C-11.84318514 -4.25632516 -5.46588489 -4.33938902 0 0 Z " fill="#000000" transform="translate(264.69140625,386.13671875)"/>
<path d="M0 0 C1.96453125 -0.05607422 1.96453125 -0.05607422 3.96875 -0.11328125 C7.5 0.3125 7.5 0.3125 9.9375 2.08203125 C11.58227538 4.42994811 12.04414058 5.48750295 12 8.3125 C12.0103125 8.9725 12.020625 9.6325 12.03125 10.3125 C11.22932799 13.33150052 9.99216994 14.44039148 7.5 16.3125 C4.87933445 16.95119772 2.46707555 17.40361703 -0.1875 17.75 C-9.01324596 19.17087545 -16.31823233 21.73805226 -22.09375 28.94140625 C-24.3774631 32.79200029 -25.91402108 36.94564789 -27.40893555 41.15771484 C-28.7102655 44.75290682 -29.21936931 46.12541287 -32.5 48.3125 C-39.31918819 48.96194649 -39.31918819 48.96194649 -43 46.9375 C-45.40812983 42.7232728 -45.23428674 39.04312605 -44.5 34.3125 C-40.85017081 21.5296881 -33.0211927 11.83654888 -21.5 5.3125 C-14.24375931 1.89289232 -8.04275606 0.15040587 0 0 Z " fill="#000000" transform="translate(268.5,135.6875)"/>
<path d="M0 0 C2.4803105 3.72046575 2.64179082 6.68848221 2 11 C-3.09844853 21.40933241 -13.62407348 26.18862764 -23.46484375 31.1796875 C-26.74094325 32.63929254 -26.74094325 32.63929254 -28 34 C-28.29358162 35.43302714 -28.56017203 36.87163653 -28.8125 38.3125 C-29.45841209 41.23072154 -30.00521276 43.00822012 -31.625 45.5625 C-35.079531 47.65340034 -38.06734549 47.7833008 -42 47 C-45.23331052 44.92736505 -45.86058291 43.50787654 -46.875 39.8125 C-47.10960251 32.65712357 -45.78627293 26.50421387 -41 21 C-35.69965178 16.54147179 -29.93260632 13.42240524 -23.6875 10.5 C-18.01982094 7.84653321 -15.24334177 5.33582033 -12 0 C-7.70087943 -2.8283688 -4.63657009 -1.83713154 0 0 Z " fill="#000000" transform="translate(238,465)"/>
<path d="M0 0 C0.70640625 1.08152344 1.4128125 2.16304688 2.140625 3.27734375 C5.27719583 7.9019732 9.42113676 9.7351045 14.375 12.0625 C30.77587515 19.91698162 30.77587515 19.91698162 34 29 C34.43359375 32.5078125 34.43359375 32.5078125 34.4375 36.125 C34.45683594 37.32382812 34.47617187 38.52265625 34.49609375 39.7578125 C34 43 34 43 32.22265625 45.3984375 C29.23600872 47.55050338 27.47185705 47.59028119 23.8984375 47.37109375 C22 47 22 47 19.625 45.5625 C17.96291079 42.94151316 17.69958776 41.5597517 17.25 38.5625 C16.74355785 35.95368456 16.44647493 34.44889485 14.55859375 32.55078125 C12.42758126 31.21166902 10.2656704 30.09808565 8 29 C-10.40654752 19.66071727 -10.40654752 19.66071727 -14 11 C-14.45803441 8.27309749 -14.46487895 5.72766324 -14 3 C-9.91810496 -2.48944506 -6.09635969 -2.5226316 0 0 Z " fill="#000000" transform="translate(282,465)"/>
</svg>
